<svg width="50" height="50" viewBox="0 0 50 50" fill="none" xmlns="http://www.w3.org/2000/svg">
<g clip-path="url(#clip0_192_786)">
<rect width="50" height="50" rx="25" fill="url(#paint0_radial_192_786)"/>
<path d="M24.6378 0C14.2005 0 11.148 0.0107701 10.5547 0.0600051C8.41277 0.238097 7.07995 0.575433 5.62791 1.29857C4.50889 1.85439 3.62637 2.49867 2.75538 3.40183C1.16914 5.04889 0.207778 7.07521 -0.140234 9.48388C-0.309433 10.6532 -0.358654 10.8917 -0.368652 16.8645C-0.372498 18.8554 -0.368652 21.4757 -0.368652 24.9902C-0.368652 35.4218 -0.357116 38.4721 -0.307125 39.0645C-0.134081 41.1492 0.192781 42.4609 0.884958 43.8956C2.20779 46.642 4.73423 48.7037 7.7106 49.473C8.74117 49.7384 9.87942 49.8846 11.3407 49.9538C11.9598 49.9808 18.2701 50 24.5843 50C30.8985 50 37.2127 49.9923 37.8165 49.9615C39.5085 49.8819 40.491 49.75 41.5773 49.4692C44.5729 48.696 47.0532 46.6651 48.4029 43.8802C49.0817 42.4801 49.4258 41.1185 49.5816 39.1425C49.6154 38.7117 49.6296 31.8431 49.6296 24.9837C49.6296 18.1231 49.6143 11.2671 49.5804 10.8363C49.4228 8.82844 49.0786 7.47832 48.3779 6.05128C47.8031 4.88311 47.1647 4.01072 46.238 3.11873C44.584 1.53859 42.5613 0.576972 40.151 0.22925C38.9832 0.0603897 38.7505 0.0103855 32.7747 0H24.6378Z" fill="url(#paint1_radial_192_786)"/>
<path d="M24.6309 11.1111C20.8589 11.1111 20.3855 11.1276 18.904 11.195C17.4254 11.2627 16.4161 11.4968 15.533 11.8403C14.6195 12.195 13.8446 12.6695 13.0726 13.4418C12.3001 14.2138 11.8255 14.9887 11.4696 15.9019C11.1253 16.7853 10.8909 17.7948 10.8243 19.2728C10.7581 20.7543 10.7407 21.228 10.7407 25C10.7407 28.772 10.7575 29.2439 10.8246 30.7254C10.8926 32.204 11.1267 33.2132 11.4699 34.0963C11.8249 35.0098 12.2995 35.7847 13.0718 36.5567C13.8435 37.3293 14.6184 37.805 15.5313 38.1597C16.415 38.5032 17.4245 38.7372 18.9028 38.8049C20.3843 38.8724 20.8574 38.8889 24.6292 38.8889C28.4015 38.8889 28.8734 38.8724 30.3549 38.8049C31.8335 38.7372 32.844 38.5032 33.7277 38.1597C34.6409 37.805 35.4146 37.3293 36.1863 36.5567C36.9589 35.7847 37.4334 35.0098 37.7893 34.0966C38.1308 33.2132 38.3651 32.2037 38.4346 30.7257C38.5011 29.2442 38.5185 28.772 38.5185 25C38.5185 21.228 38.5011 20.7546 38.4346 19.2731C38.3651 17.7945 38.1308 16.7853 37.7893 15.9022C37.4334 14.9887 36.9589 14.2138 36.1863 13.4418C35.4137 12.6692 34.6411 12.1947 33.7268 11.8403C32.8414 11.4968 31.8315 11.2627 30.3529 11.195C28.8714 11.1276 28.3998 11.1111 24.6266 11.1111H24.6309ZM23.385 13.614C23.7547 13.6134 24.1674 13.614 24.6309 13.614C28.3393 13.614 28.7788 13.6273 30.2432 13.6938C31.5974 13.7558 32.3324 13.982 32.822 14.1721C33.4701 14.4239 33.9322 14.7248 34.4181 15.2109C34.9042 15.697 35.2051 16.16 35.4574 16.8081C35.6475 17.2971 35.8741 18.0321 35.9357 19.3863C36.0023 20.8504 36.0167 21.2902 36.0167 24.9968C36.0167 28.7034 36.0023 29.1432 35.9357 30.6073C35.8738 31.9615 35.6475 32.6964 35.4574 33.1854C35.2057 33.8336 34.9042 34.2951 34.4181 34.7809C33.9319 35.267 33.4704 35.568 32.822 35.8197C32.333 36.0107 31.5974 36.2364 30.2432 36.2983C28.7791 36.3648 28.3393 36.3793 24.6309 36.3793C20.9223 36.3793 20.4827 36.3648 19.0186 36.2983C17.6644 36.2358 16.9294 36.0095 16.4396 35.8194C15.7914 35.5677 15.3284 35.2668 14.8423 34.7806C14.3562 34.2945 14.0553 33.8327 13.803 33.1843C13.6129 32.6953 13.3863 31.9603 13.3247 30.6062C13.2581 29.142 13.2448 28.7022 13.2448 24.9933C13.2448 21.2844 13.2581 20.8469 13.3247 19.3828C13.3866 18.0286 13.6129 17.2937 13.803 16.8041C14.0547 16.1559 14.3562 15.693 14.8423 15.2069C15.3284 14.7207 15.7914 14.4198 16.4396 14.1675C16.9292 13.9765 17.6644 13.7508 19.0186 13.6886C20.2999 13.6308 20.7964 13.6134 23.385 13.6105V13.614ZM32.0448 15.9201C31.1246 15.9201 30.3781 16.6658 30.3781 17.5862C30.3781 18.5063 31.1246 19.2529 32.0448 19.2529C32.9649 19.2529 33.7114 18.5063 33.7114 17.5862C33.7114 16.6661 32.9649 15.9195 32.0448 15.9195V15.9201ZM24.6309 17.8674C20.6919 17.8674 17.4983 21.061 17.4983 25C17.4983 28.9389 20.6919 32.131 24.6309 32.131C28.5699 32.131 31.7624 28.9389 31.7624 25C31.7624 21.061 28.5699 17.8674 24.6309 17.8674ZM24.6309 20.3703C27.1877 20.3703 29.2606 22.443 29.2606 25C29.2606 27.5567 27.1877 29.6296 24.6309 29.6296C22.0739 29.6296 20.0012 27.5567 20.0012 25C20.0012 22.443 22.0739 20.3703 24.6309 20.3703Z" fill="white"/>
</g>
<defs>
<radialGradient id="paint0_radial_192_786" cx="0" cy="0" r="1" gradientUnits="userSpaceOnUse" gradientTransform="translate(13.2813 53.851) rotate(-90) scale(49.5537 46.0888)">
<stop stop-color="#FFDD55"/>
<stop offset="0.1" stop-color="#FFDD55"/>
<stop offset="0.5" stop-color="#FF543E"/>
<stop offset="1" stop-color="#C837AB"/>
</radialGradient>
<radialGradient id="paint1_radial_192_786" cx="0" cy="0" r="1" gradientUnits="userSpaceOnUse" gradientTransform="translate(-8.74563 3.60192) rotate(78.6806) scale(22.1507 91.3062)">
<stop stop-color="#3771C8"/>
<stop offset="0.128" stop-color="#3771C8"/>
<stop offset="1" stop-color="#6600FF" stop-opacity="0"/>
</radialGradient>
<clipPath id="clip0_192_786">
<rect width="50" height="50" rx="25" fill="white"/>
</clipPath>
</defs>
</svg>
