<svg width="50" height="50" viewBox="0 0 50 50" fill="none" xmlns="http://www.w3.org/2000/svg">
<g clip-path="url(#clip0_192_816)">
<path d="M25 49.9998C38.8071 49.9998 50 38.8069 50 24.9998C50 11.1926 38.8071 -0.000244141 25 -0.000244141C11.1929 -0.000244141 0 11.1926 0 24.9998C0 38.8069 11.1929 49.9998 25 49.9998Z" fill="#2967BC"/>
<path d="M39.9379 27.0113V37.3183H33.9622V27.7021C33.9622 25.2876 33.0994 23.6387 30.9358 23.6387C29.2847 23.6387 28.3038 24.7488 27.8706 25.8237C27.7133 26.2078 27.6728 26.7413 27.6728 27.2801V37.3179H21.6966C21.6966 37.3179 21.7768 21.0312 21.6966 19.3453H27.6732V21.8922C27.6612 21.9122 27.6442 21.9318 27.6335 21.951H27.6732V21.8922C28.4674 20.6702 29.8836 18.9233 33.0589 18.9233C36.9904 18.9233 39.9379 21.492 39.9379 27.0113ZM15.4451 10.6819C13.4009 10.6819 12.0635 12.0237 12.0635 13.7867C12.0635 15.5123 13.3621 16.8929 15.3666 16.8929H15.4054C17.4897 16.8929 18.7856 15.5123 18.7856 13.7867C18.746 12.0237 17.4897 10.6819 15.4451 10.6819ZM12.4187 37.3183H18.3926V19.3453H12.4187V37.3183Z" fill="white"/>
</g>
<defs>
<clipPath id="clip0_192_816">
<rect width="50" height="50" fill="white"/>
</clipPath>
</defs>
</svg>
