<svg width="50" height="50" viewBox="0 0 50 50" fill="none" xmlns="http://www.w3.org/2000/svg">
<rect width="50" height="50" rx="25" fill="#121212"/>
<path d="M34.3291 16.6504H15.6709C15.3534 16.6505 15.0407 16.7281 14.76 16.8763C14.4792 17.0245 14.2388 17.2389 14.0596 17.501L23.3877 24.1152C23.859 24.4483 24.4219 24.6271 24.999 24.6271C25.5761 24.6271 26.1391 24.4483 26.6104 24.1152L35.9375 17.501C35.7586 17.2393 35.5186 17.0251 35.2384 16.877C34.9582 16.7288 34.6461 16.651 34.3291 16.6504Z" fill="white"/>
<path d="M27.418 25.252C26.7109 25.7525 25.8659 26.0214 24.9995 26.0214C24.1332 26.0214 23.2881 25.7525 22.5811 25.252L13.7178 18.9678V31.3955C13.7178 31.9135 13.9235 32.4103 14.2898 32.7766C14.6561 33.1429 15.1529 33.3486 15.6709 33.3486H34.3291C34.8471 33.3486 35.3439 33.1429 35.7102 32.7766C36.0765 32.4103 36.2822 31.9135 36.2822 31.3955V18.9678L27.418 25.252Z" fill="white"/>
</svg>
