<svg width="50" height="50" viewBox="0 0 50 50" fill="none" xmlns="http://www.w3.org/2000/svg">
<path d="M25 50C38.8071 50 50 38.8071 50 25C50 11.1929 38.8071 0 25 0C11.1929 0 0 11.1929 0 25C0 38.8071 11.1929 50 25 50Z" fill="#FF4500"/>
<path d="M41.6731 25C41.5985 22.9865 39.9082 21.4143 37.8886 21.4827C36.9937 21.5137 36.1424 21.8804 35.4961 22.4956C32.65 20.5567 29.3067 19.4941 25.8702 19.4195L27.4921 11.6206L32.8426 12.7454C32.9917 14.1188 34.2222 15.1131 35.5955 14.9639C36.9689 14.8148 37.9632 13.5843 37.814 12.211C37.6649 10.8376 36.4344 9.84335 35.0611 9.99249C34.2719 10.0733 33.5635 10.5331 33.172 11.2167L27.0447 9.99249C26.6283 9.89928 26.212 10.1603 26.1188 10.5828C26.1188 10.5891 26.1188 10.5891 26.1188 10.5953L24.2731 19.2704C20.7931 19.3263 17.4064 20.3952 14.5229 22.3465C13.0564 20.9669 10.7447 21.0352 9.36509 22.508C7.98553 23.9746 8.05388 26.2863 9.52667 27.6659C9.81252 27.9331 10.1419 28.163 10.5085 28.3246C10.4837 28.6912 10.4837 29.0579 10.5085 29.4245C10.5085 35.0236 17.0335 39.5786 25.081 39.5786C33.1285 39.5786 39.6534 35.0298 39.6534 29.4245C39.6783 29.0579 39.6783 28.6912 39.6534 28.3246C40.9087 27.6969 41.6979 26.4044 41.6731 25ZM16.6731 27.5043C16.6731 26.1247 17.7979 25 19.1774 25C20.557 25 21.6818 26.1247 21.6818 27.5043C21.6818 28.8839 20.557 30.0086 19.1774 30.0086C17.7916 29.9962 16.6731 28.8839 16.6731 27.5043ZM31.1958 34.3773C29.4185 35.7133 27.2435 36.3969 25.0188 36.3037C22.7941 36.3969 20.6191 35.7133 18.8419 34.3773C18.6057 34.0914 18.6492 33.6626 18.9351 33.4265C19.1836 33.2214 19.5379 33.2214 19.7926 33.4265C21.2965 34.5264 23.1297 35.0857 24.994 34.9987C26.8583 35.0981 28.6977 34.5637 30.2202 33.4762C30.4936 33.209 30.941 33.2152 31.2082 33.4886C31.4755 33.7621 31.4692 34.2095 31.1958 34.4767V34.3773ZM30.7484 30.0956C29.3688 30.0956 28.244 28.9709 28.244 27.5913C28.244 26.2117 29.3688 25.087 30.7484 25.087C32.128 25.087 33.2527 26.2117 33.2527 27.5913C33.3087 28.9709 32.2336 30.1329 30.854 30.1889C30.8105 30.1889 30.7732 30.1889 30.7297 30.1889L30.7484 30.0956Z" fill="white"/>
</svg>
