<svg width="150" height="28" viewBox="0 0 150 28" fill="none" xmlns="http://www.w3.org/2000/svg">
<g clip-path="url(#clip0_708_165)">
<path d="M23.0429 14.8289C22.7405 17.6467 21.4869 20.2624 19.5044 22.2122C17.522 24.162 14.9386 25.3199 12.2124 25.4807C9.48614 25.6415 6.79315 24.7947 4.61078 23.0906C2.42842 21.3865 0.89766 18.935 0.289905 16.1708C-0.317852 13.4066 0.0366407 10.5083 1.29054 7.98961C2.54444 5.47091 4.61675 3.49458 7.14009 2.41097C9.66342 1.32736 12.4748 1.20647 15.0758 2.06975C17.6767 2.93302 19.8993 4.72468 21.3494 7.1271L17.7254 9.79995C16.0991 7.30305 13.8303 6.10743 11.5273 6.10743C7.76788 6.10743 4.82126 9.41321 4.82126 13.4927C4.82126 17.5723 7.80171 20.8429 11.5273 20.8429C14.8805 20.8429 17.6912 18.31 18.3351 14.8291L23.0429 14.8289Z" fill="#FAFAFA"/>
<path d="M40.8019 17.3058C40.8019 21.7723 37.1778 25.4999 32.8426 25.4999C31.2846 25.4861 29.7655 24.9938 28.4766 24.085C27.1877 23.1762 26.1866 21.8916 25.5997 20.3931C25.0126 18.8946 24.8659 17.2492 25.1781 15.6642C25.4901 14.0793 26.247 12.6258 27.3535 11.4867C28.4598 10.3477 29.8661 9.57423 31.3952 9.26371C32.9242 8.95319 34.5075 9.11954 35.9456 9.7418C37.3837 10.3641 38.6123 11.4144 39.4765 12.7604C40.3407 14.1065 40.8019 15.688 40.8019 17.3058ZM36.4329 17.3058C36.4501 16.8052 36.3685 16.3063 36.1929 15.8397C36.0173 15.3732 35.7517 14.9489 35.4122 14.5931C35.0727 14.2372 34.6667 13.9573 34.2191 13.7706C33.7715 13.584 33.2918 13.4944 32.8095 13.5076C30.8791 13.5076 29.2872 15.0902 29.2872 17.3058C29.2872 19.5565 30.8791 21.1039 32.8095 21.1039C33.2917 21.1171 33.7714 21.0275 34.219 20.8408C34.6666 20.6541 35.0726 20.3742 35.412 20.0183C35.7515 19.6625 36.0172 19.2382 36.1927 18.7717C36.3682 18.3052 36.4502 17.8063 36.4329 17.3058Z" fill="#FAFAFA"/>
<path d="M42.7734 4.50477C42.7734 3.27402 43.9249 2.07812 45.2458 2.07812C46.6682 2.07812 47.7861 3.23862 47.7861 4.50477C47.7714 5.18999 47.4959 5.84126 47.0197 6.31598C46.5437 6.7907 45.9058 7.05017 45.2458 7.03761C44.5999 7.02379 43.9837 6.75353 43.5238 6.28242C43.064 5.81132 42.7953 5.17516 42.7734 4.50477ZM47.3795 25.4999H43.1459V9.7799H47.4134V25.4999H47.3795Z" fill="#FAFAFA"/>
<path d="M65.0322 25.5002H60.7998V17.6565C60.7998 15.1236 59.3774 13.8583 57.65 13.8583C55.7533 13.8583 54.0258 15.1245 54.0258 17.6565V25.5002H49.7583V9.78016H54.0258V10.8696C54.8725 9.88473 56.6338 9.42773 58.0224 9.42773C62.1546 9.42773 65.0332 13.0851 65.0332 17.6219L65.0322 25.5002Z" fill="#FAFAFA"/>
<path d="M67.0088 25.4992V2.32227H74.7649C80.0147 2.32227 84.0113 6.40179 84.0113 11.4307C84.0113 17.3742 80.218 21.4886 74.2907 21.4886H71.6153V25.4978L67.0088 25.4992ZM74.1892 17.1294C77.4743 17.1294 79.3372 15.0543 79.3372 11.8186C79.3372 9.00517 77.6776 6.68395 74.4601 6.68395H71.6491V17.1288L74.1892 17.1294Z" fill="#FAFAFA"/>
<path d="M100.822 22.2291C99.5339 24.2336 96.8586 25.4998 94.1829 25.4998C89.6452 25.4998 85.9864 21.8072 85.9864 17.3056C85.9809 16.2309 86.1801 15.1656 86.5725 14.1711C86.965 13.1766 87.543 12.2726 88.2734 11.511C89.0036 10.7494 89.8717 10.1453 90.8278 9.73347C91.7839 9.32165 92.809 9.11024 93.844 9.1114C95.4992 9.10422 97.1156 9.63184 98.4691 10.6211C99.8231 11.6104 100.846 13.0124 101.398 14.6327L92.9635 20.9278C93.3686 21.0599 93.7924 21.1193 94.2167 21.1038C95.5038 21.1038 96.7909 20.6465 97.4691 19.5211L100.822 22.2291ZM90.3896 18.3618L95.9096 14.2811C95.3056 13.8044 94.5684 13.5451 93.8096 13.5425C91.8792 13.5425 90.2873 15.1252 90.2873 17.3407C90.286 17.6835 90.3204 18.0255 90.3896 18.3607V18.3618Z" fill="#FAFAFA"/>
<path d="M118.749 1.9707V25.1476H114.48V24.0223C113.837 24.9366 112.177 25.4993 110.789 25.4993C106.657 25.4993 103.372 21.8067 103.372 17.3051C103.372 12.7685 106.758 9.11089 110.789 9.11089C112.144 9.11089 113.803 9.77897 114.48 10.5527V1.9707H118.749ZM114.683 17.304C114.683 15.0884 113.226 13.5058 111.228 13.5058C109.298 13.5058 107.706 15.0884 107.706 17.304C107.706 19.5547 109.298 21.1022 111.228 21.1022C113.194 21.1024 114.685 19.5196 114.685 17.304H114.683Z" fill="#FAFAFA"/>
<path d="M120.722 4.50477C120.722 3.27402 121.874 2.07812 123.194 2.07812C124.617 2.07812 125.735 3.23862 125.735 4.50477C125.718 5.18279 125.445 5.82686 124.977 6.29994C124.51 6.77301 123.882 7.03771 123.229 7.03771C122.575 7.03771 121.948 6.77301 121.48 6.29994C121.011 5.82686 120.74 5.18279 120.722 4.50477ZM125.329 25.4999H121.061V9.7799H125.329V25.4999Z" fill="#FAFAFA"/>
<path d="M143.084 9.42888V25.1489H138.816V24.0227C138.173 24.937 136.514 25.4997 135.124 25.4997C130.992 25.4997 127.707 21.8072 127.707 17.3055C127.707 12.769 131.094 9.11133 135.124 9.11133C136.479 9.11133 138.139 9.77939 138.816 10.5531V9.46374H143.084V9.42888ZM138.986 17.3066C138.986 15.091 137.53 13.5084 135.531 13.5084C133.6 13.5084 132.009 15.091 132.009 17.3066C132.009 19.5573 133.6 21.1048 135.531 21.1048C137.529 21.1048 138.986 19.5222 138.986 17.3066Z" fill="#FAFAFA"/>
<path d="M149.326 21.0684H145.058V25.4995H149.326V21.0684Z" fill="#E0243D"/>
</g>
<defs>
<clipPath id="clip0_708_165">
<rect width="150" height="25" fill="white" transform="translate(0 1)"/>
</clipPath>
</defs>
</svg>
