<svg width="147" height="64" viewBox="0 0 147 64" fill="none" xmlns="http://www.w3.org/2000/svg">
<path d="M23.0256 37.5493C23.2834 37.6278 23.5479 37.6826 23.8157 37.7128C24.1147 37.7469 24.4152 37.7649 24.7161 37.767C25.2251 37.7877 25.7322 37.6929 26.1994 37.4898C26.6666 37.2867 27.082 36.9805 27.4143 36.5941C28.1822 35.5684 28.5504 34.2979 28.45 33.0202C28.5561 31.7886 28.1965 30.562 27.4423 29.5828C27.1208 29.2227 26.7254 28.9364 26.2831 28.7435C25.8407 28.5506 25.362 28.4556 24.8795 28.4651C24.5595 28.4621 24.2399 28.4893 23.925 28.5464C23.619 28.6036 23.3182 28.6858 23.0256 28.7922L23.0256 37.5493ZM23.0256 24.1547C23.5444 24.0024 24.0726 23.8841 24.6068 23.8005C25.2387 23.7086 25.8764 23.663 26.5149 23.6641C27.7241 23.6477 28.9228 23.8895 30.0312 24.3734C31.0286 24.818 31.9208 25.4687 32.6491 26.2828C33.3679 27.1329 33.9142 28.1151 34.2574 29.1744C34.6339 30.318 34.8179 31.5163 34.8018 32.7203C34.8407 34.2115 34.5813 35.6954 34.0388 37.0848C33.5641 38.2478 32.8378 39.2912 31.9122 40.14C30.9652 40.9556 29.8613 41.5685 28.6686 41.941C27.3426 42.3416 25.9648 42.5438 24.5797 42.541C23.1048 42.561 21.6323 42.4145 20.1901 42.1045C18.9543 41.8508 17.7416 41.4951 16.5645 41.041V17.4443H23.0256L23.0256 24.1547Z" fill="#121212"/>
<path d="M47.4784 30.8654C47.456 30.0327 47.148 29.2331 46.6061 28.6008C46.3787 28.3386 46.0983 28.1277 45.7834 27.9821C45.4685 27.8364 45.1262 27.7594 44.7793 27.756C44.4155 27.7527 44.0551 27.8262 43.7217 27.9718C43.3882 28.1174 43.0892 28.3317 42.8442 28.6008C42.2716 29.2236 41.9257 30.0215 41.8626 30.8654H47.4784ZM41.8355 34.3299C41.8239 34.7961 41.9095 35.2597 42.0867 35.6911C42.2639 36.1225 42.5289 36.5122 42.8648 36.8355C43.2008 37.1589 43.6003 37.4087 44.0379 37.5691C44.4756 37.7295 44.9418 37.797 45.4069 37.7673C46.131 37.7889 46.85 37.6393 47.5055 37.3309C48.1276 36.9885 48.6745 36.5245 49.1138 35.9663L53.0673 39.0767C52.6778 39.575 52.229 40.0238 51.7307 40.4131C51.1885 40.8364 50.6038 41.2022 49.9861 41.5047C49.2688 41.8513 48.5079 42.099 47.7241 42.2412C46.7797 42.4126 45.8213 42.4946 44.8615 42.4861C43.636 42.5005 42.4176 42.2974 41.263 41.8861C40.1728 41.5116 39.1709 40.9174 38.3192 40.1402C37.4476 39.3271 36.7678 38.3301 36.3289 37.2215C35.8134 35.9204 35.5631 34.5292 35.593 33.1299C35.5732 31.7602 35.8138 30.3993 36.3018 29.1195C36.7336 28.0046 37.3927 26.9918 38.237 26.1456C39.0597 25.3318 40.0442 24.7001 41.1266 24.2914C42.2977 23.8684 43.5343 23.6558 44.7793 23.6633C45.9734 23.6064 47.1655 23.8113 48.2722 24.2637C49.3789 24.716 50.3734 25.4049 51.1862 26.2821C52.7674 28.0279 53.5846 30.7018 53.6117 34.3299H41.8355Z" fill="#121212"/>
<path d="M53.394 28.574V24.073H55.9568V19.5168H62.417V24.073H65.1703L66.7795 28.574H62.445V35.8302C62.4219 36.3196 62.4864 36.8093 62.6356 37.276C62.7068 37.45 62.8338 37.5953 62.9966 37.6892C63.1594 37.7831 63.3488 37.8202 63.5349 37.7947C63.9789 37.7897 64.4163 37.6873 64.8163 37.4947C65.2013 37.3147 65.5666 37.0951 65.9062 36.8395L67.5697 40.7676C66.7664 41.3404 65.8726 41.7739 64.9256 42.0499C63.8543 42.361 62.7422 42.5081 61.6269 42.4863C60.7162 42.5184 59.8081 42.37 58.9548 42.0499C58.2783 41.8096 57.6767 41.3958 57.2102 40.8499C56.7552 40.302 56.4293 39.6587 56.2567 38.9676C56.0612 38.155 55.9696 37.321 55.9839 36.4853V28.574H53.394Z" fill="#121212"/>
<path d="M72.8316 42.1323L64.8438 19.5176H71.0867L75.721 33.6476L78.5011 24.0728H82.7265L85.5078 33.6476L88.1787 24.0728H94.7764L88.3691 42.1323H83.4081L80.5738 32.6657L77.7655 42.1323H72.8316Z" fill="#121212"/>
<path d="M103.99 33.9474L102.872 34.0297C102.487 34.057 102.105 34.1117 101.727 34.1933C101.104 34.2498 100.523 34.5312 100.092 34.9849C99.7711 35.3662 99.5969 35.8498 99.6008 36.3484C99.5956 36.5886 99.6416 36.8272 99.7357 37.0483C99.8297 37.2693 99.9696 37.4679 100.146 37.6307C100.564 37.9821 101.101 38.158 101.645 38.1213C102.082 38.1214 102.515 38.0478 102.927 37.9036C103.309 37.7576 103.668 37.5553 103.99 37.3036V33.9474ZM104.917 42.1317L104.399 40.713C103.82 41.2393 103.144 41.647 102.409 41.913C101.476 42.2574 100.486 42.4242 99.4915 42.4046C98.7031 42.4092 97.9196 42.2799 97.1743 42.0223C96.493 41.796 95.8667 41.4289 95.3361 40.945C94.8055 40.461 94.3824 39.8709 94.0942 39.213C93.7856 38.4894 93.6368 37.7077 93.658 36.9213C93.6301 36.154 93.7835 35.391 94.1056 34.6942C94.4277 33.9974 94.9095 33.3865 95.5119 32.911C96.1218 32.428 96.8022 32.0415 97.5293 31.7651C98.3092 31.4571 99.1242 31.2465 99.9557 31.1381C100.746 31.0016 101.482 30.9203 102.164 30.8651C102.845 30.811 103.472 30.7558 104.017 30.7287V30.2923C104.039 29.9827 103.985 29.6724 103.862 29.3877C103.739 29.1029 103.549 28.852 103.309 28.6558C102.827 28.3037 102.242 28.1213 101.645 28.1371C100.952 28.1349 100.265 28.2742 99.6279 28.5465C98.9704 28.8329 98.3559 29.2094 97.802 29.6651L94.8853 26.4464C95.8685 25.5929 96.9818 24.9022 98.183 24.4006C99.5857 23.8764 101.076 23.6261 102.573 23.6632C104.597 23.5562 106.594 24.1645 108.216 25.3819C109.633 26.5277 110.314 28.3006 110.314 30.7287V42.1317H104.917Z" fill="#121212"/>
<path d="M112.005 44.1233C112.394 44.3387 112.805 44.5125 113.231 44.642C113.646 44.7727 114.077 44.846 114.512 44.8597C114.9 44.8789 115.286 44.7941 115.63 44.6139C115.954 44.383 116.201 44.06 116.339 43.6868L117.375 41.3681L109.715 24.1006H116.748L120.401 34.6297L124.027 24.1006H130.678L121.655 45.4868C121.161 46.8118 120.24 47.9346 119.038 48.6784C117.853 49.3258 116.517 49.6461 115.167 49.6065C114.295 49.6095 113.426 49.5088 112.577 49.3065C111.804 49.1133 111.047 48.858 110.314 48.543L112.005 44.1233Z" fill="#121212"/>
</svg>
