<svg width="147" height="64" viewBox="0 0 147 64" fill="none" xmlns="http://www.w3.org/2000/svg">
<path d="M23.0261 37.5493C23.2839 37.6278 23.5484 37.6826 23.8162 37.7128C24.1152 37.7469 24.4157 37.7649 24.7166 37.767C25.2256 37.7877 25.7327 37.6929 26.1999 37.4898C26.6671 37.2867 27.0824 36.9805 27.4148 36.5941C28.1827 35.5684 28.5509 34.2979 28.4505 33.0202C28.5565 31.7886 28.1969 30.562 27.4428 29.5828C27.1213 29.2227 26.7259 28.9364 26.2836 28.7435C25.8412 28.5506 25.3625 28.4556 24.88 28.4651C24.56 28.4621 24.2404 28.4893 23.9255 28.5464C23.6195 28.6036 23.3187 28.6858 23.0261 28.7922L23.0261 37.5493ZM23.0261 24.1547C23.5449 24.0024 24.0731 23.8841 24.6073 23.8005C25.2392 23.7086 25.8769 23.663 26.5154 23.6641C27.7245 23.6477 28.9233 23.8895 30.0317 24.3734C31.0291 24.818 31.9213 25.4687 32.6496 26.2828C33.3684 27.1329 33.9147 28.1151 34.2579 29.1744C34.6344 30.318 34.8184 31.5163 34.8023 32.7203C34.8412 34.2115 34.5818 35.6954 34.0393 37.0848C33.5645 38.2478 32.8383 39.2912 31.9127 40.14C30.9657 40.9556 29.8618 41.5685 28.6691 41.941C27.3431 42.3416 25.9653 42.5438 24.5802 42.541C23.1053 42.561 21.6327 42.4145 20.1906 42.1045C18.9547 41.8508 17.7421 41.4951 16.5649 41.041V17.4443H23.0261L23.0261 24.1547Z" fill="white"/>
<path d="M47.4792 30.8654C47.4568 30.0327 47.1488 29.2331 46.6069 28.6008C46.3795 28.3386 46.099 28.1277 45.7841 27.9821C45.4692 27.8364 45.127 27.7594 44.78 27.756C44.4162 27.7527 44.0558 27.8262 43.7224 27.9718C43.3889 28.1174 43.0899 28.3317 42.8449 28.6008C42.2723 29.2236 41.9264 30.0215 41.8633 30.8654H47.4792ZM41.8362 34.3299C41.8247 34.7961 41.9102 35.2597 42.0874 35.6911C42.2646 36.1225 42.5296 36.5122 42.8656 36.8355C43.2015 37.1589 43.601 37.4087 44.0386 37.5691C44.4763 37.7295 44.9425 37.797 45.4077 37.7673C46.1318 37.7889 46.8507 37.6393 47.5063 37.3309C48.1283 36.9885 48.6753 36.5245 49.1145 35.9663L53.068 39.0767C52.6785 39.575 52.2297 40.0238 51.7315 40.4131C51.1892 40.8364 50.6045 41.2022 49.9868 41.5047C49.2695 41.8513 48.5086 42.099 47.7249 42.2412C46.7805 42.4126 45.822 42.4946 44.8623 42.4861C43.6367 42.5005 42.4184 42.2974 41.2637 41.8861C40.1735 41.5116 39.1716 40.9174 38.3199 40.1402C37.4483 39.3271 36.7685 38.3301 36.3297 37.2215C35.8141 35.9204 35.5639 34.5292 35.5937 33.1299C35.574 31.7602 35.8145 30.3993 36.3026 29.1195C36.7344 28.0046 37.3934 26.9918 38.2377 26.1456C39.0605 25.3318 40.0449 24.7001 41.1273 24.2914C42.2984 23.8684 43.535 23.6558 44.78 23.6633C45.9741 23.6064 47.1662 23.8113 48.2729 24.2637C49.3796 24.716 50.3741 25.4049 51.187 26.2821C52.7681 28.0279 53.5853 30.7018 53.6124 34.3299H41.8362Z" fill="white"/>
<path d="M53.3945 28.574V24.073H55.9573V19.5168H62.4175V24.073H65.1708L66.78 28.574H62.4455V35.8302C62.4224 36.3196 62.4869 36.8093 62.636 37.276C62.7073 37.45 62.8343 37.5953 62.9971 37.6892C63.1599 37.7831 63.3493 37.8202 63.5354 37.7947C63.9794 37.7897 64.4168 37.6873 64.8168 37.4947C65.2018 37.3147 65.5671 37.0951 65.9067 36.8395L67.5702 40.7676C66.7669 41.3404 65.8731 41.7739 64.9261 42.0499C63.8548 42.361 62.7427 42.5081 61.6274 42.4863C60.7167 42.5184 59.8086 42.37 58.9553 42.0499C58.2788 41.8096 57.6772 41.3958 57.2107 40.8499C56.7557 40.302 56.4298 39.6587 56.2571 38.9676C56.0617 38.155 55.97 37.321 55.9844 36.4853V28.574H53.3945Z" fill="white"/>
<path d="M72.832 42.1323L64.8442 19.5176H71.0872L75.7215 33.6476L78.5016 24.0728H82.727L85.5083 33.6476L88.1792 24.0728H94.7769L88.3696 42.1323H83.4085L80.5743 32.6657L77.766 42.1323H72.832Z" fill="white"/>
<path d="M103.991 33.9474L102.873 34.0297C102.488 34.057 102.105 34.1117 101.728 34.1933C101.105 34.2498 100.524 34.5312 100.093 34.9849C99.7716 35.3662 99.5973 35.8498 99.6013 36.3484C99.5961 36.5886 99.6421 36.8272 99.7361 37.0483C99.8302 37.2693 99.9701 37.4679 100.147 37.6307C100.564 37.9821 101.101 38.158 101.646 38.1213C102.082 38.1214 102.515 38.0478 102.927 37.9036C103.309 37.7576 103.668 37.5553 103.991 37.3036V33.9474ZM104.917 42.1317L104.399 40.713C103.821 41.2393 103.145 41.647 102.41 41.913C101.476 42.2574 100.487 42.4242 99.492 42.4046C98.7036 42.4092 97.9201 42.2799 97.1748 42.0223C96.4935 41.796 95.8672 41.4289 95.3366 40.945C94.806 40.461 94.3829 39.8709 94.0946 39.213C93.7861 38.4894 93.6373 37.7077 93.6585 36.9213C93.6306 36.154 93.784 35.391 94.1061 34.6942C94.4282 33.9974 94.91 33.3865 95.5124 32.911C96.1223 32.428 96.8027 32.0415 97.5297 31.7651C98.3097 31.4571 99.1247 31.2465 99.9562 31.1381C100.746 31.0016 101.482 30.9203 102.164 30.8651C102.846 30.811 103.473 30.7558 104.018 30.7287V30.2923C104.039 29.9827 103.986 29.6724 103.863 29.3877C103.739 29.1029 103.549 28.852 103.309 28.6558C102.827 28.3037 102.242 28.1213 101.646 28.1371C100.952 28.1349 100.266 28.2742 99.6284 28.5465C98.9709 28.8329 98.3564 29.2094 97.8025 29.6651L94.8858 26.4464C95.869 25.5929 96.9823 24.9022 98.1835 24.4006C99.5862 23.8764 101.076 23.6261 102.573 23.6632C104.597 23.5562 106.595 24.1645 108.216 25.3819C109.634 26.5277 110.315 28.3006 110.315 30.7287V42.1317H104.917Z" fill="white"/>
<path d="M112.005 44.1233C112.394 44.3387 112.805 44.5125 113.231 44.642C113.646 44.7727 114.078 44.846 114.513 44.8597C114.9 44.8789 115.286 44.7941 115.631 44.6139C115.954 44.383 116.201 44.06 116.339 43.6868L117.375 41.3681L109.715 24.1006H116.749L120.401 34.6297L124.027 24.1006H130.678L121.656 45.4868C121.161 46.8118 120.241 47.9346 119.039 48.6784C117.853 49.3258 116.517 49.6461 115.167 49.6065C114.295 49.6095 113.426 49.5088 112.577 49.3065C111.804 49.1133 111.047 48.858 110.314 48.543L112.005 44.1233Z" fill="white"/>
</svg>
