<svg width="148" height="64" viewBox="0 0 148 64" fill="none" xmlns="http://www.w3.org/2000/svg">
<path fill-rule="evenodd" clip-rule="evenodd" d="M56.4446 38.6736C56.4446 39.0152 56.2344 39.1062 56.2344 39.7468C56.2344 40.7059 56.8454 41.7239 58.8111 41.7239C60.0829 41.7239 61.0809 41.1317 61.0809 40.0681C61.0809 38.632 59.6146 38.1442 58.1591 37.3294C57.2733 36.937 56.5271 36.2901 56.0173 35.4727C55.5075 34.6552 55.2575 33.7049 55.3 32.7451C55.3 29.6551 58.1054 27.7941 61.9978 27.7932C63.3776 27.7238 64.7447 28.0853 65.9058 28.8267C66.3966 27.8806 67.1469 27.0905 68.0704 26.547C68.994 26.0036 70.0536 25.7288 71.1276 25.7542C74.7356 25.7542 76.3152 28.0361 76.3152 29.9281C76.3152 32.6019 73.414 37.1165 73.414 39.5581C73.4122 39.6734 73.4342 39.7879 73.4787 39.8945C73.5231 40.0011 73.5891 40.0976 73.6726 40.1781C73.7561 40.2585 73.8552 40.3213 73.9641 40.3624C74.0729 40.4036 74.1891 40.4223 74.3054 40.4175C76.9594 40.4175 79.8195 33.5426 79.971 28.6642C79.974 28.4856 80.036 28.3129 80.1476 28.1725C80.2592 28.0322 80.4142 27.9319 80.5888 27.8871C80.8848 27.8184 81.1881 27.7862 81.4921 27.7913C81.8943 27.7567 82.2994 27.8084 82.6797 27.9429C83.06 28.0773 83.4065 28.2913 83.6957 28.5704C83.9849 28.8494 84.2099 29.1869 84.3554 29.5598C84.5009 29.9327 84.5635 30.3323 84.5389 30.7314C84.5086 34.5462 81.8205 37.9527 81.8205 39.8069C81.8334 39.955 81.8765 40.0989 81.9472 40.2301C82.0178 40.3612 82.1146 40.4768 82.2316 40.57C82.3486 40.6631 82.4834 40.7318 82.628 40.772C82.7725 40.8122 82.9238 40.8229 83.0727 40.8036C85.8517 40.8036 88.0002 34.3265 88.0002 29.2255C88.0002 28.6971 88.5496 28.28 89.8301 28.28C91.5173 28.28 92.6873 29.2546 92.5847 31.8278C92.7235 31.6226 94.9268 27.7933 98.3001 27.7933C98.7253 27.7531 99.1542 27.8072 99.5557 27.9516C99.9572 28.0959 100.321 28.327 100.621 28.6279C100.921 28.9289 101.15 29.2922 101.29 29.6915C101.431 30.0908 101.48 30.5161 101.434 30.9365C101.926 29.9835 102.676 29.1848 103.6 28.6297C104.524 28.0746 105.587 27.785 106.667 27.7933C107.135 27.7541 107.606 27.8183 108.045 27.9813C108.484 28.1444 108.881 28.4021 109.208 28.7358C109.534 29.0696 109.781 29.471 109.932 29.911C110.082 30.3511 110.132 30.8187 110.077 31.2801C110.077 34.6778 106.977 38.3756 106.977 40.0566C106.971 40.1631 106.988 40.2698 107.028 40.3688C107.068 40.4679 107.13 40.5569 107.209 40.6293C107.289 40.7018 107.383 40.7559 107.486 40.7877C107.589 40.8196 107.698 40.8283 107.804 40.8133C108.563 40.7262 109.282 40.4329 109.882 39.9659C110.482 39.4988 110.939 38.8764 111.204 38.1675C111.659 36.9345 113.041 33.3859 115.858 33.3859C116.823 33.3859 117.048 33.7855 117.048 34.1765C117.048 35.0059 116.161 35.2498 116.161 38.2082C116.161 40.4359 116.853 41.4008 117.953 41.4008C119.494 41.4008 121.831 38.182 121.831 34.1804C121.864 33.7275 121.797 33.273 121.634 32.8484C121.471 32.4239 121.217 32.0396 120.889 31.7223C120.561 31.4051 120.167 31.1624 119.734 31.0113C119.302 30.8603 118.841 30.8043 118.385 30.8475C116.547 30.8475 116.085 31.4088 115.342 31.4088C115.243 31.4102 115.144 31.3919 115.053 31.3549C114.961 31.3179 114.878 31.263 114.808 31.1934C114.738 31.1239 114.683 31.0412 114.646 30.9501C114.609 30.8591 114.591 30.7617 114.593 30.6636C114.593 29.5139 117.469 27.7933 120.741 27.7933C125.525 27.7933 126.838 31.9943 126.838 34.403C126.838 40.5337 121.658 45.4044 117.183 45.4044C116.138 45.4872 115.092 45.2589 114.179 44.7486C113.266 44.2383 112.528 43.4695 112.06 42.5408L112.058 42.5447C111.231 43.4204 110.235 44.1242 109.13 44.6152C108.025 45.1062 106.832 45.3745 105.622 45.4044C103.143 45.4044 101.731 44.2808 101.731 42.0482C101.731 39.1963 104.707 34.645 104.707 33.2717C104.707 32.9282 104.637 32.7569 104.326 32.7569C101.738 32.7569 98.3959 39.6037 97.8935 44.0795C97.8553 44.4621 97.6677 44.8148 97.3706 45.0623C97.0735 45.3098 96.6904 45.4326 96.3031 45.4044C95.8936 45.4273 95.4838 45.3641 95.1008 45.2189C94.7178 45.0736 94.3702 44.8496 94.081 44.5617C93.7918 44.2737 93.5676 43.9283 93.423 43.5483C93.2785 43.1683 93.217 42.7622 93.2425 42.3569C93.2425 39.4721 96.3383 34.6101 96.3373 33.2708C96.3373 32.962 96.2337 32.7569 95.8906 32.7569C94.3774 32.7569 92.7069 35.1646 91.4879 38.0572C90.6661 39.9822 90.1015 42.0051 89.8086 44.0747C89.7705 44.4588 89.5823 44.8131 89.284 45.0617C88.9858 45.3103 88.6012 45.4336 88.2123 45.4053C87.5872 45.4319 86.9694 45.2634 86.4461 44.9236C85.9229 44.5838 85.5208 44.0898 85.2965 43.5115C84.2099 44.5976 82.7701 45.2682 81.232 45.4044C78.4071 45.4044 77.3934 44.065 77.2879 42.6231C76.727 43.4956 75.9482 44.2101 75.0267 44.6974C74.1052 45.1846 73.0723 45.4281 72.0279 45.4044C70.2078 45.4044 68.4523 43.9111 68.4523 40.7534C68.4523 37.2046 70.4962 34.5685 71.2567 31.344C71.4854 30.261 70.5978 29.6417 69.6018 29.6417C68.3281 29.6417 67.6996 30.5243 67.6996 31.9575C67.7302 32.3378 67.6751 32.72 67.5382 33.0766C67.4013 33.4331 67.186 33.7551 66.9079 34.0191C66.6299 34.2832 66.296 34.4828 65.9305 34.6034C65.565 34.724 65.1769 34.7627 64.7945 34.7166C64.696 34.717 64.5983 34.698 64.5074 34.6606C64.4164 34.6232 64.3339 34.5682 64.2647 34.4988C64.195 34.4292 64.1399 34.3468 64.1025 34.2561C64.0651 34.1654 64.0461 34.0684 64.0467 33.9704C64.0467 33.7711 64.1122 33.5659 64.1122 33.0549C64.1065 32.7695 64.0407 32.4884 63.9188 32.2296C63.7969 31.9709 63.6217 31.7402 63.4045 31.5525C63.1872 31.3647 62.9327 31.224 62.6573 31.1394C62.3819 31.0549 62.0916 31.0282 61.8052 31.0613C60.6341 31.0613 60.0838 31.6477 60.0838 32.541C60.0838 34.0652 61.6557 34.5897 63.1942 35.3542C64.6722 36.0868 66.1189 37.039 66.1189 39.3017C66.1189 43.2172 62.68 45.4043 58.4123 45.4043C56.2364 45.4043 54.6498 44.9272 53.7418 43.8762C52.6879 44.8712 51.2832 45.4194 49.8269 45.4043C49.4331 45.4431 49.0353 45.4034 48.6572 45.2874C48.2791 45.1714 47.9284 44.9815 47.6257 44.729C47.323 44.4764 47.0746 44.1663 46.8951 43.8171C46.7156 43.4678 46.6087 43.0864 46.5807 42.6955C46.5807 42.6955 45.1066 45.4043 40.6639 45.4043C39.7113 45.4779 38.761 45.2364 37.962 44.7176C37.1631 44.1988 36.5608 43.4321 36.2495 42.5378C33.9459 44.4862 30.9883 45.5089 27.9603 45.4043C21.8412 45.4043 18.6799 41.6591 18.6799 35.9078C18.6799 29.7693 23.9926 19.7261 32.316 19.7261C36.7832 19.7261 39.0715 22.3516 39.0715 25.2848C39.075 26.0237 38.9313 26.7561 38.6486 27.4399C38.3659 28.1238 37.9497 28.7458 37.4239 29.2703C36.8982 29.7948 36.2731 30.2115 35.5845 30.4965C34.8958 30.7816 34.1572 30.9294 33.4108 30.9316C31.536 30.9316 31.0218 30.289 31.0218 29.839C31.0218 28.9913 33.1625 28.4667 33.1625 26.0793C33.1894 25.8151 33.1611 25.5483 33.0793 25.2955C32.9975 25.0427 32.864 24.8092 32.6871 24.6096C32.5102 24.4101 32.2938 24.2487 32.0512 24.1356C31.8085 24.0225 31.545 23.9601 31.277 23.9522C28.2154 23.9522 24.1295 30.1119 24.1295 35.0841C24.1295 39.1119 25.9692 41.2632 29.5321 41.2632C31.6777 41.2632 34.705 39.6819 35.4772 37.4145C36.6541 33.9548 39.4439 27.7903 47.1241 27.7903C50.9725 27.7903 52.3175 29.9609 52.3175 30.949C52.3176 31.1459 52.2388 31.3348 52.0985 31.4743C51.9581 31.6138 51.7676 31.6925 51.5688 31.6932C50.42 31.3008 49.2184 31.0803 48.0039 31.039C47.0233 31.0164 46.0481 31.1889 45.1361 31.5462C44.2241 31.9035 43.3938 32.4384 42.6944 33.1192C41.995 33.8 41.4407 34.6128 41.0643 35.5096C40.688 36.4063 40.4973 37.3687 40.5035 38.3397C40.5035 40.1339 41.1623 41 42.2522 41C44.4682 41 44.7996 39.0355 45.6823 36.1826C45.8518 35.4004 46.2841 34.6981 46.9086 34.1903C47.5332 33.6826 48.313 33.3993 49.1211 33.3868C50.9157 33.3868 50.903 34.1765 50.9011 34.3023C50.8664 34.6271 50.7621 34.9409 50.5951 35.2226C50.0432 36.4314 49.7297 37.7335 49.6714 39.0587C49.6714 39.8165 49.9695 40.9788 51.3145 40.9788C53.1454 40.9788 53.1727 37.9274 55.6956 37.9274C55.7947 37.9263 55.893 37.9448 55.9847 37.982C56.0764 38.0191 56.1596 38.0741 56.2295 38.1437C56.2993 38.2133 56.3543 38.296 56.3912 38.387C56.4282 38.4781 56.4464 38.5755 56.4446 38.6736Z" fill="white"/>
</svg>
