<svg width="148" height="64" viewBox="0 0 148 64" fill="none" xmlns="http://www.w3.org/2000/svg">
<path fill-rule="evenodd" clip-rule="evenodd" d="M56.4447 38.6736C56.4447 39.0152 56.2346 39.1062 56.2346 39.7468C56.2346 40.7059 56.8455 41.7239 58.8112 41.7239C60.083 41.7239 61.081 41.1317 61.081 40.0681C61.081 38.632 59.6147 38.1442 58.1592 37.3294C57.2735 36.937 56.5272 36.2901 56.0174 35.4727C55.5076 34.6552 55.2577 33.7049 55.3001 32.7451C55.3001 29.6551 58.1055 27.7941 61.9979 27.7932C63.3778 27.7238 64.7448 28.0853 65.9059 28.8267C66.3968 27.8806 67.147 27.0905 68.0705 26.547C68.9941 26.0036 70.0537 25.7288 71.1278 25.7542C74.7357 25.7542 76.3153 28.0361 76.3153 29.9281C76.3153 32.6019 73.4141 37.1165 73.4141 39.5581C73.4123 39.6734 73.4343 39.7879 73.4788 39.8945C73.5233 40.0011 73.5892 40.0976 73.6727 40.1781C73.7562 40.2585 73.8554 40.3213 73.9642 40.3624C74.073 40.4036 74.1892 40.4223 74.3056 40.4175C76.9595 40.4175 79.8197 33.5426 79.9712 28.6642C79.9741 28.4856 80.0362 28.3129 80.1477 28.1725C80.2593 28.0322 80.4143 27.9319 80.5889 27.8871C80.8849 27.8184 81.1883 27.7862 81.4922 27.7913C81.8945 27.7567 82.2995 27.8084 82.6798 27.9429C83.0601 28.0773 83.4066 28.2913 83.6958 28.5704C83.985 28.8494 84.21 29.1869 84.3555 29.5598C84.501 29.9327 84.5636 30.3323 84.539 30.7314C84.5087 34.5462 81.8206 37.9527 81.8206 39.8069C81.8335 39.955 81.8766 40.0989 81.9473 40.2301C82.0179 40.3612 82.1147 40.4768 82.2317 40.57C82.3487 40.6631 82.4835 40.7318 82.6281 40.772C82.7727 40.8122 82.9239 40.8229 83.0728 40.8036C85.8518 40.8036 88.0004 34.3265 88.0004 29.2255C88.0004 28.6971 88.5497 28.28 89.8302 28.28C91.5174 28.28 92.6874 29.2546 92.5848 31.8278C92.7236 31.6226 94.9269 27.7933 98.3002 27.7933C98.7254 27.7531 99.1543 27.8072 99.5558 27.9516C99.9573 28.0959 100.321 28.327 100.621 28.6279C100.921 28.9289 101.15 29.2922 101.291 29.6915C101.431 30.0908 101.48 30.5161 101.434 30.9365C101.926 29.9835 102.676 29.1848 103.6 28.6297C104.525 28.0746 105.587 27.785 106.668 27.7933C107.135 27.7541 107.606 27.8183 108.045 27.9813C108.484 28.1444 108.882 28.4021 109.208 28.7358C109.534 29.0696 109.782 29.471 109.932 29.911C110.082 30.3511 110.132 30.8187 110.077 31.2801C110.077 34.6778 106.978 38.3756 106.978 40.0566C106.971 40.1631 106.988 40.2698 107.028 40.3688C107.068 40.4679 107.13 40.5569 107.209 40.6293C107.289 40.7018 107.383 40.7559 107.486 40.7877C107.589 40.8196 107.698 40.8283 107.804 40.8133C108.563 40.7262 109.282 40.4329 109.882 39.9659C110.482 39.4988 110.94 38.8764 111.204 38.1675C111.659 36.9345 113.041 33.3859 115.858 33.3859C116.823 33.3859 117.048 33.7855 117.048 34.1765C117.048 35.0059 116.161 35.2498 116.161 38.2082C116.161 40.4359 116.853 41.4008 117.953 41.4008C119.494 41.4008 121.832 38.182 121.832 34.1804C121.864 33.7275 121.797 33.273 121.634 32.8484C121.472 32.4239 121.217 32.0396 120.889 31.7223C120.561 31.4051 120.167 31.1624 119.735 31.0113C119.302 30.8603 118.841 30.8043 118.385 30.8475C116.547 30.8475 116.085 31.4088 115.342 31.4088C115.243 31.4102 115.145 31.3919 115.053 31.3549C114.961 31.3179 114.878 31.263 114.808 31.1934C114.738 31.1239 114.683 31.0412 114.646 30.9501C114.609 30.8591 114.591 30.7617 114.593 30.6636C114.593 29.5139 117.469 27.7933 120.741 27.7933C125.525 27.7933 126.838 31.9943 126.838 34.403C126.838 40.5337 121.658 45.4044 117.183 45.4044C116.138 45.4872 115.092 45.2589 114.179 44.7486C113.267 44.2383 112.529 43.4695 112.06 42.5408L112.058 42.5447C111.231 43.4204 110.236 44.1242 109.13 44.6152C108.025 45.1062 106.833 45.3745 105.622 45.4044C103.143 45.4044 101.731 44.2808 101.731 42.0482C101.731 39.1963 104.707 34.645 104.707 33.2717C104.707 32.9282 104.637 32.7569 104.326 32.7569C101.738 32.7569 98.3961 39.6037 97.8936 44.0795C97.8555 44.4621 97.6678 44.8148 97.3707 45.0623C97.0736 45.3098 96.6905 45.4326 96.3033 45.4044C95.8937 45.4273 95.484 45.3641 95.1009 45.2189C94.7179 45.0736 94.3704 44.8496 94.0812 44.5617C93.792 44.2737 93.5677 43.9283 93.4232 43.5483C93.2786 43.1683 93.2171 42.7622 93.2427 42.3569C93.2427 39.4721 96.3384 34.6101 96.3374 33.2708C96.3374 32.962 96.2338 32.7569 95.8907 32.7569C94.3776 32.7569 92.707 35.1646 91.4881 38.0572C90.6662 39.9822 90.1016 42.0051 89.8087 44.0747C89.7707 44.4588 89.5824 44.8131 89.2842 45.0617C88.9859 45.3103 88.6013 45.4336 88.2125 45.4053C87.5873 45.4319 86.9695 45.2634 86.4463 44.9236C85.9231 44.5838 85.5209 44.0898 85.2966 43.5115C84.21 44.5976 82.7702 45.2682 81.2322 45.4044C78.4072 45.4044 77.3935 44.065 77.288 42.6231C76.7271 43.4956 75.9483 44.2101 75.0268 44.6974C74.1053 45.1846 73.0724 45.4281 72.028 45.4044C70.2079 45.4044 68.4524 43.9111 68.4524 40.7534C68.4524 37.2046 70.4963 34.5685 71.2568 31.344C71.4855 30.261 70.5979 29.6417 69.6019 29.6417C68.3282 29.6417 67.6997 30.5243 67.6997 31.9575C67.7303 32.3378 67.6752 32.72 67.5383 33.0766C67.4014 33.4331 67.1861 33.7551 66.9081 34.0191C66.63 34.2832 66.2961 34.4828 65.9306 34.6034C65.5651 34.724 65.1771 34.7627 64.7946 34.7166C64.6961 34.717 64.5985 34.698 64.5075 34.6606C64.4165 34.6232 64.334 34.5682 64.2648 34.4988C64.1951 34.4292 64.14 34.3468 64.1026 34.2561C64.0652 34.1654 64.0462 34.0684 64.0468 33.9704C64.0468 33.7711 64.1123 33.5659 64.1123 33.0549C64.1067 32.7695 64.0408 32.4884 63.9189 32.2296C63.797 31.9709 63.6219 31.7402 63.4046 31.5525C63.1874 31.3647 62.9328 31.224 62.6574 31.1394C62.382 31.0549 62.0917 31.0282 61.8053 31.0613C60.6342 31.0613 60.0839 31.6477 60.0839 32.541C60.0839 34.0652 61.6558 34.5897 63.1943 35.3542C64.6723 36.0868 66.119 37.039 66.119 39.3017C66.119 43.2172 62.6802 45.4043 58.4124 45.4043C56.2365 45.4043 54.6499 44.9272 53.742 43.8762C52.688 44.8712 51.2833 45.4194 49.8271 45.4043C49.4332 45.4431 49.0354 45.4034 48.6573 45.2874C48.2793 45.1714 47.9285 44.9815 47.6258 44.729C47.3232 44.4764 47.0747 44.1663 46.8952 43.8171C46.7157 43.4678 46.6088 43.0864 46.5808 42.6955C46.5808 42.6955 45.1067 45.4043 40.664 45.4043C39.7114 45.4779 38.7611 45.2364 37.9622 44.7176C37.1632 44.1988 36.5609 43.4321 36.2496 42.5378C33.946 44.4862 30.9884 45.5089 27.9604 45.4043C21.8413 45.4043 18.6801 41.6591 18.6801 35.9078C18.6801 29.7693 23.9927 19.7261 32.3161 19.7261C36.7833 19.7261 39.0717 22.3516 39.0717 25.2848C39.0751 26.0237 38.9314 26.7561 38.6487 27.4399C38.366 28.1238 37.9498 28.7458 37.4241 29.2703C36.8983 29.7948 36.2732 30.2115 35.5846 30.4965C34.896 30.7816 34.1573 30.9294 33.4109 30.9316C31.5361 30.9316 31.0219 30.289 31.0219 29.839C31.0219 28.9913 33.1626 28.4667 33.1626 26.0793C33.1895 25.8151 33.1612 25.5483 33.0794 25.2955C32.9976 25.0427 32.8641 24.8092 32.6873 24.6096C32.5104 24.4101 32.2939 24.2487 32.0513 24.1356C31.8087 24.0225 31.5451 23.9601 31.2771 23.9522C28.2155 23.9522 24.1296 30.1119 24.1296 35.0841C24.1296 39.1119 25.9693 41.2632 29.5322 41.2632C31.6778 41.2632 34.7051 39.6819 35.4773 37.4145C36.6542 33.9548 39.444 27.7903 47.1242 27.7903C50.9726 27.7903 52.3176 29.9609 52.3176 30.949C52.3177 31.1459 52.239 31.3348 52.0986 31.4743C51.9583 31.6138 51.7678 31.6925 51.5689 31.6932C50.4201 31.3008 49.2185 31.0803 48.004 31.039C47.0234 31.0164 46.0482 31.1889 45.1362 31.5462C44.2242 31.9035 43.3939 32.4384 42.6945 33.1192C41.9951 33.8 41.4408 34.6128 41.0645 35.5096C40.6881 36.4063 40.4974 37.3687 40.5036 38.3397C40.5036 40.1339 41.1625 41 42.2523 41C44.4684 41 44.7997 39.0355 45.6824 36.1826C45.852 35.4004 46.2843 34.6981 46.9088 34.1903C47.5333 33.6826 48.3132 33.3993 49.1212 33.3868C50.9159 33.3868 50.9032 34.1765 50.9012 34.3023C50.8665 34.6271 50.7622 34.9409 50.5952 35.2226C50.0434 36.4314 49.7298 37.7335 49.6715 39.0587C49.6715 39.8165 49.9696 40.9788 51.3146 40.9788C53.1455 40.9788 53.1729 37.9274 55.6958 37.9274C55.7948 37.9263 55.8931 37.9448 55.9848 37.982C56.0765 38.0191 56.1598 38.0741 56.2296 38.1437C56.2994 38.2133 56.3544 38.296 56.3913 38.387C56.4283 38.4781 56.4466 38.5755 56.4447 38.6736Z" fill="#121212"/>
</svg>
