<svg width="148" height="64" viewBox="0 0 148 64" fill="none" xmlns="http://www.w3.org/2000/svg">
<path d="M63.6777 38.8435C63.6777 38.8435 67.3729 28.3579 68.3506 26.195C69.3283 24.0311 69.3671 24.0311 70.9118 24.0505C72.6526 24.0699 73.4934 25.2399 72.8672 26.6625C72.2807 27.9873 71.2642 29.917 66.904 31.3009L66.8059 32.0218L69.8564 38.8435H75.2527C75.2527 38.8435 74.5293 37.6939 73.5711 35.9983C72.7101 34.4628 71.9335 32.8818 71.2448 31.2622C73.806 30.5218 76.8371 29.4496 77.5216 26.6044C78.3625 23.0963 73.3759 23.2908 71.6749 23.2715H63.6194L63.2864 24.246C64.5185 24.4792 64.2641 25.1808 63.736 26.7011C62.3282 30.7356 61.6049 32.5096 60.53 35.257C59.4543 38.0054 59.1416 38.8628 59.1416 38.8628H63.6777L63.6777 38.8435Z" fill="white"/>
<path d="M53.9008 30.7946C51.9852 37.323 48.2114 38.1223 46.7443 38.0643C43.7724 37.9279 42.5404 35.5888 43.6161 31.9056C45.5327 25.3762 49.3055 24.5768 50.7726 24.6358C53.7445 24.7723 54.9765 27.1104 53.9008 30.7946ZM50.6357 23.2713C47.7026 23.31 40.2918 24.1674 38.5326 32.431C37.5354 37.0898 40.6442 39.4868 46.6074 39.4278C49.5405 39.3891 56.9513 38.5317 58.7106 30.2681C59.7281 25.6104 56.6193 23.2132 50.6357 23.2713Z" fill="white"/>
<path d="M103.585 23.1934L103.253 24.1486C104.054 24.3624 104.446 24.9479 103.996 26.5457C103.351 28.845 99.3232 38.9609 99.3232 38.9609C99.3232 38.9609 112.189 38.9609 112.306 38.9406L113.245 36.1341H105.385C106.459 33.4254 109.921 23.1934 109.921 23.1934H103.585Z" fill="white"/>
<path d="M90.9933 32.4313H86.5349C86.4767 32.4313 86.398 32.3335 86.4573 32.2755C86.5738 32.0809 89.0185 28.689 90.1525 27.2277C90.4062 28.9326 90.7454 30.6238 91.169 32.2949C91.1885 32.3732 91.1108 32.4313 90.9933 32.4313ZM88.2166 24.7135C87.5515 25.4731 77.6387 38.921 77.6387 38.921H81.9592L85.6942 33.8935H91.4622L92.7924 38.9413H97.4264C97.4264 38.9413 94.0438 25.3367 93.672 24.1096C93.3001 22.8815 89.7807 22.9202 88.2166 24.7135Z" fill="white"/>
<path d="M26.7029 37.4597C23.8679 37.3039 23.2814 35.0239 24.0436 31.5739C25.3931 25.4151 29.0495 25.1422 30.4573 25.2399C32.0991 25.3367 32.5098 26.0587 32.9011 27.2664H37.5157C36.5574 25.1228 34.2894 23.0761 29.5185 23.2125C28.0126 23.2512 19.9377 24.0893 18.6473 31.4761C18.2367 33.8539 19.4483 39.2916 27.133 39.0778C28.267 39.0381 33.6049 38.8823 35.5021 35.1603H30.6136C30.2609 35.8845 29.7017 36.4888 29.0061 36.8978C28.3105 37.3068 27.5094 37.5022 26.7029 37.4597Z" fill="white"/>
<path d="M114.125 33.6982C115.591 32.5679 117.918 31.0476 120.498 31.515C121.925 31.9314 123.444 31.9111 124.859 31.457C123.682 31.1341 122.674 30.3739 122.043 29.3328C123.252 29.0026 124.401 28.4828 125.446 27.7931C124.519 27.0411 123.355 26.6407 122.161 26.6627C119.384 26.6434 117.839 27.5976 115.689 28.9815L114.125 33.6982Z" fill="white"/>
<path d="M129.415 23.8755C128.731 24.5578 127.518 25.6687 124.879 24.6158C124.008 24.2955 123.074 24.1815 122.151 24.283C121.228 24.3844 120.341 24.6985 119.561 25.2004L118.094 29.5668C119.717 28.5923 121.535 27.7146 123.471 28.4559C124.178 28.8217 124.97 28.9912 125.764 28.9466C126.559 28.9019 127.327 28.6449 127.988 28.2023L129.415 23.8755Z" fill="white"/>
<path d="M129.415 23.8755C128.731 24.5578 127.518 25.6687 124.879 24.6158C124.008 24.2955 123.074 24.1815 122.151 24.283C121.228 24.3844 120.341 24.6985 119.561 25.2004L118.094 29.5668C119.717 28.5923 121.535 27.7146 123.471 28.4559C124.178 28.8217 124.97 28.9912 125.764 28.9466C126.559 28.9019 127.327 28.6449 127.988 28.2023L129.415 23.8755Z" stroke="white" stroke-width="0.403" stroke-linecap="round" stroke-linejoin="round"/>
<path d="M116.217 27.481C118.367 26.0972 119.912 25.142 122.689 25.1614C125.074 25.1817 126.6 24.9088 128.653 22.1023C127.852 22.6161 126.94 22.935 125.993 23.0331C125.045 23.1313 124.088 23.006 123.197 22.6675C122.276 22.3704 121.3 22.2758 120.338 22.3901C119.376 22.5043 118.451 22.8248 117.625 23.3294L116.217 27.481Z" fill="white"/>
<path d="M116.217 27.481C118.367 26.0972 119.912 25.142 122.689 25.1614C125.074 25.1817 126.6 24.9088 128.653 22.1023C127.852 22.6161 126.94 22.935 125.993 23.0331C125.045 23.1313 124.088 23.006 123.197 22.6675C122.276 22.3704 121.3 22.2758 120.338 22.3901C119.376 22.5043 118.451 22.8248 117.625 23.3294L116.217 27.481Z" stroke="white" stroke-width="0.403" stroke-linecap="round" stroke-linejoin="round"/>
</svg>
