<svg width="148" height="64" viewBox="0 0 148 64" fill="none" xmlns="http://www.w3.org/2000/svg">
<path d="M121.8 32.814C122.223 32.8104 122.641 32.7194 123.027 32.5468C123.414 32.3743 123.76 32.1239 124.044 31.8115C124.649 31.1931 124.983 30.361 124.973 29.4976C124.978 29.1247 124.899 28.7555 124.741 28.4176C124.583 28.0148 124.346 27.6476 124.044 27.3376C123.756 27.0302 123.409 26.7832 123.023 26.6111C122.638 26.4389 122.222 26.3451 121.8 26.335H116.769V29.7289C116.789 29.9128 116.735 30.0971 116.619 30.2416C116.504 30.3861 116.335 30.4791 116.151 30.5002C115.763 30.5002 115.531 30.1914 115.531 29.7289V25.6401C115.531 25.255 115.686 24.8688 116.073 24.8688H121.8C122.438 24.8857 123.067 25.0165 123.658 25.255C124.224 25.4983 124.727 25.8678 125.128 26.335C125.559 26.78 125.901 27.3038 126.133 27.8776C126.372 28.4128 126.504 28.9894 126.521 29.5749C126.52 30.2617 126.388 30.942 126.133 31.5801C125.918 32.1405 125.573 32.6427 125.128 33.0462C124.709 33.474 124.209 33.8148 123.658 34.0488C123.067 34.287 122.438 34.4174 121.8 34.434H116.073C115.868 34.4338 115.671 34.3525 115.526 34.2078C115.381 34.0632 115.299 33.8672 115.299 33.6627C115.285 33.5545 115.295 33.4446 115.328 33.3405C115.36 33.2364 115.416 33.1407 115.489 33.0599C115.563 32.9792 115.653 32.9154 115.754 32.8729C115.855 32.8305 115.964 32.8103 116.073 32.814L121.8 32.814ZM121.026 21.7837H116.151C115.95 21.7971 115.761 21.8827 115.618 22.0245C115.476 22.1663 115.39 22.3548 115.377 22.555C115.375 22.6568 115.394 22.7579 115.432 22.8524C115.47 22.9468 115.527 23.0326 115.599 23.1047C115.671 23.1767 115.758 23.2334 115.852 23.2715C115.947 23.3096 116.049 23.3282 116.151 23.3263H121.103C122.484 23.2173 123.865 23.5445 125.049 24.2615C126.233 24.9784 127.16 26.0487 127.7 27.3205C128.239 28.5924 128.363 30.0012 128.054 31.3473C127.746 32.6935 127.019 33.9085 125.979 34.8202C125.663 35.1009 125.326 35.3587 124.973 35.5915C124.843 35.6853 124.749 35.8206 124.707 35.975C124.665 36.1294 124.677 36.2936 124.741 36.4402L126.443 40.4515C126.512 40.5796 126.612 40.6888 126.734 40.7695C126.855 40.8502 126.995 40.8998 127.14 40.9141C127.249 40.9255 127.359 40.8981 127.45 40.8367C127.614 40.7496 127.749 40.6155 127.836 40.4515C127.836 40.3741 127.836 40.3741 127.914 40.2967V40.2202C127.925 40.1114 127.898 40.002 127.836 39.9115L126.366 36.5941C126.651 36.4237 126.911 36.2164 127.14 35.9776C132.557 30.5001 128.92 21.7837 121.026 21.7837ZM113.984 22.555V40.1427C113.987 40.3354 113.917 40.5222 113.788 40.6653C113.658 40.8085 113.479 40.8974 113.286 40.914C113.183 40.9202 113.08 40.9045 112.983 40.8679C112.886 40.8313 112.799 40.7747 112.726 40.7018C112.652 40.629 112.596 40.5414 112.559 40.445C112.522 40.3487 112.506 40.2456 112.513 40.1427V22.4775C112.533 22.2869 112.623 22.1106 112.766 21.9825C112.909 21.8544 113.095 21.7835 113.287 21.7835C113.479 21.7835 113.665 21.8544 113.808 21.9825C113.951 22.1106 114.041 22.2869 114.061 22.4775L113.984 22.555ZM74.1275 22.555V36.3628C74.1185 36.5518 74.0442 36.7319 73.9172 36.8725C73.7901 37.0131 73.6181 37.1055 73.4305 37.1341H73.3537C73.1867 37.1306 73.0246 37.077 72.8886 36.9802L58.0301 24.1749V40.1427C58.0298 40.3472 57.9481 40.5431 57.8031 40.6877C57.6581 40.8323 57.4615 40.9137 57.2563 40.914C57.1531 40.9202 57.0497 40.9045 56.953 40.8679C56.8563 40.8314 56.7685 40.7748 56.6954 40.7019C56.6222 40.629 56.5655 40.5414 56.5288 40.4451C56.4921 40.3487 56.4763 40.2456 56.4825 40.1427V22.5549C56.4795 22.4535 56.4987 22.3526 56.5387 22.2594C56.5788 22.1661 56.6388 22.0827 56.7145 22.0149C56.8398 21.8752 57.0144 21.7891 57.2019 21.7747C57.3893 21.7603 57.5751 21.8186 57.7204 21.9375L72.5799 34.7427V22.5549C72.5801 22.3504 72.6617 22.1543 72.8068 22.0097C72.9518 21.8651 73.1485 21.7838 73.3537 21.7836C73.5544 21.7972 73.7434 21.8828 73.8857 22.0246C74.028 22.1664 74.1139 22.3549 74.1275 22.555ZM71.0314 22.5549V30.2689C71.0311 30.4733 70.9496 30.6694 70.8045 30.814C70.6594 30.9586 70.4627 31.0399 70.2576 31.0402C70.1543 31.0463 70.051 31.0306 69.9543 30.994C69.8576 30.9575 69.7698 30.9009 69.6966 30.828C69.6235 30.7551 69.5667 30.6676 69.53 30.5712C69.4933 30.4748 69.4776 30.3718 69.4838 30.2689V22.5549C69.4848 22.351 69.5668 22.1559 69.7118 22.0122C69.8568 21.8684 70.053 21.7877 70.2575 21.7877C70.4621 21.7877 70.6583 21.8684 70.8033 22.0122C70.9483 22.1559 71.0303 22.351 71.0314 22.5549ZM73.508 39.6027C73.5844 39.6685 73.6471 39.7487 73.6924 39.8386C73.7377 39.9285 73.7647 40.0265 73.772 40.1269C73.7793 40.2272 73.7666 40.328 73.7348 40.4235C73.703 40.519 73.6526 40.6073 73.5865 40.6834C73.5204 40.7594 73.4399 40.8218 73.3496 40.8668C73.2593 40.9118 73.161 40.9387 73.0603 40.9458C72.9596 40.9529 72.8585 40.9402 72.7627 40.9083C72.6669 40.8765 72.5784 40.8261 72.5022 40.7601L60.971 30.8088V40.1427C60.9715 40.2444 60.9519 40.3451 60.9132 40.4391C60.8746 40.5332 60.8177 40.6187 60.7458 40.6908C60.6739 40.7628 60.5884 40.82 60.4942 40.859C60.4001 40.898 60.2991 40.9181 60.1972 40.9181C60.0952 40.9181 59.9942 40.898 59.9001 40.859C59.8059 40.82 59.7205 40.7628 59.6486 40.6908C59.5766 40.6187 59.5197 40.5332 59.4811 40.4391C59.4424 40.3451 59.4228 40.2444 59.4234 40.1427V29.1888C59.4323 28.9867 59.5148 28.7947 59.6554 28.6488C59.7202 28.5711 59.8002 28.5071 59.8904 28.4609C59.9807 28.4147 60.0794 28.3872 60.1806 28.38C60.2818 28.3727 60.3834 28.386 60.4794 28.4189C60.5753 28.4518 60.6636 28.5037 60.7389 28.5714L73.508 39.6027ZM21.9663 26.4114V37.134C21.9644 37.3375 21.882 37.532 21.737 37.6752C21.592 37.8184 21.3961 37.8988 21.192 37.8988C20.9879 37.8988 20.792 37.8184 20.647 37.6752C20.502 37.532 20.4196 37.3375 20.4177 37.134V25.6401C20.4116 25.5194 20.437 25.3993 20.4912 25.2912C20.5455 25.1832 20.6269 25.091 20.7274 25.0236C20.8688 24.9378 21.0278 24.8849 21.1925 24.8688H24.9838C25.8437 24.8494 26.699 25.0001 27.5001 25.3121C28.3013 25.6241 29.0325 26.0913 29.6514 26.6867C30.2704 27.282 30.7648 27.9937 31.1062 28.7807C31.4476 29.5676 31.6291 30.4142 31.6403 31.2715C31.6272 33.027 30.9217 34.707 29.6762 35.9483C28.4306 37.1896 26.7451 37.8926 24.9838 37.9054H23.978C23.7735 37.9043 23.5777 37.8225 23.4335 37.678C23.2893 37.5335 23.2083 37.3379 23.2083 37.1341C23.2083 36.9302 23.2893 36.7347 23.4335 36.5901C23.5777 36.4456 23.7735 36.3639 23.978 36.3628H24.9071C26.2459 36.3349 27.5208 35.7871 28.4604 34.8362C29.3999 33.8852 29.9299 32.6061 29.9374 31.2715C29.953 30.629 29.8376 29.99 29.5982 29.3933C29.3587 28.7965 29.0001 28.2545 28.5442 27.8001C28.0882 27.3456 27.5445 26.9882 26.9458 26.7495C26.3472 26.5108 25.7061 26.3958 25.0615 26.4114L21.9663 26.4114ZM25.2169 23.3262H21.1925C21.0906 23.3268 20.9895 23.3072 20.8951 23.2687C20.8008 23.2302 20.715 23.1734 20.6427 23.1018C20.5704 23.0301 20.513 22.9449 20.4739 22.851C20.4348 22.7572 20.4146 22.6566 20.4146 22.5549C20.4146 22.4533 20.4348 22.3527 20.4739 22.2588C20.513 22.165 20.5704 22.0798 20.6427 22.0081C20.715 21.9364 20.8008 21.8797 20.8951 21.8412C20.9895 21.8027 21.0906 21.7831 21.1925 21.7836H25.2169C26.0275 21.7673 26.836 21.8714 27.6159 22.0924C27.6927 22.0924 27.7703 22.1688 27.9247 22.1688C28.08 22.2462 28.1577 22.2462 28.3121 22.3236C28.3897 22.3236 28.4665 22.401 28.5441 22.401C28.6218 22.401 28.6994 22.4775 28.8538 22.4775C29.1264 22.5747 29.3862 22.7044 29.6276 22.8636C29.7053 22.8636 29.783 22.9401 29.8597 22.9401C30.0825 23.0407 30.2908 23.1705 30.4791 23.3262C30.6335 23.4036 30.7112 23.4801 30.8655 23.5575C31.2453 23.8159 31.6073 24.0994 31.949 24.4062L32.4141 24.8687C32.4908 24.9462 32.5685 25.0235 32.5685 25.1C32.7238 25.3323 32.9558 25.4862 33.1102 25.7175C33.4131 26.1266 33.6724 26.5661 33.8841 27.0287C33.8841 27.1062 33.9617 27.1835 33.9617 27.26C33.9617 27.3375 34.0394 27.4149 34.0394 27.4913C34.0394 27.5688 34.1161 27.5688 34.1161 27.6461C34.1993 27.9107 34.3029 28.1686 34.4258 28.4174C34.4258 28.4948 34.4258 28.4948 34.5035 28.5713C34.7509 29.4768 34.8807 30.4103 34.8899 31.3487C34.8975 33.7166 34.0141 36.0011 32.4141 37.7514L32.2588 37.9052C31.8499 38.3752 31.3816 38.7904 30.8655 39.1402C30.7112 39.2167 30.6335 39.2941 30.4791 39.3715C30.247 39.5254 30.0917 39.6028 29.8597 39.7566C29.783 39.7566 29.7053 39.8341 29.6276 39.8341C29.3179 39.9889 28.9315 40.1428 28.5441 40.2967C28.4664 40.2967 28.3897 40.3741 28.3121 40.3741L27.6159 40.6054C26.8361 40.8263 26.0275 40.9304 25.2169 40.9141H18.0963C17.8921 40.9126 17.6968 40.8306 17.5529 40.6862C17.409 40.5417 17.3283 40.3464 17.3283 40.1428C17.3283 39.9392 17.409 39.7439 17.5529 39.5994C17.6968 39.455 17.8921 39.373 18.0963 39.3715H25.2169C27.3499 39.369 29.3947 38.5227 30.9021 37.0185C32.4095 35.5142 33.2562 33.475 33.2562 31.3489C33.2562 29.2228 32.4095 27.1836 30.9021 25.6793C29.3947 24.1751 27.3499 23.3287 25.2169 23.3262ZM18.0963 37.9054C17.8912 37.905 17.6946 37.8237 17.5496 37.6791C17.4045 37.5345 17.3229 37.3386 17.3225 37.1341V22.5549C17.3229 22.3505 17.4045 22.1545 17.5496 22.0099C17.6946 21.8654 17.8912 21.784 18.0963 21.7836C18.1996 21.7774 18.3029 21.7931 18.3996 21.8297C18.4963 21.8663 18.5841 21.9229 18.6572 21.9958C18.7304 22.0687 18.7872 22.1562 18.8239 22.2526C18.8605 22.349 18.8763 22.452 18.8701 22.5549V37.0576C18.8719 37.27 18.7932 37.4753 18.6497 37.6325C18.5063 37.7896 18.3087 37.8871 18.0963 37.9054ZM80.9374 26.4114V37.134C80.9363 37.3379 80.8543 37.533 80.7093 37.6768C80.5643 37.8205 80.3681 37.9012 80.1636 37.9012C79.9591 37.9012 79.7629 37.8205 79.6179 37.6768C79.4729 37.533 79.3909 37.3379 79.3898 37.134V25.6401C79.3837 25.5194 79.409 25.3993 79.4633 25.2912C79.5176 25.1832 79.5989 25.091 79.6995 25.0236C79.8405 24.9378 79.9992 24.8849 80.1636 24.8688H83.9559C84.8158 24.8495 85.6709 25.0003 86.472 25.3123C87.273 25.6244 88.0041 26.0916 88.6229 26.687C89.2418 27.2823 89.7361 27.994 90.0774 28.7809C90.4187 29.5677 90.6002 30.4142 90.6113 31.2715C90.5984 33.0269 89.893 34.7067 88.6476 35.948C87.4023 37.1893 85.717 37.8924 83.9559 37.9054H82.95C82.7455 37.9043 82.5498 37.8225 82.4055 37.678C82.2613 37.5335 82.1803 37.3379 82.1803 37.1341C82.1803 36.9302 82.2613 36.7347 82.4055 36.5901C82.5498 36.4456 82.7455 36.3639 82.95 36.3628H83.8782C85.2171 36.3351 86.4922 35.7874 87.432 34.8364C88.3717 33.8854 88.9019 32.6063 88.9094 31.2715C88.925 30.629 88.8095 29.99 88.57 29.3933C88.3305 28.7967 87.9719 28.2547 87.516 27.8003C87.0601 27.3458 86.5163 26.9884 85.9177 26.7497C85.3191 26.5109 84.6781 26.3959 84.0335 26.4114L80.9374 26.4114ZM84.1879 23.3262H80.1636C80.0616 23.3268 79.9606 23.3072 79.8662 23.2687C79.7718 23.2302 79.6861 23.1734 79.6138 23.1018C79.5415 23.0301 79.4841 22.9449 79.445 22.851C79.4058 22.7572 79.3857 22.6566 79.3857 22.5549C79.3857 22.4533 79.4058 22.3527 79.445 22.2588C79.4841 22.165 79.5415 22.0798 79.6138 22.0081C79.6861 21.9364 79.7718 21.8797 79.8662 21.8412C79.9606 21.8027 80.0616 21.7831 80.1636 21.7836H84.1879C84.9985 21.7673 85.8071 21.8713 86.587 22.0924C86.6646 22.0924 86.7424 22.1688 86.8967 22.1688C87.0511 22.2462 87.1287 22.2462 87.2841 22.3236C87.3608 22.3236 87.4385 22.401 87.5161 22.401C87.5928 22.401 87.6705 22.4775 87.8258 22.4775C88.0984 22.5747 88.3582 22.7044 88.5996 22.8636C88.6764 22.8636 88.754 22.9401 88.8317 22.9401C88.9094 23.0949 89.1414 23.1723 89.2958 23.3262C89.4511 23.4036 89.5278 23.4801 89.6832 23.5575C90.0626 23.8163 90.4246 24.0998 90.7667 24.4062L91.2308 24.8687C91.3085 24.9462 91.3851 25.0235 91.3851 25.1C91.5404 25.3323 91.7725 25.4862 91.9269 25.7175C92.2297 26.1266 92.4891 26.5661 92.7007 27.0287C92.7007 27.1062 92.7784 27.1835 92.7784 27.26C92.7784 27.3375 92.856 27.4149 92.856 27.4913C92.856 27.5688 92.9337 27.5688 92.9337 27.6461C93.0161 27.9109 93.1194 28.1688 93.2424 28.4174C93.2424 28.4948 93.2424 28.4948 93.3201 28.5713C93.5678 29.4768 93.698 30.4102 93.7075 31.3487C93.7148 33.7167 92.831 36.0012 91.2308 37.7514L91.0754 37.9052C90.6669 38.3752 90.1989 38.7904 89.6832 39.1402C89.5278 39.2167 89.4511 39.2941 89.2958 39.3715C89.0637 39.5254 88.9094 39.6028 88.6764 39.7566C88.5996 39.7566 88.5219 39.8341 88.4443 39.8341C88.1346 39.9889 87.7482 40.1428 87.3608 40.2967C87.2841 40.2967 87.2064 40.3741 87.1287 40.3741L86.4326 40.6054C85.6527 40.8264 84.8441 40.9304 84.0335 40.9141H76.913C76.7088 40.9126 76.5134 40.8306 76.3696 40.6862C76.2257 40.5417 76.145 40.3464 76.145 40.1428C76.145 39.9392 76.2257 39.7439 76.3696 39.5994C76.5134 39.455 76.7088 39.373 76.913 39.3715H84.0335C85.0925 39.3788 86.1424 39.1762 87.1222 38.7756C88.102 38.375 88.9922 37.7843 89.741 37.0379C90.4899 36.2915 91.0825 35.4042 91.4844 34.4276C91.8863 33.451 92.0895 32.4045 92.0823 31.3489C92.1068 30.3016 91.9206 29.2601 91.5345 28.2858C91.1484 27.3114 90.5703 26.4241 89.8344 25.6763C89.0985 24.9284 88.2197 24.3351 87.2499 23.9315C86.28 23.5279 85.2388 23.322 84.1879 23.3262ZM77.0684 37.9054C76.8632 37.9052 76.6665 37.8239 76.5214 37.6793C76.3764 37.5347 76.2948 37.3386 76.2946 37.1341V22.5549C76.2956 22.351 76.3777 22.1559 76.5227 22.0122C76.6676 21.8684 76.8638 21.7877 77.0684 21.7877C77.2729 21.7877 77.4691 21.8684 77.6141 22.0122C77.7591 22.1559 77.8411 22.351 77.8422 22.5549V37.0576C77.8438 37.27 77.765 37.4752 77.6216 37.6323C77.4782 37.7894 77.2807 37.887 77.0684 37.9054ZM96.6484 38.0601C96.5567 38.0605 96.4659 38.0428 96.3811 38.008C96.2964 37.9733 96.2194 37.9221 96.1546 37.8575C96.0898 37.7929 96.0384 37.7161 96.0035 37.6316C95.9686 37.5472 95.9509 37.4566 95.9513 37.3652V22.5549C95.952 22.3712 96.0257 22.1953 96.1563 22.0657C96.2868 21.9361 96.4636 21.8633 96.6479 21.8633C96.8322 21.8633 97.0089 21.9361 97.1395 22.0657C97.2701 22.1953 97.3438 22.3712 97.3445 22.5549V37.3653C97.3449 37.4566 97.3272 37.547 97.2924 37.6315C97.2576 37.7159 97.2064 37.7926 97.1416 37.8572C97.0769 37.9218 97 37.973 96.9154 38.0079C96.8307 38.0427 96.74 38.0604 96.6484 38.0601ZM109.418 39.5253C109.602 39.5261 109.778 39.5995 109.908 39.7297C110.038 39.8598 110.111 40.036 110.111 40.2197C110.111 40.4034 110.038 40.5796 109.908 40.7097C109.778 40.8398 109.602 40.9133 109.418 40.914H96.6484C96.5567 40.9144 96.4658 40.8967 96.3809 40.862C96.2961 40.8272 96.219 40.7762 96.154 40.7116C96.089 40.6471 96.0375 40.5705 96.0023 40.486C95.9671 40.4016 95.949 40.3111 95.949 40.2197C95.949 40.1283 95.9671 40.0378 96.0023 39.9533C96.0375 39.8689 96.089 39.7922 96.154 39.7277C96.219 39.6632 96.2961 39.6121 96.3809 39.5774C96.4658 39.5427 96.5567 39.525 96.6484 39.5253H109.418ZM105.471 33.3539H100.285V36.594H109.495C109.679 36.5947 109.856 36.6682 109.986 36.7983C110.116 36.9284 110.189 37.1046 110.189 37.2883C110.189 37.472 110.116 37.6482 109.986 37.7783C109.856 37.9085 109.679 37.982 109.495 37.9827H99.5892C99.4976 37.9831 99.4069 37.9655 99.3221 37.9308C99.2374 37.8961 99.1604 37.845 99.0956 37.7805C99.0308 37.716 98.9795 37.6393 98.9445 37.5549C98.9096 37.4705 98.8918 37.3801 98.8921 37.2888V32.5827C98.8918 32.4914 98.9096 32.401 98.9445 32.3166C98.9795 32.2322 99.0308 32.1555 99.0956 32.091C99.1604 32.0265 99.2374 31.9754 99.3221 31.9407C99.4069 31.906 99.4976 31.8884 99.5892 31.8888H105.548C105.639 31.8884 105.73 31.906 105.815 31.9407C105.899 31.9754 105.976 32.0265 106.041 32.091C106.106 32.1555 106.157 32.2322 106.192 32.3166C106.227 32.401 106.245 32.4914 106.245 32.5827C106.244 32.7871 106.163 32.9831 106.018 33.1277C105.873 33.2722 105.676 33.3536 105.471 33.3539ZM109.495 24.7923C109.68 24.7923 109.857 24.8654 109.987 24.9955C110.118 25.1257 110.191 25.3022 110.191 25.4862C110.191 25.6702 110.118 25.8467 109.987 25.9769C109.857 26.107 109.68 26.1801 109.495 26.1801H100.285V28.9575H105.471C105.655 28.9582 105.832 29.0317 105.962 29.1619C106.092 29.292 106.165 29.4682 106.165 29.6519C106.165 29.8356 106.092 30.0118 105.962 30.1419C105.832 30.272 105.655 30.3455 105.471 30.3462H99.5115C99.4199 30.3466 99.3291 30.3289 99.2444 30.2941C99.1597 30.2593 99.0828 30.2081 99.0181 30.1435C98.9533 30.0789 98.9021 30.0022 98.8673 29.9177C98.8325 29.8332 98.8148 29.7427 98.8154 29.6514V25.4088C98.8149 25.3176 98.8327 25.2271 98.8675 25.1428C98.9024 25.0584 98.9536 24.9817 99.0183 24.9172C99.0831 24.8527 99.16 24.8016 99.2446 24.7669C99.3293 24.7322 99.42 24.7145 99.5115 24.7149H109.495V24.7923ZM99.5892 23.2488C99.3841 23.2484 99.1875 23.167 99.0424 23.0224C98.8974 22.8779 98.8158 22.6819 98.8154 22.4775C98.8091 22.3745 98.8248 22.2715 98.8615 22.1751C98.8981 22.0786 98.9549 21.9911 99.0281 21.9182C99.1012 21.8453 99.1891 21.7887 99.2858 21.7521C99.3825 21.7156 99.4859 21.6999 99.5892 21.7062H109.495C109.7 21.7067 109.897 21.7882 110.042 21.9327C110.187 22.0772 110.268 22.2731 110.269 22.4775C110.275 22.5804 110.259 22.6834 110.223 22.7798C110.186 22.8762 110.129 22.9637 110.056 23.0366C109.983 23.1095 109.895 23.1661 109.799 23.2026C109.702 23.2392 109.598 23.2549 109.495 23.2488H99.5892ZM45.6473 40.9915C44.4769 40.9922 43.3184 40.7558 42.2424 40.2966C41.2239 39.8256 40.2841 39.2011 39.4559 38.4453C38.6642 37.6469 38.0336 36.7044 37.5987 35.6688C37.1387 34.5961 36.9019 33.4415 36.9025 32.275V22.6323C36.9036 22.4285 36.9856 22.2333 37.1306 22.0896C37.2756 21.9458 37.4718 21.8651 37.6763 21.8651C37.8808 21.8651 38.077 21.9458 38.222 22.0896C38.367 22.2333 38.449 22.4285 38.4501 22.6323V32.2749C38.4354 33.2279 38.6199 34.1734 38.9919 35.0514C39.3431 35.898 39.8706 36.6606 40.5395 37.2888C41.1905 37.9311 41.9505 38.4534 42.7842 38.8314C43.6631 39.2095 44.6137 39.3937 45.5707 39.3714C46.5267 39.3861 47.4753 39.2022 48.3561 38.8314C49.2054 38.4813 49.9705 37.9556 50.6008 37.2888C51.2452 36.64 51.7692 35.8825 52.1484 35.0514C52.5281 34.1758 52.7129 33.2286 52.6902 32.2749V22.6323C52.6913 22.4284 52.7733 22.2333 52.9183 22.0895C53.0633 21.9458 53.2595 21.8651 53.464 21.8651C53.6685 21.8651 53.8647 21.9458 54.0097 22.0895C54.1547 22.2333 54.2367 22.4284 54.2378 22.6323V32.2749C54.2384 33.4415 54.0016 34.5961 53.5417 35.6688C53.069 36.6837 52.4425 37.6201 51.6843 38.4453C50.8833 39.2349 49.9373 39.8634 48.8979 40.2966C47.8812 40.7708 46.7697 41.0084 45.6473 40.9915ZM45.6473 37.8289C44.8999 37.8315 44.1608 37.6734 43.4803 37.3653C42.8319 37.0716 42.2319 36.6817 41.7006 36.2089C41.1751 35.7197 40.7767 35.1106 40.5395 34.434C40.2299 33.6211 40.0726 32.7584 40.0754 31.8888V25.5636C40.0749 25.462 40.0945 25.3613 40.1331 25.2672C40.1718 25.1732 40.2287 25.0877 40.3006 25.0156C40.3725 24.9435 40.458 24.8864 40.5521 24.8474C40.6463 24.8083 40.7473 24.7882 40.8492 24.7882C40.9512 24.7882 41.0521 24.8083 41.1463 24.8474C41.2404 24.8864 41.3259 24.9435 41.3978 25.0156C41.4697 25.0877 41.5266 25.1732 41.5653 25.2672C41.6039 25.3613 41.6236 25.462 41.623 25.5636V31.8888C41.6052 33.0731 42.0177 34.2239 42.7842 35.1288C43.5518 35.8705 44.5789 36.2853 45.6479 36.2853C46.7169 36.2853 47.744 35.8705 48.5115 35.1288C49.2778 34.2237 49.6899 33.073 49.6717 31.8888V22.5549C49.6655 22.452 49.6813 22.349 49.718 22.2526C49.7547 22.1562 49.8115 22.0687 49.8846 21.9958C49.9577 21.9229 50.0456 21.8663 50.1422 21.8297C50.2389 21.7931 50.3423 21.7774 50.4455 21.7836C50.6507 21.784 50.8473 21.8654 50.9923 22.0099C51.1373 22.1545 51.219 22.3505 51.2193 22.5549V31.8888C51.2227 32.7584 51.0654 33.6212 50.7552 34.434C50.4605 35.0808 50.069 35.6792 49.5941 36.2089C49.1036 36.7324 48.4929 37.1293 47.8144 37.3653C47.134 37.6735 46.3947 37.8316 45.6473 37.8289ZM116.615 40.1427C116.623 40.2396 116.611 40.337 116.58 40.4291C116.549 40.5213 116.499 40.606 116.434 40.6783C116.369 40.7505 116.289 40.8087 116.201 40.8493C116.112 40.8898 116.016 40.9119 115.919 40.914C115.815 40.9203 115.712 40.9046 115.615 40.8681C115.519 40.8316 115.431 40.775 115.358 40.702C115.284 40.6291 115.228 40.5416 115.191 40.4451C115.154 40.3487 115.139 40.2456 115.145 40.1427V36.594C115.145 36.2853 115.299 35.9001 115.995 35.9001H122.419C122.569 35.8924 122.719 35.9332 122.844 36.0165C122.97 36.0998 123.065 36.2212 123.116 36.3627L123.27 36.6714L124.354 39.1401L124.664 39.9114C124.725 40.0019 124.753 40.1113 124.741 40.2201V40.2966C124.741 40.374 124.741 40.4514 124.664 40.4514C124.576 40.6156 124.441 40.7498 124.276 40.8366C124.186 40.898 124.076 40.9255 123.967 40.914C123.818 40.9155 123.672 40.8722 123.547 40.7897C123.423 40.7072 123.327 40.5893 123.27 40.4514L122.806 39.5253L121.8 37.3652H116.46L116.615 40.1427Z" fill="white"/>
</svg>
