<svg width="148" height="64" viewBox="0 0 148 64" fill="none" xmlns="http://www.w3.org/2000/svg">
<path d="M121.8 32.814C122.223 32.8104 122.641 32.7194 123.027 32.5468C123.413 32.3743 123.76 32.1239 124.044 31.8115C124.649 31.1931 124.983 30.361 124.973 29.4976C124.978 29.1247 124.899 28.7555 124.741 28.4176C124.583 28.0148 124.346 27.6476 124.044 27.3376C123.756 27.0302 123.409 26.7832 123.023 26.6111C122.638 26.4389 122.222 26.3451 121.8 26.335H116.769V29.7289C116.789 29.9128 116.735 30.0971 116.619 30.2416C116.503 30.3861 116.335 30.4791 116.151 30.5002C115.763 30.5002 115.531 30.1914 115.531 29.7289V25.6401C115.531 25.255 115.685 24.8688 116.073 24.8688H121.8C122.437 24.8857 123.067 25.0165 123.657 25.255C124.224 25.4983 124.727 25.8678 125.127 26.335C125.559 26.78 125.9 27.3038 126.133 27.8776C126.372 28.4128 126.504 28.9894 126.521 29.5749C126.52 30.2617 126.388 30.942 126.133 31.5801C125.918 32.1405 125.573 32.6427 125.127 33.0462C124.709 33.474 124.209 33.8148 123.657 34.0488C123.066 34.287 122.437 34.4174 121.8 34.434H116.073C115.868 34.4338 115.671 34.3525 115.526 34.2078C115.381 34.0632 115.299 33.8672 115.299 33.6627C115.285 33.5545 115.295 33.4446 115.327 33.3405C115.36 33.2364 115.415 33.1407 115.489 33.0599C115.563 32.9792 115.653 32.9154 115.754 32.8729C115.855 32.8305 115.963 32.8103 116.073 32.814L121.8 32.814ZM121.026 21.7837H116.151C115.95 21.7971 115.761 21.8827 115.618 22.0245C115.476 22.1663 115.39 22.3548 115.377 22.555C115.375 22.6568 115.393 22.7579 115.432 22.8524C115.47 22.9468 115.527 23.0326 115.599 23.1047C115.671 23.1767 115.757 23.2334 115.852 23.2715C115.947 23.3096 116.048 23.3282 116.151 23.3263H121.103C122.484 23.2173 123.864 23.5445 125.048 24.2615C126.232 24.9784 127.16 26.0487 127.7 27.3205C128.239 28.5924 128.363 30.0012 128.054 31.3473C127.746 32.6935 127.019 33.9085 125.979 34.8202C125.662 35.1009 125.326 35.3587 124.973 35.5915C124.843 35.6853 124.749 35.8206 124.707 35.975C124.665 36.1294 124.677 36.2936 124.741 36.4402L126.443 40.4515C126.512 40.5796 126.612 40.6888 126.734 40.7695C126.855 40.8502 126.995 40.8998 127.14 40.9141C127.249 40.9255 127.359 40.8981 127.45 40.8367C127.614 40.7496 127.749 40.6155 127.836 40.4515C127.836 40.3741 127.836 40.3741 127.914 40.2967V40.2202C127.925 40.1114 127.898 40.002 127.836 39.9115L126.366 36.5941C126.65 36.4237 126.911 36.2164 127.14 35.9776C132.557 30.5001 128.92 21.7837 121.026 21.7837ZM113.983 22.555V40.1427C113.987 40.3354 113.917 40.5222 113.787 40.6653C113.658 40.8085 113.479 40.8974 113.286 40.914C113.183 40.9202 113.08 40.9045 112.983 40.8679C112.886 40.8313 112.799 40.7747 112.725 40.7018C112.652 40.629 112.596 40.5414 112.559 40.445C112.522 40.3487 112.506 40.2456 112.513 40.1427V22.4775C112.533 22.2869 112.623 22.1106 112.766 21.9825C112.909 21.8544 113.095 21.7835 113.287 21.7835C113.479 21.7835 113.665 21.8544 113.808 21.9825C113.95 22.1106 114.041 22.2869 114.061 22.4775L113.983 22.555ZM74.1274 22.555V36.3628C74.1184 36.5518 74.0441 36.7319 73.917 36.8725C73.79 37.0131 73.618 37.1055 73.4303 37.1341H73.3536C73.1866 37.1306 73.0245 37.077 72.8885 36.9802L58.03 24.1749V40.1427C58.0296 40.3472 57.948 40.5431 57.803 40.6877C57.6579 40.8323 57.4613 40.9137 57.2562 40.914C57.153 40.9202 57.0496 40.9045 56.9529 40.8679C56.8562 40.8314 56.7684 40.7748 56.6953 40.7019C56.6221 40.629 56.5653 40.5414 56.5286 40.4451C56.4919 40.3487 56.4762 40.2456 56.4824 40.1427V22.5549C56.4794 22.4535 56.4986 22.3526 56.5386 22.2594C56.5787 22.1661 56.6387 22.0827 56.7144 22.0149C56.8397 21.8752 57.0143 21.7891 57.2017 21.7747C57.3892 21.7603 57.5749 21.8186 57.7203 21.9375L72.5798 34.7427V22.5549C72.58 22.3504 72.6616 22.1543 72.8066 22.0097C72.9517 21.8651 73.1484 21.7838 73.3536 21.7836C73.5543 21.7972 73.7433 21.8828 73.8856 22.0246C74.0278 22.1664 74.1137 22.3549 74.1274 22.555ZM71.0312 22.5549V30.2689C71.031 30.4733 70.9494 30.6694 70.8044 30.814C70.6593 30.9586 70.4626 31.0399 70.2574 31.0402C70.1542 31.0463 70.0508 31.0306 69.9541 30.994C69.8574 30.9575 69.7696 30.9009 69.6965 30.828C69.6234 30.7551 69.5666 30.6676 69.5299 30.5712C69.4932 30.4748 69.4774 30.3718 69.4836 30.2689V22.5549C69.4847 22.351 69.5667 22.1559 69.7117 22.0122C69.8567 21.8684 70.0529 21.7877 70.2574 21.7877C70.4619 21.7877 70.6581 21.8684 70.8031 22.0122C70.9481 22.1559 71.0301 22.351 71.0312 22.5549ZM73.5079 39.6027C73.5843 39.6685 73.647 39.7487 73.6922 39.8386C73.7375 39.9285 73.7646 40.0265 73.7719 40.1269C73.7792 40.2272 73.7665 40.328 73.7347 40.4235C73.7028 40.519 73.6524 40.6073 73.5863 40.6834C73.5202 40.7594 73.4397 40.8218 73.3495 40.8668C73.2592 40.9118 73.1609 40.9387 73.0602 40.9458C72.9595 40.9529 72.8583 40.9402 72.7626 40.9083C72.6668 40.8765 72.5783 40.8261 72.5021 40.7601L60.9708 30.8088V40.1427C60.9714 40.2444 60.9518 40.3451 60.9131 40.4391C60.8745 40.5332 60.8176 40.6187 60.7457 40.6908C60.6737 40.7628 60.5883 40.82 60.4941 40.859C60.4 40.898 60.299 40.9181 60.197 40.9181C60.0951 40.9181 59.9941 40.898 59.9 40.859C59.8058 40.82 59.7203 40.7628 59.6484 40.6908C59.5765 40.6187 59.5196 40.5332 59.481 40.4391C59.4423 40.3451 59.4227 40.2444 59.4233 40.1427V29.1888C59.4322 28.9867 59.5146 28.7947 59.6552 28.6488C59.7201 28.5711 59.8001 28.5071 59.8903 28.4609C59.9806 28.4147 60.0793 28.3872 60.1805 28.38C60.2817 28.3727 60.3833 28.386 60.4792 28.4189C60.5752 28.4518 60.6635 28.5037 60.7388 28.5714L73.5079 39.6027ZM21.9662 26.4114V37.134C21.9643 37.3375 21.8819 37.532 21.7369 37.6752C21.5919 37.8184 21.396 37.8988 21.1919 37.8988C20.9877 37.8988 20.7919 37.8184 20.6469 37.6752C20.5019 37.532 20.4194 37.3375 20.4176 37.134V25.6401C20.4115 25.5194 20.4368 25.3993 20.4911 25.2912C20.5454 25.1832 20.6268 25.091 20.7273 25.0236C20.8687 24.9378 21.0276 24.8849 21.1924 24.8688H24.9837C25.8436 24.8494 26.6989 25.0001 27.5 25.3121C28.3012 25.6241 29.0324 26.0913 29.6513 26.6867C30.2703 27.282 30.7647 27.9937 31.1061 28.7807C31.4474 29.5676 31.629 30.4142 31.6402 31.2715C31.6271 33.027 30.9216 34.707 29.6761 35.9483C28.4305 37.1896 26.745 37.8926 24.9837 37.9054H23.9779C23.7734 37.9043 23.5776 37.8225 23.4334 37.678C23.2892 37.5335 23.2082 37.3379 23.2082 37.1341C23.2082 36.9302 23.2892 36.7347 23.4334 36.5901C23.5776 36.4456 23.7734 36.3639 23.9779 36.3628H24.907C26.2458 36.3349 27.5207 35.7871 28.4603 34.8362C29.3998 33.8852 29.9298 32.6061 29.9372 31.2715C29.9529 30.629 29.8375 29.99 29.598 29.3933C29.3586 28.7965 29 28.2545 28.5441 27.8001C28.0881 27.3456 27.5443 26.9882 26.9457 26.7495C26.347 26.5108 25.706 26.3958 25.0614 26.4114L21.9662 26.4114ZM25.2167 23.3262H21.1924C21.0904 23.3268 20.9894 23.3072 20.895 23.2687C20.8007 23.2302 20.7149 23.1734 20.6426 23.1018C20.5703 23.0301 20.5129 22.9449 20.4738 22.851C20.4346 22.7572 20.4145 22.6566 20.4145 22.5549C20.4145 22.4533 20.4346 22.3527 20.4738 22.2588C20.5129 22.165 20.5703 22.0798 20.6426 22.0081C20.7149 21.9364 20.8007 21.8797 20.895 21.8412C20.9894 21.8027 21.0904 21.7831 21.1924 21.7836H25.2168C26.0274 21.7673 26.8359 21.8714 27.6158 22.0924C27.6925 22.0924 27.7702 22.1688 27.9246 22.1688C28.0799 22.2462 28.1576 22.2462 28.312 22.3236C28.3896 22.3236 28.4663 22.401 28.544 22.401C28.6217 22.401 28.6993 22.4775 28.8537 22.4775C29.1263 22.5747 29.3861 22.7044 29.6275 22.8636C29.7052 22.8636 29.7829 22.9401 29.8596 22.9401C30.0824 23.0407 30.2907 23.1705 30.479 23.3262C30.6334 23.4036 30.711 23.4801 30.8654 23.5575C31.2452 23.8159 31.6072 24.0994 31.9489 24.4062L32.414 24.8687C32.4906 24.9462 32.5683 25.0235 32.5683 25.1C32.7237 25.3323 32.9557 25.4862 33.1101 25.7175C33.413 26.1266 33.6723 26.5661 33.8839 27.0287C33.8839 27.1062 33.9616 27.1835 33.9616 27.26C33.9616 27.3375 34.0393 27.4149 34.0393 27.4913C34.0393 27.5688 34.1159 27.5688 34.1159 27.6461C34.1992 27.9107 34.3028 28.1686 34.4257 28.4174C34.4257 28.4948 34.4257 28.4948 34.5034 28.5713C34.7507 29.4768 34.8806 30.4103 34.8897 31.3487C34.8973 33.7166 34.0139 36.0011 32.414 37.7514L32.2587 37.9052C31.8498 38.3752 31.3815 38.7904 30.8654 39.1402C30.711 39.2167 30.6334 39.2941 30.479 39.3715C30.2469 39.5254 30.0916 39.6028 29.8596 39.7566C29.7829 39.7566 29.7052 39.8341 29.6275 39.8341C29.3178 39.9889 28.9314 40.1428 28.544 40.2967C28.4663 40.2967 28.3896 40.3741 28.312 40.3741L27.6158 40.6054C26.8359 40.8263 26.0274 40.9304 25.2168 40.9141H18.0962C17.892 40.9126 17.6966 40.8306 17.5528 40.6862C17.4089 40.5417 17.3282 40.3464 17.3282 40.1428C17.3282 39.9392 17.4089 39.7439 17.5528 39.5994C17.6966 39.455 17.892 39.373 18.0962 39.3715H25.2168C27.3498 39.369 29.3946 38.5227 30.902 37.0185C32.4094 35.5142 33.2561 33.475 33.2561 31.3489C33.2561 29.2228 32.4094 27.1836 30.902 25.6793C29.3946 24.1751 27.3498 23.3287 25.2167 23.3262ZM18.0962 37.9054C17.8911 37.905 17.6945 37.8237 17.5494 37.6791C17.4044 37.5345 17.3228 37.3386 17.3224 37.1341V22.5549C17.3228 22.3505 17.4044 22.1545 17.5495 22.0099C17.6945 21.8654 17.8911 21.784 18.0962 21.7836C18.1994 21.7774 18.3028 21.7931 18.3995 21.8297C18.4962 21.8663 18.584 21.9229 18.6571 21.9958C18.7303 22.0687 18.787 22.1562 18.8237 22.2526C18.8604 22.349 18.8762 22.452 18.87 22.5549V37.0576C18.8718 37.27 18.7931 37.4753 18.6496 37.6325C18.5062 37.7896 18.3086 37.8871 18.0962 37.9054ZM80.9372 26.4114V37.134C80.9362 37.3379 80.8542 37.533 80.7092 37.6768C80.5642 37.8205 80.368 37.9012 80.1635 37.9012C79.9589 37.9012 79.7627 37.8205 79.6177 37.6768C79.4727 37.533 79.3907 37.3379 79.3897 37.134V25.6401C79.3836 25.5194 79.4089 25.3993 79.4632 25.2912C79.5174 25.1832 79.5988 25.091 79.6994 25.0236C79.8404 24.9378 79.999 24.8849 80.1635 24.8688H83.9558C84.8156 24.8495 85.6708 25.0003 86.4718 25.3123C87.2729 25.6244 88.004 26.0916 88.6228 26.687C89.2417 27.2823 89.736 27.994 90.0773 28.7809C90.4186 29.5677 90.6001 30.4142 90.6112 31.2715C90.5982 33.0269 89.8929 34.7067 88.6475 35.948C87.4022 37.1893 85.7169 37.8924 83.9558 37.9054H82.9499C82.7454 37.9043 82.5496 37.8225 82.4054 37.678C82.2612 37.5335 82.1802 37.3379 82.1802 37.1341C82.1802 36.9302 82.2612 36.7347 82.4054 36.5901C82.5496 36.4456 82.7454 36.3639 82.9499 36.3628H83.8781C85.217 36.3351 86.4921 35.7874 87.4319 34.8364C88.3716 33.8854 88.9017 32.6063 88.9093 31.2715C88.9249 30.629 88.8094 29.99 88.5699 29.3933C88.3304 28.7967 87.9718 28.2547 87.5159 27.8003C87.06 27.3458 86.5162 26.9884 85.9176 26.7497C85.319 26.5109 84.678 26.3959 84.0334 26.4114L80.9372 26.4114ZM84.1877 23.3262H80.1635C80.0615 23.3268 79.9604 23.3072 79.8661 23.2687C79.7717 23.2302 79.6859 23.1734 79.6136 23.1018C79.5414 23.0301 79.484 22.9449 79.4448 22.851C79.4057 22.7572 79.3856 22.6566 79.3856 22.5549C79.3856 22.4533 79.4057 22.3527 79.4448 22.2588C79.484 22.165 79.5414 22.0798 79.6136 22.0081C79.6859 21.9364 79.7717 21.8797 79.8661 21.8412C79.9604 21.8027 80.0615 21.7831 80.1635 21.7836H84.1878C84.9984 21.7673 85.807 21.8713 86.5868 22.0924C86.6645 22.0924 86.7422 22.1688 86.8966 22.1688C87.051 22.2462 87.1286 22.2462 87.284 22.3236C87.3606 22.3236 87.4383 22.401 87.516 22.401C87.5927 22.401 87.6704 22.4775 87.8257 22.4775C88.0983 22.5747 88.3581 22.7044 88.5995 22.8636C88.6762 22.8636 88.7539 22.9401 88.8316 22.9401C88.9093 23.0949 89.1413 23.1723 89.2957 23.3262C89.451 23.4036 89.5277 23.4801 89.6831 23.5575C90.0625 23.8163 90.4245 24.0998 90.7665 24.4062L91.2307 24.8687C91.3083 24.9462 91.385 25.0235 91.385 25.1C91.5403 25.3323 91.7724 25.4862 91.9268 25.7175C92.2296 26.1266 92.489 26.5661 92.7006 27.0287C92.7006 27.1062 92.7783 27.1835 92.7783 27.26C92.7783 27.3375 92.8559 27.4149 92.8559 27.4913C92.8559 27.5688 92.9336 27.5688 92.9336 27.6461C93.016 27.9109 93.1193 28.1688 93.2423 28.4174C93.2423 28.4948 93.2423 28.4948 93.32 28.5713C93.5677 29.4768 93.6979 30.4102 93.7074 31.3487C93.7146 33.7167 92.8309 36.0012 91.2307 37.7514L91.0753 37.9052C90.6668 38.3752 90.1988 38.7904 89.6831 39.1402C89.5277 39.2167 89.451 39.2941 89.2957 39.3715C89.0636 39.5254 88.9093 39.6028 88.6762 39.7566C88.5995 39.7566 88.5218 39.8341 88.4442 39.8341C88.1344 39.9889 87.748 40.1428 87.3606 40.2967C87.284 40.2967 87.2063 40.3741 87.1286 40.3741L86.4324 40.6054C85.6526 40.8264 84.844 40.9304 84.0334 40.9141H76.9129C76.7087 40.9126 76.5133 40.8306 76.3695 40.6862C76.2256 40.5417 76.1449 40.3464 76.1449 40.1428C76.1449 39.9392 76.2256 39.7439 76.3695 39.5994C76.5133 39.455 76.7087 39.373 76.9129 39.3715H84.0334C85.0924 39.3788 86.1423 39.1762 87.1221 38.7756C88.1019 38.375 88.9921 37.7843 89.7409 37.0379C90.4898 36.2915 91.0824 35.4042 91.4843 34.4276C91.8862 33.451 92.0894 32.4045 92.0821 31.3489C92.1067 30.3016 91.9204 29.2601 91.5344 28.2858C91.1483 27.3114 90.5702 26.4241 89.8343 25.6763C89.0984 24.9284 88.2196 24.3351 87.2497 23.9315C86.2799 23.5279 85.2387 23.322 84.1877 23.3262ZM77.0683 37.9054C76.8631 37.9052 76.6664 37.8239 76.5213 37.6793C76.3763 37.5347 76.2947 37.3386 76.2944 37.1341V22.5549C76.2955 22.351 76.3775 22.1559 76.5225 22.0122C76.6675 21.8684 76.8637 21.7877 77.0682 21.7877C77.2728 21.7877 77.469 21.8684 77.614 22.0122C77.7589 22.1559 77.841 22.351 77.842 22.5549V37.0576C77.8436 37.27 77.7649 37.4752 77.6215 37.6323C77.4781 37.7894 77.2805 37.887 77.0683 37.9054ZM96.6483 38.0601C96.5566 38.0605 96.4658 38.0428 96.381 38.008C96.2963 37.9733 96.2193 37.9221 96.1544 37.8575C96.0896 37.7929 96.0383 37.7161 96.0034 37.6316C95.9685 37.5472 95.9508 37.4566 95.9512 37.3652V22.5549C95.9519 22.3712 96.0256 22.1953 96.1562 22.0657C96.2867 21.9361 96.4635 21.8633 96.6478 21.8633C96.8321 21.8633 97.0088 21.9361 97.1394 22.0657C97.27 22.1953 97.3437 22.3712 97.3444 22.5549V37.3653C97.3448 37.4566 97.3271 37.547 97.2923 37.6315C97.2575 37.7159 97.2062 37.7926 97.1415 37.8572C97.0768 37.9218 96.9999 37.973 96.9152 38.0079C96.8306 38.0427 96.7399 38.0604 96.6483 38.0601ZM109.417 39.5253C109.602 39.5261 109.778 39.5995 109.908 39.7297C110.038 39.8598 110.111 40.036 110.111 40.2197C110.111 40.4034 110.038 40.5796 109.908 40.7097C109.778 40.8398 109.602 40.9133 109.417 40.914H96.6482C96.5565 40.9144 96.4657 40.8967 96.3808 40.862C96.296 40.8272 96.2189 40.7762 96.1539 40.7116C96.0889 40.6471 96.0373 40.5705 96.0022 40.486C95.967 40.4016 95.9489 40.3111 95.9489 40.2197C95.9489 40.1283 95.967 40.0378 96.0022 39.9533C96.0373 39.8689 96.0889 39.7922 96.1539 39.7277C96.2189 39.6632 96.296 39.6121 96.3808 39.5774C96.4657 39.5427 96.5565 39.525 96.6482 39.5253H109.417ZM105.471 33.3539H100.285V36.594H109.495C109.679 36.5947 109.856 36.6682 109.986 36.7983C110.116 36.9284 110.189 37.1046 110.189 37.2883C110.189 37.472 110.116 37.6482 109.986 37.7783C109.856 37.9085 109.679 37.982 109.495 37.9827H99.5891C99.4975 37.9831 99.4067 37.9655 99.322 37.9308C99.2373 37.8961 99.1603 37.845 99.0955 37.7805C99.0307 37.716 98.9794 37.6393 98.9444 37.5549C98.9095 37.4705 98.8916 37.3801 98.892 37.2888V32.5827C98.8916 32.4914 98.9095 32.401 98.9444 32.3166C98.9794 32.2322 99.0307 32.1555 99.0955 32.091C99.1603 32.0265 99.2373 31.9754 99.322 31.9407C99.4067 31.906 99.4975 31.8884 99.5891 31.8888H105.547C105.639 31.8884 105.73 31.906 105.814 31.9407C105.899 31.9754 105.976 32.0265 106.041 32.091C106.106 32.1555 106.157 32.2322 106.192 32.3166C106.227 32.401 106.245 32.4914 106.245 32.5827C106.244 32.7871 106.162 32.9831 106.017 33.1277C105.872 33.2722 105.676 33.3536 105.471 33.3539ZM109.495 24.7923C109.68 24.7923 109.857 24.8654 109.987 24.9955C110.118 25.1257 110.191 25.3022 110.191 25.4862C110.191 25.6702 110.118 25.8467 109.987 25.9769C109.857 26.107 109.68 26.1801 109.495 26.1801H100.285V28.9575H105.471C105.655 28.9582 105.832 29.0317 105.962 29.1619C106.092 29.292 106.165 29.4682 106.165 29.6519C106.165 29.8356 106.092 30.0118 105.962 30.1419C105.832 30.272 105.655 30.3455 105.471 30.3462H99.5114C99.4198 30.3466 99.329 30.3289 99.2443 30.2941C99.1596 30.2593 99.0827 30.2081 99.0179 30.1435C98.9532 30.0789 98.902 30.0022 98.8672 29.9177C98.8324 29.8332 98.8147 29.7427 98.8152 29.6514V25.4088C98.8148 25.3176 98.8326 25.2271 98.8674 25.1428C98.9022 25.0584 98.9535 24.9817 99.0182 24.9172C99.0829 24.8527 99.1599 24.8016 99.2445 24.7669C99.3291 24.7322 99.4199 24.7145 99.5114 24.7149H109.495V24.7923ZM99.5891 23.2488C99.384 23.2484 99.1874 23.167 99.0423 23.0224C98.8973 22.8779 98.8156 22.6819 98.8153 22.4775C98.809 22.3745 98.8247 22.2715 98.8614 22.1751C98.898 22.0786 98.9548 21.9911 99.028 21.9182C99.1011 21.8453 99.189 21.7887 99.2857 21.7521C99.3824 21.7156 99.4858 21.6999 99.5891 21.7062H109.495C109.7 21.7067 109.897 21.7882 110.042 21.9327C110.187 22.0772 110.268 22.2731 110.269 22.4775C110.275 22.5804 110.259 22.6834 110.223 22.7798C110.186 22.8762 110.129 22.9637 110.056 23.0366C109.983 23.1095 109.895 23.1661 109.798 23.2026C109.702 23.2392 109.598 23.2549 109.495 23.2488H99.5891ZM45.6472 40.9915C44.4767 40.9922 43.3183 40.7558 42.2423 40.2966C41.2237 39.8256 40.2839 39.2011 39.4558 38.4453C38.664 37.6469 38.0335 36.7044 37.5985 35.6688C37.1386 34.5961 36.9018 33.4415 36.9024 32.275V22.6323C36.9035 22.4285 36.9855 22.2333 37.1305 22.0896C37.2755 21.9458 37.4717 21.8651 37.6762 21.8651C37.8807 21.8651 38.0769 21.9458 38.2219 22.0896C38.3669 22.2333 38.4489 22.4285 38.45 22.6323V32.2749C38.4353 33.2279 38.6198 34.1734 38.9918 35.0514C39.343 35.898 39.8705 36.6606 40.5394 37.2888C41.1903 37.9311 41.9503 38.4534 42.7841 38.8314C43.663 39.2095 44.6135 39.3937 45.5705 39.3714C46.5266 39.3861 47.4752 39.2022 48.356 38.8314C49.2053 38.4813 49.9704 37.9556 50.6007 37.2888C51.2451 36.64 51.7691 35.8825 52.1483 35.0514C52.528 34.1758 52.7128 33.2286 52.6901 32.2749V22.6323C52.6912 22.4284 52.7732 22.2333 52.9182 22.0895C53.0632 21.9458 53.2594 21.8651 53.4639 21.8651C53.6684 21.8651 53.8646 21.9458 54.0096 22.0895C54.1546 22.2333 54.2366 22.4284 54.2377 22.6323V32.2749C54.2383 33.4415 54.0015 34.5961 53.5415 35.6688C53.0688 36.6837 52.4424 37.6201 51.6842 38.4453C50.8832 39.2349 49.9371 39.8634 48.8978 40.2966C47.8811 40.7708 46.7696 41.0084 45.6472 40.9915ZM45.6472 37.8289C44.8998 37.8315 44.1606 37.6734 43.4802 37.3653C42.8318 37.0716 42.2318 36.6817 41.7005 36.2089C41.175 35.7197 40.7765 35.1106 40.5394 34.434C40.2297 33.6211 40.0724 32.7584 40.0753 31.8888V25.5636C40.0748 25.462 40.0944 25.3613 40.133 25.2672C40.1717 25.1732 40.2286 25.0877 40.3005 25.0156C40.3724 24.9435 40.4579 24.8864 40.552 24.8474C40.6462 24.8083 40.7471 24.7882 40.8491 24.7882C40.9511 24.7882 41.052 24.8083 41.1462 24.8474C41.2403 24.8864 41.3258 24.9435 41.3977 25.0156C41.4696 25.0877 41.5265 25.1732 41.5652 25.2672C41.6038 25.3613 41.6234 25.462 41.6229 25.5636V31.8888C41.6051 33.0731 42.0175 34.2239 42.7841 35.1288C43.5517 35.8705 44.5787 36.2853 45.6478 36.2853C46.7168 36.2853 47.7439 35.8705 48.5114 35.1288C49.2777 34.2237 49.6898 33.073 49.6716 31.8888V22.5549C49.6654 22.452 49.6812 22.349 49.7179 22.2526C49.7546 22.1562 49.8114 22.0687 49.8845 21.9958C49.9576 21.9229 50.0454 21.8663 50.1421 21.8297C50.2388 21.7931 50.3422 21.7774 50.4454 21.7836C50.6505 21.784 50.8471 21.8654 50.9922 22.0099C51.1372 22.1545 51.2188 22.3505 51.2192 22.5549V31.8888C51.2226 32.7584 51.0653 33.6212 50.7551 34.434C50.4603 35.0808 50.0688 35.6792 49.5939 36.2089C49.1035 36.7324 48.4928 37.1293 47.8143 37.3653C47.1338 37.6735 46.3946 37.8316 45.6472 37.8289ZM116.615 40.1427C116.623 40.2396 116.611 40.337 116.58 40.4291C116.549 40.5213 116.499 40.606 116.434 40.6783C116.369 40.7505 116.289 40.8087 116.201 40.8493C116.112 40.8898 116.016 40.9119 115.919 40.914C115.815 40.9203 115.712 40.9046 115.615 40.8681C115.518 40.8316 115.431 40.775 115.357 40.702C115.284 40.6291 115.227 40.5416 115.191 40.4451C115.154 40.3487 115.138 40.2456 115.145 40.1427V36.594C115.145 36.2853 115.299 35.9001 115.995 35.9001H122.419C122.569 35.8924 122.718 35.9332 122.844 36.0165C122.97 36.0998 123.065 36.2212 123.116 36.3627L123.27 36.6714L124.354 39.1401L124.663 39.9114C124.725 40.0019 124.753 40.1113 124.741 40.2201V40.2966C124.741 40.374 124.741 40.4514 124.663 40.4514C124.576 40.6156 124.441 40.7498 124.276 40.8366C124.186 40.898 124.076 40.9255 123.967 40.914C123.818 40.9155 123.672 40.8722 123.547 40.7897C123.423 40.7072 123.326 40.5893 123.27 40.4514L122.806 39.5253L121.8 37.3652H116.46L116.615 40.1427Z" fill="#121212"/>
</svg>
