<svg width="149" height="64" viewBox="0 0 149 64" fill="none" xmlns="http://www.w3.org/2000/svg">
<path d="M66.4295 50.6667C65.4407 52.0579 64.3121 53.3464 63.0611 54.5125C61.2722 56.0125 59.6037 55.817 58.4189 54.6654C57.2332 53.5128 57.0905 52.1773 57.5079 52.1986C60.6359 52.3612 62.4677 50.3628 64.1695 48.3528C64.203 48.3206 64.2445 48.2979 64.2898 48.287C64.3357 48.289 64.3791 48.3084 64.411 48.3412C64.8887 48.7531 65.4442 49.0672 66.0453 49.2654C66.6827 49.5586 66.9241 49.9602 66.4295 50.6667ZM74.1997 26.5794C72.8057 28.394 66.7589 36.9663 64.9702 36.7815C62.8852 36.7166 71.4451 27.2859 68.9319 26.5465C68.3171 26.3617 65.4755 26.5465 65.3328 27.1224C63.6095 34.2392 58.9233 36.3576 60.4267 40.0079C61.8539 43.4415 68.5145 40.0631 72.2134 34.5759C71.1157 36.5531 67.4393 42.1815 65.2556 45.2783C64.6955 46.0815 64.0816 46.9186 63.4012 47.7228C61.415 50.058 58.8901 51.916 55.9273 50.417C55.335 50.1238 55.4552 53.3938 57.113 55.4145C57.4435 55.8379 57.8551 56.1926 58.3241 56.4585C58.7932 56.7244 59.3105 56.8962 59.8466 56.964C60.3828 57.0319 60.9271 56.9945 61.4487 56.854C61.9702 56.7135 62.4586 56.4726 62.8861 56.1452C62.9721 56.0793 63.0562 56.0097 63.1374 55.9361C64.3445 54.98 66.4295 52.6767 69.2389 48.0044C72.0482 43.3331 78.962 29.0028 77.7881 26.4489C77.5251 25.8731 74.8145 25.7647 74.1997 26.5794Z" fill="white"/>
<path d="M27.5702 26.1884C31.4773 23.8958 42.8798 19.0832 48.0263 19.8758C52.6029 20.5929 52.7456 24.6894 53.4475 24.6458C55.0936 24.5374 58.2656 17.8338 53.8209 14.7148C49.7056 11.8357 37.9737 14.4322 28.5028 20.6364C27.1098 21.5384 26.7257 26.6771 27.5702 26.1884Z" fill="white"/>
<path d="M48.7287 31.8056C47.719 31.164 46.6437 30.4585 45.502 29.8392C46.3251 29.1869 47.1374 28.915 47.7953 29.3611C48.1589 29.6475 48.4376 30.0259 48.6019 30.4562C48.7662 30.8864 48.81 31.3527 48.7287 31.8056ZM47.8177 34.8579C46.4785 37.6179 43.9654 39.8021 42.6047 39.0521C41.0133 38.1725 41.7924 35.336 43.0876 32.9466C43.2196 32.696 43.3623 32.4569 43.505 32.2179C45.0631 32.696 46.6437 33.3695 48.2019 33.9889C48.0924 34.2608 47.9604 34.554 47.8177 34.8473V34.8579ZM56.2897 43.5502C56.8381 44.1047 61.4694 42.9309 60.8771 42.3337C59.7793 41.247 57.8811 39.8021 58.3199 34.0653C59.5274 33.1209 60.7916 32.2499 62.1058 31.4573C62.7314 30.7624 63.8066 27.1121 63.05 27.2746C61.8868 27.5137 60.229 28.8608 58.5282 30.5341C58.5282 28.3615 58.2105 26.9485 57.7598 26.6011C57.3102 26.2537 53.8538 26.1337 54.2047 27.1876C54.847 29.2717 55.2914 31.4107 55.5321 33.5766C54.2379 34.5763 52.6906 34.1408 50.9232 33.1741C51.669 29.9146 51.2194 26.7637 48.7287 25.5685C46.808 24.5911 44.0974 25.8511 41.8256 28.405C41.2426 28.2542 40.6479 28.1522 40.0476 28.1002C38.876 28.0026 37.6992 27.9809 36.5247 28.0353C37.3595 26.6224 38.2041 25.2869 39.0271 24.1237C39.7074 23.1356 35.0105 23.2005 33.2442 25.2869C30.7966 28.1002 25.3529 36.6076 24.9804 42.0512C24.8371 43.2763 25.1911 44.5075 25.9647 45.4741C26.7383 46.4407 27.8681 47.0635 29.1054 47.2054C29.4047 47.2393 29.7064 47.2451 30.0068 47.2228C31.1035 46.9944 29.7321 46.1361 30.6646 41.4531C31.4171 38.4392 32.522 35.5224 33.9568 32.7618C35.7695 32.1563 37.6552 31.7909 39.5647 31.6749C37.1943 36.2059 36.6459 41.6814 40.0808 43.105C44.2068 44.8102 48.3553 40.3672 50.2977 35.2276C50.3269 35.0846 50.3749 34.946 50.4404 34.8153C51.5676 35.1975 52.7493 35.399 53.9408 35.4124C51.1647 38.574 47.7845 42.7024 47.4551 43.7786C47.2361 44.485 52.0425 44.7666 52.3934 43.9412C53.2475 41.6788 54.3055 39.4971 55.5546 37.4224C55.3239 42.0831 55.7081 42.985 56.2897 43.5502Z" fill="white"/>
<path d="M86.1286 43.4742L85.8324 42.551C85.6579 42.9147 85.3802 43.2203 85.0332 43.4305C84.6863 43.6407 84.285 43.7463 83.8784 43.7345C82.0026 43.7345 80.7954 42.3874 80.7954 40.2913V29.1545C80.7808 28.2555 81.1276 27.3877 81.7593 26.7418C82.3909 26.0959 83.2559 25.7249 84.1639 25.7103H84.2411C84.6733 25.7024 85.103 25.779 85.5054 25.9355C85.9078 26.092 86.2751 26.3255 86.5863 26.6226C86.8976 26.9197 87.1467 27.2746 87.3194 27.667C87.4921 28.0594 87.5851 28.4817 87.5929 28.9096C87.5949 28.9909 87.5929 29.0732 87.588 29.1545V32.4139H85.0308V29.0461C85.0411 28.9508 85.0297 28.8545 84.9974 28.7643C84.965 28.674 84.9127 28.592 84.8441 28.5244C84.7743 28.4557 84.6897 28.4033 84.5966 28.3713C84.5036 28.3393 84.4044 28.3285 84.3065 28.3396C84.2081 28.3336 84.1095 28.3479 84.017 28.3816C83.9245 28.4152 83.84 28.4675 83.7689 28.5351C83.6988 28.6002 83.6439 28.6796 83.6079 28.7679C83.572 28.8561 83.5558 28.951 83.5607 29.0461V40.5303C83.5559 40.6301 83.5719 40.7298 83.6077 40.8232C83.6436 40.9166 83.6984 41.0017 83.7689 41.0732C83.8385 41.1442 83.9222 41.2001 84.0148 41.2374C84.1073 41.2747 84.2066 41.2926 84.3065 41.29C84.4087 41.297 84.5111 41.282 84.6069 41.2462C84.7026 41.2103 84.7894 41.1544 84.8614 41.0823C84.9333 41.0101 84.9886 40.9235 85.0236 40.8282C85.0586 40.733 85.0724 40.6314 85.064 40.5303V36.9555H84.3622V34.8584H87.7414V43.4742H86.1286Z" fill="white"/>
<path d="M92.34 30.73L91.6704 37.9764H92.7681L92.34 30.73ZM93.1963 43.4742L93.0202 40.4751H91.3967L91.1328 43.4742H88.6313L90.7486 25.9822H93.8766L95.9949 43.4742H93.1963Z" fill="white"/>
<path d="M104.038 43.4747V30.1544L103.666 34.1521L102.513 43.4747H100.691L99.6713 34.1521L99.3521 30.1544V43.4747H96.9487V25.9824H100.56L101.526 32.8596L101.899 36.8248L102.239 32.8596L103.128 25.9824H106.683V43.4747H104.038Z" fill="white"/>
<path d="M108 43.4747V25.9824H113.772V28.5025H110.755V33.2829H112.752V35.673H110.755V40.8777H113.772V43.4747H108Z" fill="white"/>
<path d="M118.053 43.735C115.858 43.735 114.607 42.4209 114.607 40.0847V38.2373H117.01V40.2908C117.01 40.9208 117.307 41.3777 117.921 41.3777C118.535 41.3777 118.81 40.9867 118.81 40.2908C118.703 38.6441 118.133 37.06 117.164 35.7172C116.121 34.0875 114.706 31.6749 114.706 29.6543C114.706 27.6336 115.802 25.7107 118.261 25.7107C120.138 25.7107 121.389 27.0462 121.389 29.361V31.2733H118.964V29.0998C118.964 28.524 118.634 28.2095 118.217 28.2095C118.112 28.2043 118.007 28.2198 117.908 28.2548C117.809 28.2899 117.718 28.3439 117.64 28.4139C117.562 28.4838 117.499 28.5682 117.454 28.6623C117.409 28.7565 117.383 28.8584 117.378 28.9624C117.375 29.0082 117.377 29.0543 117.383 29.0999C117.383 31.1215 117.998 31.827 119.128 33.7721C120.259 35.7173 121.477 37.8134 121.477 39.867C121.477 42.6048 119.797 43.735 118.053 43.735Z" fill="white"/>
</svg>
