<svg width="149" height="64" viewBox="0 0 149 64" fill="none" xmlns="http://www.w3.org/2000/svg">
<path d="M26.9903 41.2856C26.9161 41.6456 26.7342 41.7511 26.3335 41.815C24.4394 41.9741 22.5377 42.027 20.6376 41.9737C18.2202 41.9998 16.1821 40.2947 17.0433 37.0807C18.2036 32.692 21.0599 21.9229 21.0599 21.9229H24.6961L20.7226 36.8698C20.6639 37.1814 20.6161 37.4785 20.5946 37.7379C20.5144 38.7646 20.9533 39.083 22.1986 39.083H27.0441C27.0974 39.0815 27.1506 39.0904 27.2005 39.1092C27.2503 39.128 27.296 39.1564 27.3347 39.1927C27.3735 39.2291 27.4047 39.2726 27.4264 39.3209C27.4482 39.3691 27.4601 39.4212 27.4615 39.474C27.4636 39.5345 27.4508 39.5946 27.4243 39.6492L26.9903 41.2856ZM36.2804 29.9388C34.0077 29.9388 33.0175 31.5269 32.4506 33.6453L31.7448 36.3347C31.6561 36.6833 31.5883 37.0368 31.5415 37.3933C31.3655 38.8546 32.1358 39.3473 33.1837 39.3473C34.3801 39.262 35.537 38.8875 36.5531 38.2566L38.7564 30.1082C37.9345 29.9908 37.105 29.9342 36.2746 29.9388M42.6127 28.5201L39.1895 41.4444C39.1454 41.5873 39.0592 41.714 38.9421 41.8083C38.8249 41.9026 38.682 41.9602 38.5316 41.9737H36.3929C36.0928 41.9737 35.997 41.7512 36.0449 41.5131L36.2003 40.7292C35.0079 41.6599 33.536 42.1703 32.0176 42.1799C29.6002 42.1799 27.9268 40.5918 28.1086 37.5047C28.1809 36.9699 28.2844 36.4396 28.4185 35.9166C28.6003 35.0901 28.8251 34.2008 28.9532 33.6715C30.0978 29.6214 32.7556 27.1595 36.9754 27.1595C38.7325 27.1855 40.4799 27.4237 42.1787 27.8688C42.5804 27.9743 42.6655 28.1175 42.5589 28.5521M57.9613 21.923H54.4473L53.0357 27.2756C52.2208 27.1818 51.4015 27.1304 50.5812 27.1217C46.3555 27.1217 43.7299 28.9169 42.5266 33.6395C42.5266 33.6395 42.1366 35.1328 41.9919 35.6573C41.8592 36.1238 41.7766 36.6029 41.7456 37.0866C41.5266 39.956 42.8854 42.1751 46.5588 42.1751C48.4002 42.1589 50.2339 41.9368 52.025 41.5131C52.6447 41.365 52.7953 41.216 52.9233 40.8144L57.9613 21.923ZM49.8158 29.9233C50.4307 29.9233 51.5538 30.0133 52.2596 30.0927L49.8697 39.204C49.0238 39.3133 48.1714 39.3647 47.3184 39.3579C45.596 39.3579 45.078 38.7066 45.1796 37.2666C45.2335 36.722 45.3282 36.1821 45.4632 35.6514C45.5697 35.1801 45.9978 33.6346 45.9978 33.6346C46.639 31.1146 47.5696 29.9281 49.8374 29.9281M68.7637 33.6288C68.9023 33.1083 68.9955 32.577 69.0423 32.0407C69.3199 29.1026 67.8439 27.1109 64.2291 27.1109C63.3695 27.1196 62.5108 27.171 61.6563 27.2648L63.1059 21.9229H59.6133C59.6133 21.9229 55.4365 37.7271 54.5548 40.9198C54.4258 41.3853 55.0895 41.4917 55.0895 41.5072C56.7599 41.9418 58.4795 42.1642 60.2066 42.1691C64.5497 42.1691 67.1059 39.9985 68.229 35.6514L68.7637 33.6288ZM63.496 29.9175C65.2232 29.9175 65.7051 30.6956 65.5975 32.1095C65.5624 32.6285 65.4673 33.1419 65.3141 33.6395L64.7794 35.6572C64.2447 37.5898 63.234 39.3637 60.9613 39.3637C60.1296 39.3754 59.2982 39.3239 58.4745 39.2098L60.8968 30.0927C61.6729 30.0076 62.8547 29.9234 63.4744 29.9234M79.262 27.6462C79.2963 27.554 79.2921 27.452 79.2505 27.3627C79.2089 27.2735 79.1333 27.2042 79.0401 27.1701H79.0372C78.9949 27.1624 78.9514 27.1624 78.9091 27.1701C77.4432 27.1128 76.001 27.5495 74.8183 28.4088L74.9513 27.8795C74.988 27.7825 74.9844 27.6752 74.9413 27.5809C74.8983 27.4866 74.8192 27.413 74.7215 27.3762C74.671 27.3546 74.616 27.3456 74.5612 27.3501H72.2719C72.1215 27.3574 71.9775 27.413 71.8618 27.5085C71.7461 27.604 71.665 27.7342 71.6307 27.8795C71.6307 27.8795 68.6092 39.1992 68.01 41.3805C67.9084 41.7512 68.01 42.0212 68.4059 42.0212H70.7744C70.9279 42.0136 71.075 41.9583 71.195 41.8633C71.315 41.7683 71.4017 41.6384 71.443 41.4918L74.2405 31.0188C75.4338 30.3934 76.7673 30.0765 78.1173 30.0975C78.2661 30.0846 78.4074 30.027 78.5222 29.9324C78.637 29.8378 78.7198 29.7107 78.7595 29.5682C78.7595 29.5682 79.0753 28.3924 79.2512 27.6781M90.8033 32.2527C91.0545 29.5255 89.5941 27.1487 85.9901 27.1487C81.8611 27.1487 79.128 29.3456 77.9678 33.6181C77.9678 33.6181 77.6412 34.794 77.4702 35.4239C77.3246 35.9338 77.2209 36.4546 77.1603 36.9811C76.9306 39.7237 78.3578 42.2011 81.9735 42.2011C86.1338 42.2011 88.7818 40.0304 89.9959 35.7153L90.5306 33.6926C90.6695 33.222 90.766 32.7402 90.8189 32.2527M85.2247 30.0607C86.7604 30.0607 87.4387 30.9075 87.2843 32.4433C87.253 32.8313 87.1866 33.2158 87.0859 33.592L86.4974 35.7094C85.8406 38.1617 84.605 39.263 82.7546 39.263C82.4402 39.306 82.12 39.2717 81.8222 39.1633C81.5244 39.0549 81.258 38.8756 81.0466 38.6413C80.8352 38.407 80.6853 38.1248 80.61 37.8196C80.5347 37.5144 80.5364 37.1955 80.6149 36.8911C80.6784 36.4259 80.7751 35.9657 80.9042 35.514C81.0274 34.9847 81.4389 33.6182 81.4389 33.6182C82.1495 31.0401 83.5776 30.0869 85.2199 30.0869M105.114 27.8369C105.366 27.6201 105.408 27.2756 104.949 27.2756H101.815C101.688 27.2723 101.563 27.2995 101.449 27.3547C101.335 27.41 101.237 27.4918 101.162 27.593L95.4455 33.1895L98.461 21.9229H94.9695C94.9695 21.9229 91.3811 35.7472 89.7926 41.4018C89.7735 41.4511 89.7645 41.5037 89.766 41.5566C89.7675 41.6094 89.7796 41.6614 89.8015 41.7096C89.8234 41.7578 89.8547 41.8013 89.8936 41.8374C89.9325 41.8736 89.9782 41.9019 90.0282 41.9205L90.0595 41.9311C90.1038 41.9389 90.1491 41.9389 90.1934 41.9311H92.6049C92.7581 41.9247 92.9053 41.8698 93.0247 41.7745C93.1442 41.6793 93.2296 41.5486 93.2686 41.4018L94.9109 35.212L97.5843 41.4173C97.6282 41.5584 97.7129 41.6837 97.8279 41.7777C97.9428 41.8718 98.0831 41.9305 98.2313 41.9466H101.211C101.32 41.9523 101.427 41.915 101.508 41.8427C101.589 41.7705 101.638 41.6693 101.644 41.5614C101.649 41.4876 101.632 41.4129 101.595 41.3485C101.034 40.1311 98.1941 34.2907 98.1941 34.2907L105.114 27.8369ZM115.634 34.2588C115.806 33.6611 115.927 33.0503 115.997 32.4326C116.302 29.3349 114.816 27.0742 111.323 27.0742C107.28 27.0742 104.526 28.8694 103.211 33.7352C103.211 33.7352 102.997 34.4446 102.815 35.2178C102.685 35.7764 102.586 36.3418 102.521 36.9114C102.205 40.8453 104.916 42.1324 107.254 42.1324C109.046 42.1401 110.835 41.9931 112.602 41.693C113.136 41.6185 113.201 41.4492 113.324 41.0311C113.324 41.0311 113.859 38.9127 113.859 38.8605C112.06 39.0921 110.249 39.2104 108.435 39.2147C106.457 39.2147 105.852 38.2721 105.943 36.8485C105.985 36.4904 106.056 36.1363 106.157 35.7898H114.714C115.078 35.7898 115.307 35.5672 115.409 35.154C115.409 35.154 115.5 34.826 115.645 34.2327M110.569 30.023C112.002 30.023 112.74 30.8388 112.606 32.3533C112.57 32.6854 112.51 33.0143 112.425 33.3376H106.799C107.297 31.4427 108.403 30.023 110.543 30.023M127.779 27.6356C126.276 27.2716 124.733 27.0938 123.185 27.1062C120.687 27.1062 117.57 27.9008 117.302 31.374C117.257 31.9695 117.365 32.5667 117.616 33.11C117.866 33.6533 118.251 34.1251 118.735 34.4814L121.741 36.6472C121.973 36.7692 122.165 36.9539 122.295 37.1797C122.424 37.4055 122.487 37.6632 122.474 37.9227C122.345 39.1198 121.404 39.3473 120.116 39.3473C119.522 39.3473 117.163 39.2254 115.928 39.0831C115.782 39.0668 115.635 39.099 115.51 39.1748C115.385 39.2505 115.289 39.3654 115.238 39.5012L114.826 41.1212C114.81 41.1737 114.804 41.2289 114.809 41.2836C114.814 41.3383 114.83 41.3915 114.856 41.4401C114.882 41.4887 114.917 41.5318 114.96 41.5669C115.003 41.602 115.052 41.6285 115.105 41.6447L115.125 41.6505H115.168C116.714 41.9775 118.289 42.1442 119.869 42.1479C122.982 42.1479 125.784 40.7873 126.106 37.526C126.183 36.8789 126.064 36.2238 125.765 35.6433C125.466 35.0628 125 34.5831 124.426 34.2647L121.544 32.1462C121.04 31.8075 120.821 31.4581 120.843 31.0875C120.912 29.9814 122.169 29.8856 122.981 29.8856C124.362 29.8963 125.74 30.0027 127.106 30.204C127.554 30.2775 127.71 29.8807 127.784 29.6737L128.169 28.2123C128.21 28.0931 128.201 27.9628 128.145 27.8498C128.089 27.7368 127.99 27.6504 127.87 27.6095H127.816" fill="white"/>
</svg>
