<svg width="149" height="64" viewBox="0 0 149 64" fill="none" xmlns="http://www.w3.org/2000/svg">
<path d="M131.22 32.5309C131.514 32.2612 131.742 31.9283 131.885 31.5579C132.029 31.1874 132.084 30.7893 132.048 30.3941C132.054 29.5914 131.771 28.8127 131.249 28.1983C129.864 27.1087 128.14 26.5293 126.371 26.5589C125.417 26.4833 124.46 26.6323 123.576 26.9936C122.692 27.3549 121.907 27.9183 121.285 28.6376C121.256 28.5786 121.196 28.5205 121.167 28.4615C120.161 27.2615 118.505 26.588 116.11 26.588C115.364 26.5841 114.62 26.6626 113.892 26.8222V26.7932H107.357V27.1735C107.003 26.9393 106.737 26.559 105.051 26.559C104.226 26.5589 103.409 26.7308 102.655 27.0636C101.901 27.3964 101.226 27.8826 100.674 28.4906C100.045 27.8376 99.2807 27.3269 98.4336 26.9935C97.5865 26.6601 96.6766 26.5119 95.7663 26.559H95.559V22.2263H77.315V26.617H77.1078C76.1088 26.5906 75.116 26.7785 74.1973 27.1677C73.2786 27.5569 72.4558 28.1383 71.7853 28.8718C71.1658 28.1066 70.3698 27.4997 69.4642 27.1023C68.5586 26.7048 67.5699 26.5285 66.5811 26.588C65.0088 26.553 63.476 27.0773 62.2608 28.0656C61.0455 29.0539 60.2284 30.4407 59.9576 31.9744H56.0251V28.1693H57.8579V22.2844H47.686V28.1983H49.2833V34.1122H47.686V40.0251H61.7024V38.2396C63.181 39.5858 65.1358 40.301 67.1432 40.2303C68.9066 40.2857 70.6526 39.8712 72.1989 39.0303L72.584 38.7661C73.8776 39.7292 75.4603 40.2346 77.0785 40.2012C78.2992 40.2357 79.5071 39.9472 80.5777 39.3657C81.6483 38.7841 82.5429 37.9304 83.1693 36.8925L84.0275 38.5619C84.2218 39.0742 84.5758 39.512 85.0381 39.812C85.5005 40.1119 86.0472 40.2585 86.5993 40.2303C87.1374 40.2453 87.6677 40.0997 88.1212 39.8125C88.5748 39.5254 88.9307 39.1099 89.1427 38.62L89.9111 37.0097C90.5991 38.0676 91.5583 38.9258 92.6909 39.4968C93.8234 40.0677 95.0887 40.3308 96.3576 40.2594C97.4987 40.2744 98.6353 40.1165 99.728 39.791V40.8158C99.722 41.1433 99.7846 41.4685 99.912 41.7709C100.039 42.0732 100.229 42.3461 100.468 42.5723C101.974 43.7612 103.867 44.3647 105.79 44.2696C106.735 44.3303 107.681 44.1774 108.557 43.8224C109.433 43.4675 110.216 42.9198 110.847 42.2209C111.504 41.3922 111.913 40.3984 112.03 39.3516C112.952 39.9474 114.034 40.2537 115.134 40.2303C115.775 40.2309 116.412 40.1422 117.027 39.967V39.9961H122.704V39.7328C123.834 40.1333 125.023 40.3411 126.223 40.3474C129.505 40.3474 132.374 38.737 132.374 35.7215C132.421 35.1392 132.342 34.5535 132.143 34.0035C131.944 33.4534 131.63 32.9515 131.22 32.5309Z" fill="#151516"/>
<path d="M126.932 32.3554C125.513 31.9751 124.981 31.7109 124.981 31.1845C124.981 30.6871 125.484 30.2477 126.519 30.2477C126.973 30.2466 127.423 30.3259 127.849 30.4819C127.824 30.6168 127.814 30.7541 127.82 30.8912C127.815 31.05 127.845 31.2079 127.907 31.3543C127.969 31.5008 128.062 31.6325 128.179 31.7406C128.297 31.8487 128.436 31.9307 128.588 31.9811C128.741 32.0316 128.902 32.0493 129.061 32.0332C129.221 32.0352 129.379 32.0042 129.526 31.942C129.673 31.8797 129.805 31.7878 129.913 31.672C130.022 31.5562 130.105 31.4191 130.157 31.2697C130.209 31.1202 130.229 30.9616 130.215 30.8041C130.214 30.5857 130.169 30.3696 130.083 30.1685C129.997 29.9675 129.871 29.7855 129.712 29.6332C128.823 28.9313 127.715 28.5586 126.578 28.5793C123.976 28.5793 122.763 30.0716 122.763 31.5067C122.763 33.0871 123.857 33.7016 126.401 34.3751C127.82 34.7555 128.233 35.0196 128.233 35.488C128.233 36.1606 127.465 36.4829 126.548 36.4829C125.973 36.4894 125.402 36.3903 124.863 36.1906C124.887 36.065 124.897 35.9371 124.892 35.8093C124.897 35.6467 124.867 35.4849 124.806 35.3338C124.745 35.1828 124.654 35.0456 124.538 34.9306C124.422 34.8156 124.283 34.7252 124.13 34.665C123.978 34.6048 123.814 34.576 123.65 34.5803C123.487 34.5788 123.324 34.6096 123.173 34.6708C123.022 34.7321 122.884 34.8225 122.769 34.937C122.653 35.0514 122.562 35.1875 122.5 35.3373C122.438 35.4871 122.407 35.6476 122.409 35.8094C122.401 36.0404 122.445 36.2703 122.536 36.4829C122.628 36.6954 122.766 36.8854 122.94 37.0394C123.973 37.7971 125.234 38.1888 126.519 38.1513C128.618 38.1513 130.451 37.1274 130.451 35.1948C130.451 33.4674 129.18 32.9409 126.932 32.3554ZM107.86 34.8726C107.315 35.4291 106.573 35.7545 105.79 35.7803C105.449 35.7929 105.109 35.7327 104.794 35.6037C104.478 35.4748 104.194 35.2802 103.962 35.033C103.729 34.7859 103.552 34.4921 103.444 34.1715C103.336 33.851 103.299 33.5111 103.336 33.1751C103.291 32.8347 103.321 32.4887 103.426 32.1612C103.53 31.8338 103.705 31.5327 103.938 31.2791C104.172 31.0254 104.459 30.8253 104.779 30.6926C105.098 30.56 105.444 30.4979 105.79 30.5109C106.54 30.51 107.269 30.7573 107.86 31.2135L107.86 34.8726ZM107.948 29.5161C107.216 28.8703 106.268 28.5156 105.288 28.5203C104.692 28.5394 104.107 28.6754 103.565 28.9205C103.023 29.1655 102.536 29.5147 102.131 29.9478C101.727 30.3809 101.413 30.8892 101.209 31.4432C101.004 31.9973 100.913 32.5859 100.941 33.1751C100.901 33.7526 100.982 34.3321 101.178 34.8774C101.374 35.4228 101.681 35.9223 102.08 36.3451C102.48 36.7679 102.963 37.1048 103.499 37.335C104.035 37.5651 104.614 37.6835 105.199 37.6829C105.702 37.69 106.2 37.589 106.659 37.3868C107.119 37.1846 107.529 36.8861 107.86 36.5119V37.83C107.891 38.3957 107.747 38.9573 107.446 39.4393C107.22 39.7141 106.929 39.9299 106.599 40.0677C106.269 40.2055 105.91 40.2612 105.554 40.23C105.081 40.2243 104.612 40.1453 104.164 39.9958C104.189 39.8805 104.199 39.7624 104.194 39.6445C104.193 39.4796 104.158 39.3167 104.091 39.1657C104.024 39.0147 103.927 38.8789 103.805 38.7665C103.683 38.6541 103.539 38.5676 103.382 38.5122C103.226 38.4568 103.059 38.4338 102.893 38.4445C102.725 38.4468 102.56 38.4821 102.406 38.5484C102.253 38.6147 102.114 38.7106 101.999 38.8305C101.883 38.9504 101.793 39.092 101.733 39.2468C101.673 39.4017 101.645 39.5669 101.65 39.7326C101.647 39.956 101.69 40.1777 101.776 40.3841C101.863 40.5905 101.991 40.7771 102.153 40.9326C103.191 41.7513 104.494 42.1676 105.819 42.1036C106.396 42.1705 106.981 42.1093 107.531 41.9243C108.081 41.7394 108.583 41.4353 108.999 41.0343C109.415 40.6333 109.736 40.1454 109.938 39.6062C110.14 39.0669 110.218 38.4899 110.166 37.9171V30.628H111.556V28.6964H107.948V29.5161ZM93.5783 26.2073V24.0706H88.0485V26.2073H89.5861L86.5999 33.7896L83.5833 26.2073H85.0623V24.0706H79.5326V26.2073H80.8043L85.8902 38.0642H87.2499L92.3359 26.2074L93.5783 26.2073ZM118.269 35.6051C117.595 36.1112 116.778 36.3976 115.933 36.4248C115.105 36.4248 114.543 36.0145 114.543 35.2829C114.543 34.4342 115.223 33.9358 116.346 33.9358C116.993 33.9365 117.637 34.0053 118.269 34.1409V35.6051ZM120.516 32.0922C120.553 31.2636 120.303 30.4474 119.806 29.7793C119.38 29.3369 118.858 28.9962 118.279 28.7831C117.7 28.57 117.079 28.4901 116.464 28.5493C113.951 28.5493 112.768 29.7503 112.768 30.8912C112.769 31.2146 112.898 31.5249 113.127 31.7549C113.357 31.9848 113.669 32.116 113.995 32.1199C114.322 32.1239 114.637 32.0003 114.872 31.7759C115.108 31.5516 115.244 31.2445 115.252 30.9212C115.249 30.7613 115.219 30.603 115.163 30.4529C115.456 30.3439 115.768 30.2939 116.08 30.3057C116.418 30.2658 116.76 30.3061 117.079 30.4232C117.398 30.5403 117.684 30.7309 117.914 30.9793C118.175 31.3463 118.3 31.7908 118.269 32.2384V32.97C117.492 32.797 116.699 32.7087 115.903 32.7067C113.685 32.7067 112.177 33.7606 112.177 35.488C112.177 37.2145 113.596 38.0642 115.194 38.0642C116.341 38.032 117.445 37.6197 118.327 36.8932V37.888H121.905V35.9855H120.516L120.516 32.0922ZM93.371 32.4725C93.4095 31.8955 93.6704 31.3551 94.0996 30.9629C94.5289 30.5707 95.0939 30.3566 95.6779 30.3648C95.9674 30.3422 96.2584 30.3806 96.5317 30.4773C96.8051 30.5741 97.0547 30.727 97.2642 30.9261C97.4736 31.1252 97.638 31.366 97.7467 31.6325C97.8554 31.899 97.9059 32.1853 97.8948 32.4725H93.371ZM95.6779 28.5203C95.0453 28.5109 94.4174 28.6298 93.8329 28.8697C93.2484 29.1095 92.7196 29.4653 92.2792 29.915C91.8388 30.3647 91.496 30.8989 91.2719 31.4847C91.0478 32.0705 90.9472 32.6956 90.9762 33.3213C90.9762 36.1907 93.0748 38.0642 96.1207 38.0642C97.3504 38.1073 98.5681 37.8132 99.6397 37.2145L99.669 37.0103L99.2261 35.458C98.3559 35.865 97.4084 36.0847 96.4461 36.1025C95.7727 36.1914 95.0898 36.0315 94.5279 35.6534C93.966 35.2753 93.5646 34.7055 93.4003 34.0528H100.113C100.183 33.6763 100.223 33.2947 100.231 32.9118C100.256 32.3185 100.155 31.7266 99.9332 31.1747C99.7117 30.6228 99.3751 30.1233 98.9455 29.7089C98.5158 29.2945 98.0027 28.9744 97.4397 28.7696C96.8767 28.5648 96.2764 28.4799 95.6779 28.5203ZM57.8878 35.8094H54.0434V26.2073H55.8772V24.0706H50.0513V26.2073H51.6485V35.7803H50.0513V37.9171H60.1938V33.8487H57.8878V35.8094ZM80.8923 33.0871L80.7154 32.999C80.774 32.8529 80.863 32.7067 80.9226 32.5606C80.9415 32.7366 80.9313 32.9144 80.8923 33.0871ZM80.8043 33.7016C80.774 33.8777 80.7447 34.0829 80.7154 34.258C80.6502 34.3598 80.5637 34.4465 80.4616 34.5121C80.3595 34.5777 80.2444 34.6208 80.1239 34.6383C80.035 34.6383 79.946 34.6973 79.8874 34.6683C79.7948 34.6523 79.7052 34.6226 79.6215 34.5802C79.5415 34.549 79.4703 34.4988 79.4143 34.4341C79.0888 34.1409 79.4436 33.2922 79.7398 33.146C80.035 33.087 80.3312 33.0289 80.6264 32.9989C80.7154 33.058 80.774 33.087 80.863 33.146C80.901 33.3328 80.8806 33.5267 80.8043 33.7016ZM79.1778 32.3264C79.0797 32.4184 78.9561 32.4794 78.8229 32.5015C78.7149 32.5161 78.6054 32.5161 78.4974 32.5015C78.4322 32.4561 78.3628 32.4169 78.2902 32.3844C78.2315 32.3554 78.2022 32.3264 78.1426 32.2964C78.0961 32.0107 78.1294 31.7179 78.2388 31.4496C78.3482 31.1814 78.5295 30.9478 78.7633 30.7741C78.8393 30.7484 78.9198 30.7385 78.9998 30.7451C79.249 31.0059 79.3869 31.3519 79.385 31.7109C79.3899 31.8387 79.3798 31.9667 79.3547 32.0922C79.3547 32.1793 79.2667 32.2673 79.1778 32.3264ZM78.1426 36.717C77.6401 36.8341 76.7526 36.2486 76.339 36.1315C75.7477 35.9264 75.0967 36.4538 74.6538 36.1315C74.4889 35.9003 74.3724 35.6386 74.3115 35.362C74.2505 35.0854 74.2463 34.7995 74.299 34.5212C74.4173 34.4041 74.5356 34.317 74.6538 34.1999C74.8701 33.875 75.1284 33.5796 75.4222 33.3212C75.6294 33.2331 75.8366 33.116 76.0429 33.0289C76.156 32.9466 76.2559 32.8477 76.339 32.7357C76.4472 32.6236 76.5841 32.5427 76.735 32.5015C76.886 32.4602 77.0454 32.4602 77.1963 32.5015C77.3167 32.5679 77.4461 32.6171 77.5804 32.6476C77.9943 33.2992 78.3504 33.985 78.6449 34.6973C78.7339 34.9315 79.0888 35.0486 79.1484 35.3119C79.1745 35.6258 79.088 35.9388 78.904 36.1959C78.7201 36.4529 78.4504 36.6374 78.1426 36.717ZM74.4759 30.8331C74.5329 30.7987 74.5961 30.7758 74.6621 30.7657C74.728 30.7555 74.7953 30.7584 74.8601 30.7741C75.038 30.8622 75.1856 30.9502 75.3635 31.0383C75.4674 31.1768 75.5379 31.337 75.5697 31.5067C75.7183 31.887 75.866 32.1212 75.6 32.3264C75.5333 32.3606 75.4641 32.3897 75.3928 32.4135C75.2452 32.4725 75.1563 32.6476 74.949 32.6476C74.299 32.7067 74.2687 31.3305 74.4759 30.8331ZM74.6236 30.1596C74.5974 30.3276 74.618 30.4996 74.6832 30.657V30.687C74.6202 30.693 74.5595 30.7128 74.5053 30.7451C74.4775 30.6451 74.4738 30.5401 74.4943 30.4384C74.5149 30.3368 74.5591 30.2413 74.6236 30.1596ZM76.4866 30.687C76.5629 30.5279 76.6741 30.3878 76.8121 30.2767C76.8817 30.2305 76.9654 30.21 77.0487 30.2186C77.078 30.2476 77.167 30.3057 77.2256 30.3647C77.2807 30.4696 77.3303 30.5771 77.3742 30.687C77.5512 31.0673 77.6401 31.5648 77.3439 31.828C77.2426 31.9322 77.1055 31.995 76.9597 32.0041C76.7232 31.858 76.3684 31.6818 76.2794 31.4186C76.1915 31.2425 76.3097 30.9502 76.4866 30.687ZM77.1963 29.7202L77.1073 30.1596C77.0576 30.1527 77.0083 30.143 76.9597 30.1305C76.9891 29.9844 77.0487 29.7793 77.1963 29.7202ZM78.9998 30.2476C79.067 30.3942 79.0877 30.5575 79.0594 30.716C79.0083 30.7237 78.9561 30.7134 78.9118 30.687L78.8815 30.657C78.9134 30.5185 78.9529 30.3819 78.9998 30.2476ZM77.1963 28.5493C76.5512 28.5248 75.9077 28.6306 75.3052 28.8602C74.7027 29.0898 74.1537 29.4385 73.6917 29.8849C73.2296 30.3314 72.8643 30.8663 72.6178 31.4571C72.3713 32.0479 72.2489 32.6821 72.258 33.3213C72.2414 33.9624 72.3588 34.6 72.6027 35.1942C72.8465 35.7883 73.2117 36.3262 73.6753 36.7742C74.1389 37.2222 74.6909 37.5706 75.2968 37.7975C75.9026 38.0245 76.5493 38.1252 77.1963 38.0932C77.8415 38.1178 78.485 38.0121 79.0876 37.7825C79.6901 37.5529 80.2392 37.2042 80.7012 36.7578C81.1632 36.3113 81.5286 35.7763 81.7751 35.1855C82.0215 34.5947 82.1439 33.9604 82.1347 33.3213C82.1512 32.6801 82.0339 32.0425 81.79 31.4483C81.5462 30.8542 81.181 30.3163 80.7174 29.8683C80.2538 29.4203 79.7018 29.072 79.0959 28.845C78.49 28.618 77.8433 28.5174 77.1963 28.5493ZM64.2152 32.4725C64.2539 31.8956 64.5147 31.3553 64.944 30.9631C65.3732 30.5709 65.9381 30.3567 66.5221 30.3648C66.8116 30.3423 67.1026 30.3807 67.376 30.4775C67.6494 30.5742 67.899 30.7272 68.1085 30.9262C68.318 31.1253 68.4825 31.366 68.5914 31.6325C68.7002 31.899 68.7509 32.1853 68.74 32.4725H64.2152ZM66.5514 28.5203C65.9188 28.511 65.291 28.63 64.7065 28.8698C64.122 29.1097 63.5933 29.4655 63.1529 29.9152C62.7125 30.3649 62.3697 30.8991 62.1455 31.4848C61.9214 32.0706 61.8207 32.6956 61.8496 33.3213C61.8496 36.1907 63.9493 38.0642 66.9952 38.0642C68.2249 38.1071 69.4426 37.8131 70.5142 37.2146L70.5436 37.0394L70.0997 35.4881C69.24 35.8941 68.3025 36.1135 67.35 36.1316C66.6767 36.2209 65.9938 36.0613 65.4318 35.6833C64.8699 35.3053 64.4684 34.7355 64.3042 34.0829H71.0167C71.0865 33.706 71.1261 33.3241 71.1349 32.941C71.1571 32.3445 71.0527 31.7501 70.8286 31.196C70.6045 30.6419 70.2656 30.1404 69.8338 29.724C69.402 29.3075 68.8868 28.9852 68.3214 28.7779C67.7561 28.5705 67.1531 28.4828 66.5514 28.5203Z" fill="white"/>
<path d="M32.1622 19.5037C34.5074 19.5036 36.8 20.192 38.7501 21.4819C40.7001 22.7717 42.22 24.6051 43.1175 26.7502C44.0151 28.8953 44.2499 31.2557 43.7924 33.533C43.3349 35.8102 42.2056 37.902 40.5473 39.5438C38.889 41.1856 36.7761 42.3037 34.4759 42.7566C32.1757 43.2096 29.7915 42.9771 27.6248 42.0885C25.4581 41.1999 23.6062 39.6952 22.3033 37.7646C21.0004 35.834 20.3051 33.5643 20.3052 31.2424C20.3099 28.1306 21.5606 25.1475 23.7832 22.947C26.0058 20.7466 29.0189 19.5083 32.1622 19.5037Z" fill="white"/>
<path d="M36.4498 27.5539C36.5085 27.5539 36.5378 27.5248 36.5378 27.4077C36.5464 27.096 36.4861 26.7862 36.3609 26.5C36.272 26.3539 36.0647 26.0026 35.8585 25.9145C35.556 25.8612 35.2484 25.8417 34.9416 25.8565C34.7111 25.8357 34.479 25.8731 34.267 25.9651C34.0551 26.0572 33.8701 26.2009 33.7295 26.3829C33.5222 26.5881 33.315 26.5881 33.2261 26.7642C33.1994 26.8252 33.1882 26.8918 33.1935 26.9581C33.1988 27.0244 33.2204 27.0884 33.2564 27.1445C33.2857 27.2326 33.4333 27.1445 33.4333 27.1445C33.8962 26.8159 34.418 26.5775 34.9709 26.442C36.1244 26.2078 36.3902 27.4668 36.3902 27.4668C36.3902 27.4668 36.4196 27.5539 36.4498 27.5539ZM26.4843 24.2462L25.2429 23.1042C24.8968 23.384 24.5708 23.6873 24.2673 24.012L25.716 25.3C25.8797 24.8909 26.1437 24.5288 26.4843 24.2462ZM32.1616 42.9817C29.8164 42.9816 27.5239 42.293 25.574 41.003C23.624 39.713 22.1043 37.8795 21.2069 35.7344C20.3095 33.5893 20.0748 31.2289 20.5325 28.9517C20.9901 26.6746 22.1195 24.5829 23.7779 22.9412C25.4362 21.2995 27.5491 20.1815 29.8493 19.7286C32.1494 19.2758 34.5336 19.5084 36.7002 20.397C38.8669 21.2856 40.7187 22.7903 42.0215 24.7209C43.3244 26.6515 44.0197 28.9212 44.0196 31.243C44.0197 32.7847 43.7131 34.3112 43.1172 35.7356C42.5213 37.1599 41.6478 38.4541 40.5467 39.5441C39.4455 40.6342 38.1382 41.4989 36.6995 42.0887C35.2608 42.6785 33.7188 42.982 32.1616 42.9817ZM32.1616 17.6597C29.448 17.6597 26.7953 18.4563 24.5391 19.9489C22.2828 21.4414 20.5242 23.5628 19.4858 26.0449C18.4474 28.5269 18.1756 31.258 18.705 33.893C19.2344 36.5279 20.5412 38.9482 22.46 40.8478C24.3788 42.7475 26.8235 44.0412 29.4849 44.5653C32.1464 45.0894 34.905 44.8204 37.4121 43.7923C39.9191 42.7642 42.0619 41.0232 43.5695 38.7895C45.0771 36.5557 45.8818 33.9295 45.8818 31.243C45.8791 27.6413 44.4328 24.1878 41.8603 21.641C39.2879 19.0942 35.7996 17.6622 32.1616 17.6597ZM29.2046 27.4959C28.8031 27.548 28.4242 27.7102 28.1109 27.9642C28.0522 28.0223 28.0522 28.0813 28.1401 28.1694C28.2291 28.2275 28.4363 28.1694 28.4363 28.1694C28.5189 28.2449 28.6078 28.3132 28.7022 28.3736C28.9962 28.3634 29.2859 28.4454 29.5301 28.6078C29.7081 28.7249 29.7374 28.901 29.885 28.9891C30.0033 29.0472 30.1509 29.0181 30.2105 29.0472C30.2994 29.1062 30.3288 29.2813 30.4764 29.2233C30.624 29.1643 30.536 29.0472 30.536 28.901C30.5273 28.5742 30.4774 28.2498 30.3874 27.9352C30.2994 27.642 29.6191 27.5249 29.2046 27.4959ZM34.2906 37.4491C34.0843 38.0055 33.1968 38.4439 32.9016 38.7372C32.6181 39.0825 32.3702 39.455 32.1616 39.8491C32.1616 39.8491 31.5409 39.0594 31.3337 38.7662C31.1274 38.4739 30.8312 38.503 30.5057 38.2098C30.1511 37.8385 29.8435 37.4258 29.5898 36.9807C29.4715 36.6875 29.4412 36.6585 29.6191 36.5123C29.9398 36.3655 30.2772 36.2573 30.624 36.1901C31.0971 36.044 31.0384 35.5756 32.1322 35.5756C32.5247 35.6088 32.9067 35.7183 33.2564 35.8978C33.6992 36.102 34.3795 35.8678 34.6757 36.073C34.9709 36.2782 34.4978 36.8926 34.2906 37.4491ZM42.9248 31.243C42.9257 30.8025 42.8963 30.3624 42.8368 29.9259L37.396 30.2772L42.6002 28.5787C42.4819 28.1393 42.3334 27.701 42.1858 27.2906L38.1937 28.1984L41.5944 26.0906C41.3756 25.7024 41.1286 25.3305 40.8554 24.9777L37.5144 26.7342C37.573 26.9393 37.6326 27.2326 37.6913 27.4077C37.7543 27.9337 37.7445 28.4657 37.662 28.989C37.6023 29.4274 36.9229 29.8087 36.4792 30.0719C36.3196 30.1496 36.1789 30.2605 36.0665 30.3969C35.9542 30.5334 35.8729 30.6922 35.8282 30.8626C35.7691 31.0352 35.7199 31.211 35.6805 31.389C35.6658 31.4862 35.6658 31.5851 35.6805 31.6823C35.6625 31.6272 35.6321 31.5769 35.5916 31.5352C35.444 31.301 35.3257 31.301 35.2671 31.36C35.1781 31.4181 35.3853 31.5942 35.5036 31.8574C35.608 32.0723 35.6874 32.2983 35.7402 32.531C35.8827 33.0564 35.9028 33.6071 35.7988 34.1413C35.7353 34.5743 35.5146 34.9696 35.1781 35.2532C34.7683 35.493 34.2807 35.5665 33.8174 35.4584C33.1674 35.1361 32.9016 35.3413 32.6943 35.1071C32.4852 34.8448 32.3524 34.5309 32.3101 34.1994C32.4923 33.7443 32.7994 33.3487 33.1968 33.0574C33.5212 32.8204 33.8679 32.6146 34.2319 32.4429C34.2729 32.4109 34.307 32.3712 34.3324 32.326C34.3577 32.2808 34.3737 32.2311 34.3795 32.1797C34.4089 32.0336 34.4685 31.9455 34.3795 31.9165C34.3209 31.8864 34.2905 31.9165 34.2026 31.9745C34.0843 32.0916 33.9661 32.2087 33.9357 32.1797C33.9064 32.1507 33.9357 32.1507 33.9064 32.0916C33.8731 31.9894 33.8119 31.8983 33.7295 31.8284C33.4929 31.6232 32.753 32.1507 32.1615 32.1507C31.5701 32.1507 31.0091 31.7994 30.7129 31.9455C30.6576 31.9633 30.6073 31.9938 30.5662 32.0345C30.5251 32.0752 30.4943 32.1249 30.4763 32.1797C30.447 32.2678 30.5056 32.2678 30.4763 32.2968C30.4177 32.3258 30.3874 32.2087 30.2994 32.1206C30.2104 32.0336 30.1811 32.0036 30.0922 32.0626C30.0032 32.1206 30.0922 32.1507 30.1811 32.3258C30.2457 32.4517 30.3251 32.5696 30.4177 32.6771C30.6482 32.9437 30.9295 33.1627 31.2456 33.3216C31.5652 33.5532 31.8279 33.8532 32.0139 34.1994C32.1029 34.3755 31.8067 34.9019 31.7774 34.961L31.5115 35.2242C31.1755 35.557 30.7725 35.8162 30.3287 35.9849C29.9739 36.0729 29.5595 36.2191 29.3229 35.9558C28.9024 35.3606 28.6197 34.6809 28.4949 33.9652C28.4666 33.5734 28.5379 33.1808 28.7022 32.8232C28.7911 32.589 28.8204 32.2968 28.8801 32.1207C29.0558 31.7298 29.2532 31.3489 29.4715 30.9797C29.3825 30.8916 28.9387 31.0968 28.7315 31.4772L28.6435 31.301C28.6132 31.243 28.5546 31.1839 28.4949 31.0968C28.4656 31.0378 28.407 30.9797 28.3474 30.8626C27.9531 30.4705 27.5384 30.099 27.1049 29.7497C26.6915 29.3404 26.8391 28.7549 26.8097 27.8181C26.7794 27.4219 26.8296 27.0238 26.9573 26.6471L23.4384 25.0658C23.1678 25.4246 22.9303 25.8068 22.7288 26.2077L26.1002 28.2864L22.1373 27.3787C21.9687 27.7978 21.8305 28.2282 21.7239 28.6668L26.5439 30.2181L21.4873 29.9549C21.428 30.3817 21.3983 30.8121 21.3984 31.243V31.272L26.7511 31.5943L21.4873 32.5891C21.5472 33.0337 21.636 33.4739 21.7532 33.9072L27.017 32.8823L22.1676 35.1652C22.3346 35.5794 22.5323 35.9808 22.759 36.3662L27.6084 34.0823L23.4687 37.4781C23.7346 37.8294 24.0298 38.1807 24.326 38.503L28.4363 35.0781L25.3308 39.4688C25.6761 39.7579 26.042 40.0222 26.4256 40.2595L28.9681 36.9807L27.5791 40.874C27.9899 41.0701 28.4146 41.2363 28.8498 41.3714L30.2398 38.6201L30.1509 41.6937C30.5999 41.7827 31.0545 41.8416 31.5116 41.8698L32.1616 39.9962L32.8126 41.8698C33.2693 41.8416 33.7236 41.7828 34.1723 41.6937L33.966 38.444L35.4733 41.3714C35.9089 41.2365 36.3339 41.0702 36.745 40.874L35.1184 36.5414L37.9571 40.2004C38.3408 39.9637 38.7067 39.6997 39.0519 39.4108L36.1536 35.4295L39.9981 38.5321C40.2933 38.2098 40.5895 37.8585 40.8553 37.5072L36.656 34.0824L41.5943 36.3662C41.8115 35.9803 41.9994 35.5789 42.1563 35.1653L37.2182 32.8823L42.57 33.8771C42.6777 33.4436 42.7568 33.0037 42.8065 32.56L37.4547 31.5652L42.9248 31.243ZM37.7803 24.1C38.1938 24.4803 38.5192 24.7736 38.5192 25.3V25.3881L39.9982 23.9239C39.6434 23.6026 39.3179 23.3094 38.9924 23.0161L37.751 24.071L37.7803 24.1ZM30.713 26.9395C30.3288 26.7933 29.7961 25.9446 29.6191 25.8275C29.4748 25.7435 29.313 25.6932 29.146 25.6804C28.88 25.6659 28.6134 25.6659 28.3475 25.6804C28.1545 25.7253 27.9857 25.8403 27.8743 26.0027C27.7565 26.1515 27.6664 26.3199 27.6084 26.5001C27.6084 26.5001 27.6974 26.8223 27.9633 26.7643C28.3475 26.6472 28.9984 26.1788 29.5595 26.7643C29.9447 27.1446 30.1216 27.554 30.4764 27.613C31.0971 27.6711 31.5703 27.2617 30.713 26.9395ZM33.8771 27.701C33.7882 27.9643 33.5809 29.0182 33.7882 29.0762C33.9358 29.1352 34.054 28.9011 34.054 28.9011C34.5339 28.8003 35.0077 28.6733 35.4734 28.5207C35.6439 28.3463 35.802 28.1604 35.9465 27.9643C35.9465 27.9643 36.1831 28.0524 36.272 27.9643C36.361 27.8762 36.361 27.8182 36.3013 27.7591C35.9787 27.4788 35.5759 27.305 35.1489 27.2617C34.6758 27.2908 33.966 27.4369 33.8771 27.701ZM28.3475 23.5436C28.5519 23.8247 28.7206 24.1296 28.8499 24.4514C29.2973 24.167 29.8297 24.043 30.3582 24.1001C30.7027 24.105 31.0422 24.1833 31.3534 24.3298C31.6646 24.4762 31.9403 24.6874 32.1617 24.9488C32.3185 24.6562 32.5597 24.4165 32.8546 24.2602C33.1495 24.1039 33.4847 24.038 33.8176 24.0711C34.351 24.1344 34.8764 24.2521 35.3855 24.4223C35.5038 24.4514 35.7696 24.1001 36.0648 23.6317C36.2427 23.3385 36.6865 23.4265 37.1 23.6317L37.839 22.1965C37.4548 21.9623 37.0707 21.7581 36.6563 21.553L35.1488 23.6606L35.4147 21.0845C34.9803 20.9431 34.5355 20.8354 34.0843 20.7622L33.0492 23.6026L32.753 20.6161C32.5467 20.6161 32.3395 20.5871 32.1616 20.5871C31.9051 20.5822 31.6486 20.5919 31.3933 20.6161L31.0971 23.7196L30.0629 20.7912C29.6122 20.8811 29.1676 20.9985 28.7315 21.1425L28.9984 23.5726L27.4901 21.6109C27.0799 21.8068 26.6846 22.032 26.3073 22.2845L27.105 23.7487C27.6377 23.4845 28.1999 23.3675 28.3475 23.5436Z" fill="#151516"/>
</svg>
