<svg width="146" height="64" viewBox="0 0 146 64" fill="none" xmlns="http://www.w3.org/2000/svg">
<path d="M112.19 24.9944V29.5892C112.744 29.588 113.297 29.5586 113.849 29.5012C114.244 29.4835 114.621 29.3333 114.922 29.0744C115.222 28.8156 115.428 28.463 115.507 28.0728C115.627 27.5793 115.638 27.0653 115.539 26.567C115.509 26.1983 115.35 25.8523 115.091 25.5906C114.831 25.3289 114.488 25.1684 114.122 25.1376C113.499 25.0389 112.855 25.0389 112.19 24.9944ZM106.756 20.8728H106.919C109.332 20.8728 111.743 20.8621 114.154 20.8834C115.509 20.8531 116.856 21.1117 118.105 21.6421C118.921 21.9839 119.629 22.543 120.154 23.2595C120.679 23.9761 121 24.823 121.084 25.7095C121.278 26.9014 121.15 28.1242 120.712 29.2486C120.458 29.9131 120.063 30.5134 119.554 31.0072C119.045 31.5011 118.435 31.8763 117.766 32.1063C117.712 32.1286 117.657 32.1509 117.614 32.1721C117.602 32.1721 117.591 32.1944 117.569 32.2051C119.076 34.7115 120.581 37.218 122.098 39.7457C122.011 39.7457 121.956 39.7573 121.901 39.7573H116.107C115.999 39.7573 115.922 39.7573 115.856 39.6364C114.808 37.7125 113.761 35.796 112.714 33.887C112.539 33.5793 112.409 33.2386 112.244 32.9202C112.222 32.8852 112.196 32.8522 112.168 32.8215V39.7457H106.767C106.756 33.4699 106.752 27.1789 106.756 20.8728Z" fill="#121212"/>
<path d="M93.3347 20.8838H105.447V25.3459H98.7357V28.0392H104.65V32.2501H98.7357V35.2389H105.447V39.7465H93.3347V20.8838Z" fill="#121212"/>
<path d="M74.7408 39.7464H69.3075V25.5547H65.7925V20.8945H78.2537V25.5439H74.7408V39.7464Z" fill="#121212"/>
<path d="M88.512 39.7464H83.0777V25.5547H79.5637V20.8945H92.0249V25.5439H88.512V39.7464Z" fill="#121212"/>
<path d="M24.2193 20.8948H29.6318V35.0307H33.9309V39.7465H24.2087C24.2193 33.4697 24.2229 27.1858 24.2193 20.8948Z" fill="#121212"/>
<path d="M49.8619 13.8489C46.9268 13.8488 44.0575 14.7255 41.617 16.3681C39.1764 18.0107 37.2743 20.3454 36.151 23.0771C35.0277 25.8087 34.7338 28.8146 35.3064 31.7145C35.879 34.6144 37.2924 37.2782 39.3678 39.3689C41.4433 41.4596 44.0876 42.8834 46.9664 43.4602C49.8451 44.037 52.829 43.7409 55.5407 42.6094C58.2525 41.4779 60.5702 39.5617 62.2008 37.1032C63.8314 34.6448 64.7017 31.7544 64.7016 28.7977C64.7013 24.8331 63.1377 21.0311 60.3548 18.2277C57.5719 15.4243 53.7975 13.8493 49.8619 13.8489ZM49.8619 19.5866C51.6705 19.5865 53.4386 20.1267 54.9424 21.1389C56.4462 22.151 57.6183 23.5896 58.3105 25.2728C59.0027 26.956 59.1838 28.8082 58.831 30.5951C58.4782 32.382 57.6072 34.0234 56.3284 35.3117C55.0495 36.5999 53.4201 37.4773 51.6462 37.8327C49.8724 38.1881 48.0337 38.0056 46.3628 37.3084C44.6919 36.6111 43.2637 35.4304 42.259 33.9155C41.2542 32.4006 40.718 30.6196 40.7181 28.7977C40.7211 26.3557 41.6854 24.0146 43.3995 22.2878C45.1137 20.561 47.4377 19.5896 49.8619 19.5866Z" fill="#121212"/>
<path d="M68.3222 45.4179L68.1484 46.9354C68.6583 46.8626 69.1503 46.6945 69.599 46.4399C70.014 46.2095 70.2215 45.9454 70.2215 45.6821C70.2215 45.3628 69.9698 45.1982 69.4683 45.1982C69.0777 45.2149 68.6916 45.2889 68.3222 45.4179ZM68.0715 47.5944C68.0283 48.0453 67.9956 48.3966 67.9956 48.6715C67.9963 48.7753 67.9613 48.8761 67.8967 48.9569C67.8666 48.9975 67.8269 49.0298 67.7813 49.0509C67.7356 49.072 67.6855 49.0813 67.6353 49.0779C67.3952 49.0779 67.2856 48.9356 67.2856 48.6608C67.2856 48.5069 67.3404 47.9902 67.4499 47.1221C67.5364 46.4069 67.5806 45.9898 67.5806 45.8466C67.5862 45.7579 67.5788 45.6689 67.5585 45.5824C67.498 45.5499 67.4483 45.5004 67.4154 45.4399C67.3824 45.3794 67.3677 45.3105 67.3731 45.2417C67.3731 45.0772 67.6353 44.934 68.1484 44.8131C68.584 44.7049 69.0303 44.6461 69.4789 44.6379C69.8428 44.6191 70.2039 44.7108 70.5155 44.9011C70.6371 44.9774 70.7365 45.0847 70.8037 45.2122C70.8708 45.3396 70.9033 45.4827 70.8978 45.6269C70.8852 45.8637 70.8137 46.0935 70.6898 46.2951C70.5659 46.4967 70.3936 46.6636 70.1888 46.7805C69.6722 47.1323 69.0885 47.3719 68.475 47.4841C68.2463 47.5508 68.1042 47.5837 68.0715 47.5944Z" fill="#121212"/>
<path d="M72.2178 44.011C72.4253 44.011 72.5233 44.1213 72.5233 44.3516C72.5237 44.4666 72.5091 44.5811 72.4801 44.6923C72.4464 44.8132 72.3706 45.1103 72.2399 45.5826C72.1394 45.9541 72.0665 46.3325 72.0218 46.7149C71.9777 47.1214 71.945 47.4407 71.945 47.671C71.945 47.913 71.9671 48.2101 71.9998 48.5401C72.0071 48.5982 72.0107 48.6567 72.0104 48.7152C72.012 48.7715 72.0012 48.8273 71.9786 48.8788C71.9559 48.9302 71.9221 48.9758 71.8797 49.0123C71.8452 49.0507 71.803 49.0812 71.756 49.1021C71.709 49.1229 71.6582 49.1336 71.6069 49.1333C71.5449 49.1352 71.4839 49.1171 71.4329 49.0816C71.3819 49.046 71.3435 48.995 71.3234 48.9359C71.2542 48.7195 71.2246 48.4923 71.236 48.2652C71.2461 47.461 71.3265 46.6592 71.4762 45.8691C71.5338 45.3115 71.666 44.7643 71.8691 44.2423C71.9025 44.1767 71.9522 44.121 72.0133 44.0805C72.0744 44.0399 72.1448 44.016 72.2178 44.011Z" fill="#121212"/>
<path d="M74.629 46.3304C74.4331 46.3304 74.1823 46.5501 73.8768 46.9788C73.6167 47.29 73.4566 47.6733 73.4176 48.0782C73.4176 48.2321 73.4512 48.3201 73.5166 48.3201C73.7452 48.3201 74.018 48.1217 74.3456 47.7153C74.6209 47.4279 74.7936 47.0565 74.8366 46.6595C74.8413 46.5775 74.8183 46.4963 74.7712 46.4292C74.7581 46.4017 74.7381 46.3781 74.7132 46.3608C74.6882 46.3435 74.6592 46.333 74.629 46.3304ZM74.8039 47.935C74.6523 48.2032 74.4416 48.4329 74.1882 48.6063C73.9347 48.7798 73.6452 48.8925 73.3417 48.9356C73.2565 48.936 73.1722 48.9174 73.0948 48.8813C73.0174 48.8452 72.9489 48.7924 72.8941 48.7266C72.7672 48.5813 72.7008 48.3925 72.7086 48.1992C72.7491 47.593 72.9868 47.0171 73.385 46.5608C73.5306 46.32 73.7295 46.1164 73.9661 45.9658C74.2028 45.8152 74.4707 45.7218 74.7491 45.6927C74.8541 45.6887 74.9572 45.7216 75.0407 45.7856C75.1243 45.8497 75.1832 45.941 75.2074 46.044C75.4255 46.044 75.535 46.1321 75.535 46.2976C75.5254 46.4456 75.5035 46.5925 75.4697 46.7369C75.4009 47.0513 75.3607 47.3713 75.3496 47.693C75.3431 47.8671 75.3616 48.0411 75.4044 48.2098C75.4233 48.2779 75.4487 48.3441 75.4803 48.4072C75.4918 48.4401 75.5456 48.474 75.6224 48.5069C75.6555 48.5173 75.6847 48.5376 75.7062 48.5651C75.7276 48.5926 75.7403 48.6259 75.7425 48.6608C75.74 48.711 75.7246 48.7596 75.6978 48.802C75.6711 48.8445 75.6338 48.8791 75.5898 48.9027C75.5003 48.9662 75.3937 49.0007 75.2843 49.0014C74.924 49.0227 74.7712 48.6608 74.8039 47.935Z" fill="#121212"/>
<path d="M79.0486 47.1987C79.0175 47.6554 78.9629 48.1102 78.8853 48.5613C78.8129 48.9711 78.6996 49.3725 78.5471 49.7594C78.4508 50.0418 78.2856 50.2953 78.0668 50.4968C77.8867 50.6301 77.6677 50.6996 77.4442 50.6942C77.19 50.697 76.9378 50.6483 76.7026 50.551C76.5055 50.4705 76.3242 50.3552 76.1674 50.2103C76.0473 50.1239 75.9653 49.9937 75.9388 49.8474C75.9355 49.7689 75.9585 49.6915 76.0041 49.6278C76.0255 49.6024 76.0524 49.5823 76.0827 49.5691C76.113 49.5558 76.146 49.5497 76.179 49.5513C76.2089 49.5488 76.239 49.5545 76.266 49.568C76.2929 49.5815 76.3157 49.6022 76.3317 49.6278C76.4587 49.7878 76.6223 49.9145 76.8085 49.9969C76.9948 50.0793 77.198 50.115 77.401 50.101C77.5864 50.101 77.7718 49.9026 77.9467 49.5068C78.1343 49.0478 78.2484 48.5618 78.2848 48.0668C77.911 48.4346 77.4354 48.6799 76.9206 48.7703C76.8244 48.7724 76.7293 48.7504 76.6436 48.7064C76.5579 48.6623 76.4844 48.5975 76.4297 48.5178C76.3055 48.3456 76.2404 48.1373 76.2443 47.9245C76.2611 47.5824 76.3159 47.2431 76.4077 46.9133C76.4592 46.6267 76.5511 46.3491 76.6805 46.0887C76.7232 46.0317 76.7797 45.9865 76.8446 45.9575C76.9095 45.9286 76.9807 45.9168 77.0513 45.9233C77.0935 45.9228 77.1351 45.9337 77.1716 45.955C77.2081 45.9763 77.2383 46.0071 77.2589 46.0442C77.3072 46.1239 77.3337 46.2151 77.3357 46.3084C77.2815 46.4758 77.2121 46.6378 77.1282 46.7923C76.9812 47.0827 76.8958 47.4007 76.8775 47.7262C76.873 47.8316 76.8917 47.9367 76.9323 48.0339C76.9649 48.0997 77.0081 48.1442 77.0514 48.1442C77.1688 48.1359 77.2837 48.1061 77.3905 48.0562C77.5537 47.9792 77.7075 47.8834 77.8487 47.7707C77.9757 47.6806 78.0895 47.5731 78.1869 47.4513C78.2479 47.3706 78.2891 47.2764 78.307 47.1765C78.3467 46.9292 78.372 46.6797 78.3829 46.4294C78.3868 46.2896 78.3977 46.15 78.4155 46.0113C78.4301 45.9504 78.4646 45.8962 78.5136 45.8575C78.5792 45.8064 78.6602 45.7794 78.7431 45.781C78.8405 45.7692 78.9386 45.7967 79.016 45.8575C79.0708 45.9127 79.0919 46.0336 79.0919 46.2426L79.0486 47.1987Z" fill="#121212"/>
<path d="M81.3295 44.6049C81.326 44.6751 81.3075 44.7438 81.2754 44.8062C81.2432 44.8687 81.1981 44.9234 81.1432 44.9668C81.0573 45.0515 80.9463 45.1055 80.8271 45.1207C80.7688 45.1217 80.7111 45.1094 80.6582 45.0848C80.6053 45.0601 80.5586 45.0238 80.5216 44.9784C80.445 44.9021 80.3985 44.8003 80.3909 44.692C80.3882 44.6292 80.3984 44.5665 80.4209 44.5079C80.4434 44.4493 80.4777 44.3959 80.5216 44.3513C80.5735 44.3049 80.634 44.2694 80.6996 44.2468C80.7653 44.2242 80.8347 44.215 80.904 44.2197C81.0195 44.2137 81.1329 44.2533 81.22 44.33C81.2577 44.3646 81.2871 44.4072 81.306 44.4548C81.325 44.5024 81.333 44.5537 81.3295 44.6049ZM79.9433 46.9787C79.984 46.7829 80.0131 46.5848 80.0307 46.3855C80.0265 46.2574 80.0607 46.131 80.1287 46.0226C80.156 45.9776 80.1946 45.9406 80.2406 45.9154C80.2867 45.8903 80.3385 45.8778 80.3909 45.8794C80.4995 45.8751 80.6065 45.906 80.6964 45.9675C80.7301 45.9907 80.7576 46.0219 80.7765 46.0584C80.7954 46.0948 80.8052 46.1354 80.805 46.1765C80.7884 46.3378 80.7519 46.4965 80.6964 46.6488L80.6743 46.7146C80.5832 47.0119 80.5211 47.3176 80.4889 47.6271C80.4668 47.8584 80.4562 48.0558 80.4562 48.1991C80.4617 48.3583 80.4836 48.5166 80.5216 48.6713C80.5297 48.6999 80.5332 48.7297 80.5321 48.7594C80.5321 48.8029 80.4889 48.8581 80.412 48.9355C80.3384 49.0058 80.2407 49.045 80.1392 49.0448C79.8885 49.0448 79.7578 48.8474 79.7578 48.4623C79.7644 48.0591 79.812 47.6576 79.9 47.2642C79.9095 47.1683 79.924 47.0731 79.9433 46.9787Z" fill="#121212"/>
<path d="M83.8388 48.4847C83.7163 48.1766 83.6499 47.8488 83.6429 47.5169C83.5987 47.0224 83.5113 46.7805 83.3585 46.7805C83.2173 46.7805 82.9877 47.034 82.6389 47.5508C82.3804 47.9012 82.1709 48.2858 82.0164 48.6937C81.9967 48.7621 81.9634 48.8256 81.9184 48.8805C81.902 48.9032 81.8807 48.9219 81.8561 48.9352C81.8314 48.9484 81.8041 48.9559 81.7762 48.957C81.4823 48.957 81.3401 48.8253 81.3401 48.5505C81.3575 48.3438 81.3866 48.1383 81.4275 47.935C81.5083 47.4299 81.5446 46.9185 81.5361 46.4069C81.5445 46.3012 81.5866 46.2011 81.6561 46.1215C81.6838 46.0783 81.7208 46.042 81.7644 46.0154C81.808 45.9887 81.8571 45.9724 81.9078 45.9676C81.9997 45.9625 82.0898 45.9941 82.1586 46.0556C82.2345 46.1928 82.2651 46.3507 82.246 46.5066C82.2209 46.8658 82.166 47.2222 82.0817 47.5721C82.4967 46.5937 82.9655 46.0992 83.468 46.0992C83.9147 46.0992 84.1766 46.4511 84.2538 47.155C84.3297 47.8692 84.4171 48.2321 84.5151 48.2321C84.5675 48.2304 84.6193 48.2192 84.6678 48.1992C84.7205 48.1795 84.776 48.1684 84.8321 48.1663C84.9186 48.1663 84.9734 48.2205 84.9734 48.3308C84.9548 48.4571 84.8883 48.5713 84.7879 48.6492C84.6536 48.7622 84.4825 48.8211 84.3076 48.8147C84.2079 48.8048 84.1124 48.7692 84.0303 48.7114C83.9483 48.6537 83.8824 48.5756 83.8388 48.4847Z" fill="#121212"/>
<path d="M87.3519 46.4068C87.1462 46.4359 86.9531 46.5239 86.7957 46.6604C86.5447 46.8504 86.3302 47.0848 86.1626 47.3523C85.9963 47.5601 85.8941 47.8124 85.8686 48.0781C85.8686 48.1768 85.9013 48.232 85.9771 48.232C86.2503 48.2244 86.5109 48.1147 86.7082 47.9242C86.9422 47.7284 87.1416 47.4941 87.2981 47.2313C87.4196 47.0545 87.4979 46.8512 87.5267 46.6381C87.5273 46.5783 87.508 46.5201 87.4719 46.4726C87.4585 46.4529 87.4406 46.4367 87.4197 46.4252C87.3988 46.4138 87.3757 46.4075 87.3519 46.4068ZM87.276 48.023C87.0668 48.2647 86.8154 48.4658 86.5343 48.6162C86.3128 48.7518 86.0619 48.8312 85.8032 48.8475C85.7169 48.8543 85.6302 48.8421 85.5491 48.8117C85.4679 48.7813 85.3944 48.7334 85.3335 48.6714C85.2187 48.5334 85.1603 48.3566 85.1701 48.1769C85.1885 47.8182 85.3056 47.4717 85.5083 47.1762C85.7516 46.7951 86.0713 46.4694 86.4469 46.2201C86.759 45.98 87.1348 45.8386 87.5267 45.8136C87.6911 45.8082 87.8525 45.8587 87.9849 45.9569C88.0176 45.9781 88.0397 46.0004 88.0618 46.011C88.118 46.0591 88.1626 46.1193 88.1924 46.1872C88.2274 46.2513 88.2463 46.3231 88.2472 46.3962C88.2243 46.5172 88.1875 46.635 88.1377 46.7475C88.0631 46.9423 88.0118 47.1453 87.985 47.3523C87.9523 47.5507 87.8975 48.0336 87.8111 48.803C87.7877 49.3416 87.5923 49.8582 87.2539 50.2759C87.1313 50.4177 86.9806 50.5321 86.8115 50.6117C86.6424 50.6914 86.4587 50.7346 86.2721 50.7385C85.8738 50.7296 85.4883 50.5949 85.1702 50.3533C84.8099 50.1007 84.635 49.8917 84.635 49.7272C84.635 49.584 84.7003 49.5065 84.8425 49.5065C84.9652 49.5381 85.0802 49.5944 85.1807 49.672C85.5079 49.9186 85.8975 50.0672 86.3047 50.1007C86.4366 50.0895 86.5628 50.0413 86.6689 49.9616C86.775 49.8819 86.8568 49.7739 86.9051 49.6497C87.1178 49.1321 87.2432 48.5823 87.276 48.023Z" fill="#121212"/>
<path d="M92.6232 44.6049C92.6197 44.6751 92.6012 44.7438 92.5691 44.8062C92.5369 44.8687 92.4919 44.9234 92.4369 44.9668C92.351 45.0515 92.24 45.1055 92.1208 45.1207C92.0625 45.1217 92.0048 45.1094 91.9519 45.0848C91.899 45.0601 91.8523 45.0238 91.8153 44.9784C91.7387 44.9021 91.6923 44.8003 91.6846 44.692C91.6819 44.6292 91.6921 44.5665 91.7146 44.5079C91.7371 44.4493 91.7714 44.3959 91.8153 44.3513C91.8672 44.3049 91.9277 44.2694 91.9934 44.2468C92.059 44.2242 92.1285 44.215 92.1977 44.2197C92.3132 44.2137 92.4266 44.2533 92.5137 44.33C92.5514 44.3646 92.5808 44.4072 92.5997 44.4548C92.6187 44.5024 92.6267 44.5537 92.6232 44.6049ZM91.237 46.9787C91.2777 46.7829 91.3068 46.5848 91.3244 46.3855C91.3202 46.2574 91.3544 46.1309 91.4224 46.0226C91.4497 45.9775 91.4883 45.9405 91.5343 45.9154C91.5804 45.8902 91.6322 45.8778 91.6846 45.8794C91.7932 45.8751 91.9002 45.9059 91.9901 45.9674C92.0238 45.9907 92.0513 46.0219 92.0702 46.0584C92.0891 46.0948 92.0989 46.1353 92.0987 46.1765C92.0821 46.3378 92.0456 46.4964 91.9901 46.6487L91.968 46.7145C91.8769 47.0119 91.8148 47.3175 91.7826 47.6271C91.7605 47.8584 91.7499 48.0558 91.7499 48.199C91.7554 48.3583 91.7773 48.5166 91.8153 48.6713C91.8234 48.6999 91.8269 48.7296 91.8258 48.7594C91.8258 48.8029 91.7826 48.8581 91.7057 48.9355C91.6321 49.0058 91.5344 49.0449 91.4329 49.0448C91.1822 49.0448 91.0515 48.8474 91.0515 48.4622C91.0581 48.059 91.1057 47.6576 91.1937 47.2642C91.2033 47.1683 91.2177 47.0731 91.237 46.9787Z" fill="#121212"/>
<path d="M93.8887 46.5611C93.8083 46.7698 93.7534 46.9875 93.7253 47.2096C93.6651 47.4668 93.6211 47.7277 93.5937 47.9905C93.5879 48.1029 93.6066 48.2152 93.6485 48.3196C93.6628 48.3509 93.6861 48.3772 93.7154 48.3949C93.7447 48.4127 93.7786 48.4212 93.8128 48.4193C93.9169 48.4178 94.0201 48.3991 94.1183 48.3641C94.2613 48.3011 94.3935 48.2159 94.5102 48.1115C94.5771 48.0422 94.6664 47.9993 94.7619 47.9905C94.7855 47.9885 94.8093 47.9913 94.8317 47.9988C94.8542 48.0062 94.8749 48.0183 94.8926 48.0341C94.9088 48.0476 94.9221 48.0644 94.9315 48.0834C94.941 48.1024 94.9464 48.1232 94.9474 48.1444C94.9474 48.3089 94.8158 48.5063 94.543 48.7154C94.3021 48.9208 93.9969 49.0339 93.6812 49.0347C93.5738 49.0418 93.4662 49.0247 93.3662 48.9847C93.2661 48.9447 93.1762 48.8828 93.1029 48.8034C92.961 48.6187 92.8913 48.388 92.9069 48.155C92.9537 47.6262 93.0521 47.1033 93.2009 46.594C93.0808 46.6047 92.9943 46.6163 92.9501 46.6163H92.8848C92.7879 46.611 92.6939 46.5807 92.612 46.5282C92.5683 46.4979 92.5333 46.4565 92.5103 46.4083C92.4874 46.3601 92.4774 46.3067 92.4813 46.2534C92.4813 46.0888 92.5687 46.0114 92.7541 46.0114L93.3651 45.9892C93.441 45.7589 93.5285 45.4511 93.6159 45.0776C93.6707 44.8463 93.7907 44.7253 93.9761 44.7253C94.0195 44.7224 94.063 44.7286 94.1039 44.7433C94.1448 44.7581 94.1823 44.7812 94.214 44.8111C94.2457 44.841 94.2709 44.8772 94.2882 44.9174C94.3055 44.9575 94.3143 45.0009 94.3143 45.0446C94.3143 45.0775 94.2374 45.3737 94.0741 45.935C94.6851 45.8798 95.0127 45.8575 95.078 45.8575C95.1464 45.8479 95.216 45.8634 95.274 45.9011C95.3111 45.9517 95.327 46.0149 95.3182 46.0772C95.3182 46.2534 95.176 46.3637 94.8821 46.4072L93.8887 46.5611Z" fill="#121212"/>
<path d="M101.418 47.4735C101.363 47.6836 101.32 47.8965 101.287 48.1112C101.251 48.3035 101.229 48.4982 101.222 48.6938V49.1554C101.223 49.2289 101.204 49.3013 101.167 49.3645C101.137 49.418 101.091 49.4604 101.035 49.4854C100.983 49.5165 100.923 49.5316 100.862 49.529C100.756 49.5292 100.655 49.4899 100.577 49.4186C100.538 49.3893 100.506 49.3513 100.483 49.3076C100.46 49.2638 100.448 49.2154 100.447 49.1661C100.463 49.0255 100.489 48.8861 100.523 48.749C100.567 48.5283 100.61 48.3415 100.644 48.177C100.157 48.5905 99.5538 48.8402 98.9191 48.8912C98.6182 48.905 98.3241 48.7986 98.1006 48.5951C97.995 48.487 97.9132 48.3577 97.8606 48.2156C97.808 48.0736 97.7856 47.9219 97.7951 47.7706C97.7996 47.2055 97.9705 46.6545 98.286 46.1873C98.6089 45.6863 99.0327 45.2593 99.5301 44.9341C99.952 44.6437 100.449 44.4833 100.96 44.4725C101.164 44.4617 101.368 44.5072 101.548 44.6041C101.613 44.6378 101.667 44.6883 101.705 44.7502C101.744 44.8122 101.765 44.8834 101.767 44.9564C101.756 45.1008 101.703 45.2388 101.614 45.3522C101.516 45.4954 101.418 45.5612 101.32 45.5612C101.294 45.564 101.269 45.5615 101.244 45.5539C101.22 45.5462 101.197 45.5335 101.178 45.5167C101.132 45.4748 101.099 45.4218 101.08 45.3628C101.054 45.2924 101.013 45.2286 100.96 45.176C100.898 45.1369 100.825 45.1176 100.752 45.1208C100.384 45.1516 100.036 45.302 99.7597 45.5495C99.3938 45.8271 99.086 46.1747 98.8538 46.5724C98.6389 46.9116 98.5181 47.3026 98.5041 47.7047C98.5041 48.0783 98.6684 48.2757 98.9844 48.2757C99.1907 48.2676 99.3939 48.2231 99.5849 48.1441C99.848 48.0404 100.097 47.9039 100.327 47.7376C100.529 47.6184 100.692 47.4426 100.796 47.2315C100.85 47.0666 100.89 46.8976 100.916 46.7263C100.918 46.6827 100.929 46.6399 100.95 46.6016C100.97 46.5632 101 46.5304 101.036 46.5057C101.118 46.4676 101.207 46.449 101.298 46.4515C101.549 46.4515 101.669 46.5396 101.669 46.7041C101.655 46.8189 101.622 46.9306 101.571 47.0341C101.511 47.1774 101.46 47.3241 101.418 47.4735Z" fill="#121212"/>
<path d="M103.415 44.011C103.622 44.011 103.72 44.1213 103.72 44.3516C103.72 44.4666 103.706 44.5811 103.677 44.6923C103.644 44.8132 103.567 45.1103 103.437 45.5826C103.337 45.9542 103.264 46.3326 103.219 46.7149C103.174 47.1214 103.142 47.4407 103.142 47.671C103.142 47.913 103.164 48.2101 103.197 48.5401C103.204 48.5982 103.207 48.6567 103.207 48.7152C103.209 48.7715 103.198 48.8273 103.175 48.8788C103.153 48.9302 103.119 48.9758 103.076 49.0123C103.042 49.0507 103 49.0812 102.953 49.1021C102.906 49.1229 102.855 49.1336 102.804 49.1333C102.742 49.1352 102.681 49.1171 102.63 49.0816C102.579 49.046 102.54 48.995 102.52 48.9359C102.451 48.7195 102.421 48.4923 102.433 48.2652C102.443 47.461 102.523 46.6592 102.673 45.8691C102.731 45.3115 102.863 44.7643 103.066 44.2423C103.099 44.1767 103.149 44.121 103.21 44.0805C103.271 44.0399 103.342 44.016 103.415 44.011Z" fill="#121212"/>
<path d="M105.258 46.5278C105.095 46.6936 104.962 46.8873 104.866 47.0998C104.74 47.3445 104.672 47.6157 104.67 47.8914C104.665 48.0286 104.695 48.1648 104.757 48.2872C104.777 48.3319 104.809 48.3701 104.849 48.3973C104.89 48.4246 104.937 48.4397 104.986 48.4411C105.132 48.4252 105.274 48.379 105.402 48.3052C105.529 48.2314 105.641 48.1317 105.728 48.0124C105.974 47.7557 106.111 47.4122 106.11 47.0553C106.114 46.8826 106.073 46.7118 105.989 46.5608C105.954 46.5007 105.902 46.4516 105.841 46.4187C105.779 46.3858 105.71 46.3703 105.641 46.374C105.499 46.3752 105.362 46.4301 105.258 46.5278ZM106.743 47.4404C106.618 47.8865 106.363 48.2846 106.012 48.5833C105.719 48.8631 105.335 49.027 104.932 49.0449C104.799 49.0473 104.668 49.0199 104.547 48.9648C104.426 48.9098 104.319 48.8284 104.233 48.7266C104.048 48.515 103.95 48.2394 103.961 47.9572C103.97 47.4254 104.146 46.9102 104.462 46.4843C104.588 46.269 104.766 46.0896 104.98 45.9626C105.194 45.8357 105.436 45.7654 105.684 45.7585C105.835 45.7541 105.986 45.7845 106.124 45.8474C106.262 45.9103 106.384 46.0039 106.48 46.1213C106.685 46.3631 106.793 46.6721 106.786 46.9894C106.795 47.1411 106.78 47.2932 106.743 47.4404Z" fill="#121212"/>
<path d="M107.976 48.1549C108 48.2091 108.038 48.2559 108.086 48.2906C108.134 48.3253 108.19 48.3466 108.248 48.3524C108.47 48.3339 108.68 48.2455 108.849 48.0998C109.087 47.9107 109.281 47.6703 109.416 47.3962C109.552 47.1655 109.634 46.9062 109.656 46.6385C109.656 46.4507 109.623 46.352 109.568 46.352C109.36 46.3853 109.162 46.4622 108.985 46.5778C108.809 46.6933 108.658 46.8448 108.543 47.0227C108.232 47.3242 108.032 47.7235 107.976 48.1549ZM107.637 46.0995C107.723 45.4345 107.858 44.7769 108.041 44.132C108.067 44.0397 108.123 43.959 108.2 43.903C108.277 43.8471 108.371 43.8193 108.466 43.8243C108.619 43.8243 108.707 43.9666 108.707 44.2414C108.668 44.6446 108.588 45.0426 108.466 45.4288C108.346 45.8742 108.248 46.3254 108.173 46.7808C108.388 46.4844 108.65 46.2246 108.947 46.0114C109.163 45.8391 109.425 45.7356 109.7 45.7143C109.787 45.7147 109.873 45.7358 109.951 45.776C110.029 45.8162 110.096 45.8743 110.147 45.9456C110.266 46.1033 110.327 46.2973 110.322 46.4953C110.31 47.1173 110.069 47.7126 109.645 48.1656C109.478 48.3952 109.262 48.5844 109.013 48.7195C108.763 48.8546 108.488 48.9321 108.205 48.9466C108.055 48.9453 107.908 48.9035 107.78 48.8256C107.72 48.7935 107.668 48.7481 107.628 48.6927C107.588 48.6374 107.562 48.5736 107.55 48.5062C107.547 48.456 107.532 48.4072 107.507 48.364C107.482 48.3407 107.46 48.3148 107.441 48.2866C107.382 48.2206 107.35 48.1337 107.354 48.0446C107.37 47.7943 107.4 47.5449 107.441 47.2975L107.637 46.0995Z" fill="#121212"/>
<path d="M112.548 46.3304C112.352 46.3304 112.101 46.5501 111.795 46.9788C111.535 47.29 111.375 47.6733 111.336 48.0782C111.336 48.2321 111.37 48.3201 111.435 48.3201C111.664 48.3201 111.937 48.1217 112.264 47.7153C112.539 47.4279 112.712 47.0565 112.755 46.6595C112.76 46.5775 112.737 46.4963 112.69 46.4292C112.678 46.4008 112.658 46.3765 112.633 46.359C112.608 46.3416 112.578 46.3316 112.548 46.3304ZM112.722 47.935C112.571 48.2032 112.36 48.4329 112.107 48.6063C111.853 48.7798 111.564 48.8925 111.26 48.9356C111.175 48.936 111.091 48.9174 111.013 48.8813C110.936 48.8452 110.867 48.7924 110.813 48.7266C110.686 48.5813 110.619 48.3925 110.627 48.1992C110.668 47.593 110.905 47.0171 111.303 46.5608C111.449 46.32 111.648 46.1164 111.885 45.9658C112.121 45.8152 112.389 45.7218 112.668 45.6927C112.773 45.6887 112.876 45.7216 112.959 45.7857C113.043 45.8497 113.102 45.941 113.126 46.044C113.344 46.044 113.453 46.1321 113.453 46.2975C113.444 46.4456 113.422 46.5925 113.388 46.7369C113.319 47.0513 113.279 47.3713 113.268 47.693C113.262 47.8671 113.28 48.0411 113.323 48.2098C113.342 48.2779 113.367 48.3441 113.399 48.4072C113.41 48.4401 113.464 48.474 113.541 48.5069C113.574 48.5173 113.603 48.5376 113.625 48.5651C113.646 48.5926 113.659 48.6259 113.661 48.6608C113.658 48.711 113.643 48.7596 113.616 48.8021C113.59 48.8445 113.552 48.8791 113.508 48.9027C113.419 48.9662 113.312 49.0007 113.203 49.0014C112.853 49.0227 112.69 48.6608 112.722 47.935Z" fill="#121212"/>
<path d="M115.254 44.011C115.461 44.011 115.559 44.1213 115.559 44.3516C115.56 44.4666 115.545 44.5811 115.516 44.6923C115.484 44.8132 115.407 45.1103 115.276 45.5826C115.176 45.9542 115.103 46.3326 115.058 46.7149C115.014 47.1214 114.981 47.4407 114.981 47.671C114.981 47.913 115.003 48.2101 115.036 48.5401C115.043 48.5982 115.047 48.6567 115.046 48.7152C115.048 48.7715 115.037 48.8273 115.015 48.8788C114.992 48.9302 114.958 48.9758 114.916 49.0123C114.881 49.0507 114.839 49.0812 114.792 49.1021C114.745 49.1229 114.694 49.1336 114.643 49.1333C114.581 49.1352 114.52 49.1171 114.469 49.0816C114.418 49.046 114.38 48.995 114.36 48.9359C114.29 48.7195 114.261 48.4923 114.272 48.2652C114.282 47.461 114.363 46.6592 114.512 45.8691C114.57 45.3115 114.702 44.7642 114.905 44.2423C114.938 44.1759 114.987 44.1195 115.048 44.0788C115.11 44.0381 115.181 44.0147 115.254 44.011Z" fill="#121212"/>
<path d="M26.0306 13.6841C26.0306 13.7722 25.9758 14.1457 25.8999 14.827C25.8339 15.3668 25.7974 15.9099 25.7904 16.4538C25.7945 16.642 25.8128 16.8296 25.8452 17.0151C25.8586 17.05 25.8661 17.087 25.8673 17.1244C25.8701 17.2389 25.8353 17.3512 25.7683 17.4437C25.7411 17.4886 25.7026 17.5254 25.6567 17.5504C25.6108 17.5754 25.5592 17.5877 25.507 17.586C25.4071 17.5785 25.3119 17.5404 25.2342 17.4767C25.1775 17.4339 25.1307 17.3793 25.0967 17.3167C25.0627 17.2541 25.0424 17.1849 25.0372 17.1138C25.0133 16.891 25.0023 16.6671 25.0046 16.4431C25.0187 15.8805 25.0626 15.319 25.1362 14.7612C25.2227 14.0141 25.2774 13.6405 25.289 13.6183C25.2227 13.6183 24.9834 13.6405 24.5579 13.6735C24.424 13.6931 24.2886 13.7002 24.1534 13.6948C23.8152 13.6948 23.554 13.6618 23.554 13.3328C23.554 12.9583 23.9248 12.9805 24.4051 12.9805C24.9088 12.9923 25.4126 12.9592 25.9106 12.8819C26.5984 12.7715 26.7185 12.7609 27.0672 12.728C27.5475 12.6835 27.6782 12.728 27.7877 12.8702C27.8348 12.9191 27.867 12.9804 27.8806 13.0471C27.8942 13.1137 27.8886 13.1829 27.8645 13.2465C27.8404 13.31 27.7987 13.3653 27.7444 13.4058C27.6902 13.4463 27.6255 13.4704 27.5581 13.4751C27.34 13.4751 26.8818 13.4422 26.5984 13.4422C26.0306 13.4093 26.0412 13.4315 26.0306 13.6841Z" fill="#121212"/>
<path d="M28.5294 15.9264C28.7703 15.4158 29.0868 14.945 29.4679 14.53C29.6748 14.3055 29.9606 14.1714 30.2644 14.1565C30.3519 14.155 30.4387 14.1718 30.5195 14.206C30.6002 14.2402 30.6729 14.2908 30.7331 14.3548C30.9126 14.6611 31.0068 15.0105 31.006 15.3661C31.0238 15.5763 31.053 15.7853 31.0934 15.9923C31.1225 16.1346 31.1627 16.2743 31.2135 16.4103C31.2576 16.5352 31.3244 16.6507 31.4104 16.751C31.4706 16.8215 31.5052 16.9106 31.5084 17.0036C31.5077 17.0461 31.4975 17.088 31.4785 17.126C31.4596 17.164 31.4324 17.1973 31.3989 17.2232C31.327 17.2878 31.2339 17.3233 31.1376 17.3229C31.031 17.3165 30.9276 17.2841 30.8362 17.2285C30.7448 17.1729 30.6682 17.0957 30.6131 17.0036C30.4439 16.7371 30.3496 16.4294 30.3402 16.1132C30.3267 15.8176 30.2904 15.5235 30.2317 15.2336C30.1875 15.1019 30.1222 15.0468 30.0242 15.0468C29.8935 15.0468 29.6534 15.3003 29.2825 15.8161C28.989 16.2076 28.7229 16.6193 28.4861 17.048C28.4266 17.2062 28.3496 17.3572 28.2565 17.498C28.232 17.5297 28.2005 17.5552 28.1645 17.5723C28.1284 17.5895 28.0889 17.5978 28.049 17.5967C27.932 17.601 27.8169 17.5663 27.7214 17.498C27.6801 17.4637 27.6477 17.4198 27.6269 17.3701C27.6062 17.3204 27.5977 17.2663 27.6023 17.2125C27.6023 17.1573 27.6349 16.9706 27.6888 16.6522C27.9078 15.4648 28.0932 14.2116 28.2344 12.8703C28.2375 12.6315 28.3096 12.3988 28.4419 12.2006C28.5514 12.0796 28.6495 12.0022 28.7369 12.0022C28.794 12.0018 28.8507 12.0133 28.9032 12.0359C28.9558 12.0586 29.0032 12.0919 29.0424 12.1338C29.0875 12.1845 29.1223 12.2437 29.1447 12.308C29.1671 12.3723 29.1767 12.4404 29.173 12.5084C29.1667 12.7961 29.1374 13.0828 29.0856 13.3658C29.0308 13.6842 28.9117 14.201 28.7589 14.9045C28.6655 15.2411 28.5889 15.5822 28.5294 15.9264Z" fill="#121212"/>
<path d="M32.8291 15.7286C33.1696 15.665 33.4865 15.5091 33.7456 15.2776C34.0069 15.0473 34.1385 14.8489 34.1385 14.6621C34.1401 14.5937 34.1165 14.5272 34.0722 14.4753C34.0554 14.4505 34.0325 14.4304 34.0057 14.417C33.979 14.4037 33.9493 14.3974 33.9195 14.3989C33.7899 14.4209 33.6665 14.4705 33.5574 14.5445C33.4484 14.6184 33.3564 14.7149 33.2873 14.8276C33.069 15.0891 32.9123 15.3972 32.8291 15.7286ZM35.0329 16.3111C35.0329 16.5424 34.8369 16.8163 34.4546 17.1356C34.0928 17.4479 33.6321 17.6195 33.1557 17.6195C32.9937 17.6277 32.8318 17.6005 32.6813 17.5397C32.5307 17.4789 32.3949 17.3859 32.2834 17.2672C32.0595 16.9928 31.9463 16.6435 31.9664 16.2889C31.974 15.6503 32.2061 15.0351 32.6216 14.5527C32.7757 14.3198 32.9807 14.1253 33.2207 13.9843C33.4608 13.8432 33.7297 13.7593 34.0069 13.7388C34.1158 13.7339 34.2245 13.7519 34.3261 13.7917C34.4276 13.8316 34.5198 13.8923 34.5968 13.9701C34.739 14.1213 34.8173 14.3223 34.8149 14.5305C34.8037 14.7417 34.7495 14.9483 34.6556 15.1374C34.5617 15.3266 34.4302 15.4942 34.2692 15.6299C33.8738 15.9933 33.387 16.2403 32.8618 16.3441C32.8328 16.3471 32.8062 16.3615 32.7877 16.3841C32.7691 16.4068 32.7602 16.4359 32.7629 16.4651C32.7642 16.5235 32.7775 16.581 32.8019 16.634C32.8264 16.6869 32.8615 16.7342 32.905 16.7728C32.9536 16.8213 33.0117 16.859 33.0755 16.8836C33.1394 16.9083 33.2076 16.9193 33.2759 16.916C33.5284 16.8973 33.7746 16.8272 33.9997 16.7101C34.2247 16.5931 34.4239 16.4314 34.5853 16.2348C34.6447 16.1603 34.7311 16.1126 34.8255 16.1022C34.9676 16.0915 35.0329 16.1679 35.0329 16.3111Z" fill="#121212"/>
</svg>
