<svg width="146" height="64" viewBox="0 0 146 64" fill="none" xmlns="http://www.w3.org/2000/svg">
<path d="M112.189 24.9944V29.5892C112.743 29.588 113.297 29.5586 113.848 29.5012C114.243 29.4835 114.621 29.3333 114.922 29.0744C115.222 28.8156 115.428 28.463 115.507 28.0728C115.627 27.5793 115.638 27.0653 115.539 26.567C115.509 26.1983 115.35 25.8523 115.09 25.5906C114.831 25.3289 114.487 25.1684 114.121 25.1376C113.499 25.0389 112.855 25.0389 112.189 24.9944ZM106.756 20.8728H106.919C109.331 20.8728 111.743 20.8621 114.154 20.8834C115.509 20.8531 116.855 21.1117 118.104 21.6421C118.921 21.9839 119.629 22.543 120.154 23.2595C120.679 23.9761 121 24.823 121.083 25.7095C121.278 26.9014 121.15 28.1242 120.712 29.2486C120.458 29.9131 120.063 30.5134 119.554 31.0072C119.045 31.5011 118.435 31.8763 117.766 32.1063C117.711 32.1286 117.657 32.1509 117.613 32.1721C117.602 32.1721 117.591 32.1944 117.569 32.2051C119.075 34.7115 120.581 37.218 122.098 39.7457C122.01 39.7457 121.956 39.7573 121.901 39.7573H116.107C115.998 39.7573 115.922 39.7573 115.856 39.6364C114.808 37.7125 113.761 35.796 112.714 33.887C112.539 33.5793 112.408 33.2386 112.244 32.9202C112.222 32.8852 112.196 32.8522 112.168 32.8215V39.7457H106.766C106.756 33.4699 106.752 27.1789 106.756 20.8728Z" fill="white"/>
<path d="M93.3345 20.8838H105.446V25.3459H98.7355V28.0392H104.65V32.2501H98.7355V35.2389H105.446V39.7465H93.3345V20.8838Z" fill="white"/>
<path d="M74.7408 39.7464H69.3075V25.5547H65.7925V20.8945H78.2537V25.5439H74.7408V39.7464Z" fill="white"/>
<path d="M88.5117 39.7464H83.0775V25.5547H79.5635V20.8945H92.0246V25.5439H88.5117V39.7464Z" fill="white"/>
<path d="M24.2191 20.8948H29.6316V35.0307H33.9306V39.7465H24.2085C24.2191 33.4697 24.2226 27.1858 24.2191 20.8948Z" fill="white"/>
<path d="M49.8617 13.8489C46.9265 13.8488 44.0573 14.7255 41.6167 16.3681C39.1762 18.0107 37.274 20.3454 36.1507 23.0771C35.0275 25.8087 34.7335 28.8146 35.3061 31.7145C35.8787 34.6144 37.2921 37.2782 39.3676 39.3689C41.4431 41.4596 44.0874 42.8834 46.9661 43.4602C49.8449 44.037 52.8288 43.7409 55.5405 42.6094C58.2522 41.4779 60.5699 39.5617 62.2006 37.1032C63.8312 34.6448 64.7015 31.7544 64.7014 28.7977C64.701 24.8331 63.1374 21.0311 60.3545 18.2277C57.5716 15.4243 53.7973 13.8493 49.8617 13.8489ZM49.8617 19.5866C51.6703 19.5865 53.4383 20.1267 54.9421 21.1389C56.446 22.151 57.6181 23.5896 58.3103 25.2728C59.0024 26.956 59.1836 28.8082 58.8307 30.5951C58.4779 32.382 57.607 34.0234 56.3281 35.3117C55.0492 36.5999 53.4198 37.4773 51.646 37.8327C49.8721 38.1881 48.0335 38.0056 46.3626 37.3084C44.6916 36.6111 43.2635 35.4304 42.2587 33.9155C41.254 32.4006 40.7178 30.6196 40.7178 28.7977C40.7208 26.3557 41.6851 24.0146 43.3993 22.2878C45.1135 20.561 47.4375 19.5896 49.8617 19.5866Z" fill="white"/>
<path d="M68.3217 45.4179L68.1479 46.9354C68.6578 46.8626 69.1498 46.6945 69.5985 46.4399C70.0135 46.2095 70.221 45.9454 70.221 45.6821C70.221 45.3628 69.9693 45.1982 69.4678 45.1982C69.0772 45.2149 68.6911 45.2889 68.3217 45.4179ZM68.071 47.5944C68.0278 48.0453 67.9951 48.3966 67.9951 48.6715C67.9958 48.7753 67.9609 48.8761 67.8962 48.9569C67.8661 48.9975 67.8264 49.0298 67.7808 49.0509C67.7351 49.072 67.685 49.0813 67.6349 49.0779C67.3947 49.0779 67.2852 48.9356 67.2852 48.6608C67.2852 48.5069 67.34 47.9902 67.4495 47.1221C67.5359 46.4069 67.5801 45.9898 67.5801 45.8466C67.5857 45.7579 67.5783 45.6689 67.558 45.5824C67.4975 45.5499 67.4478 45.5004 67.4149 45.4399C67.3819 45.3794 67.3672 45.3105 67.3726 45.2417C67.3726 45.0772 67.6349 44.934 68.1479 44.8131C68.5835 44.7049 69.0298 44.6461 69.4784 44.6379C69.8423 44.6191 70.2034 44.7108 70.515 44.9011C70.6366 44.9774 70.736 45.0847 70.8032 45.2122C70.8703 45.3396 70.9028 45.4827 70.8973 45.6269C70.8848 45.8637 70.8132 46.0935 70.6893 46.2951C70.5654 46.4967 70.3931 46.6636 70.1883 46.7805C69.6717 47.1323 69.088 47.3719 68.4745 47.4841C68.2458 47.5508 68.1037 47.5837 68.071 47.5944Z" fill="white"/>
<path d="M72.2176 44.011C72.4251 44.011 72.5231 44.1213 72.5231 44.3516C72.5234 44.4666 72.5089 44.5811 72.4798 44.6923C72.4462 44.8132 72.3703 45.1103 72.2397 45.5826C72.1392 45.9541 72.0663 46.3325 72.0216 46.7149C71.9774 47.1214 71.9447 47.4407 71.9447 47.671C71.9447 47.913 71.9668 48.2101 71.9995 48.5401C72.0069 48.5982 72.0104 48.6567 72.0101 48.7152C72.0118 48.7715 72.0009 48.8273 71.9783 48.8788C71.9557 48.9302 71.9219 48.9758 71.8794 49.0123C71.8449 49.0507 71.8028 49.0812 71.7558 49.1021C71.7088 49.1229 71.658 49.1336 71.6066 49.1333C71.5446 49.1352 71.4836 49.1171 71.4326 49.0816C71.3816 49.046 71.3433 48.995 71.3232 48.9359C71.254 48.7195 71.2243 48.4923 71.2358 48.2652C71.2459 47.461 71.3263 46.6592 71.476 45.8691C71.5335 45.3115 71.6657 44.7643 71.8689 44.2423C71.9023 44.1767 71.952 44.121 72.0131 44.0805C72.0742 44.0399 72.1446 44.016 72.2176 44.011Z" fill="white"/>
<path d="M74.629 46.3304C74.4331 46.3304 74.1823 46.5501 73.8768 46.9788C73.6167 47.29 73.4566 47.6733 73.4176 48.0782C73.4176 48.2321 73.4512 48.3201 73.5166 48.3201C73.7452 48.3201 74.018 48.1217 74.3456 47.7153C74.6209 47.4279 74.7936 47.0565 74.8366 46.6595C74.8413 46.5775 74.8183 46.4963 74.7712 46.4292C74.7581 46.4017 74.7381 46.3781 74.7132 46.3608C74.6882 46.3435 74.6592 46.333 74.629 46.3304ZM74.8039 47.935C74.6523 48.2032 74.4416 48.4329 74.1882 48.6063C73.9347 48.7798 73.6452 48.8925 73.3417 48.9356C73.2565 48.936 73.1722 48.9174 73.0948 48.8813C73.0174 48.8452 72.9489 48.7924 72.8941 48.7266C72.7672 48.5813 72.7008 48.3925 72.7086 48.1992C72.7491 47.593 72.9868 47.0171 73.385 46.5608C73.5306 46.32 73.7295 46.1164 73.9661 45.9658C74.2028 45.8152 74.4707 45.7218 74.7491 45.6927C74.8541 45.6887 74.9572 45.7216 75.0407 45.7856C75.1243 45.8497 75.1832 45.941 75.2074 46.044C75.4255 46.044 75.535 46.1321 75.535 46.2976C75.5254 46.4456 75.5035 46.5925 75.4697 46.7369C75.4009 47.0513 75.3607 47.3713 75.3496 47.693C75.3431 47.8671 75.3616 48.0411 75.4044 48.2098C75.4233 48.2779 75.4487 48.3441 75.4803 48.4072C75.4918 48.4401 75.5456 48.474 75.6224 48.5069C75.6555 48.5173 75.6847 48.5376 75.7062 48.5651C75.7276 48.5926 75.7403 48.6259 75.7425 48.6608C75.74 48.711 75.7246 48.7596 75.6978 48.802C75.6711 48.8445 75.6338 48.8791 75.5898 48.9027C75.5003 48.9662 75.3937 49.0007 75.2843 49.0014C74.924 49.0227 74.7712 48.6608 74.8039 47.935Z" fill="white"/>
<path d="M79.0486 47.1987C79.0175 47.6554 78.9629 48.1102 78.8853 48.5613C78.8129 48.9711 78.6996 49.3725 78.5471 49.7594C78.4508 50.0418 78.2856 50.2953 78.0668 50.4968C77.8867 50.6301 77.6677 50.6996 77.4442 50.6942C77.19 50.697 76.9378 50.6483 76.7026 50.551C76.5055 50.4705 76.3242 50.3552 76.1674 50.2103C76.0473 50.1239 75.9653 49.9937 75.9388 49.8474C75.9355 49.7689 75.9585 49.6915 76.0041 49.6278C76.0255 49.6024 76.0524 49.5823 76.0827 49.5691C76.113 49.5558 76.146 49.5497 76.179 49.5513C76.2089 49.5488 76.239 49.5545 76.266 49.568C76.2929 49.5815 76.3157 49.6022 76.3317 49.6278C76.4587 49.7878 76.6223 49.9145 76.8085 49.9969C76.9948 50.0793 77.198 50.115 77.401 50.101C77.5864 50.101 77.7718 49.9026 77.9467 49.5068C78.1343 49.0478 78.2484 48.5618 78.2848 48.0668C77.911 48.4346 77.4354 48.6799 76.9206 48.7703C76.8244 48.7724 76.7293 48.7504 76.6436 48.7064C76.5579 48.6623 76.4844 48.5975 76.4297 48.5178C76.3055 48.3456 76.2404 48.1373 76.2443 47.9245C76.2611 47.5824 76.3159 47.2431 76.4077 46.9133C76.4592 46.6267 76.5511 46.3491 76.6805 46.0887C76.7232 46.0317 76.7797 45.9865 76.8446 45.9575C76.9095 45.9286 76.9807 45.9168 77.0513 45.9233C77.0935 45.9228 77.1351 45.9337 77.1716 45.955C77.2081 45.9763 77.2383 46.0071 77.2589 46.0442C77.3072 46.1239 77.3337 46.2151 77.3357 46.3084C77.2815 46.4758 77.2121 46.6378 77.1282 46.7923C76.9812 47.0827 76.8958 47.4007 76.8775 47.7262C76.873 47.8316 76.8917 47.9367 76.9323 48.0339C76.9649 48.0997 77.0081 48.1442 77.0514 48.1442C77.1688 48.1359 77.2837 48.1061 77.3905 48.0562C77.5537 47.9792 77.7075 47.8834 77.8487 47.7707C77.9757 47.6806 78.0895 47.5731 78.1869 47.4513C78.2479 47.3706 78.2891 47.2764 78.307 47.1765C78.3467 46.9292 78.372 46.6797 78.3829 46.4294C78.3868 46.2896 78.3977 46.15 78.4155 46.0113C78.4301 45.9504 78.4646 45.8962 78.5136 45.8575C78.5792 45.8064 78.6602 45.7794 78.7431 45.781C78.8405 45.7692 78.9386 45.7967 79.016 45.8575C79.0708 45.9127 79.0919 46.0336 79.0919 46.2426L79.0486 47.1987Z" fill="white"/>
<path d="M81.3295 44.6049C81.326 44.6751 81.3075 44.7438 81.2754 44.8062C81.2432 44.8687 81.1981 44.9234 81.1432 44.9668C81.0573 45.0515 80.9463 45.1055 80.8271 45.1207C80.7688 45.1217 80.7111 45.1094 80.6582 45.0848C80.6053 45.0601 80.5586 45.0238 80.5216 44.9784C80.445 44.9021 80.3985 44.8003 80.3909 44.692C80.3882 44.6292 80.3984 44.5665 80.4209 44.5079C80.4434 44.4493 80.4777 44.3959 80.5216 44.3513C80.5735 44.3049 80.634 44.2694 80.6996 44.2468C80.7653 44.2242 80.8347 44.215 80.904 44.2197C81.0195 44.2137 81.1329 44.2533 81.22 44.33C81.2577 44.3646 81.2871 44.4072 81.306 44.4548C81.325 44.5024 81.333 44.5537 81.3295 44.6049ZM79.9433 46.9787C79.984 46.7829 80.0131 46.5848 80.0307 46.3855C80.0265 46.2574 80.0607 46.131 80.1287 46.0226C80.156 45.9776 80.1946 45.9406 80.2406 45.9154C80.2867 45.8903 80.3385 45.8778 80.3909 45.8794C80.4995 45.8751 80.6065 45.906 80.6964 45.9675C80.7301 45.9907 80.7576 46.0219 80.7765 46.0584C80.7954 46.0948 80.8052 46.1354 80.805 46.1765C80.7884 46.3378 80.7519 46.4965 80.6964 46.6488L80.6743 46.7146C80.5832 47.0119 80.5211 47.3176 80.4889 47.6271C80.4668 47.8584 80.4562 48.0558 80.4562 48.1991C80.4617 48.3583 80.4836 48.5166 80.5216 48.6713C80.5297 48.6999 80.5332 48.7297 80.5321 48.7594C80.5321 48.8029 80.4889 48.8581 80.412 48.9355C80.3384 49.0058 80.2407 49.045 80.1392 49.0448C79.8885 49.0448 79.7578 48.8474 79.7578 48.4623C79.7644 48.0591 79.812 47.6576 79.9 47.2642C79.9095 47.1683 79.924 47.0731 79.9433 46.9787Z" fill="white"/>
<path d="M83.8386 48.4847C83.716 48.1766 83.6496 47.8488 83.6426 47.5169C83.5984 47.0224 83.511 46.7805 83.3583 46.7805C83.217 46.7805 82.9874 47.034 82.6387 47.5508C82.3801 47.9012 82.1707 48.2858 82.0162 48.6937C81.9965 48.7621 81.9631 48.8256 81.9182 48.8805C81.9018 48.9032 81.8804 48.9219 81.8558 48.9352C81.8312 48.9484 81.8039 48.9559 81.776 48.957C81.482 48.957 81.3398 48.8253 81.3398 48.5505C81.3572 48.3438 81.3864 48.1383 81.4273 47.935C81.5081 47.4299 81.5444 46.9185 81.5358 46.4069C81.5442 46.3012 81.5864 46.2011 81.6559 46.1215C81.6836 46.0783 81.7206 46.042 81.7642 46.0154C81.8078 45.9887 81.8568 45.9724 81.9076 45.9676C81.9994 45.9625 82.0895 45.9941 82.1583 46.0556C82.2342 46.1928 82.2648 46.3507 82.2457 46.5066C82.2207 46.8658 82.1657 47.2222 82.0815 47.5721C82.4965 46.5937 82.9653 46.0992 83.4677 46.0992C83.9144 46.0992 84.1764 46.4511 84.2535 47.155C84.3295 47.8692 84.4169 48.2321 84.5148 48.2321C84.5673 48.2304 84.619 48.2192 84.6676 48.1992C84.7203 48.1795 84.7757 48.1684 84.8319 48.1663C84.9184 48.1663 84.9731 48.2205 84.9731 48.3308C84.9545 48.4571 84.8881 48.5713 84.7877 48.6492C84.6533 48.7622 84.4822 48.8211 84.3073 48.8147C84.2077 48.8048 84.1122 48.7692 84.0301 48.7114C83.948 48.6537 83.8821 48.5756 83.8386 48.4847Z" fill="white"/>
<path d="M87.3517 46.4068C87.146 46.4359 86.9529 46.5239 86.7955 46.6604C86.5445 46.8504 86.3299 47.0848 86.1623 47.3523C85.9961 47.5601 85.8939 47.8124 85.8684 48.0781C85.8684 48.1768 85.901 48.232 85.9769 48.232C86.2501 48.2244 86.5107 48.1147 86.708 47.9242C86.9419 47.7284 87.1414 47.4941 87.2978 47.2313C87.4193 47.0545 87.4977 46.8512 87.5265 46.6381C87.5271 46.5783 87.5078 46.5201 87.4717 46.4726C87.4582 46.4529 87.4403 46.4367 87.4195 46.4252C87.3986 46.4138 87.3754 46.4075 87.3517 46.4068ZM87.2757 48.023C87.0665 48.2647 86.8152 48.4658 86.5341 48.6162C86.3126 48.7518 86.0617 48.8312 85.803 48.8475C85.7167 48.8543 85.6299 48.8421 85.5488 48.8117C85.4677 48.7813 85.3941 48.7334 85.3332 48.6714C85.2185 48.5334 85.1601 48.3566 85.1699 48.1769C85.1883 47.8182 85.3054 47.4717 85.508 47.1762C85.7514 46.7951 86.0711 46.4694 86.4466 46.2201C86.7588 45.98 87.1345 45.8386 87.5265 45.8136C87.6908 45.8082 87.8522 45.8587 87.9847 45.9569C88.0173 45.9781 88.0395 46.0004 88.0616 46.011C88.1177 46.0591 88.1624 46.1193 88.1922 46.1872C88.2272 46.2513 88.246 46.3231 88.247 46.3962C88.2241 46.5172 88.1873 46.635 88.1375 46.7475C88.0628 46.9423 88.0116 47.1453 87.9847 47.3523C87.9521 47.5507 87.8973 48.0336 87.8108 48.803C87.7875 49.3416 87.5921 49.8582 87.2537 50.2759C87.131 50.4177 86.9804 50.5321 86.8113 50.6117C86.6422 50.6914 86.4584 50.7346 86.2718 50.7385C85.8735 50.7296 85.4881 50.5949 85.1699 50.3533C84.8097 50.1007 84.6348 49.8917 84.6348 49.7272C84.6348 49.584 84.7001 49.5065 84.8423 49.5065C84.965 49.5381 85.08 49.5944 85.1804 49.672C85.5076 49.9186 85.8972 50.0672 86.3045 50.1007C86.4364 50.0895 86.5625 50.0413 86.6686 49.9616C86.7748 49.8819 86.8566 49.7739 86.9049 49.6497C87.1176 49.1321 87.2429 48.5823 87.2757 48.023Z" fill="white"/>
<path d="M92.623 44.6049C92.6195 44.6751 92.601 44.7438 92.5689 44.8062C92.5367 44.8687 92.4916 44.9234 92.4366 44.9668C92.3508 45.0515 92.2398 45.1055 92.1205 45.1207C92.0623 45.1217 92.0045 45.1094 91.9516 45.0848C91.8988 45.0601 91.8521 45.0238 91.8151 44.9784C91.7384 44.9021 91.692 44.8003 91.6844 44.692C91.6817 44.6292 91.6919 44.5665 91.7144 44.5079C91.7369 44.4493 91.7711 44.3959 91.8151 44.3513C91.8669 44.3049 91.9275 44.2694 91.9931 44.2468C92.0588 44.2242 92.1282 44.215 92.1974 44.2197C92.313 44.2137 92.4263 44.2533 92.5135 44.33C92.5511 44.3646 92.5805 44.4072 92.5995 44.4548C92.6184 44.5024 92.6265 44.5537 92.623 44.6049ZM91.2367 46.9787C91.2774 46.7829 91.3066 46.5848 91.3241 46.3855C91.32 46.2574 91.3541 46.1309 91.4222 46.0226C91.4494 45.9775 91.488 45.9405 91.5341 45.9154C91.5801 45.8902 91.632 45.8778 91.6844 45.8794C91.7929 45.8751 91.9 45.9059 91.9899 45.9674C92.0235 45.9907 92.051 46.0219 92.0699 46.0584C92.0889 46.0948 92.0986 46.1353 92.0984 46.1765C92.0818 46.3378 92.0454 46.4964 91.9899 46.6487L91.9678 46.7145C91.8767 47.0119 91.8146 47.3175 91.7824 47.6271C91.7603 47.8584 91.7497 48.0558 91.7497 48.199C91.7551 48.3583 91.777 48.5166 91.815 48.6713C91.8231 48.6999 91.8267 48.7296 91.8256 48.7594C91.8256 48.8029 91.7824 48.8581 91.7055 48.9355C91.6318 49.0058 91.5342 49.0449 91.4327 49.0448C91.1819 49.0448 91.0513 48.8474 91.0513 48.4622C91.0578 48.059 91.1055 47.6576 91.1935 47.2642C91.203 47.1683 91.2175 47.0731 91.2367 46.9787Z" fill="white"/>
<path d="M93.8882 46.5611C93.8078 46.7698 93.7529 46.9875 93.7248 47.2096C93.6646 47.4668 93.6206 47.7277 93.5932 47.9905C93.5874 48.1029 93.6062 48.2152 93.648 48.3196C93.6623 48.3509 93.6856 48.3772 93.7149 48.3949C93.7442 48.4127 93.7781 48.4212 93.8123 48.4193C93.9164 48.4178 94.0196 48.3991 94.1178 48.3641C94.2608 48.3011 94.393 48.2159 94.5097 48.1115C94.5766 48.0422 94.6659 47.9993 94.7615 47.9905C94.785 47.9885 94.8088 47.9913 94.8312 47.9988C94.8537 48.0062 94.8744 48.0183 94.8921 48.0341C94.9083 48.0476 94.9216 48.0644 94.931 48.0834C94.9405 48.1024 94.9459 48.1232 94.9469 48.1444C94.9469 48.3089 94.8153 48.5063 94.5425 48.7154C94.3016 48.9208 93.9964 49.0339 93.6807 49.0347C93.5733 49.0418 93.4657 49.0247 93.3657 48.9847C93.2656 48.9447 93.1757 48.8828 93.1024 48.8034C92.9606 48.6187 92.8908 48.388 92.9064 48.155C92.9532 47.6262 93.0517 47.1033 93.2004 46.594C93.0803 46.6047 92.9938 46.6163 92.9496 46.6163H92.8843C92.7874 46.611 92.6934 46.5807 92.6115 46.5282C92.5678 46.4979 92.5328 46.4565 92.5098 46.4083C92.4869 46.3601 92.4769 46.3067 92.4808 46.2534C92.4808 46.0888 92.5682 46.0114 92.7536 46.0114L93.3646 45.9892C93.4406 45.7589 93.528 45.4511 93.6154 45.0776C93.6702 44.8463 93.7902 44.7253 93.9756 44.7253C94.019 44.7224 94.0625 44.7286 94.1034 44.7433C94.1443 44.7581 94.1818 44.7812 94.2135 44.8111C94.2452 44.841 94.2704 44.8772 94.2877 44.9174C94.305 44.9575 94.3138 45.0009 94.3138 45.0446C94.3138 45.0775 94.2369 45.3737 94.0736 45.935C94.6846 45.8798 95.0122 45.8575 95.0775 45.8575C95.1459 45.8479 95.2155 45.8634 95.2735 45.9011C95.3106 45.9517 95.3265 46.0149 95.3177 46.0772C95.3177 46.2534 95.1756 46.3637 94.8816 46.4072L93.8882 46.5611Z" fill="white"/>
<path d="M101.417 47.4735C101.363 47.6836 101.319 47.8965 101.287 48.1112C101.251 48.3035 101.229 48.4982 101.221 48.6938V49.1554C101.223 49.2289 101.204 49.3013 101.167 49.3645C101.137 49.418 101.091 49.4604 101.035 49.4854C100.982 49.5165 100.922 49.5316 100.861 49.529C100.756 49.5292 100.655 49.4899 100.577 49.4186C100.537 49.3893 100.505 49.3513 100.482 49.3076C100.46 49.2638 100.447 49.2154 100.446 49.1661C100.462 49.0255 100.488 48.8861 100.523 48.749C100.566 48.5283 100.609 48.3415 100.643 48.177C100.156 48.5905 99.5533 48.8402 98.9186 48.8912C98.6177 48.905 98.3236 48.7986 98.1001 48.5951C97.9945 48.487 97.9128 48.3577 97.8601 48.2156C97.8075 48.0736 97.7851 47.9219 97.7946 47.7706C97.7991 47.2055 97.97 46.6545 98.2855 46.1873C98.6084 45.6863 99.0322 45.2593 99.5296 44.9341C99.9515 44.6437 100.448 44.4833 100.959 44.4725C101.164 44.4617 101.367 44.5072 101.548 44.6041C101.612 44.6378 101.666 44.6883 101.705 44.7502C101.743 44.8122 101.764 44.8834 101.766 44.9564C101.756 45.1008 101.703 45.2388 101.613 45.3522C101.515 45.4954 101.417 45.5612 101.319 45.5612C101.294 45.564 101.268 45.5615 101.244 45.5539C101.219 45.5462 101.197 45.5335 101.177 45.5167C101.132 45.4748 101.098 45.4218 101.079 45.3628C101.053 45.2924 101.012 45.2286 100.959 45.176C100.897 45.1369 100.825 45.1176 100.752 45.1208C100.383 45.1516 100.035 45.302 99.7592 45.5495C99.3934 45.8271 99.0855 46.1747 98.8533 46.5724C98.6384 46.9116 98.5176 47.3026 98.5036 47.7047C98.5036 48.0783 98.6679 48.2757 98.984 48.2757C99.1902 48.2676 99.3935 48.2231 99.5844 48.1441C99.8475 48.0404 100.097 47.9039 100.326 47.7376C100.528 47.6184 100.691 47.4426 100.796 47.2315C100.849 47.0666 100.889 46.8976 100.916 46.7263C100.917 46.6827 100.928 46.6399 100.949 46.6016C100.97 46.5632 100.999 46.5304 101.035 46.5057C101.117 46.4676 101.207 46.449 101.297 46.4515C101.548 46.4515 101.668 46.5396 101.668 46.7041C101.655 46.8189 101.621 46.9306 101.57 47.0341C101.511 47.1774 101.46 47.3241 101.417 47.4735Z" fill="white"/>
<path d="M103.414 44.011C103.622 44.011 103.72 44.1213 103.72 44.3516C103.72 44.4666 103.706 44.5811 103.677 44.6923C103.644 44.8132 103.567 45.1103 103.436 45.5826C103.336 45.9542 103.264 46.3326 103.218 46.7149C103.174 47.1214 103.142 47.4407 103.142 47.671C103.142 47.913 103.164 48.2101 103.196 48.5401C103.204 48.5982 103.207 48.6567 103.207 48.7152C103.209 48.7715 103.198 48.8273 103.175 48.8788C103.152 48.9302 103.119 48.9758 103.076 49.0123C103.042 49.0507 103 49.0812 102.953 49.1021C102.906 49.1229 102.855 49.1336 102.803 49.1333C102.741 49.1352 102.68 49.1171 102.629 49.0816C102.578 49.046 102.54 48.995 102.52 48.9359C102.451 48.7195 102.421 48.4923 102.433 48.2652C102.443 47.461 102.523 46.6592 102.673 45.8691C102.73 45.3115 102.863 44.7643 103.066 44.2423C103.099 44.1767 103.149 44.121 103.21 44.0805C103.271 44.0399 103.341 44.016 103.414 44.011Z" fill="white"/>
<path d="M105.258 46.5278C105.095 46.6936 104.962 46.8873 104.865 47.0998C104.739 47.3445 104.672 47.6157 104.669 47.8914C104.665 48.0286 104.695 48.1648 104.757 48.2872C104.777 48.3319 104.809 48.3701 104.849 48.3973C104.889 48.4246 104.937 48.4397 104.985 48.4411C105.132 48.4252 105.273 48.379 105.401 48.3052C105.529 48.2314 105.64 48.1317 105.728 48.0124C105.974 47.7557 106.111 47.4122 106.109 47.0553C106.114 46.8826 106.072 46.7118 105.989 46.5608C105.953 46.5007 105.902 46.4516 105.841 46.4187C105.779 46.3858 105.71 46.3703 105.641 46.374C105.498 46.3752 105.362 46.4301 105.258 46.5278ZM106.742 47.4404C106.618 47.8865 106.363 48.2846 106.011 48.5833C105.718 48.8631 105.335 49.027 104.932 49.0449C104.799 49.0473 104.668 49.0199 104.547 48.9648C104.426 48.9098 104.319 48.8284 104.233 48.7266C104.047 48.515 103.95 48.2394 103.96 47.9572C103.97 47.4254 104.145 46.9102 104.462 46.4843C104.588 46.269 104.766 46.0896 104.98 45.9626C105.194 45.8357 105.436 45.7654 105.684 45.7585C105.835 45.7541 105.986 45.7845 106.124 45.8474C106.261 45.9103 106.383 46.0039 106.48 46.1213C106.684 46.3631 106.793 46.6721 106.786 46.9894C106.794 47.1411 106.78 47.2932 106.742 47.4404Z" fill="white"/>
<path d="M107.975 48.1549C108 48.2091 108.038 48.2559 108.085 48.2906C108.133 48.3253 108.189 48.3466 108.248 48.3524C108.47 48.3339 108.68 48.2455 108.849 48.0998C109.087 47.9107 109.281 47.6703 109.415 47.3962C109.552 47.1655 109.634 46.9062 109.656 46.6385C109.656 46.4507 109.623 46.352 109.568 46.352C109.36 46.3853 109.162 46.4622 108.985 46.5778C108.808 46.6933 108.658 46.8448 108.543 47.0227C108.232 47.3242 108.031 47.7235 107.975 48.1549ZM107.637 46.0995C107.723 45.4345 107.858 44.7769 108.041 44.132C108.066 44.0397 108.123 43.959 108.2 43.903C108.277 43.8471 108.371 43.8193 108.466 43.8243C108.619 43.8243 108.706 43.9666 108.706 44.2414C108.668 44.6446 108.588 45.0426 108.466 45.4288C108.346 45.8742 108.248 46.3254 108.172 46.7808C108.388 46.4844 108.649 46.2246 108.947 46.0114C109.163 45.8391 109.425 45.7356 109.7 45.7143C109.787 45.7147 109.873 45.7358 109.951 45.776C110.028 45.8162 110.095 45.8743 110.146 45.9456C110.265 46.1033 110.327 46.2973 110.321 46.4953C110.309 47.1173 110.068 47.7126 109.645 48.1656C109.478 48.3952 109.261 48.5844 109.012 48.7195C108.763 48.8546 108.487 48.9321 108.205 48.9466C108.055 48.9453 107.908 48.9035 107.779 48.8256C107.719 48.7935 107.668 48.7481 107.628 48.6927C107.588 48.6374 107.561 48.5736 107.55 48.5062C107.547 48.456 107.532 48.4072 107.507 48.364C107.482 48.3407 107.46 48.3148 107.441 48.2866C107.382 48.2206 107.35 48.1337 107.354 48.0446C107.37 47.7943 107.399 47.5449 107.441 47.2975L107.637 46.0995Z" fill="white"/>
<path d="M112.548 46.3304C112.352 46.3304 112.101 46.5501 111.795 46.9788C111.535 47.29 111.375 47.6733 111.336 48.0782C111.336 48.2321 111.37 48.3201 111.435 48.3201C111.664 48.3201 111.937 48.1217 112.264 47.7153C112.539 47.4279 112.712 47.0565 112.755 46.6595C112.76 46.5775 112.737 46.4963 112.69 46.4292C112.678 46.4008 112.658 46.3765 112.633 46.359C112.608 46.3416 112.578 46.3316 112.548 46.3304ZM112.722 47.935C112.571 48.2032 112.36 48.4329 112.107 48.6063C111.853 48.7798 111.564 48.8925 111.26 48.9356C111.175 48.936 111.091 48.9174 111.013 48.8813C110.936 48.8452 110.867 48.7924 110.813 48.7266C110.686 48.5813 110.619 48.3925 110.627 48.1992C110.668 47.593 110.905 47.0171 111.303 46.5608C111.449 46.32 111.648 46.1164 111.885 45.9658C112.121 45.8152 112.389 45.7218 112.668 45.6927C112.773 45.6887 112.876 45.7216 112.959 45.7857C113.043 45.8497 113.102 45.941 113.126 46.044C113.344 46.044 113.453 46.1321 113.453 46.2975C113.444 46.4456 113.422 46.5925 113.388 46.7369C113.319 47.0513 113.279 47.3713 113.268 47.693C113.262 47.8671 113.28 48.0411 113.323 48.2098C113.342 48.2779 113.367 48.3441 113.399 48.4072C113.41 48.4401 113.464 48.474 113.541 48.5069C113.574 48.5173 113.603 48.5376 113.625 48.5651C113.646 48.5926 113.659 48.6259 113.661 48.6608C113.658 48.711 113.643 48.7596 113.616 48.8021C113.59 48.8445 113.552 48.8791 113.508 48.9027C113.419 48.9662 113.312 49.0007 113.203 49.0014C112.853 49.0227 112.69 48.6608 112.722 47.935Z" fill="white"/>
<path d="M115.254 44.011C115.461 44.011 115.559 44.1213 115.559 44.3516C115.56 44.4666 115.545 44.5811 115.516 44.6923C115.483 44.8132 115.406 45.1103 115.276 45.5826C115.176 45.9542 115.103 46.3326 115.058 46.7149C115.014 47.1214 114.981 47.4407 114.981 47.671C114.981 47.913 115.003 48.2101 115.036 48.5401C115.043 48.5982 115.047 48.6567 115.046 48.7152C115.048 48.7715 115.037 48.8273 115.014 48.8788C114.992 48.9302 114.958 48.9758 114.916 49.0123C114.881 49.0507 114.839 49.0812 114.792 49.1021C114.745 49.1229 114.694 49.1336 114.643 49.1333C114.581 49.1352 114.52 49.1171 114.469 49.0816C114.418 49.046 114.379 48.995 114.359 48.9359C114.29 48.7195 114.26 48.4923 114.272 48.2652C114.282 47.461 114.362 46.6592 114.512 45.8691C114.57 45.3115 114.702 44.7642 114.905 44.2423C114.937 44.1759 114.987 44.1195 115.048 44.0788C115.109 44.0381 115.18 44.0147 115.254 44.011Z" fill="white"/>
<path d="M26.0304 13.6841C26.0304 13.7722 25.9756 14.1457 25.8997 14.827C25.8337 15.3668 25.7971 15.9099 25.7902 16.4538C25.7943 16.642 25.8126 16.8296 25.8449 17.0151C25.8584 17.05 25.8658 17.087 25.867 17.1244C25.8698 17.2389 25.835 17.3512 25.7681 17.4437C25.7409 17.4886 25.7024 17.5254 25.6565 17.5504C25.6106 17.5754 25.5589 17.5877 25.5068 17.586C25.4069 17.5785 25.3117 17.5404 25.2339 17.4767C25.1773 17.4339 25.1304 17.3793 25.0964 17.3167C25.0625 17.2541 25.0422 17.1849 25.037 17.1138C25.013 16.891 25.0021 16.6671 25.0043 16.4431C25.0184 15.8805 25.0623 15.319 25.1359 14.7612C25.2224 14.0141 25.2772 13.6405 25.2887 13.6183C25.2224 13.6183 24.9832 13.6405 24.5576 13.6735C24.4237 13.6931 24.2883 13.7002 24.1532 13.6948C23.815 13.6948 23.5537 13.6618 23.5537 13.3328C23.5537 12.9583 23.9245 12.9805 24.4049 12.9805C24.9086 12.9923 25.4123 12.9592 25.9103 12.8819C26.5981 12.7715 26.7182 12.7609 27.067 12.728C27.5473 12.6835 27.678 12.728 27.7875 12.8702C27.8345 12.9191 27.8668 12.9804 27.8804 13.0471C27.894 13.1137 27.8884 13.1829 27.8643 13.2465C27.8401 13.31 27.7985 13.3653 27.7442 13.4058C27.6899 13.4463 27.6253 13.4704 27.5579 13.4751C27.3398 13.4751 26.8815 13.4422 26.5981 13.4422C26.0304 13.4093 26.0409 13.4315 26.0304 13.6841Z" fill="white"/>
<path d="M28.5294 15.9264C28.7703 15.4158 29.0868 14.945 29.4679 14.53C29.6748 14.3055 29.9606 14.1714 30.2644 14.1565C30.3519 14.155 30.4387 14.1718 30.5195 14.206C30.6002 14.2402 30.6729 14.2908 30.7331 14.3548C30.9126 14.6611 31.0068 15.0105 31.006 15.3661C31.0238 15.5763 31.053 15.7853 31.0934 15.9923C31.1225 16.1346 31.1627 16.2743 31.2135 16.4103C31.2576 16.5352 31.3244 16.6507 31.4104 16.751C31.4706 16.8215 31.5052 16.9106 31.5084 17.0036C31.5077 17.0461 31.4975 17.088 31.4785 17.126C31.4596 17.164 31.4324 17.1973 31.3989 17.2232C31.327 17.2878 31.2339 17.3233 31.1376 17.3229C31.031 17.3165 30.9276 17.2841 30.8362 17.2285C30.7448 17.1729 30.6682 17.0957 30.6131 17.0036C30.4439 16.7371 30.3496 16.4294 30.3402 16.1132C30.3267 15.8176 30.2904 15.5235 30.2317 15.2336C30.1875 15.1019 30.1222 15.0468 30.0242 15.0468C29.8935 15.0468 29.6534 15.3003 29.2825 15.8161C28.989 16.2076 28.7229 16.6193 28.4861 17.048C28.4266 17.2062 28.3496 17.3572 28.2565 17.498C28.232 17.5297 28.2005 17.5552 28.1645 17.5723C28.1284 17.5895 28.0889 17.5978 28.049 17.5967C27.932 17.601 27.8169 17.5663 27.7214 17.498C27.6801 17.4637 27.6477 17.4198 27.6269 17.3701C27.6062 17.3204 27.5977 17.2663 27.6023 17.2125C27.6023 17.1573 27.6349 16.9706 27.6888 16.6522C27.9078 15.4648 28.0932 14.2116 28.2344 12.8703C28.2375 12.6315 28.3096 12.3988 28.4419 12.2006C28.5514 12.0796 28.6495 12.0022 28.7369 12.0022C28.794 12.0018 28.8507 12.0133 28.9032 12.0359C28.9558 12.0586 29.0032 12.0919 29.0424 12.1338C29.0875 12.1845 29.1223 12.2437 29.1447 12.308C29.1671 12.3723 29.1767 12.4404 29.173 12.5084C29.1667 12.7961 29.1374 13.0828 29.0856 13.3658C29.0308 13.6842 28.9117 14.201 28.7589 14.9045C28.6655 15.2411 28.5889 15.5822 28.5294 15.9264Z" fill="white"/>
<path d="M32.8289 15.7286C33.1694 15.665 33.4862 15.5091 33.7453 15.2776C34.0066 15.0473 34.1383 14.8489 34.1383 14.6621C34.1399 14.5937 34.1163 14.5272 34.072 14.4753C34.0551 14.4505 34.0322 14.4304 34.0055 14.417C33.9788 14.4037 33.949 14.3974 33.9192 14.3989C33.7896 14.4209 33.6662 14.4705 33.5572 14.5445C33.4482 14.6184 33.3561 14.7149 33.2871 14.8276C33.0687 15.0891 32.9121 15.3972 32.8289 15.7286ZM35.0327 16.3111C35.0327 16.5424 34.8367 16.8163 34.4543 17.1356C34.0926 17.4479 33.6319 17.6195 33.1555 17.6195C32.9935 17.6277 32.8316 17.6005 32.681 17.5397C32.5304 17.4789 32.3947 17.3859 32.2832 17.2672C32.0592 16.9928 31.946 16.6435 31.9662 16.2889C31.9737 15.6503 32.2059 15.0351 32.6214 14.5527C32.7755 14.3198 32.9804 14.1253 33.2205 13.9843C33.4606 13.8432 33.7295 13.7593 34.0066 13.7388C34.1155 13.7339 34.2242 13.7519 34.3258 13.7917C34.4274 13.8316 34.5196 13.8923 34.5965 13.9701C34.7388 14.1213 34.817 14.3223 34.8146 14.5305C34.8035 14.7417 34.7492 14.9483 34.6554 15.1374C34.5615 15.3266 34.43 15.4942 34.269 15.6299C33.8736 15.9933 33.3868 16.2403 32.8616 16.3441C32.8326 16.3471 32.8059 16.3615 32.7874 16.3841C32.7689 16.4068 32.76 16.4359 32.7626 16.4651C32.7639 16.5235 32.7772 16.581 32.8017 16.634C32.8262 16.6869 32.8613 16.7342 32.9048 16.7728C32.9534 16.8213 33.0114 16.859 33.0753 16.8836C33.1391 16.9083 33.2073 16.9193 33.2756 16.916C33.5282 16.8973 33.7744 16.8272 33.9994 16.7101C34.2244 16.5931 34.4236 16.4314 34.585 16.2348C34.6445 16.1603 34.7309 16.1126 34.8252 16.1022C34.9674 16.0915 35.0327 16.1679 35.0327 16.3111Z" fill="white"/>
</svg>
