<svg width="149" height="64" viewBox="0 0 149 64" fill="none" xmlns="http://www.w3.org/2000/svg">
<path d="M69.5816 34.9084C69.5816 37.5644 69.5907 40.0491 69.5788 42.5337C69.5692 44.5581 69.0831 44.9767 66.8045 44.9811C64.3823 44.9858 63.9244 44.6134 63.9218 42.4967C63.9119 34.0872 63.9128 25.6776 63.9246 17.2681C63.9274 15.3102 64.409 14.8237 66.3948 14.842C70.0511 14.8759 73.7138 14.8439 77.361 15.0557C79.4414 15.1716 81.4061 16.0411 82.8806 17.4986C84.3552 18.9562 85.2366 20.8998 85.3569 22.9593C85.8349 28.4713 84.0134 31.6585 78.6399 34.2952C80.1552 35.8472 81.4902 37.4455 83.0553 38.7797C92.5858 46.9046 107.768 44.767 115.319 38.1876C115.784 37.8299 116.324 37.5779 116.899 37.4493C117.474 37.3208 118.07 37.3189 118.646 37.4437C119.222 37.5686 119.763 37.8171 120.231 38.1718C120.699 38.5265 121.083 38.9787 121.355 39.4964C121.563 39.9668 121.604 40.4934 121.471 40.9899C121.338 41.4864 121.038 41.9236 120.622 42.2298C117.109 45.7993 112.569 48.209 107.622 49.1302C98.0546 50.969 88.9882 49.7421 81.1109 43.7463C78.6051 41.6482 76.3988 39.2228 74.5526 36.5367C73.6307 35.3105 72.8471 34.7067 71.3759 34.8979C70.7785 34.9354 70.1794 34.9388 69.5816 34.9084ZM69.6881 19.9826V29.7617C71.5909 29.7617 73.3881 29.8194 75.1801 29.7481C77.8385 29.6424 79.4713 27.8627 79.6159 25.0375C79.7612 22.1985 78.3333 20.2791 75.6056 20.0183C73.6786 19.834 71.719 19.9826 69.6881 19.9826Z" fill="white"/>
<path d="M53.0719 24.8123C51.1781 29.3101 49.2719 33.6937 47.4971 38.1286C47.2784 38.8047 46.8239 39.3817 46.2148 39.7565C45.6058 40.1313 44.8819 40.2793 44.1727 40.1741C43.4851 40.2472 42.7933 40.0789 42.2181 39.6986C41.643 39.3182 41.2211 38.75 41.0259 38.0931C39.2003 33.5179 37.2501 28.9913 35.4016 24.5726C35.1506 28.2252 34.8977 32.0411 34.6227 35.8554C34.4395 38.3956 34.2092 40.9325 34.0304 43.473C34.0465 43.7295 34.0054 43.9864 33.91 44.2254C33.8145 44.4644 33.6671 44.6797 33.4782 44.8559C33.2893 45.0322 33.0635 45.1652 32.8169 45.2454C32.5703 45.3255 32.3088 45.351 32.0511 45.3199C31.5358 45.3232 31.02 45.3356 30.5053 45.3177C29.0108 45.2661 28.4226 44.6727 28.5349 43.2277C28.9254 38.2002 29.3401 33.1746 29.7509 28.1486C30.033 24.6967 30.3449 21.247 30.6031 17.7933C30.7743 15.5033 31.206 15.0651 33.5197 15.0592C36.6969 15.051 36.7182 15.0428 37.8795 17.9876C39.9152 23.1499 41.9212 28.3237 43.9438 33.491C44.0336 33.6832 44.1349 33.8699 44.2474 34.05C46.2904 28.9262 48.3105 23.8596 50.3308 18.7931C50.425 18.5568 50.5191 18.3204 50.6149 18.0847C51.8574 15.0273 52.9718 14.4423 56.2974 15.0951C56.7351 15.161 57.1327 15.3847 57.4138 15.7231C57.695 16.0616 57.8399 16.4911 57.8206 16.9289C58.3332 23.3261 58.8521 29.7229 59.3773 36.1192C59.5684 38.4541 59.8169 40.7854 59.9617 43.1231C60.0665 44.8147 59.5477 45.2889 57.8171 45.3225C54.8393 45.3803 54.5811 45.0941 54.381 42.211C53.9796 36.4256 53.5145 30.6445 53.0719 24.8123Z" fill="white"/>
<path d="M111.479 33.3762C111.416 33.308 111.615 33.5297 111.82 33.7455C113.024 35.0099 113.046 35.9581 111.896 37.188C110.619 38.5538 109.617 38.7141 108.346 37.5046C107.584 36.7805 107.057 36.9453 106.232 37.3287C104.327 38.2705 102.207 38.7069 100.081 38.595C97.9546 38.4832 95.8939 37.827 94.1004 36.6907C92.3068 35.5543 90.8418 33.9766 89.8485 32.1118C88.8553 30.2471 88.3677 28.1591 88.4336 26.0519C88.6477 19.789 93.7292 15.0515 100.525 14.7791C102.199 14.6736 103.876 14.9208 105.446 15.5045C107.016 16.0882 108.443 16.995 109.633 18.1651C110.823 19.3352 111.748 20.7419 112.349 22.2923C112.949 23.8427 113.21 25.5015 113.114 27.1592C112.986 29.1662 112.094 31.1256 111.479 33.3762ZM106.548 28.8013C107.128 27.5287 107.245 26.0966 106.88 24.7481C106.514 23.3997 105.689 22.2179 104.544 21.4033C103.338 20.5674 101.883 20.1587 100.413 20.2431C98.9438 20.3276 97.5461 20.9004 96.4461 21.8688C95.3622 22.9976 94.6939 24.455 94.549 26.0059C94.4041 27.5568 94.7911 29.1108 95.6474 30.4173C96.3832 31.5469 97.4942 32.3868 98.7886 32.7921C100.083 33.1974 101.48 33.1427 102.738 32.6374C101.406 30.8915 101.378 30.205 102.588 28.9476C103.981 27.5011 104.662 27.4759 106.548 28.8013Z" fill="white"/>
<path d="M94.3657 13.4177C94.1184 13.4177 93.8788 13.3317 93.6889 13.1747C93.4991 13.0177 93.3709 12.7996 93.3269 12.5586C93.2829 12.3176 93.3258 12.0689 93.4481 11.856C93.5704 11.6431 93.7643 11.4795 93.9961 11.3938C97.9906 9.95924 102.356 9.89455 106.392 11.2101C106.657 11.2991 106.875 11.4884 106.999 11.7365C107.123 11.9847 107.143 12.2714 107.053 12.5337C106.964 12.796 106.773 13.0125 106.523 13.1356C106.272 13.2587 105.983 13.2785 105.718 13.1905C102.141 12.0285 98.2754 12.085 94.7354 13.351C94.6173 13.3951 94.492 13.4177 94.3657 13.4177Z" fill="white"/>
<path d="M103.453 9.78653C103.512 9.81264 103.558 9.84207 103.615 9.8688H103.622C103.764 9.20199 103.703 8.50841 103.447 7.87585C103.191 7.24328 102.751 6.70016 102.183 6.31521C101.456 5.93366 100.645 5.73558 99.8226 5.73856C99 5.74153 98.1908 5.94546 97.4669 6.33226C96.9157 6.70162 96.4842 7.22091 96.2244 7.82756C95.9646 8.4342 95.8876 9.10229 96.0026 9.7513C98.4327 9.01849 101.03 9.03077 103.453 9.78653Z" fill="white"/>
</svg>
