<svg width="148" height="64" viewBox="0 0 148 64" fill="none" xmlns="http://www.w3.org/2000/svg">
<mask id="mask0_148_2307" style="mask-type:luminance" maskUnits="userSpaceOnUse" x="21" y="16" width="107" height="32">
<path d="M127.155 16.2373H21.6577V47.6997H127.155V16.2373Z" fill="white"/>
</mask>
<g mask="url(#mask0_148_2307)">
<path d="M41.5128 30.92L42.6313 27.0181H47.8424C49.0311 27.1215 50.2163 26.7847 51.1704 26.0724C52.1245 25.36 52.7803 24.3224 53.0117 23.1587L53.4342 21.7119C54.4048 18.3771 52.8219 16.3003 49.3621 16.3003H26.7011L22.481 30.92H41.5128ZM49.3407 20.2226L48.4548 23.4103H43.6856L44.5929 20.2439H49.3407V20.2226Z" fill="white"/>
<path d="M55.3746 30.9196L56.7677 28.4654H63.2239V30.9196H67.4645V16.2795H59.1304L50.4585 30.9196H55.3746ZM61.4726 20.2647H63.2239V24.9216H58.7925L61.4726 20.2647Z" fill="white"/>
<path d="M84.7666 23.0126L85.1462 21.6907C86.1168 18.3142 84.5339 16.2791 81.0741 16.2791H73.0145L68.7944 30.9201H73.2034L74.3638 26.8923H77.1071L78.3522 30.9201H82.8887L81.5589 26.6204C82.3688 26.3583 83.0934 25.8855 83.6574 25.2511C84.2215 24.6167 84.6044 23.8438 84.7666 23.0126ZM76.2845 20.2226H81.0323L80.1454 23.39H75.3772L76.2845 20.2226Z" fill="white"/>
<path d="M88.9019 30.9196L93.1226 16.2798H88.6906L84.4917 30.9196H88.9019Z" fill="white"/>
<path d="M61.8735 32.9958L56.8949 38.8479L54.8477 32.9958H35.7531L31.5542 47.6573H50.5856L52.9072 39.5613L54.4469 44.0916H57.2956L61.4096 39.2668L58.9834 47.6573H63.3936L67.5926 32.9958H61.8735Z" fill="white"/>
<path d="M73.4994 32.9966L64.8062 47.6367H69.7223L71.1154 45.1825H77.5716V47.6367H81.8121V33.0169L73.4994 32.9966ZM73.1617 41.6589L75.8203 37.0021H77.5716V41.6589H73.1617Z" fill="white"/>
<path d="M96.7303 37.1916L97.9325 32.9958H84.5353L83.332 37.1916H88.1843L85.168 47.6573H89.5782L92.5945 37.1916H96.7303Z" fill="white"/>
<path d="M102.617 37.1914H109.306L110.529 33.0175H103.397C102.209 32.9143 101.024 33.2512 100.07 33.9635C99.1155 34.6758 98.4598 35.7133 98.2282 36.8769L96.6666 42.2256C95.6746 45.6447 97.279 47.6373 100.739 47.6373H106.288L107.491 43.4624H100.802L102.617 37.1914Z" fill="white"/>
<path d="M121.923 32.9958L120.403 38.2395H115.36L116.858 32.9958H112.449L108.25 47.6573H112.659L114.157 42.4137H119.2L117.702 47.6573H122.134L126.333 32.9958H121.923Z" fill="white"/>
</g>
</svg>
