<svg width="942" height="986" viewBox="0 0 942 986" fill="none" xmlns="http://www.w3.org/2000/svg">
<g opacity="0.2">
<path d="M263.093 158.95C287.228 144.643 311.688 130.236 335.75 116.091C377.526 91.4384 418.072 67.545 453.588 46.2426C341.917 54.0309 232.111 86.8472 133.738 141.808C133.754 141.683 133.743 141.593 133.79 141.464C93.6146 164.608 55.0189 190.203 19.5291 219.479C18.4138 214.733 20.5584 286.852 26.8364 321.665C58.3326 291.053 92.1549 263.754 129.292 239.314C168.916 214.886 215.389 187.16 263.093 158.95Z" fill="white"/>
<path d="M271.399 537.719C313.069 504.672 363.582 475.577 413.082 447.247C438.021 432.997 462.74 418.959 485.9 404.706C489.701 402.353 493.442 400.007 497.152 397.664C533.512 375.464 612.837 330.618 648.844 306.741C698.01 269.645 710.865 198.538 678.43 146.764C644.98 91.0916 570.207 71.1242 512.627 105.568C489.79 118.401 398.197 173.877 373.265 188.186C373.177 188.227 373.12 188.265 373.033 188.306C349.634 202.863 325.292 216.98 300.652 231.163C208.901 284.019 113.051 338.005 46.9965 418.676C55.2513 449.204 65.7156 480.514 77.9925 510.811C129.107 435.84 203.152 379.593 282.3 336.363C299.581 326.09 318.792 314.76 338.167 303.258L375.679 375.322C367.971 379.918 360.545 384.297 353.551 388.44C261.361 438.372 168.359 502.145 119.303 597.305C134.743 625.048 151.662 651.542 170.655 677.422C192.471 623.66 226.88 575.705 271.399 537.719ZM410.746 260.255C438.602 243.696 474.756 222.349 501.239 206.628C531.54 190.761 581.515 143.936 609.54 189.575C639.972 240.237 551.499 266.411 523.158 287.936C518.82 290.415 510.664 295.37 506.446 297.834C488.961 308.193 468.896 320.084 448.258 332.319L410.746 260.255Z" fill="white"/>
<path d="M598.253 620.646C577.441 632.963 557.577 644.738 540.034 655.134C538.377 656.159 533.07 659.274 525.674 663.649C497.345 680.356 438.21 715.137 434.579 718.666C379.732 759.596 371.283 842.759 416.004 893.873C458.309 915.054 511.612 958.861 557.49 921.725C596.056 891.225 632.314 857.563 665.127 821.241L665.157 821.238L665.211 821.17C673.217 812.366 680.986 803.376 688.552 794.225C694.808 786.703 700.894 779.047 706.819 771.318C718.489 756.159 729.263 740.952 739.354 725.672C720.461 736.842 697.07 750.692 673.25 764.809L634.936 691.152C718.488 642.889 803.571 596.93 810.661 588.94C829.138 542.201 842.073 496.856 851.26 448.611C821.199 484.084 783.699 512.188 742.891 534.916C701.472 559.465 647.24 591.609 598.253 620.646ZM600.671 807.812C597.807 809.532 594.997 811.185 592.304 812.793C585.992 816.487 536.983 845.588 529.442 850.041C501.374 867.914 462.925 841.734 468.629 809.396C463.991 798.748 506.178 768.77 562.364 734.215L600.671 807.812Z" fill="white"/>
<path d="M488.165 591.584C513.961 576.282 540.96 560.254 560.74 548.55C566.616 545.061 571.861 541.954 576.25 539.378C623.102 510.195 701.246 468.066 745.684 436.9C838.413 368.496 880.173 243.124 847.922 132.914C846.354 126.166 845.038 121.536 845.038 121.536C837.445 118.05 829.658 114.218 821.959 110.867L821.356 111.215C801.432 103.086 769.835 91.2193 730.008 79.807C753.549 107.816 769.654 142.967 775.097 179.014C794.049 340.564 677.283 384.791 561.352 453.892C549.715 460.795 536.845 468.427 523.259 476.482C500.269 490.101 475.247 504.943 450.68 519.485C420.844 537.199 391.661 554.467 367.727 568.659C299.346 607.482 249.5 674.786 232.181 750.933C254.402 774.282 279.875 797.89 305.954 818.848C303.51 739.034 352.028 665.444 423.267 630.025C438.207 621.226 462.6 606.766 488.165 591.584Z" fill="white"/>
</g>
</svg>
