<svg width="10" height="11" viewBox="0 0 10 11" fill="none" xmlns="http://www.w3.org/2000/svg">
<path d="M3.12484 1.54167C3.12484 1.31155 2.93829 1.125 2.70817 1.125C2.47805 1.125 2.2915 1.31155 2.2915 1.54167V1.95833C2.2915 2.18845 2.47805 2.375 2.70817 2.375C2.93829 2.375 3.12484 2.18845 3.12484 1.95833V1.54167Z" fill="white"/>
<path d="M7.70833 1.54167C7.70833 1.31155 7.52179 1.125 7.29167 1.125C7.06155 1.125 6.875 1.31155 6.875 1.54167V1.95833C6.875 2.18845 7.06155 2.375 7.29167 2.375C7.52179 2.375 7.70833 2.18845 7.70833 1.95833V1.54167Z" fill="white"/>
<path d="M0.833496 4.25V9.04167C0.833496 9.50187 1.20662 9.875 1.66683 9.875H8.3335C8.7937 9.875 9.16683 9.50187 9.16683 9.04167V4.25H0.833496ZM3.3335 8.41667C3.3335 8.64687 3.14704 8.83333 2.91683 8.83333H2.50016C2.26995 8.83333 2.0835 8.64687 2.0835 8.41667V8C2.0835 7.76979 2.26995 7.58333 2.50016 7.58333H2.91683C3.14704 7.58333 3.3335 7.76979 3.3335 8V8.41667ZM3.3335 6.125C3.3335 6.35521 3.14704 6.54167 2.91683 6.54167H2.50016C2.26995 6.54167 2.0835 6.35521 2.0835 6.125V5.70833C2.0835 5.47812 2.26995 5.29167 2.50016 5.29167H2.91683C3.14704 5.29167 3.3335 5.47812 3.3335 5.70833V6.125ZM5.62516 8.41667C5.62516 8.64687 5.4387 8.83333 5.2085 8.83333H4.79183C4.56162 8.83333 4.37516 8.64687 4.37516 8.41667V8C4.37516 7.76979 4.56162 7.58333 4.79183 7.58333H5.2085C5.4387 7.58333 5.62516 7.76979 5.62516 8V8.41667ZM5.62516 6.125C5.62516 6.35521 5.4387 6.54167 5.2085 6.54167H4.79183C4.56162 6.54167 4.37516 6.35521 4.37516 6.125V5.70833C4.37516 5.47812 4.56162 5.29167 4.79183 5.29167H5.2085C5.4387 5.29167 5.62516 5.47812 5.62516 5.70833V6.125ZM7.91683 8.41667C7.91683 8.64687 7.73037 8.83333 7.50016 8.83333H7.0835C6.85329 8.83333 6.66683 8.64687 6.66683 8.41667V8C6.66683 7.76979 6.85329 7.58333 7.0835 7.58333H7.50016C7.73037 7.58333 7.91683 7.76979 7.91683 8V8.41667ZM7.91683 6.125C7.91683 6.35521 7.73037 6.54167 7.50016 6.54167H7.0835C6.85329 6.54167 6.66683 6.35521 6.66683 6.125V5.70833C6.66683 5.47812 6.85329 5.29167 7.0835 5.29167H7.50016C7.73037 5.29167 7.91683 5.47812 7.91683 5.70833V6.125Z" fill="white"/>
<path d="M9.16683 3.83333V2.58333C9.16683 2.12312 8.7937 1.75 8.3335 1.75H8.12516V1.95833C8.12516 2.41792 7.75141 2.79167 7.29183 2.79167C6.83225 2.79167 6.4585 2.41792 6.4585 1.95833V1.75H3.54183V1.95833C3.54183 2.41792 3.16808 2.79167 2.7085 2.79167C2.24891 2.79167 1.87516 2.41792 1.87516 1.95833V1.75H1.66683C1.20662 1.75 0.833496 2.12312 0.833496 2.58333V3.83333H9.16683Z" fill="white"/>
</svg>
