<svg width="16" height="16" viewBox="0 0 16 16" fill="none" xmlns="http://www.w3.org/2000/svg">
<g opacity="0.5" clip-path="url(#clip0_318_6421)">
<path d="M5.81181 0H1.21815C0.546422 0 0 0.546422 0 1.21815V5.81181C0 6.48353 0.546422 7.02996 1.21815 7.02996H5.81181C6.48353 7.02996 7.02996 6.48353 7.02996 5.81181V1.21815C7.02985 0.546422 6.48353 0 5.81181 0Z" fill="white"/>
<path d="M14.7815 0H10.1879C9.51615 0 8.96973 0.546422 8.96973 1.21815V5.81181C8.96973 6.48353 9.51615 7.02996 10.1879 7.02996H14.7815C15.4533 7.02996 15.9997 6.48353 15.9997 5.81181V1.21815C15.9997 0.546422 15.4533 0 14.7815 0Z" fill="white"/>
<path d="M5.81181 8.96997H1.21815C0.546422 8.96997 0 9.51634 0 10.1881V14.7817C0 15.4535 0.546422 15.9999 1.21815 15.9999H5.81181C6.48353 15.9999 7.02996 15.4535 7.02996 14.7817V10.1881C7.02985 9.51634 6.48353 8.96997 5.81181 8.96997Z" fill="white"/>
<path d="M14.7815 8.96997H10.1879C9.51615 8.96997 8.96973 9.51639 8.96973 10.1881V14.7818C8.96973 15.4535 9.51615 15.9999 10.1879 15.9999H14.7815C15.4533 15.9999 15.9997 15.4535 15.9997 14.7817V10.1881C15.9997 9.51634 15.4533 8.96997 14.7815 8.96997Z" fill="white"/>
</g>
<defs>
<clipPath id="clip0_318_6421">
<rect width="16" height="16" fill="white"/>
</clipPath>
</defs>
</svg>
