<svg width="349" height="366" viewBox="0 0 349 366" fill="none" xmlns="http://www.w3.org/2000/svg">
<g opacity="0.15">
<path d="M97.5535 58.9379C106.503 53.6329 115.572 48.2909 124.494 43.046C139.985 33.9049 155.019 25.0453 168.188 17.1465C126.781 20.0343 86.0657 32.2025 49.5895 52.5816C49.5954 52.5354 49.5914 52.5017 49.6085 52.4542C34.7118 61.0358 20.4007 70.5262 7.2413 81.3816C6.82775 79.6219 7.62294 106.363 9.95078 119.272C21.6294 107.921 34.1705 97.7986 47.9409 88.7363C62.6331 79.6785 79.8651 69.3978 97.5535 58.9379Z" fill="white"/>
<path d="M100.635 199.383C116.085 187.13 134.815 176.342 153.17 165.837C162.417 160.553 171.583 155.348 180.17 150.063C181.58 149.19 182.967 148.321 184.343 147.452C197.825 139.22 227.238 122.591 240.589 113.738C258.82 99.9832 263.586 73.6171 251.559 54.4196C239.156 33.7765 211.431 26.3727 190.08 39.1441C181.613 43.9028 147.65 64.4728 138.406 69.7787C138.373 69.7939 138.352 69.8078 138.32 69.823C129.643 75.2208 120.618 80.4552 111.481 85.7142C77.4605 105.313 41.9198 125.331 17.4272 155.243C20.488 166.563 24.3681 178.172 28.9203 189.406C47.8733 161.607 75.3288 140.751 104.677 124.722C111.084 120.913 118.208 116.712 125.392 112.447L139.301 139.168C136.443 140.872 133.689 142.495 131.096 144.032C96.9124 162.546 62.4278 186.193 44.2379 221.478C49.9632 231.765 56.2366 241.588 63.2792 251.185C71.3684 231.25 84.127 213.469 100.635 199.383ZM152.304 96.5012C162.632 90.3614 176.038 82.4458 185.858 76.6166C197.093 70.7333 215.624 53.3707 226.015 70.2936C237.299 89.0788 204.494 98.7841 193.985 106.765C192.377 107.684 189.353 109.522 187.789 110.436C181.305 114.276 173.865 118.686 166.213 123.222L152.304 96.5012Z" fill="white"/>
<path d="M221.83 230.132C214.113 234.699 206.747 239.066 200.243 242.92C199.628 243.3 197.66 244.455 194.918 246.077C184.414 252.272 162.487 265.169 161.14 266.478C140.803 281.654 137.671 312.491 154.253 331.443C169.939 339.297 189.704 355.54 206.715 341.771C221.015 330.462 234.459 317.98 246.626 304.512L246.638 304.511L246.657 304.485C249.626 301.221 252.507 297.887 255.312 294.494C257.632 291.705 259.889 288.866 262.085 286.001C266.413 280.38 270.408 274.741 274.149 269.075C267.144 273.217 258.471 278.353 249.638 283.587L235.432 256.275C266.412 238.38 297.96 221.338 300.589 218.376C307.441 201.045 312.237 184.231 315.643 166.343C304.497 179.496 290.592 189.916 275.461 198.344C260.103 207.447 239.994 219.365 221.83 230.132ZM222.726 299.532C221.664 300.17 220.622 300.783 219.624 301.379C217.284 302.749 199.111 313.539 196.315 315.191C185.908 321.818 171.651 312.111 173.766 300.12C172.046 296.172 187.689 285.056 208.522 272.243L222.726 299.532Z" fill="white"/>
<path d="M181.009 219.356C190.575 213.682 200.585 207.739 207.92 203.4C210.098 202.106 212.044 200.954 213.671 199.999C231.043 189.178 260.019 173.557 276.496 162C310.879 136.637 326.364 90.1491 314.405 49.2838C313.824 46.7818 313.336 45.0651 313.336 45.0651C310.521 43.7724 307.633 42.3517 304.778 41.1092L304.555 41.2381C297.167 38.2241 285.451 33.8238 270.684 29.5922C279.413 39.9779 285.384 53.0115 287.402 66.3776C294.43 126.28 251.134 142.679 208.147 168.301C203.832 170.861 199.06 173.69 194.022 176.677C185.498 181.727 176.219 187.23 167.11 192.622C156.047 199.191 145.226 205.594 136.352 210.856C110.996 225.251 92.5137 250.207 86.0918 278.442C94.3313 287.1 103.777 295.853 113.447 303.625C112.541 274.03 130.53 246.743 156.946 233.61C162.485 230.348 171.53 224.986 181.009 219.356Z" fill="white"/>
</g>
</svg>
