<svg width="32" height="32" viewBox="0 0 32 32" fill="none" xmlns="http://www.w3.org/2000/svg">
<rect width="32" height="32" rx="16" fill="#2B77F6"/>
<path d="M12.0504 8.62587C12.6584 8.35852 13.2743 8.08974 13.8802 7.82597C14.9322 7.36581 15.9533 6.91998 16.8487 6.52075C14.1986 6.39316 11.5225 6.85547 9.05369 7.86682C9.05441 7.86396 9.05441 7.86181 9.05586 7.85894C8.04565 8.28828 7.06577 8.77926 6.14871 9.36486C6.13571 9.25089 5.9848 10.9417 6.03534 11.7725C6.86214 11.1446 7.73443 10.6006 8.67676 10.1325C9.67758 9.67163 10.8488 9.15269 12.0504 8.62587Z" fill="white"/>
<path d="M11.1882 17.498C12.2613 16.8415 13.5314 16.3017 14.7756 15.7771C15.4024 15.5133 16.0234 15.2538 16.6083 14.985C16.7043 14.9406 16.7989 14.8962 16.8928 14.8517C17.8106 14.4339 19.8028 13.606 20.717 13.148C21.9778 12.4176 22.4789 10.792 21.86 9.49251C21.2282 8.09913 19.5241 7.42537 18.0727 8.07046C17.4993 8.30699 15.1886 9.34916 14.5619 9.61436C14.5597 9.61508 14.5582 9.61579 14.5561 9.61651C13.9647 9.89175 13.3524 10.1541 12.7328 10.4171C10.4257 11.3977 8.01897 12.3932 6.23901 14.0948C6.34805 14.8309 6.50691 15.5914 6.71126 16.3333C8.12368 14.7234 10.0235 13.6146 12.0071 12.824C12.4425 12.6319 12.9263 12.4205 13.4145 12.2055L14.0961 13.9931C13.9019 14.0791 13.7148 14.1608 13.5387 14.2382C11.2294 15.1492 8.86238 16.3813 7.44202 18.4685C7.72797 19.1595 8.05219 19.8253 8.42696 20.4826C9.09056 19.287 10.0343 18.2621 11.1882 17.498ZM15.2428 11.402C15.9447 11.0923 16.8552 10.6938 17.5224 10.3999C18.2799 10.1132 19.5869 9.15778 20.1191 10.3017C20.6939 11.5697 18.5384 11.9359 17.8113 12.3603C17.7022 12.4061 17.4964 12.4993 17.3903 12.5452C16.9498 12.7387 16.4444 12.9609 15.9244 13.1896L15.2428 11.402Z" fill="white"/>
<path d="M18.6496 20.3413C18.1253 20.5714 17.6249 20.7915 17.183 20.9857C17.1411 21.005 17.0075 21.0631 16.8212 21.1448C16.1078 21.4566 14.6188 22.1053 14.5235 22.1777C13.1183 22.9819 12.6872 24.9014 13.5971 26.2195C14.5336 26.8316 15.6659 28.0028 16.8494 27.2624C17.8423 26.6567 18.7896 25.9708 19.6634 25.2131H19.6641L19.6655 25.2117C19.8786 25.0282 20.0865 24.8397 20.2902 24.6469C20.4584 24.4885 20.623 24.3265 20.7841 24.1624C21.1011 23.8406 21.3971 23.5151 21.6773 23.1861C21.2014 23.3947 20.6122 23.6535 20.0122 23.9172L19.3161 22.0902C21.4173 21.1943 23.5482 20.3564 23.7374 20.1894C24.3028 19.1486 24.7339 18.1251 25.0849 17.0234C24.2783 17.7689 23.3172 18.3215 22.2932 18.7394C21.2498 19.1981 19.8836 19.7987 18.6496 20.3413ZM18.1838 24.7207C18.1116 24.753 18.0408 24.7838 17.973 24.8139C17.8141 24.8827 16.5793 25.4267 16.3894 25.5099C15.6789 25.8496 14.847 25.1314 15.0716 24.3917C14.9922 24.1301 16.0688 23.5467 17.4877 22.8951L18.1838 24.7207Z" fill="white"/>
<path d="M16.1396 19.3569C16.7895 19.0709 17.4697 18.7713 17.968 18.5527C18.116 18.4875 18.2481 18.4294 18.3586 18.3814C19.5429 17.8295 21.4997 17.0618 22.6327 16.4569C25.0062 15.1158 26.3392 12.3026 25.8879 9.63836C25.8698 9.47637 25.8518 9.36455 25.8518 9.36455C25.6828 9.26206 25.5102 9.15096 25.3384 9.05133L25.3232 9.05778C24.877 8.81265 24.1664 8.44782 23.2609 8.0708C23.7368 8.79043 24.0177 9.65628 24.0451 10.5135C24.04 14.3403 21.1683 15.0499 18.2467 16.3429C17.9535 16.472 17.6293 16.6146 17.287 16.7651C16.7079 17.0196 16.0775 17.2969 15.4587 17.5686C14.707 17.8997 13.9719 18.2223 13.369 18.4875C11.6511 19.205 10.29 20.6392 9.66968 22.3702C10.1275 22.9773 10.6611 23.5994 11.2164 24.1614C11.3818 22.2899 12.7292 20.7051 14.5048 20.0751C14.881 19.911 15.4955 19.6408 16.1396 19.3569Z" fill="white"/>
</svg>
