<svg width="6" height="10" viewBox="0 0 6 10" fill="none" xmlns="http://www.w3.org/2000/svg">
<path opacity="0.7" d="M2.41398 7.02659V4.83992C3.14287 4.80436 3.71176 4.62659 4.12065 4.30659C4.53843 3.98659 4.74732 3.54659 4.74732 2.98659V2.79992C4.74732 2.34659 4.6051 1.98659 4.32065 1.71992C4.03621 1.44436 3.65398 1.30659 3.17398 1.30659C2.65843 1.30659 2.2451 1.45325 1.93398 1.74659C1.63176 2.03992 1.42732 2.41325 1.32065 2.86659L0.333984 2.49325C0.413984 2.20881 0.52954 1.9377 0.680651 1.67992C0.840651 1.41325 1.03621 1.18214 1.26732 0.986586C1.50732 0.782141 1.78732 0.622141 2.10732 0.506585C2.42732 0.39103 2.79621 0.333252 3.21398 0.333252C4.04065 0.333252 4.69398 0.559919 5.17398 1.01325C5.65398 1.46659 5.89398 2.07992 5.89398 2.85325C5.89398 3.27992 5.81843 3.65325 5.66732 3.97325C5.52509 4.28436 5.33843 4.55103 5.10732 4.77325C4.87621 4.99547 4.61398 5.17325 4.32065 5.30659C4.02732 5.43992 3.73398 5.53325 3.44065 5.58659V7.02659H2.41398ZM2.93398 9.95992C2.64954 9.95992 2.44065 9.88881 2.30732 9.74659C2.18287 9.60436 2.12065 9.4177 2.12065 9.18659V9.01325C2.12065 8.78214 2.18287 8.59547 2.30732 8.45325C2.44065 8.31103 2.64954 8.23992 2.93398 8.23992C3.21843 8.23992 3.42287 8.31103 3.54732 8.45325C3.68065 8.59547 3.74732 8.78214 3.74732 9.01325V9.18659C3.74732 9.4177 3.68065 9.60436 3.54732 9.74659C3.42287 9.88881 3.21843 9.95992 2.93398 9.95992Z" fill="white"/>
</svg>
