<svg width="30" height="30" viewBox="0 0 30 30" fill="none" xmlns="http://www.w3.org/2000/svg">
<g clip-path="url(#clip0_192_850)">
<rect width="30" height="30" rx="15" fill="url(#paint0_radial_192_850)"/>
<g clip-path="url(#clip1_192_850)">
<path d="M14.7825 0C8.52012 0 6.68862 0.00646209 6.33261 0.036003C5.04747 0.142858 4.24777 0.34526 3.37655 0.779143C2.70514 1.11263 2.17562 1.4992 1.65303 2.0411C0.701286 3.02933 0.124471 4.24513 -0.0843355 5.69033C-0.185855 6.39193 -0.215388 6.53502 -0.221387 10.1187C-0.223694 11.3133 -0.221387 12.8854 -0.221387 14.9941C-0.221387 21.2531 -0.214465 23.0833 -0.184471 23.4387C-0.0806439 24.6896 0.115473 25.4765 0.53078 26.3374C1.32448 27.9852 2.84035 29.2222 4.62616 29.6838C5.24451 29.8431 5.92746 29.9308 6.80422 29.9723C7.17568 29.9885 10.9619 30 14.7504 30C18.5389 30 22.3275 29.9954 22.6897 29.9769C23.7049 29.9292 24.2944 29.85 24.9462 29.6815C26.7435 29.2176 28.2317 27.9991 29.0416 26.3282C29.4488 25.4881 29.6553 24.6711 29.7487 23.4855C29.7691 23.227 29.7776 19.1058 29.7776 14.9902C29.7776 10.8738 29.7684 6.76026 29.7481 6.50178C29.6535 5.29706 29.447 4.487 29.0266 3.63077C28.6816 2.92986 28.2986 2.40643 27.7426 1.87124C26.7502 0.923155 25.5366 0.346183 24.0904 0.13755C23.3897 0.0362338 23.2501 0.0062313 19.6646 0H14.7825Z" fill="url(#paint1_radial_192_850)"/>
<path d="M14.7787 6.66675C12.5155 6.66675 12.2314 6.67664 11.3425 6.7171C10.4554 6.75772 9.84982 6.89817 9.31996 7.10425C8.77186 7.3171 8.30693 7.60182 7.84373 8.06519C7.38018 8.52838 7.09545 8.99331 6.88191 9.54123C6.67531 10.0713 6.53469 10.677 6.49475 11.5638C6.455 12.4527 6.44458 12.7369 6.44458 15.0001C6.44458 17.2633 6.45465 17.5464 6.49493 18.4353C6.53573 19.3225 6.67618 19.928 6.88208 20.4579C7.09511 21.006 7.37983 21.4709 7.84321 21.9341C8.30623 22.3977 8.77117 22.6831 9.31892 22.8959C9.84913 23.102 10.4549 23.2424 11.3419 23.2831C12.2308 23.3235 12.5146 23.3334 14.7777 23.3334C17.041 23.3334 17.3242 23.3235 18.2131 23.2831C19.1003 23.2424 19.7065 23.102 20.2367 22.8959C20.7847 22.6831 21.2489 22.3977 21.7119 21.9341C22.1755 21.4709 22.4602 21.006 22.6737 20.4581C22.8786 19.928 23.0192 19.3223 23.0609 18.4355C23.1008 17.5466 23.1112 17.2633 23.1112 15.0001C23.1112 12.7369 23.1008 12.4529 23.0609 11.564C23.0192 10.6768 22.8786 10.0713 22.6737 9.5414C22.4602 8.99331 22.1755 8.52838 21.7119 8.06519C21.2484 7.60164 20.7848 7.31692 20.2362 7.10425C19.705 6.89817 19.0991 6.75772 18.2119 6.7171C17.323 6.67664 17.04 6.66675 14.7761 6.66675H14.7787ZM14.0311 8.16848C14.253 8.16814 14.5006 8.16848 14.7787 8.16848C17.0037 8.16848 17.2674 8.17647 18.1461 8.2164C18.9586 8.25355 19.3996 8.38932 19.6933 8.50338C20.0822 8.65442 20.3595 8.83498 20.651 9.12664C20.9426 9.41831 21.1232 9.69609 21.2746 10.085C21.3887 10.3784 21.5246 10.8194 21.5616 11.6319C21.6015 12.5103 21.6102 12.7742 21.6102 14.9982C21.6102 17.2221 21.6015 17.486 21.5616 18.3645C21.5244 19.177 21.3887 19.618 21.2746 19.9114C21.1236 20.3003 20.9426 20.5772 20.651 20.8687C20.3593 21.1603 20.0824 21.3409 19.6933 21.4919C19.3999 21.6065 18.9586 21.7419 18.1461 21.7791C17.2676 21.819 17.0037 21.8277 14.7787 21.8277C12.5535 21.8277 12.2898 21.819 11.4113 21.7791C10.5988 21.7416 10.1578 21.6058 9.86389 21.4917C9.47499 21.3407 9.19721 21.1602 8.90554 20.8685C8.61387 20.5768 8.43332 20.2997 8.28193 19.9107C8.16786 19.6173 8.03192 19.1763 7.99494 18.3638C7.95501 17.4853 7.94703 17.2214 7.94703 14.9961C7.94703 12.7707 7.95501 12.5082 7.99494 11.6298C8.0321 10.8173 8.16786 10.3763 8.28193 10.0825C8.43297 9.69366 8.61387 9.41588 8.90554 9.12421C9.19721 8.83255 9.47499 8.65199 9.86389 8.5006C10.1576 8.38602 10.5988 8.2506 11.4113 8.21328C12.1801 8.17855 12.478 8.16814 14.0311 8.1664V8.16848ZM19.227 9.55216C18.6749 9.55216 18.227 9.99956 18.227 10.5518C18.227 11.1039 18.6749 11.5518 19.227 11.5518C19.7791 11.5518 20.227 11.1039 20.227 10.5518C20.227 9.99973 19.7791 9.55182 19.227 9.55182V9.55216ZM14.7787 10.7206C12.4153 10.7206 10.4991 12.6367 10.4991 15.0001C10.4991 17.3635 12.4153 19.2787 14.7787 19.2787C17.1421 19.2787 19.0576 17.3635 19.0576 15.0001C19.0576 12.6367 17.1421 10.7206 14.7787 10.7206ZM14.7787 12.2223C16.3127 12.2223 17.5565 13.4659 17.5565 15.0001C17.5565 16.5341 16.3127 17.7779 14.7787 17.7779C13.2445 17.7779 12.0009 16.5341 12.0009 15.0001C12.0009 13.4659 13.2445 12.2223 14.7787 12.2223Z" fill="white"/>
</g>
</g>
<defs>
<radialGradient id="paint0_radial_192_850" cx="0" cy="0" r="1" gradientUnits="userSpaceOnUse" gradientTransform="translate(7.96879 32.3106) rotate(-90) scale(29.7322 27.6533)">
<stop stop-color="#FFDD55"/>
<stop offset="0.1" stop-color="#FFDD55"/>
<stop offset="0.5" stop-color="#FF543E"/>
<stop offset="1" stop-color="#C837AB"/>
</radialGradient>
<radialGradient id="paint1_radial_192_850" cx="0" cy="0" r="1" gradientUnits="userSpaceOnUse" gradientTransform="translate(-5.24757 2.16115) rotate(78.6806) scale(13.2904 54.7837)">
<stop stop-color="#3771C8"/>
<stop offset="0.128" stop-color="#3771C8"/>
<stop offset="1" stop-color="#6600FF" stop-opacity="0"/>
</radialGradient>
<clipPath id="clip0_192_850">
<rect width="30" height="30" rx="15" fill="white"/>
</clipPath>
<clipPath id="clip1_192_850">
<rect width="31.1111" height="31.1111" fill="white" transform="translate(-0.777832 -0.55542)"/>
</clipPath>
</defs>
</svg>
