<svg width="30" height="30" viewBox="0 0 30 30" fill="none" xmlns="http://www.w3.org/2000/svg">
<g clip-path="url(#clip0_192_857)">
<path d="M15 29.9998C23.2843 29.9998 30 23.284 30 14.9998C30 6.71548 23.2843 -0.000244141 15 -0.000244141C6.71573 -0.000244141 0 6.71548 0 14.9998C0 23.284 6.71573 29.9998 15 29.9998Z" fill="#2967BC"/>
<path d="M23.9627 16.2069V22.391H20.3773V16.6213C20.3773 15.1726 19.8596 14.1833 18.5614 14.1833C17.5708 14.1833 16.9822 14.8493 16.7223 15.4943C16.6279 15.7248 16.6036 16.0448 16.6036 16.3681V22.3908H13.0179C13.0179 22.3908 13.0661 12.6188 13.0179 11.6072H16.6039V13.1354C16.5967 13.1474 16.5865 13.1592 16.5801 13.1707H16.6039V13.1354C17.0804 12.4022 17.9301 11.354 19.8353 11.354C22.1942 11.354 23.9627 12.8952 23.9627 16.2069ZM9.26699 6.40918C8.04047 6.40918 7.23804 7.21429 7.23804 8.27208C7.23804 9.30741 8.01721 10.1358 9.21993 10.1358H9.24319C10.4938 10.1358 11.2713 9.30741 11.2713 8.27208C11.2475 7.21429 10.4938 6.40918 9.26699 6.40918ZM7.45115 22.391H11.0355V11.6072H7.45115V22.391Z" fill="white"/>
</g>
<defs>
<clipPath id="clip0_192_857">
<rect width="30" height="30" fill="white"/>
</clipPath>
</defs>
</svg>
