<svg width="79" height="79" viewBox="0 0 79 79" fill="none" xmlns="http://www.w3.org/2000/svg">
<path opacity="0.1" d="M79 39.5C79 61.3152 61.3152 79 39.5 79C17.6848 79 0 61.3152 0 39.5C0 17.6848 17.6848 0 39.5 0C61.3152 0 79 17.6848 79 39.5ZM2.37 39.5C2.37 60.0063 18.9937 76.63 39.5 76.63C60.0063 76.63 76.63 60.0063 76.63 39.5C76.63 18.9937 60.0063 2.37 39.5 2.37C18.9937 2.37 2.37 18.9937 2.37 39.5Z" fill="#D9D9D9"/>
<path d="M39.5 -1.7266e-06C44.6872 -1.95334e-06 49.8236 1.0217 54.616 3.00676C59.4084 4.99182 63.7628 7.90136 67.4307 11.5693C71.0986 15.2372 74.0082 19.5916 75.9932 24.384C77.9783 29.1764 79 34.3128 79 39.5L73.865 39.5C73.865 34.9871 72.9761 30.5184 71.2491 26.3491C69.5221 22.1797 66.9908 18.3914 63.7997 15.2003C60.6086 12.0092 56.8203 9.47788 52.6509 7.75088C48.4816 6.02387 44.0129 5.13499 39.5 5.13499L39.5 -1.7266e-06Z" fill="#0092FF"/>
</svg>
