<svg width="511" height="136" viewBox="0 0 511 136" fill="none" xmlns="http://www.w3.org/2000/svg">
<path d="M45.025 24.6141C48.1896 23.229 51.3956 21.8364 54.549 20.4699C60.0251 18.0858 65.3396 15.776 70.0001 13.7076C56.2065 13.0466 42.2775 15.4418 29.4273 20.6815C29.431 20.6667 29.431 20.6555 29.4385 20.6407C24.1804 22.8651 19.0802 25.4088 14.3069 28.4427C14.2392 27.8523 13.4537 36.6124 13.7168 40.9164C18.0203 37.6634 22.5605 34.8448 27.4653 32.4199C32.6746 30.0321 38.7709 27.3436 45.025 24.6141Z" fill="#2B77F6"/>
<path d="M40.5375 70.5798C46.1226 67.1783 52.7338 64.382 59.2097 61.6637C62.4721 60.2971 65.7043 58.9529 68.7487 57.5603C69.2486 57.3301 69.741 57.0998 70.2296 56.8696C75.0066 54.7046 85.3763 50.4155 90.1345 48.0426C96.6968 44.2586 99.3052 35.8363 96.0842 29.1038C92.7955 21.8847 83.9255 18.394 76.3709 21.7362C73.3867 22.9616 61.3595 28.3611 58.0972 29.7351C58.0859 29.7388 58.0784 29.7425 58.0671 29.7462C54.9889 31.1722 51.8017 32.5313 48.5769 33.8942C36.5686 38.9742 24.0415 44.1323 14.7769 52.9481C15.3444 56.7619 16.1713 60.7019 17.2349 64.5454C24.5865 56.2049 34.4751 50.4601 44.7996 46.3641C47.066 45.3689 49.5842 44.2734 52.1249 43.1594L55.673 52.4208C54.6619 52.8664 53.6885 53.2898 52.7714 53.6908C40.7518 58.4107 28.4314 64.7942 21.0385 75.6079C22.5269 79.1877 24.2144 82.6375 26.1651 86.0428C29.6191 79.8487 34.5315 74.5384 40.5375 70.5798ZM61.6414 38.9965C65.2947 37.3923 70.0341 35.3276 73.507 33.8051C77.4496 32.3197 84.2525 27.3696 87.0225 33.2963C90.0142 39.8655 78.7952 41.7631 75.0104 43.9615C74.4428 44.1991 73.3717 44.6819 72.8192 44.9195C70.5265 45.9222 67.8955 47.0734 65.1894 48.258L61.6414 38.9965Z" fill="#2B77F6"/>
<path d="M79.3738 85.3114C76.6451 86.5034 74.0405 87.6434 71.7403 88.6498C71.5223 88.7501 70.827 89.0509 69.8573 89.4742C66.1439 91.0896 58.3939 94.4503 57.8978 94.8253C50.5838 98.9919 48.34 108.937 53.0757 115.766C57.9504 118.937 63.8437 125.005 70.0039 121.169C75.1718 118.031 80.1029 114.477 84.6507 110.552H84.6545L84.662 110.545C85.7707 109.594 86.8532 108.617 87.9131 107.618C88.7888 106.798 89.6457 105.958 90.4839 105.108C92.1339 103.441 93.6748 101.755 95.1331 100.05C92.6563 101.131 89.5894 102.471 86.466 103.838L82.8429 94.3723C93.7801 89.7304 104.871 85.3893 105.856 84.5241C108.799 79.1321 111.043 73.8292 112.869 68.1216C108.671 71.9836 103.669 74.8467 98.3391 77.0117C92.9081 79.3883 85.797 82.5002 79.3738 85.3114ZM76.9496 108.001C76.5737 108.168 76.2054 108.328 75.8521 108.484C75.0252 108.84 68.5982 111.659 67.6097 112.089C63.9114 113.85 59.5816 110.129 60.7505 106.296C60.3371 104.941 65.941 101.918 73.3264 98.5426L76.9496 108.001Z" fill="#2B77F6"/>
<path d="M66.3093 80.212C69.692 78.7303 73.2325 77.1781 75.8258 76.0454C76.5963 75.7075 77.2841 75.4067 77.8592 75.1579C84.0231 72.2985 94.2086 68.3214 100.106 65.1872C112.46 58.2392 119.398 43.6637 117.049 29.8607C116.955 29.0214 116.861 28.4421 116.861 28.4421C115.982 27.9111 115.083 27.3355 114.189 26.8193L114.11 26.8527C111.787 25.5827 108.089 23.6926 103.376 21.7393C105.852 25.4676 107.314 29.9535 107.457 34.3949C107.431 54.2212 92.4834 57.8976 77.2766 64.5967C75.7507 65.2652 74.0631 66.0041 72.2816 66.784C69.2673 68.1023 65.9861 69.5394 62.7651 70.9468C58.8525 72.6624 55.0264 74.3335 51.888 75.7075C42.9466 79.4247 35.8618 86.8554 32.6333 95.8235C35.0162 98.9688 37.7937 102.192 40.684 105.104C41.5447 95.4076 48.558 87.1971 57.8001 83.9329C59.7583 83.0825 62.9568 81.6825 66.3093 80.212Z" fill="#2B77F6"/>
<path d="M439.514 36.6384C441.013 35.6229 442.654 34.8296 444.44 34.2584C446.225 33.6555 447.899 33.354 449.461 33.354C451.629 33.354 453.43 33.7824 454.865 34.6392C456.299 35.4643 457.734 37.0033 459.169 39.2564L495.273 96.8999C493.775 97.9154 492.133 98.7087 490.348 99.2799C488.594 99.8828 486.921 100.184 485.327 100.184C483.159 100.184 481.341 99.7559 479.875 98.8991C478.408 98.0423 476.942 96.4715 475.475 94.1867L439.514 36.6384ZM478.584 34.2584C479.381 34.068 480.305 33.9252 481.357 33.83C482.441 33.7348 483.637 33.6872 484.944 33.6872C486.41 33.6872 487.861 33.8141 489.296 34.068C490.762 34.3219 491.99 34.6233 492.978 34.9724L493.36 35.734L472.989 69.1491L466.772 76.0987L452.952 99.2799C452.155 99.4703 451.214 99.6131 450.13 99.7083C449.046 99.8035 447.851 99.8511 446.544 99.8511C445.077 99.8511 443.611 99.7241 442.144 99.4703C440.71 99.2164 439.45 98.9149 438.366 98.5659L437.984 97.7091L460.316 61.4856L466.533 54.5836L478.584 34.2584Z" fill="white"/>
<path d="M431.761 75.2896C431.761 80.6525 430.757 85.2221 428.748 88.9983C426.74 92.7746 423.807 95.6623 419.949 97.6615C416.124 99.6607 411.437 100.66 405.89 100.66C400.375 100.66 395.688 99.6607 391.831 97.6615C387.973 95.6623 385.024 92.7746 382.984 88.9983C380.975 85.2221 379.971 80.6525 379.971 75.2896V34.3061L380.641 33.6396H386.236C389.169 33.6396 391.416 34.4012 392.978 35.9244C394.541 37.4159 395.322 39.8594 395.322 43.2548V75.4324C395.322 79.7798 396.119 83.0642 397.713 85.2855C399.339 87.4751 402.064 88.5699 405.89 88.5699C409.748 88.5699 412.473 87.4751 414.067 85.2855C415.661 83.0642 416.459 79.7798 416.459 75.4324V34.2584C417.734 34.0363 419.041 33.8935 420.38 33.83C421.751 33.7666 422.93 33.7348 423.919 33.7348C424.843 33.7348 426.07 33.7666 427.601 33.83C429.163 33.8935 430.55 34.0363 431.761 34.2584V75.2896Z" fill="white"/>
<path d="M370.164 54.3932C370.164 57.4396 369.574 60.1528 368.395 62.5328C367.215 64.8811 365.733 66.8327 363.948 68.3876C362.162 69.9425 360.361 71.0849 358.544 71.8148C360.329 72.4495 361.812 73.5443 362.991 75.0992C364.203 76.6541 365.175 78.4788 365.908 80.5732L368.777 88.6176C369.319 90.109 369.989 91.4577 370.786 92.6636C371.583 93.8377 372.476 94.8373 373.464 95.6623C372.507 96.9317 371.089 97.9947 369.208 98.8515C367.359 99.6766 365.398 100.089 363.326 100.089C360.584 100.089 358.592 99.3593 357.348 97.8995C356.105 96.4398 354.973 94.2502 353.953 91.3308L350.51 81.3824C349.968 79.7322 349.123 78.336 347.975 77.1936C346.86 76.0195 345.026 75.4324 342.476 75.4324H332.242V64.056C333.486 63.9925 335.016 63.9291 336.833 63.8656C338.682 63.7704 340.42 63.7069 342.046 63.6752C343.703 63.6117 344.867 63.58 345.536 63.58C347.991 63.58 349.856 63.1516 351.132 62.2948C352.439 61.4063 353.331 60.2639 353.809 58.8676C354.288 57.4714 354.527 55.9799 354.527 54.3932C354.527 52.7431 354.288 51.2199 353.809 49.8236C353.331 48.4274 352.439 47.3167 351.132 46.4916C349.856 45.6348 347.991 45.2064 345.536 45.2064C344.899 45.2064 344.213 45.2064 343.48 45.2064C342.747 45.2064 341.95 45.2064 341.089 45.2064C340.26 45.1747 339.384 45.143 338.459 45.1112V99.2799C337.184 99.5021 335.845 99.6449 334.442 99.7083C333.071 99.7718 331.876 99.8035 330.855 99.8035C329.963 99.8035 328.783 99.7718 327.317 99.7083C325.85 99.6449 324.511 99.5021 323.3 99.2799V34.7345L323.969 34.0681C328.05 34.0046 331.971 33.9411 335.733 33.8777C339.527 33.7825 343.241 33.7349 346.875 33.7349C351.307 33.7349 355.276 34.4647 358.783 35.9245C362.29 37.3525 365.063 39.5897 367.104 42.636C369.144 45.6507 370.164 49.5698 370.164 54.3932Z" fill="white"/>
<path d="M268.378 34.9247L269.048 34.2583H283.442V46.7771C283.442 48.1099 283.458 49.2999 283.49 50.3471C283.522 51.3943 283.538 52.5684 283.538 53.8695V80.0494C283.538 81.287 283.522 82.4135 283.49 83.429C283.458 84.4445 283.442 85.6027 283.442 86.9038V99.5178H277.177C274.436 99.5178 272.284 98.7403 270.722 97.1854C269.159 95.5987 268.378 93.425 268.378 90.6642V34.9247ZM304.579 60.3906C304.929 61.3109 305.169 62.374 305.296 63.5798C305.424 64.754 305.487 65.7536 305.487 66.5786C305.487 67.4672 305.424 68.4826 305.296 69.625C305.169 70.7674 304.929 71.8305 304.579 72.8142H289.993C289.196 72.8142 288.065 72.8142 286.598 72.8142C285.132 72.7825 283.617 72.7508 282.055 72.719C280.525 72.6873 279.25 72.6556 278.23 72.6238V60.581C279.25 60.5493 280.525 60.5176 282.055 60.4858C283.617 60.4541 285.132 60.4382 286.598 60.4382C288.065 60.4065 289.196 60.3906 289.993 60.3906H304.579ZM310.269 34.2583C310.525 35.4007 310.668 36.4796 310.7 37.4951C310.764 38.4788 310.796 39.3991 310.796 40.2559C310.796 41.1127 310.684 42.1757 310.461 43.4451C310.269 44.6827 309.967 45.8727 309.552 47.0151H289.993C289.196 47.0151 288.065 47.0151 286.598 47.0151C285.132 46.9833 283.617 46.9516 282.055 46.9199C280.525 46.8881 279.25 46.8564 278.23 46.8247V34.2583H310.269ZM312.661 86.8086C312.661 90.9974 312.007 94.1707 310.7 96.3286C309.393 98.4547 306.699 99.5178 302.618 99.5178H278.23V87.2846C280.302 87.1894 282.278 87.0942 284.159 86.999C286.072 86.8721 288.192 86.8086 290.519 86.8086H312.661Z" fill="white"/>
<path d="M232.503 55.4403C233.427 54.1709 234.639 52.616 236.137 50.7755C237.667 48.9349 239.022 47.38 240.202 46.1107L239.915 45.8251C238.799 45.952 237.588 46.0789 236.281 46.2059C234.973 46.3011 233.65 46.3804 232.311 46.4439C231.004 46.5073 229.729 46.5549 228.486 46.5867C227.242 46.6184 226.143 46.6343 225.186 46.6343H211.462C211.238 45.714 211.079 44.8413 210.983 44.0163C210.92 43.1912 210.888 42.3662 210.888 41.5411C210.888 40.24 210.983 39.0183 211.175 37.8759C211.366 36.7335 211.621 35.5276 211.94 34.2583H254.261C254.931 36.6383 255.409 38.4312 255.696 39.6371C255.983 40.8112 256.158 41.668 256.222 42.2075C256.318 42.747 256.365 43.2071 256.365 43.5879C256.365 44.4447 256.238 45.3173 255.983 46.2059C255.76 47.0944 255.329 47.9988 254.692 48.9191L233.364 78.0502C232.439 79.3195 231.275 80.811 229.873 82.5246C228.47 84.2065 227.147 85.6979 225.903 86.999L226.19 87.2846C228.263 87.1259 230.654 86.9831 233.364 86.8562C236.105 86.6975 238.496 86.6182 240.537 86.6182H245.845C248.204 86.6182 250.276 86.3961 252.061 85.9518C253.847 85.5075 255.377 84.9839 256.652 84.381C256.939 85.3013 257.178 86.3802 257.37 87.6178C257.561 88.8237 257.657 90.0295 257.657 91.2354C257.657 93.9644 256.716 95.9954 254.835 97.3282C252.986 98.6292 250.595 99.2798 247.662 99.2798H211.079C210.601 97.0267 210.234 95.329 209.979 94.1866C209.756 93.0125 209.597 92.1557 209.501 91.6162C209.437 91.045 209.405 90.5531 209.405 90.1406C209.405 89.2203 209.549 88.2683 209.836 87.2846C210.154 86.2691 210.617 85.3489 211.222 84.5238L232.503 55.4403Z" fill="white"/>
<path d="M166.778 34.2585C167.99 34.0681 169.44 33.9411 171.13 33.8777C172.852 33.7825 174.35 33.7349 175.625 33.7349C176.837 33.7349 178.303 33.7825 180.025 33.8777C181.778 33.9411 183.261 34.0998 184.472 34.3537L205.035 98.2803C203.983 98.8833 202.612 99.3275 200.923 99.6131C199.265 99.9305 197.719 100.089 196.284 100.089C193.861 100.089 191.964 99.5338 190.593 98.4231C189.222 97.3125 188.075 95.1229 187.15 91.8544L180.312 67.7212C179.578 65.0556 178.718 61.9299 177.729 58.344C176.773 54.7264 175.88 51.331 175.051 48.1576H174.478C174.159 49.903 173.728 51.8546 173.186 54.0124C172.644 56.1703 172.071 58.3282 171.465 60.486C170.891 62.6121 170.349 64.5479 169.839 66.2932L160.083 99.3751C159.127 99.5973 158.107 99.7401 157.023 99.8035C155.939 99.867 154.791 99.8987 153.58 99.8987C152.432 99.8987 151.125 99.8194 149.659 99.6607C148.224 99.5021 147.076 99.2641 146.215 98.9467L145.642 98.0899L166.778 34.2585ZM167.926 85.6664C167.48 85.6664 166.954 85.6664 166.348 85.6664C165.774 85.6346 165.184 85.6188 164.579 85.6188C164.005 85.587 163.495 85.5712 163.048 85.5712H155.014L159.653 73.7188H166.731C167.177 73.7188 167.687 73.7188 168.261 73.7188C168.835 73.6871 169.409 73.6712 169.982 73.6712C170.556 73.6395 171.066 73.6236 171.513 73.6236H178.495C178.973 73.6236 179.483 73.6395 180.025 73.6712C180.599 73.6712 181.172 73.6871 181.746 73.7188C182.352 73.7188 182.878 73.7188 183.324 73.7188H190.641L194.515 85.5712H186.481C186.034 85.5712 185.508 85.587 184.903 85.6188C184.297 85.6188 183.691 85.6346 183.085 85.6664C182.511 85.6664 182.001 85.6664 181.555 85.6664H167.926Z" fill="white"/>
</svg>
