<svg width="187" height="50" viewBox="0 0 187 50" fill="none" xmlns="http://www.w3.org/2000/svg">
<path d="M16.4769 9.04928C17.635 8.54004 18.8082 8.02807 19.9622 7.52566C21.9661 6.64916 23.911 5.79997 25.6165 5.03952C20.5687 4.7965 15.4714 5.6771 10.7689 7.60348C10.7703 7.59801 10.7703 7.59392 10.773 7.58846C8.84881 8.40625 6.98237 9.34145 5.23559 10.4569C5.21084 10.2398 4.92337 13.4604 5.01965 15.0428C6.5945 13.8468 8.256 12.8106 10.0509 11.9191C11.9572 11.0412 14.1882 10.0528 16.4769 9.04928Z" fill="#2B77F6"/>
<path d="M14.8347 25.9485C16.8786 24.6979 19.2979 23.6699 21.6677 22.6705C22.8616 22.1681 24.0445 21.6739 25.1586 21.1619C25.3415 21.0772 25.5217 20.9926 25.7005 20.908C27.4486 20.112 31.2434 18.5351 32.9847 17.6627C35.3861 16.2715 36.3407 13.1751 35.1619 10.6999C33.9585 8.04585 30.7125 6.76251 27.9479 7.99124C26.8558 8.44178 22.4545 10.4269 21.2606 10.932C21.2565 10.9334 21.2537 10.9347 21.2496 10.9361C20.1232 11.4604 18.9568 11.96 17.7767 12.4611C13.3822 14.3288 8.79799 16.2251 5.40759 19.4662C5.61528 20.8684 5.91787 22.3169 6.30711 23.7299C8.99743 20.6636 12.6161 18.5515 16.3944 17.0456C17.2238 16.6797 18.1453 16.277 19.0751 15.8674L20.3735 19.2724C20.0035 19.4362 19.6473 19.5918 19.3117 19.7393C14.9131 21.4745 10.4045 23.8214 7.69903 27.7971C8.2437 29.1132 8.86126 30.3815 9.5751 31.6334C10.8391 29.3562 12.6368 27.4039 14.8347 25.9485ZM22.5576 14.337C23.8945 13.7472 25.6289 12.9881 26.8998 12.4283C28.3426 11.8822 30.8321 10.0623 31.8458 12.2413C32.9406 14.6564 28.835 15.3541 27.45 16.1623C27.2423 16.2497 26.8503 16.4272 26.6481 16.5146C25.8091 16.8832 24.8463 17.3064 23.856 17.7419L22.5576 14.337Z" fill="#2B77F6"/>
<path d="M29.0467 31.3645C28.0481 31.8027 27.095 32.2218 26.2532 32.5918C26.1734 32.6287 25.919 32.7393 25.5641 32.8949C24.2052 33.4888 21.3691 34.7244 21.1875 34.8623C18.511 36.3941 17.6899 40.0502 19.4229 42.561C21.2068 43.7269 23.3634 45.9577 25.6178 44.5474C27.5089 43.3938 29.3135 42.0872 30.9777 40.6441H30.9791L30.9819 40.6414C31.3876 40.2919 31.7837 39.9328 32.1716 39.5656C32.4921 39.2639 32.8057 38.9553 33.1124 38.6427C33.7162 38.0297 34.2801 37.4098 34.8138 36.7832C33.9074 37.1805 32.785 37.6733 31.6421 38.1757L30.3162 34.6957C34.3186 32.9891 38.3775 31.3931 38.7378 31.075C39.8148 29.0927 40.6359 27.1431 41.3044 25.0447C39.768 26.4645 37.9373 27.5172 35.987 28.3131C33.9995 29.1869 31.3972 30.331 29.0467 31.3645ZM28.1595 39.7062C28.022 39.7676 27.8872 39.8263 27.7579 39.8837C27.4553 40.0147 25.1033 41.051 24.7416 41.2093C23.3882 41.8565 21.8037 40.4885 22.2315 39.0795C22.0802 38.5812 24.1309 37.4699 26.8336 36.2289L28.1595 39.7062Z" fill="#2B77F6"/>
<path d="M24.2659 29.4898C25.5037 28.9451 26.7994 28.3744 27.7484 27.958C28.0304 27.8337 28.2821 27.7232 28.4925 27.6317C30.7482 26.5804 34.4756 25.1182 36.6336 23.966C41.1546 21.4116 43.6936 16.0529 42.834 10.9783C42.7996 10.6697 42.7652 10.4567 42.7652 10.4567C42.4433 10.2615 42.1146 10.0499 41.7873 9.86011L41.7584 9.87239C40.9084 9.40547 39.555 8.71056 37.8302 7.99243C38.7366 9.36315 39.2716 11.0124 39.3239 12.6452C39.3143 19.9344 33.8442 21.286 28.2793 23.7489C27.7209 23.9946 27.1033 24.2663 26.4514 24.553C25.3483 25.0377 24.1476 25.566 22.9688 26.0835C21.537 26.7142 20.1369 27.3286 18.9884 27.8337C15.7163 29.2004 13.1236 31.9322 11.9421 35.2293C12.8142 36.3857 13.8306 37.5708 14.8883 38.6411C15.2032 35.0764 17.7698 32.0578 21.1519 30.8578C21.8685 30.5451 23.039 30.0304 24.2659 29.4898Z" fill="#2B77F6"/>
<path d="M61.0325 12.595C61.4758 12.525 62.0067 12.4783 62.625 12.455C63.255 12.42 63.8033 12.4025 64.27 12.4025C64.7133 12.4025 65.25 12.42 65.88 12.455C66.5217 12.4783 67.0642 12.5367 67.5075 12.63L75.0325 36.1325C74.6475 36.3542 74.1458 36.5175 73.5275 36.6225C72.9208 36.7392 72.355 36.7975 71.83 36.7975C70.9433 36.7975 70.2492 36.5933 69.7475 36.185C69.2458 35.7767 68.8258 34.9717 68.4875 33.77L65.985 24.8975C65.7167 23.9175 65.4017 22.7683 65.04 21.45C64.69 20.12 64.3633 18.8717 64.06 17.705H63.85C63.7333 18.3467 63.5758 19.0642 63.3775 19.8575C63.1792 20.6508 62.9692 21.4442 62.7475 22.2375C62.5375 23.0192 62.3392 23.7308 62.1525 24.3725L58.5825 36.535C58.2325 36.6167 57.8592 36.6692 57.4625 36.6925C57.0658 36.7158 56.6458 36.7275 56.2025 36.7275C55.7825 36.7275 55.3042 36.6983 54.7675 36.64C54.2425 36.5817 53.8225 36.4942 53.5075 36.3775L53.2975 36.0625L61.0325 12.595ZM61.4525 31.495C61.2892 31.495 61.0967 31.495 60.875 31.495C60.665 31.4833 60.4492 31.4775 60.2275 31.4775C60.0175 31.4658 59.8308 31.46 59.6675 31.46H56.7275L58.425 27.1025H61.015C61.1783 27.1025 61.365 27.1025 61.575 27.1025C61.785 27.0908 61.995 27.085 62.205 27.085C62.415 27.0733 62.6017 27.0675 62.765 27.0675H65.32C65.495 27.0675 65.6817 27.0733 65.88 27.085C66.09 27.085 66.3 27.0908 66.51 27.1025C66.7317 27.1025 66.9242 27.1025 67.0875 27.1025H69.765L71.1825 31.46H68.2425C68.0792 31.46 67.8867 31.4658 67.665 31.4775C67.4433 31.4775 67.2217 31.4833 67 31.495C66.79 31.495 66.6033 31.495 66.44 31.495H61.4525ZM85.0843 20.3825C85.4227 19.9158 85.866 19.3442 86.4143 18.6675C86.9743 17.9908 87.4702 17.4192 87.9018 16.9525L87.7968 16.8475C87.3885 16.8942 86.9452 16.9408 86.4668 16.9875C85.9885 17.0225 85.5043 17.0517 85.0143 17.075C84.536 17.0983 84.0693 17.1158 83.6143 17.1275C83.1593 17.1392 82.7568 17.145 82.4068 17.145H77.3843C77.3027 16.8067 77.2443 16.4858 77.2093 16.1825C77.186 15.8792 77.1743 15.5758 77.1743 15.2725C77.1743 14.7942 77.2093 14.345 77.2793 13.925C77.3493 13.505 77.4427 13.0617 77.5593 12.595H93.0468C93.2918 13.47 93.4668 14.1292 93.5718 14.5725C93.6768 15.0042 93.741 15.3192 93.7643 15.5175C93.7993 15.7158 93.8168 15.885 93.8168 16.025C93.8168 16.34 93.7702 16.6608 93.6768 16.9875C93.5952 17.3142 93.4377 17.6467 93.2043 17.985L85.3993 28.695C85.061 29.1617 84.6352 29.71 84.1218 30.34C83.6085 30.9583 83.1243 31.5067 82.6693 31.985L82.7743 32.09C83.5327 32.0317 84.4077 31.9792 85.3993 31.9325C86.4027 31.8742 87.2777 31.845 88.0243 31.845H89.9668C90.8302 31.845 91.5885 31.7633 92.2418 31.6C92.8952 31.4367 93.4552 31.2442 93.9218 31.0225C94.0268 31.3608 94.1143 31.7575 94.1843 32.2125C94.2543 32.6558 94.2893 33.0992 94.2893 33.5425C94.2893 34.5458 93.9452 35.2925 93.2568 35.7825C92.5802 36.2608 91.7052 36.5 90.6318 36.5H77.2443C77.0693 35.6717 76.9352 35.0475 76.8418 34.6275C76.7602 34.1958 76.7018 33.8808 76.6668 33.6825C76.6435 33.4725 76.6318 33.2917 76.6318 33.14C76.6318 32.8017 76.6843 32.4517 76.7893 32.09C76.906 31.7167 77.0752 31.3783 77.2968 31.075L85.0843 20.3825ZM98.2129 12.84L98.4579 12.595H103.725V17.1975C103.725 17.6875 103.731 18.125 103.743 18.51C103.755 18.895 103.76 19.3267 103.76 19.805V29.43C103.76 29.885 103.755 30.2992 103.743 30.6725C103.731 31.0458 103.725 31.4717 103.725 31.95V36.5875H101.433C100.43 36.5875 99.6421 36.3017 99.0704 35.73C98.4987 35.1467 98.2129 34.3475 98.2129 33.3325V12.84ZM111.46 22.2025C111.589 22.5408 111.676 22.9317 111.723 23.375C111.77 23.8067 111.793 24.1742 111.793 24.4775C111.793 24.8042 111.77 25.1775 111.723 25.5975C111.676 26.0175 111.589 26.4083 111.46 26.77H106.123C105.831 26.77 105.417 26.77 104.88 26.77C104.344 26.7583 103.79 26.7467 103.218 26.735C102.658 26.7233 102.191 26.7117 101.818 26.7V22.2725C102.191 22.2608 102.658 22.2492 103.218 22.2375C103.79 22.2258 104.344 22.22 104.88 22.22C105.417 22.2083 105.831 22.2025 106.123 22.2025H111.46ZM113.543 12.595C113.636 13.015 113.689 13.4117 113.7 13.785C113.724 14.1467 113.735 14.485 113.735 14.8C113.735 15.115 113.695 15.5058 113.613 15.9725C113.543 16.4275 113.432 16.865 113.28 17.285H106.123C105.831 17.285 105.417 17.285 104.88 17.285C104.344 17.2733 103.79 17.2617 103.218 17.25C102.658 17.2383 102.191 17.2267 101.818 17.215V12.595H113.543ZM114.418 31.915C114.418 33.455 114.179 34.6217 113.7 35.415C113.222 36.1967 112.236 36.5875 110.743 36.5875H101.818V32.09C102.576 32.055 103.3 32.02 103.988 31.985C104.688 31.9383 105.464 31.915 106.315 31.915H114.418ZM135.461 19.9975C135.461 21.1175 135.246 22.115 134.814 22.99C134.382 23.8533 133.84 24.5708 133.186 25.1425C132.533 25.7142 131.874 26.1342 131.209 26.4025C131.862 26.6358 132.405 27.0383 132.836 27.61C133.28 28.1817 133.636 28.8525 133.904 29.6225L134.954 32.58C135.152 33.1283 135.397 33.6242 135.689 34.0675C135.981 34.4992 136.307 34.8667 136.669 35.17C136.319 35.6367 135.8 36.0275 135.111 36.3425C134.435 36.6458 133.717 36.7975 132.959 36.7975C131.956 36.7975 131.226 36.5292 130.771 35.9925C130.316 35.4558 129.902 34.6508 129.529 33.5775L128.269 29.92C128.071 29.3133 127.761 28.8 127.341 28.38C126.933 27.9483 126.262 27.7325 125.329 27.7325H121.584V23.55C122.039 23.5267 122.599 23.5033 123.264 23.48C123.941 23.445 124.576 23.4217 125.171 23.41C125.778 23.3867 126.204 23.375 126.449 23.375C127.347 23.375 128.03 23.2175 128.496 22.9025C128.975 22.5758 129.301 22.1558 129.476 21.6425C129.651 21.1292 129.739 20.5808 129.739 19.9975C129.739 19.3908 129.651 18.8308 129.476 18.3175C129.301 17.8042 128.975 17.3958 128.496 17.0925C128.03 16.7775 127.347 16.62 126.449 16.62C126.216 16.62 125.965 16.62 125.696 16.62C125.428 16.62 125.136 16.62 124.821 16.62C124.518 16.6083 124.197 16.5967 123.859 16.585V36.5C123.392 36.5817 122.902 36.6342 122.389 36.6575C121.887 36.6808 121.45 36.6925 121.076 36.6925C120.75 36.6925 120.318 36.6808 119.781 36.6575C119.245 36.6342 118.755 36.5817 118.311 36.5V12.77L118.556 12.525C120.05 12.5017 121.485 12.4783 122.861 12.455C124.25 12.42 125.609 12.4025 126.939 12.4025C128.561 12.4025 130.013 12.6708 131.296 13.2075C132.58 13.7325 133.595 14.555 134.341 15.675C135.088 16.7833 135.461 18.2242 135.461 19.9975ZM158.003 27.68C158.003 29.6517 157.635 31.3317 156.9 32.72C156.165 34.1083 155.092 35.17 153.68 35.905C152.28 36.64 150.565 37.0075 148.535 37.0075C146.517 37.0075 144.802 36.64 143.39 35.905C141.979 35.17 140.899 34.1083 140.153 32.72C139.418 31.3317 139.05 29.6517 139.05 27.68V12.6125L139.295 12.3675H141.343C142.416 12.3675 143.239 12.6475 143.81 13.2075C144.382 13.7558 144.668 14.6542 144.668 15.9025V27.7325C144.668 29.3308 144.959 30.5383 145.543 31.355C146.138 32.16 147.135 32.5625 148.535 32.5625C149.947 32.5625 150.944 32.16 151.528 31.355C152.111 30.5383 152.403 29.3308 152.403 27.7325V12.595C152.869 12.5133 153.348 12.4608 153.838 12.4375C154.339 12.4142 154.771 12.4025 155.133 12.4025C155.471 12.4025 155.92 12.4142 156.48 12.4375C157.052 12.4608 157.559 12.5133 158.003 12.595V27.68ZM160.84 13.47C161.388 13.0967 161.989 12.805 162.642 12.595C163.296 12.3733 163.908 12.2625 164.48 12.2625C165.273 12.2625 165.932 12.42 166.457 12.735C166.982 13.0383 167.507 13.6042 168.032 14.4325L181.245 35.625C180.697 35.9983 180.096 36.29 179.442 36.5C178.801 36.7217 178.188 36.8325 177.605 36.8325C176.812 36.8325 176.147 36.675 175.61 36.36C175.073 36.045 174.537 35.4675 174 34.6275L160.84 13.47ZM175.137 12.595C175.429 12.525 175.767 12.4725 176.152 12.4375C176.549 12.4025 176.987 12.385 177.465 12.385C178.002 12.385 178.532 12.4317 179.057 12.525C179.594 12.6183 180.043 12.7292 180.405 12.8575L180.545 13.1375L173.09 25.4225L170.815 27.9775L165.757 36.5C165.466 36.57 165.122 36.6225 164.725 36.6575C164.328 36.6925 163.891 36.71 163.412 36.71C162.876 36.71 162.339 36.6633 161.802 36.57C161.277 36.4767 160.817 36.3658 160.42 36.2375L160.28 35.9225L168.452 22.605L170.727 20.0675L175.137 12.595Z" fill="#121212"/>
</svg>
