<svg width="10" height="10" viewBox="0 0 10 10" fill="none" xmlns="http://www.w3.org/2000/svg">
<g opacity="0.5" clip-path="url(#clip0_708_1350)">
<path d="M8.61638 6.96006C8.01228 6.44337 7.39921 6.1304 6.80252 6.6463L6.44623 6.95811C6.18555 7.18445 5.70087 8.24201 3.82691 6.0863C1.95335 3.93332 3.06828 3.59811 3.32935 3.37372L3.6876 3.06152C4.28116 2.54445 4.05716 1.89352 3.62906 1.22347L3.37072 0.817618C2.94067 0.14913 2.47238 -0.289894 1.87726 0.226398L1.55569 0.507374C1.29267 0.698984 0.557451 1.32181 0.37911 2.50503C0.164475 3.92474 0.841549 5.5505 2.39277 7.3343C3.94204 9.11889 5.45891 10.0153 6.89579 9.99967C8.08994 9.98679 8.81111 9.34601 9.03667 9.11303L9.3594 8.83167C9.95296 8.31576 9.58418 7.7905 8.97969 7.27264L8.61638 6.96006Z" fill="white"/>
</g>
<defs>
<clipPath id="clip0_708_1350">
<rect width="10" height="10" fill="white"/>
</clipPath>
</defs>
</svg>
