<svg width="191" height="203" viewBox="0 0 191 203" fill="none" xmlns="http://www.w3.org/2000/svg">
<path d="M83.0055 154.739C89.1484 147.513 94.6416 138.687 99.9923 130.037C102.684 125.679 105.337 121.359 108.018 117.318C108.46 116.655 108.901 116.002 109.341 115.355C113.519 109.01 121.995 95.1451 126.47 88.8726C133.38 80.3351 146.127 78.4719 155.152 84.5625C164.865 90.8574 167.963 104.301 161.474 114.354C159.047 118.346 148.602 134.333 145.9 138.689C145.892 138.704 145.885 138.714 145.878 138.73C143.141 142.812 140.476 147.064 137.798 151.369C127.819 167.4 117.614 184.155 102.837 195.44C97.4486 193.785 91.9349 191.733 86.6127 189.363C100.283 180.706 110.757 167.85 118.944 154.007C120.88 150.99 131.123 134.961 133.291 131.577L120.683 124.46C119.817 125.806 110.885 139.777 110.104 140.998C100.643 157.125 88.7109 173.313 71.4571 181.482C66.6093 178.564 61.9931 175.39 57.499 171.85C67.2107 168.286 75.965 162.443 83.0055 154.739ZM133.291 131.577C136.412 126.713 140.437 120.4 143.4 115.775C146.412 110.472 155.061 101.848 147.102 96.5802C138.263 90.8533 133.058 106.461 129.049 111.381C128.581 112.139 127.648 113.563 127.183 114.299C125.231 117.353 122.989 120.857 120.683 124.46L133.291 131.577Z" fill="white" fill-opacity="0.9"/>
<path d="M112.652 132.084C105.47 128.561 97.9535 124.871 92.4472 122.178C90.8114 121.375 89.3511 120.66 88.13 120.068C75.0566 113.301 53.391 103.753 40.917 96.4077C14.8163 80.1855 1.052 47.7509 7.2816 17.7855C7.55482 15.9594 7.80628 14.7014 7.80628 14.7014C9.75029 13.6149 11.7386 12.4327 13.7138 11.38L13.8815 11.4596C19.0045 8.87975 27.1506 5.06038 37.4937 1.18843C31.8319 9.12742 28.2984 18.8072 27.618 28.5006C26.0142 71.8282 57.99 81.1194 90.2727 97.0379C93.5125 98.6269 97.0954 100.384 100.878 102.238C107.278 105.372 114.244 108.789 121.083 112.135C129.39 116.213 137.513 120.187 144.177 123.453C163.177 132.329 177.856 149.162 184.078 169.032C178.668 175.704 172.399 182.514 165.913 188.633C164.866 167.373 150.406 148.841 130.719 140.931C126.561 138.907 119.77 135.579 112.652 132.084Z" fill="white" fill-opacity="0.5"/>
</svg>
