<svg width="16" height="17" viewBox="0 0 16 17" fill="none" xmlns="http://www.w3.org/2000/svg">
<g clip-path="url(#clip0_662_1009)">
<path d="M15.6725 0.501885C12.5492 0.445885 8.98716 2.07855 6.73249 4.61122C4.57783 4.65188 2.47983 5.53522 0.935161 7.07989C0.845161 7.16855 0.813161 7.30122 0.852495 7.42122C0.892495 7.54188 0.996495 7.62922 1.12183 7.64722L3.69116 8.01522L3.37383 8.37055C3.25583 8.50255 3.26183 8.70322 3.38716 8.82855L7.67183 13.1132C7.7365 13.1779 7.82183 13.2106 7.90783 13.2106C7.98716 13.2106 8.06649 13.1826 8.12983 13.1259L8.48516 12.8086L8.85316 15.3779C8.87116 15.5032 8.96983 15.5952 9.08916 15.6352C9.11983 15.6452 9.15183 15.6499 9.18449 15.6499C9.27916 15.6499 9.37583 15.6086 9.4425 15.5426C10.9658 14.0192 11.8492 11.9212 11.8898 9.76655C14.4252 7.50722 16.0712 3.94655 15.9985 0.827218C15.9938 0.649885 15.8505 0.506551 15.6725 0.501885ZM12.6005 6.25655C12.2758 6.58122 11.8492 6.74389 11.4218 6.74389C10.9945 6.74389 10.5678 6.58122 10.2432 6.25655C9.59383 5.60655 9.59383 4.54922 10.2432 3.89922C10.8932 3.24922 11.9505 3.24922 12.6005 3.89922C13.2505 4.54922 13.2505 5.60722 12.6005 6.25655Z" fill="white"/>
<path d="M1.81604 11.77C1.10271 12.4833 0.123372 15.706 0.0140383 16.0706C-0.0212951 16.188 0.0113716 16.3153 0.0973716 16.402C0.161372 16.466 0.246038 16.5 0.333372 16.5C0.365372 16.5 0.397372 16.4953 0.429372 16.486C0.794038 16.3766 4.0167 15.3973 4.73004 14.684C5.53337 13.8806 5.53337 12.5733 4.73004 11.77C3.92604 10.9666 2.61937 10.9673 1.81604 11.77Z" fill="white"/>
</g>
<defs>
<clipPath id="clip0_662_1009">
<rect width="16" height="16" fill="white" transform="translate(0 0.5)"/>
</clipPath>
</defs>
</svg>
