<svg width="16.000000" height="16.000000" viewBox="0 0 16 16" fill="none" xmlns="http://www.w3.org/2000/svg" xmlns:xlink="http://www.w3.org/1999/xlink">
	<desc>
			Created with Pixso.
	</desc>
	<defs>
		<clipPath id="clip178_4674">
			<rect id="fi_2893907" rx="-0.500000" width="15.000000" height="15.000000" transform="translate(0.500000 0.500000)" fill="white" fill-opacity="0"/>
		</clipPath>
	</defs>
	<rect id="fi_2893907" rx="-0.500000" width="15.000000" height="15.000000" transform="translate(0.500000 0.500000)" fill="#FFFFFF" fill-opacity="0"/>
	<g clip-path="url(#clip178_4674)">
		<path id="Vector" d="M8 3.19C5.35 3.19 3.19 5.35 3.19 8C3.19 10.63 5.35 12.8 8 12.8C10.63 12.8 12.8 10.63 12.8 8C12.8 5.35 10.63 3.19 8 3.19ZM8 11.2C6.23 11.2 4.8 9.76 4.8 8C4.8 6.23 6.23 4.8 8 4.8C9.76 4.8 11.2 6.23 11.2 8C11.2 9.76 9.76 11.2 8 11.2Z" fill="#121212" fill-opacity="1.000000" fill-rule="nonzero"/>
		<path id="Vector" d="M7.19 0L8.8 0L8.8 2.39L7.19 2.39L7.19 0Z" fill="#121212" fill-opacity="1.000000" fill-rule="nonzero"/>
		<path id="Vector" d="M2.9 1.78L4.6 3.48L3.47 4.61L1.77 2.91L2.9 1.78Z" fill="#121212" fill-opacity="1.000000" fill-rule="nonzero"/>
		<path id="Vector" d="M0 7.19L2.39 7.19L2.39 8.8L0 8.8L0 7.19Z" fill="#121212" fill-opacity="1.000000" fill-rule="nonzero"/>
		<path id="Vector" d="M2.89 14.22L1.76 13.09L3.46 11.39L4.59 12.52L2.89 14.22Z" fill="#121212" fill-opacity="1.000000" fill-rule="nonzero"/>
		<path id="Vector" d="M7.19 13.6L8.8 13.6L8.8 16L7.19 16L7.19 13.6Z" fill="#121212" fill-opacity="1.000000" fill-rule="nonzero"/>
		<path id="Vector" d="M13.08 14.23L11.39 12.54L12.52 11.4L14.22 13.1L13.08 14.23Z" fill="#121212" fill-opacity="1.000000" fill-rule="nonzero"/>
		<path id="Vector" d="M13.6 7.19L16 7.19L16 8.8L13.6 8.8L13.6 7.19Z" fill="#121212" fill-opacity="1.000000" fill-rule="nonzero"/>
		<path id="Vector" d="M13.07 1.77L14.21 2.9L12.51 4.6L11.38 3.47L13.07 1.77Z" fill="#121212" fill-opacity="1.000000" fill-rule="nonzero"/>
	</g>
</svg>
