<svg width="10" height="11" viewBox="0 0 10 11" fill="none" xmlns="http://www.w3.org/2000/svg">
<path d="M4.99984 0.916626C4.09334 0.916626 3.2072 1.18543 2.45348 1.68906C1.69975 2.19268 1.11229 2.9085 0.765391 3.74599C0.41849 4.58349 0.327725 5.50504 0.504573 6.39412C0.681422 7.2832 1.11794 8.09988 1.75893 8.74087C2.39992 9.38186 3.2166 9.81838 4.10568 9.99522C4.99475 10.1721 5.91631 10.0813 6.75381 9.73441C7.5913 9.38751 8.30712 8.80005 8.81074 8.04632C9.31437 7.2926 9.58317 6.40646 9.58317 5.49996C9.58174 4.28482 9.09839 3.11987 8.23916 2.26064C7.37993 1.40141 6.21497 0.91806 4.99984 0.916626ZM6.54442 7.04454C6.46629 7.12266 6.36032 7.16654 6.24984 7.16654C6.13935 7.16654 6.03339 7.12266 5.95526 7.04454L4.70526 5.79454C4.62711 5.71642 4.5832 5.61046 4.58317 5.49996V2.99996C4.58317 2.88945 4.62707 2.78347 4.70521 2.70533C4.78335 2.62719 4.88933 2.58329 4.99984 2.58329C5.11035 2.58329 5.21633 2.62719 5.29447 2.70533C5.37261 2.78347 5.41651 2.88945 5.41651 2.99996V5.32746L6.54442 6.45538C6.62254 6.53351 6.66642 6.63947 6.66642 6.74996C6.66642 6.86044 6.62254 6.96641 6.54442 7.04454Z" fill="white"/>
</svg>
