<svg width="10" height="10" viewBox="0 0 10 10" fill="none" xmlns="http://www.w3.org/2000/svg">
<g opacity="0.5">
<path d="M9.13444 1H0.865589C0.724886 1.00006 0.586319 1.03539 0.461889 1.10293C0.337458 1.17047 0.230916 1.26818 0.151489 1.3876L4.28548 4.4016C4.49435 4.55337 4.74382 4.63486 4.99958 4.63486C5.25534 4.63486 5.50481 4.55337 5.71368 4.4016L9.84724 1.3876C9.76794 1.26836 9.6616 1.17077 9.53741 1.10324C9.41323 1.03571 9.27492 1.00028 9.13444 1Z" fill="#121212"/>
<path d="M6.07158 4.9195C5.75822 5.14761 5.38373 5.27011 4.99978 5.27011C4.61584 5.27011 4.24135 5.14761 3.92798 4.9195L0 2.05591V7.71901C0 7.95505 0.0911944 8.18143 0.253521 8.34834C0.415848 8.51525 0.636011 8.60901 0.865576 8.60901H9.13442C9.36399 8.60901 9.58415 8.51525 9.74648 8.34834C9.90881 8.18143 10 7.95505 10 7.71901V2.05591L6.07158 4.9195Z" fill="#121212"/>
</g>
</svg>
