<svg width="10" height="10" viewBox="0 0 10 10" fill="none" xmlns="http://www.w3.org/2000/svg">
<g opacity="0.5" clip-path="url(#clip0_1001_151)">
<path d="M8.61626 6.96006C8.01216 6.44337 7.39908 6.1304 6.8024 6.6463L6.44611 6.95811C6.18543 7.18445 5.70074 8.24201 3.82679 6.0863C1.95323 3.93332 3.06816 3.59811 3.32923 3.37372L3.68748 3.06152C4.28104 2.54445 4.05704 1.89352 3.62894 1.22347L3.3706 0.817618C2.94055 0.14913 2.47226 -0.289894 1.87713 0.226398L1.55557 0.507374C1.29255 0.698984 0.557329 1.32181 0.378987 2.50503C0.164353 3.92474 0.841427 5.5505 2.39265 7.3343C3.94191 9.11889 5.45879 10.0153 6.89567 9.99967C8.08982 9.98679 8.81099 9.34601 9.03655 9.11303L9.35928 8.83167C9.95284 8.31576 9.58406 7.7905 8.97957 7.27264L8.61626 6.96006Z" fill="#121212"/>
</g>
<defs>
<clipPath id="clip0_1001_151">
<rect width="10" height="10" fill="white"/>
</clipPath>
</defs>
</svg>
