<svg width="10" height="10" viewBox="0 0 10 10" fill="none" xmlns="http://www.w3.org/2000/svg">
<g opacity="0.5" clip-path="url(#clip0_967_3252)">
<path d="M8.61613 6.96006C8.01204 6.44337 7.39896 6.1304 6.80228 6.6463L6.44599 6.95811C6.1853 7.18445 5.70062 8.24201 3.82667 6.0863C1.95311 3.93332 3.06804 3.59811 3.32911 3.37372L3.68735 3.06152C4.28091 2.54445 4.05691 1.89352 3.62882 1.22347L3.37048 0.817618C2.94043 0.14913 2.47213 -0.289894 1.87701 0.226398L1.55545 0.507374C1.29243 0.698984 0.557207 1.32181 0.378865 2.50503C0.164231 3.92474 0.841304 5.5505 2.39252 7.3343C3.94179 9.11889 5.45867 10.0153 6.89555 9.99967C8.08969 9.98679 8.81086 9.34601 9.03643 9.11303L9.35916 8.83167C9.95272 8.31576 9.58394 7.7905 8.97945 7.27264L8.61613 6.96006Z" fill="white"/>
</g>
<defs>
<clipPath id="clip0_967_3252">
<rect width="10" height="10" fill="white"/>
</clipPath>
</defs>
</svg>
