<svg width="1391" height="1478" viewBox="0 0 1391 1478" fill="none" xmlns="http://www.w3.org/2000/svg">
<g opacity="0.03">
<path d="M1.61148 369.138C0.031991 339.973 1.75531 296.772 4.01405 261.484C5.16744 243.465 6.4593 227.526 7.51899 216.596C8.04916 211.128 8.52 206.928 8.88508 204.35C8.99966 203.541 9.10074 202.915 9.18597 202.468C72.6282 161.655 140.388 127.372 210.263 97.3625L210.134 97.8782L211.966 97.1219C383.007 26.5344 568.297 -6.02103 751.918 2.2633C695.517 27.5743 632.167 55.4846 566.627 84.3593C560.557 87.0338 554.467 89.7166 548.363 92.4064C506.039 110.971 463.007 129.888 420.53 148.705C336.587 185.783 254.757 222.309 184.831 254.75L184.818 254.756L184.804 254.763C119.484 287.448 58.9765 325.393 1.61148 369.138Z" stroke="white" stroke-width="2"/>
<path d="M360.178 773.188L360.163 773.197L360.148 773.207C279.902 826.738 214.178 898.434 167.788 982.046C142.089 936.487 119.805 890.328 100.118 842.459C199.2 696.093 364.145 609.579 525.273 545.541L525.291 545.534L525.309 545.526C528.806 543.978 532.365 542.405 535.979 540.808C545.084 536.785 554.541 532.606 564.256 528.272L565.118 527.888L564.784 527.005L517.163 401.193L516.788 400.204L515.822 400.633C499.723 407.777 483.688 414.867 468.043 421.785C450.561 429.514 433.567 437.028 417.519 444.16C279.438 499.606 147.092 577.304 48.4124 690.001C34.4297 638.571 23.5327 585.901 16.0111 534.886C136.794 418.739 298.86 349.399 455.864 282.225C460.247 280.35 464.626 278.477 469 276.604C512.266 258.097 555.041 239.635 596.359 220.264C596.435 220.237 596.5 220.211 596.549 220.192L596.556 220.189C596.62 220.163 596.658 220.148 596.702 220.134L596.741 220.121L596.778 220.105C616.955 211.504 662.086 191.303 708.807 170.391C712.807 168.601 716.819 166.805 720.828 165.011C771.673 142.256 822.027 119.765 842.038 111.448L842.05 111.443L842.062 111.437C942.949 66.2642 1061.41 113.45 1105.33 211.02L1105.33 211.028L1105.34 211.037C1148.34 302.018 1113.52 415.854 1025.91 467.004C985.279 487.509 914.216 518.529 851.36 545.966C815.417 561.656 782.157 576.174 758.808 586.884L758.802 586.887L758.795 586.89C752.239 590.017 745.633 593.143 738.927 596.27C700.982 613.837 660.858 630.839 620.238 648.052C617.138 649.366 614.034 650.681 610.928 651.998L610.927 651.998C524.022 688.919 435.216 726.933 360.178 773.188ZM643.55 344.083L642.687 344.467L643.021 345.351L690.642 471.163L691.016 472.151L691.982 471.723C728.302 455.632 763.613 439.994 794.384 426.374C797.471 425.03 801.734 423.123 806.21 421.12C812.548 418.285 819.315 415.257 823.783 413.364L823.843 413.338L823.899 413.305C835.887 406.258 853.501 399.425 872.965 391.875C873.98 391.481 874.999 391.086 876.023 390.688C896.649 382.68 919.039 373.848 938.593 363.146C958.131 352.452 974.966 339.825 984.367 324.163C993.814 308.426 995.691 289.734 985.529 267.152L985.525 267.143C976.134 246.807 963.262 235.689 948.336 230.887C933.457 226.1 916.685 227.636 899.555 232.294C882.419 236.954 864.814 244.77 848.225 252.656C844.22 254.56 840.277 256.467 836.414 258.335C824.24 264.222 812.863 269.724 802.858 273.539L802.833 273.549L802.808 273.56C782.127 282.736 758.095 293.365 733.474 304.254C702.611 317.903 670.824 331.962 643.55 344.083Z" stroke="white" stroke-width="2"/>
<path d="M882.364 975.073L882.364 975.072C968.572 936.887 1064.01 894.616 1136.9 862.331C1207.34 833.37 1273.56 795.21 1329.44 743.945C1305.16 819.997 1275.42 890.829 1236.61 962.829C1235 964.202 1231.39 966.315 1225.9 969.109C1220.3 971.959 1212.84 975.466 1203.79 979.547C1185.7 987.708 1161.27 998.147 1132.67 1010.19C1114.71 1017.76 1095.1 1025.95 1074.38 1034.61C1029.09 1053.54 978.485 1074.7 928.126 1096.33L927.247 1096.7L927.586 1097.6L976.215 1226.19L976.589 1227.17L977.556 1226.75C1017.82 1208.92 1057.38 1191.41 1089.9 1177.05C1071.18 1199.06 1051.43 1220.84 1030.36 1242.39L1030.36 1242.39C1019.12 1253.93 1007.63 1265.32 995.884 1276.46L995.882 1276.46C981.72 1289.97 967.258 1303.18 952.447 1316.04H952.41L952.127 1316.29C891.132 1369.57 824.992 1417.81 755.674 1460.41L755.665 1460.42C714.739 1486.21 674.699 1478.76 636.577 1459.37C617.506 1449.67 598.953 1436.99 581.053 1424.03C575.759 1420.19 570.518 1416.33 565.339 1412.51C553.09 1403.48 541.182 1394.7 529.704 1387.14C466.616 1294.85 496.608 1160.54 594.211 1104.27L594.268 1104.23L594.319 1104.19C594.666 1103.93 595.398 1103.49 596.542 1102.86C597.666 1102.25 599.137 1101.5 600.922 1100.61C604.489 1098.84 609.285 1096.55 615.015 1093.88C626.475 1088.55 641.654 1081.68 658.186 1074.29C687.538 1061.15 721.143 1046.36 745.753 1035.53C748.866 1034.16 751.835 1032.86 754.633 1031.62L754.635 1031.62C758.376 1029.97 761.815 1028.45 764.885 1027.1C772.477 1023.75 777.819 1021.4 779.918 1020.42C785.31 1018.03 790.827 1015.59 796.455 1013.1C823.051 1001.32 852.14 988.436 882.364 975.073ZM849.832 1283.29L850.69 1282.91L850.357 1282.03L801.727 1153.54L801.347 1152.54L800.372 1152.99C750.802 1175.92 707.177 1197.67 676.628 1216C661.361 1225.16 649.313 1233.49 641.418 1240.71C637.473 1244.32 634.52 1247.7 632.728 1250.8C631.006 1253.78 630.29 1256.62 630.959 1259.22C623.139 1285.6 633.936 1311.52 652.882 1327.82C671.893 1344.18 699.244 1350.98 724.482 1338.83C729.586 1336.58 745.379 1329.58 763.547 1321.53C792.815 1308.55 828.248 1292.84 835.092 1289.86L835.1 1289.85C837.038 1288.99 839.016 1288.11 841.021 1287.22C843.909 1285.94 846.856 1284.63 849.832 1283.29Z" stroke="white" stroke-width="2"/>
<path d="M706.204 903.981L706.204 903.981C661.225 923.95 618.314 942.959 592.03 954.512C468.347 998.738 374.292 1109.6 361.87 1240.79C323.784 1201.81 287.206 1158.8 255.737 1116.8C299.059 995.464 393.851 894.944 513.437 844.626L513.445 844.622L513.454 844.619C528.484 837.959 544.689 830.785 561.704 823.253C592.372 809.677 625.668 794.937 659.444 779.947C686.363 768.042 713.596 755.981 740.082 744.25C756.132 737.141 771.908 730.154 787.173 723.397L786.768 722.483L787.173 723.397C811.085 712.804 833.735 702.765 854.216 693.684L854.218 693.684C877.711 683.209 901.158 673.278 924.268 663.49C926.245 662.653 928.22 661.816 930.192 660.981C955.212 650.38 979.804 639.907 1003.58 629.056C1051.12 607.357 1095.42 584.13 1133.36 555.301C1171.31 526.464 1202.92 492.015 1225.04 447.874C1247.17 403.734 1259.8 349.955 1259.89 282.495V282.479L1259.89 282.462C1258 223.022 1238.98 163.006 1206.72 112.757C1268.51 138.826 1317.04 163.948 1347.7 180.913L1348.12 181.15L1348.57 180.958L1349.17 180.702C1356.63 185.069 1364.09 189.731 1371.51 194.369C1375.75 197.021 1379.98 199.665 1384.19 202.241L1384.24 202.531C1384.26 202.716 1384.3 202.935 1384.33 203.186C1384.47 204.099 1384.67 205.435 1384.9 207.127C1385.38 210.512 1386.01 215.32 1386.64 221.01L1386.64 221.038L1386.64 221.065C1418.1 408.157 1325.18 605.738 1159.74 699.916C1120.2 721.18 1066.28 745.314 1011.87 768.998C998.56 774.791 985.222 780.557 972.06 786.247C931.429 803.812 892.472 820.653 861.216 835.328C853.498 838.708 844.269 842.793 833.933 847.381C807.128 859.23 772.784 874.458 737.676 890.027C727.193 894.675 716.643 899.353 706.204 903.981Z" stroke="white" stroke-width="2"/>
</g>
</svg>
