<svg width="208" height="40" viewBox="0 0 208 40" fill="none" xmlns="http://www.w3.org/2000/svg">
<g clip-path="url(#clip0_582_2972)">
<path d="M64.3994 32.1164L62.9884 27.8986H53.6019L52.1908 32.1164H47.1602L55.335 8.65015H61.1019L69.3534 32.1164H64.3841H64.3994ZM55.0743 23.5274H61.516L58.2951 13.9416L55.0743 23.5274Z" fill="#00245E"/>
<path d="M71.5156 32.1165V7.63794H75.8715V32.1165H71.5156Z" fill="#00245E"/>
<path d="M98.3415 14.8771C100.289 14.8771 101.762 15.4752 102.897 16.7482C104.032 18.0212 104.645 19.693 104.645 21.7789V32.101H100.351V22.0396C100.351 21.0274 100.09 20.2298 99.6146 19.693C99.1391 19.1562 98.4029 18.8955 97.5287 18.8955C96.5164 18.8955 95.7802 19.2329 95.2434 19.9077C94.7066 20.5826 94.4458 21.5182 94.4458 22.7298V32.1163H90.1514V22.055C90.1514 21.0427 89.8906 20.2452 89.4152 19.7084C88.9397 19.1715 88.2035 18.9108 87.3293 18.9108C86.3937 18.9108 85.5808 19.2482 84.9826 19.9231C84.4458 20.5979 84.1851 21.5335 84.1851 22.7452V32.1317H79.8906V15.3679H84.1851V17.1163C85.1974 15.6439 86.7311 14.8311 88.8784 14.8311C90.9642 14.8311 92.4366 15.6286 93.4336 17.239C94.4458 15.69 96.1176 14.8924 98.3262 14.8924L98.3415 14.8771Z" fill="#00245E"/>
<path d="M121.072 15.3527H125.366V32.1165H121.072V30.1073C119.799 31.7178 117.912 32.592 115.565 32.592C113.357 32.592 111.409 31.7178 109.799 30.046C108.188 28.2975 107.391 26.227 107.391 23.7423C107.391 21.2576 108.188 19.1871 109.799 17.4386C111.409 15.6902 113.357 14.8159 115.565 14.8159C117.912 14.8159 119.722 15.6135 121.072 17.3006V15.3527ZM113.096 27.1625C113.97 28.0368 115.044 28.4969 116.378 28.4969C117.713 28.4969 118.863 28.0981 119.737 27.1625C120.611 26.2883 121.072 25.1533 121.072 23.7423C121.072 22.3313 120.596 21.1963 119.737 20.3834C118.863 19.5092 117.728 19.049 116.378 19.049C115.044 19.049 113.97 19.5245 113.096 20.3834C112.222 21.2576 111.823 22.3926 111.823 23.7423C111.823 25.0767 112.222 26.2883 113.096 27.1625Z" fill="#00245E"/>
<path d="M134.155 27.6838H143.066V32.1164H129.523V8.63477H134.155V27.6838Z" fill="#00245E"/>
<path d="M147.696 13.3281C146.96 13.3281 146.362 13.0673 145.825 12.5919C145.288 12.0551 145.027 11.4569 145.027 10.7207C145.027 9.98452 145.288 9.38636 145.825 8.84955C146.362 8.31274 146.96 8.052 147.696 8.052C148.432 8.052 149.03 8.31274 149.567 8.84955C150.104 9.38636 150.365 9.98452 150.365 10.7207C150.365 11.4569 150.104 12.0551 149.567 12.5919C149.03 13.0673 148.432 13.3281 147.696 13.3281ZM145.549 32.1011V15.3373H149.905V32.1011H145.549Z" fill="#00245E"/>
<path d="M163.111 14.8772C164.921 14.8772 166.47 15.4753 167.667 16.7483C168.878 17.96 169.476 19.6931 169.476 21.8403V32.1011H165.182V22.3158C165.182 21.1808 164.845 20.368 164.246 19.7698C163.648 19.1716 162.835 18.8342 161.838 18.8342C160.703 18.8342 159.829 19.1716 159.154 19.9078C158.48 20.644 158.142 21.6563 158.142 23.052V32.1011H153.848V15.3373H158.142V17.2084C159.216 15.6594 160.826 14.8618 163.111 14.8618V14.8772Z" fill="#00245E"/>
<path d="M184.246 15.3525H188.601V32.1163H184.246V30.2452C183.172 31.7943 181.562 32.5918 179.276 32.5918C177.467 32.5918 175.917 31.9936 174.721 30.7206C173.509 29.509 172.973 27.7759 172.973 25.6286V15.3679H177.328V25.0918C177.328 26.2268 177.589 27.101 178.203 27.7145C178.801 28.3127 179.614 28.5887 180.611 28.5887C181.746 28.5887 182.62 28.2513 183.295 27.5765C183.97 26.9016 184.307 25.828 184.307 24.417V15.3679H184.246V15.3525Z" fill="#00245E"/>
<path d="M207.988 32.1165H202.957L199.338 27.0091L195.641 32.1165H190.688L196.776 23.5275L190.887 15.3527H195.841L199.261 20.0459L202.62 15.3527H207.574L201.684 23.5275L207.988 32.1165Z" fill="#00245E"/>
<path d="M37.8512 22.5919C39.5996 22.4538 41.0107 23.6041 41.1334 25.3373C41.2714 27.1471 39.9984 28.6195 38.2499 28.7575C36.5782 28.8956 35.0904 27.6226 34.9677 25.9354C34.8297 24.1256 36.0413 22.7759 37.8512 22.5765V22.5919Z" fill="#85DA2F"/>
<path d="M16.6523 36.8712C16.6523 35.1227 17.9867 33.7883 19.5971 33.7883C21.2076 33.7883 22.7566 35.2607 22.7566 36.9478C22.7566 38.5583 21.4223 39.9693 19.8732 40.0307C17.9253 40.0307 16.6523 38.819 16.6523 36.8712Z" fill="#23C1FF"/>
<path d="M21.4096 17.2852C21.1336 17.4232 21.0109 17.2238 20.9342 17.0244C18.4495 12.3925 19.1857 6.56432 23.5569 3.08273C24.6918 2.14714 26.8391 1.94776 27.7747 2.88334C28.1734 3.22076 28.2501 3.61954 28.3115 4.095C28.4495 5.10727 28.6489 6.1042 29.3237 6.91708C30.0599 7.79132 30.9955 8.12874 32.0691 8.05205C33.0047 8.05205 33.9403 7.91401 34.5538 8.98763C34.8912 9.58579 34.7532 11.9324 34.2164 12.4079C33.9556 12.6073 33.7409 12.4692 33.5415 12.4079C31.9924 11.8097 30.382 11.8097 28.7869 12.0705C28.2501 12.1318 27.9894 12.0091 27.9894 11.3956C27.928 10.3833 27.7286 9.44776 27.1918 8.57352C26.1796 6.76371 24.3084 6.70236 23.0967 8.37414C22.0845 9.70849 21.8237 11.3189 21.5477 12.9294C21.2869 14.3404 21.3483 15.8128 21.4096 17.2852Z" fill="#FFCA11"/>
<path d="M23.0973 18.2973C22.9593 18.0979 23.036 17.8985 23.2354 17.7605C27.0544 14.2789 32.7599 13.6041 37.1771 17.0243C38.312 17.9599 39.0482 19.9077 38.4501 21.0427C38.1893 21.5182 37.8519 21.7176 37.4378 21.8403C36.5022 22.239 35.628 22.6378 35.0298 23.512C34.4317 24.3863 34.2936 25.3832 34.5544 26.4568C34.7538 27.3311 35.0912 28.2666 34.217 29.0795C33.7415 29.555 31.4716 29.9538 30.8581 29.555C30.5973 29.3556 30.6587 29.1562 30.72 28.8801C30.9194 27.2084 30.5206 25.6593 29.9225 24.1869C29.7231 23.6501 29.7844 23.3893 30.3212 23.2513C31.2568 22.9752 32.1311 22.5151 32.8059 21.8403C34.2783 20.4292 33.9409 18.6194 32.0084 17.8219C30.4593 17.147 28.8489 17.285 27.3151 17.4231C25.8427 17.4844 24.4317 17.8985 23.0973 18.2973Z" fill="#85DA2F"/>
<path d="M22.2225 20.0459C22.4219 19.8465 22.5599 19.9079 22.7593 20.0459C27.1918 22.7299 29.4618 28.0214 27.4526 33.1901C26.9157 34.5244 25.1673 35.8741 23.8943 35.5367C23.3575 35.3987 23.0967 35.1379 22.8207 34.8005C22.2225 34.003 21.5476 33.2514 20.5354 32.9293C19.4618 32.5919 18.5262 32.7913 17.5906 33.3281C16.793 33.8036 15.9802 34.4017 14.9679 33.8036C14.3697 33.4661 13.3575 31.3956 13.5568 30.7207C13.6949 30.46 13.9556 30.46 14.2317 30.46C15.9035 30.1993 17.2532 29.3864 18.5262 28.3128C18.9249 27.9753 19.2624 27.9753 19.5998 28.4508C20.1366 29.2484 20.8114 29.9232 21.6857 30.3987C23.4341 31.4109 25.1059 30.5367 25.3053 28.5275C25.5047 26.8557 24.9065 25.368 24.3697 23.8956C23.7716 22.5612 23.0354 21.2729 22.2225 20.0766V20.0459Z" fill="#23C1FF"/>
<path d="M20.0737 20.4446C19.813 21.7789 19.1995 23.0673 18.4019 24.2022C15.9939 27.8219 12.497 29.2943 8.20254 28.8955C6.65346 28.7575 5.38045 27.4845 5.25775 26.2115C5.1964 25.6746 5.3191 25.2759 5.65652 24.8771C6.13198 24.2789 6.53076 23.7421 6.73014 23.0059C7.12892 21.5335 6.59211 20.3219 5.51849 19.2483C4.04609 17.7759 4.24548 16.4262 5.99395 15.3526C6.19333 15.2145 6.46941 15.0918 6.73014 14.9538C7.12892 14.7544 7.46634 14.7544 7.60438 15.2145C8.20254 16.7636 9.41419 17.8986 10.7639 18.8342C11.2393 19.2329 11.2393 19.509 10.8252 19.9691C10.0277 20.8434 9.55223 21.917 9.49088 23.1286C9.35284 24.601 10.2271 25.5366 11.6995 25.5366C12.6351 25.5366 13.5093 25.1992 14.3222 24.8004C16.4081 23.7268 18.0032 22.1777 19.5522 20.5826C19.7516 20.5213 19.813 20.3832 20.089 20.4446H20.0737Z" fill="#0069DA"/>
<path d="M9.07975 6.36479C9.21778 6.36479 9.55521 6.42614 9.87729 6.50282C12.362 6.97828 13.8957 6.10405 14.7086 3.75742C15.2454 2.20834 16.3804 1.74822 17.8681 2.54577C17.9294 2.54577 17.9294 2.60712 18.0061 2.60712C19.5552 3.48135 19.5552 3.61939 18.6043 4.95374C17.8067 6.02736 17.3926 7.23902 17.1932 8.51202C17.0552 9.24822 16.7945 9.38626 16.1196 9.11018C15.046 8.71141 13.911 8.71141 12.7607 9.11018C11.4877 9.50896 10.9509 10.6593 11.3497 11.9323C11.8865 13.604 13.3589 14.3402 14.6319 15.2145C15.9049 16.0887 17.3773 16.5488 18.7883 17.1623C18.9877 17.2237 19.3251 17.2237 19.2638 17.5611C19.2024 17.7605 18.9264 17.7605 18.6656 17.7605C15.6442 17.8985 12.7607 17.4231 10.4141 15.4139C8.20551 13.604 6.59508 11.3955 6.85582 8.2973C7.05521 7.28503 7.7914 6.54883 9.06441 6.34945L9.07975 6.36479Z" fill="#FF4649"/>
<path d="M3.57176 25.1992C1.96133 25.3986 0.350902 24.0642 0.212865 22.3771C0.0748281 20.7667 1.42452 19.1562 2.95826 19.0182C4.70673 18.8188 6.31716 20.0305 6.43986 21.6409C6.50121 23.19 5.50428 25.0612 3.55642 25.1992H3.57176Z" fill="#0069DA"/>
<path d="M31.7468 1.33419C33.4186 1.19615 35.0291 2.54584 35.1671 4.21762C35.3051 5.82805 33.9554 7.37713 32.345 7.49983C30.5965 7.63787 29.0628 6.36486 28.9248 4.67774C28.7867 3.00596 29.9984 1.45688 31.7468 1.31885V1.33419Z" fill="#FFCA11"/>
<path d="M14.232 2.6072C14.4314 4.35567 13.2197 5.82806 11.4099 6.0888C9.86085 6.28819 8.25042 5.01518 8.05103 3.54279C7.85164 1.59493 8.92526 0.183891 10.7351 -0.0154951C12.4069 -0.214882 14.0173 1.05812 14.2167 2.6072H14.232Z" fill="#FF4649"/>
</g>
<defs>
<clipPath id="clip0_582_2972">
<rect width="208" height="40" fill="white"/>
</clipPath>
</defs>
</svg>
