<svg width="146" height="40" viewBox="0 0 146 40" fill="none" xmlns="http://www.w3.org/2000/svg">
<g clip-path="url(#clip0_582_2870)">
<path fill-rule="evenodd" clip-rule="evenodd" d="M127.074 12.862C127.074 12.862 128.669 12.7865 130.464 12.4608C131.912 12.1981 133.221 11.4531 133.221 11.4531V16.2845C133.221 16.2845 134.314 11.7249 139.515 11.7249C140.641 11.7249 145.505 11.4531 145.505 18.2097C145.505 18.5135 145.505 31.5958 145.505 33.1269C145.505 36.4254 146.214 37.5801 146.214 37.5801C146.214 37.5801 144.244 37.3605 142.769 37.3605C141.294 37.3605 140.045 37.5801 140.045 37.5801C140.045 37.5801 140.639 35.6342 140.639 30.6663C140.639 28.1053 140.639 23.3372 140.639 21.4609C140.639 19.5844 140.932 15.4731 137.519 15.4731C133.012 15.4731 133.307 21.1652 133.307 23.81C133.307 26.4545 133.307 32.1581 133.307 33.0509C133.307 36.2273 133.796 37.5801 133.796 37.5801C133.796 37.5801 132.33 37.4001 130.468 37.4001C128.606 37.4001 127.815 37.5801 127.815 37.5801C127.815 37.5801 128.492 36.5654 128.492 30.9785C128.492 25.3913 128.492 21.4609 128.492 19.3319C128.492 13.2337 127.074 12.862 127.074 12.862Z" fill="white"/>
<path fill-rule="evenodd" clip-rule="evenodd" d="M100.407 0.981138L104.334 4.90807L100.407 8.83496L96.4805 4.90807L100.407 0.981138Z" fill="#EC008C"/>
<path fill-rule="evenodd" clip-rule="evenodd" d="M103.003 32.8126C103.003 31.3122 103.003 17.0326 103.003 15.3535C103.003 13.6746 103.408 11.4531 103.408 11.4531C103.408 11.4531 102.359 12.0346 100.87 12.3884C99.3803 12.7425 96.7617 13.0191 96.7617 13.0191C96.7617 13.0191 98.2174 13.4957 98.2174 17.9856C98.2174 20.4505 98.2174 29.1868 98.2174 30.7385C98.2174 36.7422 97.3385 37.5801 97.3385 37.5801C97.3385 37.5801 99.2164 37.3544 100.787 37.3544C102.357 37.3544 103.872 37.5801 103.872 37.5801C103.872 37.5801 103.003 36.3029 103.003 32.8126Z" fill="white"/>
<path fill-rule="evenodd" clip-rule="evenodd" d="M108.157 17.8968C108.157 17.8968 108.061 17.0802 107.563 15.7214C107.063 14.3624 106.702 13.8992 106.702 13.8992C106.702 13.8992 110.148 11.7249 115.377 11.7249C121.988 11.7249 123.301 14.6888 123.301 19.281V32.2648C123.301 36.9844 124.289 37.5801 124.289 37.5801C124.289 37.5801 123.314 37.4283 121.721 37.4283C120.128 37.4283 118.823 37.5801 118.823 37.5801C118.823 37.5801 118.709 35.597 118.709 34.3539V32.6896C118.709 32.6896 117.229 37.7461 112.197 37.7461C107.166 37.7461 105.938 33.6815 105.938 30.0592C105.938 27.3467 106.384 21.4692 115.728 21.4692C117.933 21.4692 118.596 21.6112 118.596 21.6112V19.8018C118.596 18.6296 118.638 15.4361 114.782 15.4361C110.544 15.4361 108.157 17.8968 108.157 17.8968ZM115.546 24.3624H118.692C118.692 24.3624 119.366 33.6564 114.008 33.6564C112.505 33.6564 110.623 32.8263 110.623 29.2635C110.623 24.8591 114.169 24.3624 115.546 24.3624Z" fill="white"/>
<path fill-rule="evenodd" clip-rule="evenodd" d="M76.6554 10.8249V32.5753C76.6554 35.2239 76.1025 36.6834 76.1025 36.6834C76.1025 36.6834 78.7604 37.8538 82.9061 37.8538C91.2104 37.8538 94.9365 32.3573 94.9365 22.7776C94.9365 20.6804 94.8729 11.725 87.7229 11.725C82.7311 11.725 81.3175 17.3062 81.3175 17.3062V14.0063C81.3175 11.4027 81.7079 2.42911 81.7079 2.42911C81.7079 2.42911 80.5568 3.1259 78.4379 3.68947C76.3186 4.25304 74.8086 4.2809 74.8086 4.2809C74.8086 4.2809 76.6554 4.61518 76.6554 10.8249ZM81.4282 27.253C81.4282 30.2001 81.5575 34.611 81.5575 34.611C81.5575 34.611 83.1357 34.8628 83.7679 34.8628C89.4393 34.8628 89.9657 28.3073 89.9657 25.0803C89.9657 21.8533 89.6839 16.129 85.8411 16.129C81.1957 16.129 81.4282 24.3056 81.4282 27.253Z" fill="white"/>
<path fill-rule="evenodd" clip-rule="evenodd" d="M74.8512 32.9144C74.8512 32.9144 74.5608 34.1612 74.4451 35.3226C74.3301 36.4839 74.3823 37.1606 74.3823 37.1606C74.3823 37.1606 72.8251 37.8513 68.8819 37.8513C56.5876 37.8513 57.4669 26.0355 57.4669 24.3741C57.4669 22.7122 57.3523 11.7251 66.7994 11.7251C74.3208 11.7251 74.9305 18.1492 74.9305 22.2654C74.9305 24.9933 74.853 25.3791 74.853 25.3791H62.5015C62.5015 25.3791 61.618 34.2997 69.7262 34.2997C73.1583 34.2997 74.8512 32.9144 74.8512 32.9144ZM62.3833 22.1248H70.2801C70.2801 22.1248 71.1165 14.8187 66.5194 14.8187C61.884 14.8187 62.3833 22.1248 62.3833 22.1248Z" fill="white"/>
<path fill-rule="evenodd" clip-rule="evenodd" d="M55.7877 2.42894C55.7877 2.42894 55.2516 6.43408 55.2516 12.5668V27.4854C55.2516 35.955 56.4891 37.58 56.4891 37.58C56.4891 37.58 55.0302 37.4493 53.9594 37.4493C52.8891 37.4493 50.7598 37.58 50.7598 37.58L50.6537 33.5852C50.6537 33.5852 49.8066 37.7847 45.0834 37.7847C40.3598 37.7847 37.1602 33.3204 37.1602 24.3917C37.1602 20.2625 37.9309 11.7248 47.0187 11.7248C49.2305 11.7248 50.7241 12.4099 50.7241 12.4099V8.1068C50.7241 4.87187 49.4598 4.28072 49.4598 4.28072C49.4598 4.28072 51.4491 4.03215 53.2244 3.5168C54.9994 3.00108 55.7877 2.42894 55.7877 2.42894ZM50.5744 15.9966C50.5744 15.9966 49.2523 15.1396 47.5609 15.1396C42.2637 15.1396 42.093 21.0469 42.093 23.7382C42.093 26.4293 42.3684 33.5729 46.9162 33.5729C50.4569 33.5729 50.5916 30.1672 50.5916 25.3007L50.5744 15.9966Z" fill="white"/>
<path fill-rule="evenodd" clip-rule="evenodd" d="M24.0671 17.1187C24.0671 17.1187 24.2236 16.9413 24.2236 16.438C24.2236 15.9349 24.2154 15.865 24.1456 15.865C24.0753 15.865 23.9679 15.9761 23.9434 16.1453C23.9277 16.2513 23.832 16.3763 23.832 16.4504C23.832 16.5245 23.9639 16.5457 23.9639 16.6485C23.9639 16.9042 24.0671 17.1187 24.0671 17.1187Z" fill="#EC008C"/>
<path fill-rule="evenodd" clip-rule="evenodd" d="M18.8906 21.1929C18.8906 21.2984 19.3069 21.4076 19.6851 21.4998C20.0631 21.5919 19.9923 21.5167 20.1078 21.5612C20.2235 21.6053 20.2645 21.6636 20.3567 21.5713C20.4488 21.4792 21.0114 21.0326 20.9091 21.0326C20.8065 21.0326 20.6564 21.1624 20.2919 21.1624C19.6476 21.1624 19.4428 21.1318 19.2622 21.1318C19.0815 21.1318 18.8906 21.1572 18.8906 21.1929Z" fill="#EC008C"/>
<path fill-rule="evenodd" clip-rule="evenodd" d="M18.552 39.9998C18.552 39.9998 17.582 39.9844 16.9319 39.9844C16.2818 39.9844 16.087 39.9455 15.9247 39.9455C15.7627 39.9455 15.5954 39.9315 15.1716 39.8379C14.7479 39.744 14.3655 39.6055 14.0882 39.5201C13.8107 39.434 13.0578 39.1797 12.5465 39.0162C12.035 38.8523 10.6723 38.3897 9.8665 38.0483C9.06011 37.7065 7.85197 37.1483 6.84529 36.3347C5.83804 35.521 5.10043 34.8865 3.90779 33.3603C2.71512 31.834 2.04004 30.7082 1.55999 29.6326C1.0798 28.557 0.583844 26.9684 0.507394 25.3096C0.484654 24.8115 0.421876 22.9614 0.421876 21.5603C0.421876 20.1585 0.452708 19.702 0.429686 19.3527C0.406251 19.0035 0.390626 18.4002 0.390626 18.0664C0.390626 17.733 0.515347 15.8378 0.515347 15.4785C0.515347 15.3418 0.320312 15.0376 0.320312 14.9749C0.320312 14.9128 1.07799 12.473 1.29632 11.8757C1.51465 11.2787 1.98549 10.3261 2.09459 10.1094C2.20382 9.89276 2.23479 9.72101 2.23479 9.72101C2.23479 9.72101 2.31906 9.97687 2.42815 9.97687C2.53739 9.97687 2.7447 9.66997 2.8849 9.42036C3.02567 9.17079 3.18945 8.79983 3.2733 8.52083C3.35756 8.24165 3.48396 8.03451 3.54464 7.87072C3.60547 7.70708 3.7475 7.56644 3.81586 7.4123C3.88436 7.25797 3.90779 7.21126 3.99343 7.21126C4.07925 7.21126 4.0855 7.15672 4.21025 6.73886C4.33497 6.32104 4.50668 6.17458 4.59865 6.01065C4.69043 5.84687 5.13322 5.48204 5.36579 5.30444C5.59779 5.12658 5.99986 4.76972 6.22447 4.61554C6.44879 4.46126 6.96486 3.96547 7.2299 3.69404C7.49511 3.42297 7.56529 3.31369 7.56529 3.31369C7.56529 3.31369 7.60436 3.40904 7.60436 3.50869C7.60436 3.60833 7.61051 3.71583 7.7429 3.57726C7.87558 3.43833 8.27761 3.08119 8.55708 2.88012C8.83579 2.67904 9.29451 2.29904 9.71218 2.09761C10.13 1.89654 10.6864 1.64904 11.2757 1.43226C11.865 1.21547 12.5679 0.973686 12.9485 0.772617C13.329 0.571545 13.8171 0.377972 13.8171 0.377972C13.8171 0.377972 13.4477 0.750828 13.7642 0.680828C14.0805 0.61047 15.0017 0.284401 15.398 0.284401C15.6147 0.284401 15.7706 0.261185 15.7706 0.261185C15.7706 0.261185 15.4215 0.470116 15.2434 0.563686C15.0657 0.657261 14.8944 0.787971 14.8944 0.787971C14.8944 0.787971 15.6398 0.61047 15.8018 0.61047C15.9637 0.61047 16.0435 0.834759 16.3675 0.834759C16.6918 0.834759 17.119 0.749043 17.119 0.749043C17.119 0.749043 16.8538 0.874043 16.7309 0.874043C16.6077 0.874043 16.5593 0.944046 16.4283 0.9519C16.2973 0.959759 16.2973 1.0594 16.4906 1.06726C16.6839 1.07512 17.2129 1.09047 17.4058 1.09047C17.8236 1.09047 17.8627 0.764759 18.2259 0.764759C18.4272 0.764759 19.2641 1.06726 19.2641 1.06726L19.1412 0.649399C19.1412 0.649399 20.4429 1.16226 20.8919 1.23119C21.3408 1.2994 21.5593 1.36976 21.9771 1.57869C22.3949 1.78726 23.2771 2.24583 23.2771 2.24583C23.2771 2.24583 23.6437 2.26904 23.7511 2.23011C23.859 2.19118 23.921 1.96654 24.1378 1.96654C24.3545 1.96654 25.0903 2.2069 25.0903 2.39262C25.0903 2.57761 25.1275 2.66547 25.2291 2.72618C25.3304 2.7869 26.2455 3.37619 26.2455 3.37619C26.2455 3.37619 26.3686 3.29976 26.2147 3.18261C26.0601 3.06583 25.6875 2.64012 25.6875 2.64012C25.6875 2.64012 26.3001 3.0344 26.5558 3.15154C26.8114 3.26869 27.516 3.74726 27.9651 4.05726C28.4142 4.36751 29.0331 4.93947 29.4368 5.36694C29.8407 5.79397 30.6687 6.79958 31.0179 7.71487C31.367 8.63004 31.8002 9.96894 31.8002 9.96894C31.8002 9.96894 31.328 9.11012 31.2656 9.12558C31.2033 9.14122 31.5135 10.2653 31.5681 10.4195C31.6228 10.574 31.5681 10.574 31.5135 10.5973C31.459 10.6209 31.4044 10.658 31.498 10.7905C31.5915 10.9232 31.8566 11.7587 31.9563 12.1158C32.0561 12.473 32.2962 13.6655 32.2962 13.6655C32.2962 13.6655 32.0656 12.9018 31.9485 12.3967C31.8316 11.8914 31.6145 11.2938 31.459 10.8922C31.2189 10.2715 30.6469 9.44994 30.6469 9.44994C30.6469 9.44994 30.5827 9.90822 30.4517 9.90822C30.3207 9.90822 29.9343 9.40462 29.8097 9.40462C29.6849 9.40462 29.7921 9.62754 29.9326 10.2168C30.0731 10.8063 30.391 11.2492 30.3523 10.8922C30.3131 10.5349 30.2446 10.2715 30.391 10.5273C30.5377 10.7828 30.7073 11.1069 30.7073 11.2162C30.7073 11.3254 30.7153 11.7291 30.7778 11.8757C30.8399 12.0222 31.0801 12.9 31.0333 12.9529C30.9865 13.006 30.8789 12.9062 30.8011 12.6973C30.7232 12.4885 30.639 12.3248 30.5924 12.3248C30.5453 12.3248 30.4127 12.3106 30.5377 12.7129C30.6625 13.1153 30.7681 13.4791 30.9258 13.642C31.0834 13.8052 31.1431 13.7885 31.0834 13.8541C31.0236 13.9197 31.0396 13.9197 30.9961 13.8651C30.9524 13.8106 30.8659 13.8003 30.8659 14.1805C30.8659 14.5612 30.9524 15.4046 31.0508 15.4046C31.1487 15.4046 31.2196 15.1488 31.3606 15.1488C31.5022 15.1488 31.4152 15.1765 31.339 15.508C31.2625 15.8395 31.1487 15.8994 31.0668 16.1225C30.9854 16.3455 30.8004 16.4703 30.8004 16.8948C30.8004 17.3195 30.9258 17.6457 30.9258 17.6457C30.9258 17.6457 30.7839 17.39 30.7404 17.2107C30.6967 17.0313 30.6099 17.0257 30.6099 16.9493C30.6099 16.7975 30.5501 16.8519 30.5501 17.0203C30.5501 17.2978 30.5174 17.298 30.5174 17.3469C30.5174 17.3955 30.6046 17.3399 30.6046 17.4604C30.6046 17.5808 30.648 17.5313 30.648 17.6513C30.648 17.771 30.648 17.9067 30.648 17.9502C30.648 17.9939 30.5174 17.7923 30.5174 17.6403C30.5174 17.4882 30.5389 17.3192 30.452 17.4172C30.3651 17.5153 30.327 17.6076 30.327 17.6076C30.327 17.6076 30.327 18.0217 30.327 18.3315C30.327 18.6411 30.2563 19.1154 30.055 19.3923C29.8539 19.6693 29.7129 19.816 29.6419 19.9413C29.571 20.0666 29.2373 20.4207 29.2171 20.7026C29.1901 21.0839 29.2171 21.4209 29.2171 21.4209L28.8203 20.8281C28.8203 20.8281 28.516 21.2199 28.358 21.4864C28.1999 21.7525 28.0913 21.9322 28.0913 21.9921C28.0913 22.0522 28.0963 22.0522 28.1783 22.0522C28.2599 22.0522 28.4828 21.9374 28.4828 22.0522C28.4828 22.1666 28.0587 22.993 28.0587 22.8734C28.0587 22.8298 28.2755 22.5745 28.1674 22.5745C28.0587 22.5745 27.9661 22.6285 28.0206 22.5309C28.075 22.4329 28.2818 22.1776 28.2818 22.1776C28.2818 22.1776 28.0416 22.2373 27.8242 22.4548C27.6073 22.6723 27.4768 22.8545 27.3612 22.97C27.2451 23.086 27.2291 23.1021 27.0973 23.2177C26.9655 23.3338 26.698 23.5415 26.5342 23.6889C26.3704 23.8371 25.5633 24.4163 25.1156 24.7523C24.6683 25.0874 23.7214 25.7744 22.7149 25.9981C21.7079 26.2223 21.2444 26.2341 20.9212 26.2341C20.5975 26.2341 19.6706 26.2143 17.8051 25.5631C16.8817 25.2407 16.6652 25.1659 16.6652 25.1391C16.6652 25.1122 16.7128 25.1289 16.7128 25.1038C16.7128 25.0789 16.5315 24.9557 16.2387 24.7251C15.9457 24.4943 15.1765 23.8868 14.956 23.7192C14.7356 23.5512 14.1837 23.1008 14.0223 22.9735C13.8609 22.8463 13.1684 22.1744 13.1684 22.1744L13.3083 22.6215C13.3083 22.6215 13.2585 22.5909 13.1507 22.3816C13.0431 22.1723 12.7595 21.6715 12.6178 21.4054C12.476 21.1393 12.1424 20.5876 12.1424 19.9368C12.1424 18.3509 12.3629 17.149 12.3629 16.6204C12.3629 16.4617 12.4081 16.3852 12.5597 16.2471C12.7116 16.109 12.7913 15.9402 12.857 15.5631C12.9224 15.1864 13.0304 14.4988 13.2506 14.2465C13.5338 13.9219 13.9244 13.7287 13.9798 13.6041C14.0349 13.4795 14.4708 12.6362 14.6225 12.4845C14.7743 12.3326 14.958 12.1186 15.1095 12.0012C15.2614 11.8834 15.3891 11.8209 15.5793 11.6831C15.7693 11.545 16.1911 11.3517 16.4743 11.2375C16.7575 11.1234 17.8668 11.0267 18.1709 11.0267C18.475 11.0267 19.3592 11.0267 19.6321 11.0267C19.905 11.0267 20.5688 11.1337 21.042 11.4169C21.5156 11.7002 21.8329 11.9938 22.0231 12.1631C22.2132 12.3326 22.5039 12.6887 22.6141 12.8198C22.7245 12.9509 22.9494 13.2309 22.9494 13.2309C22.9494 13.2309 22.6314 12.9788 22.3585 12.7507C22.0855 12.5226 21.6187 12.1317 21.2109 11.942C20.8039 11.7523 20.0578 11.5519 19.4872 11.5519C18.917 11.5519 18.3743 11.6415 17.8943 11.8487C17.4145 12.0563 16.772 12.3155 16.1394 12.6573C15.5067 12.999 15.0442 13.2519 14.6675 13.6076C14.2906 13.9633 13.7485 14.7514 13.5654 15.3351C13.3821 15.919 13.3234 16.2023 13.3234 16.4302C13.3234 16.6582 13.3234 16.997 13.3234 17.1939C13.3234 17.3911 13.3544 17.443 13.3544 17.65C13.3544 17.8572 13.3544 18.0233 13.3544 18.1543C13.3544 18.2856 13.3921 18.2376 13.4064 18.1683C13.4199 18.0991 13.5096 18.1577 13.5096 18.0921C13.5096 18.0265 13.5824 17.8017 13.5824 18.0575C13.5824 18.3132 13.6289 20.0093 13.8263 20.9827C14.024 21.9559 14.6345 23.0279 15.7153 23.8524C16.7953 24.6772 18.1238 25.2545 19.0141 25.2545C20.1441 25.2545 22.3217 24.2899 22.3217 24.2899C22.3217 24.2899 22.3391 24.3884 22.4152 24.3884C22.4914 24.3884 22.7426 24.3046 23.1183 24.1807C23.4937 24.0568 23.6536 24.0367 23.7374 23.8769C23.8213 23.7173 23.7654 23.709 23.8774 23.5975C23.9891 23.4855 24.5565 22.9982 24.6084 23.0101C24.6601 23.0221 24.5964 23.1458 24.4245 23.2778C24.2528 23.4098 24.0171 23.5575 24.2927 23.5575C24.7 23.5575 25.4951 22.7824 26.0305 22.291C26.5659 21.7998 26.7778 21.6041 26.9136 21.52C27.0494 21.4361 27.0853 21.3085 27.1334 21.1762C27.1812 21.0445 27.2532 20.8569 27.1851 20.8569C27.117 20.8569 26.9614 20.8646 27.0214 20.7251C27.0812 20.5851 27.3051 20.0459 27.377 20.0459C27.4488 20.0459 27.5527 20.0099 27.6007 19.9381C27.6489 19.8661 27.9562 19.8701 27.9562 19.6903C27.9562 19.5105 28.1918 19.0673 28.3359 18.7315C28.4796 18.3958 28.5356 18.268 28.5356 18.1524C28.5356 18.0364 28.5356 17.2574 28.5356 17.2574L28.1521 18.1881C28.1521 18.1881 28.5593 16.9018 28.5593 16.1908C28.5593 15.8032 28.4396 14.9324 28.4396 14.537C28.4396 14.1414 28.4718 13.9936 28.4718 13.7859C28.4718 13.578 28.4837 13.4663 28.4316 13.4663C28.3799 13.4663 28.3399 13.4382 28.3399 13.3304C28.3399 13.2227 28.224 12.0041 28.1918 11.7364C28.1599 11.4687 27.9683 10.3142 27.6805 9.77112C27.5034 9.43629 27.3571 9.12379 26.8576 8.40476C26.3584 7.68558 26.0425 7.31812 25.4753 6.80669C24.9081 6.29536 24.6404 6.07565 23.7614 5.58833C22.8827 5.10104 22.1396 4.7414 21.736 4.57761C21.3326 4.41368 20.3858 4.04618 19.8623 3.95047C19.339 3.8544 18.3523 3.74654 17.6691 3.74654C16.9859 3.74654 16.4227 3.8344 16.1909 3.9144C15.9594 3.99404 15.9233 4.03405 15.8675 4.03405C15.7635 4.03405 15.8555 4.1419 15.7714 4.1419C15.6698 4.1419 15.4958 4.18619 15.2839 4.25797C15.0724 4.32997 14.8767 4.43769 14.8767 4.43769C14.8767 4.43769 14.8128 4.36194 15.2521 4.22583C15.5851 4.12297 15.7753 4.08619 15.7753 4.03833C15.7753 3.99012 15.6797 3.99833 15.6315 3.99833C15.5837 3.99833 14.9964 4.0744 14.4611 4.13833C13.9259 4.2019 13.4221 4.33794 13.4221 4.5458C13.4221 4.7534 13.3306 4.89737 12.7592 5.10104C12.1879 5.30472 11.7365 5.35661 11.6646 5.42443C11.5926 5.49236 11.4647 5.69604 11.4647 5.69604C11.4647 5.69604 11.5918 5.70343 12.072 5.52444C12.6833 5.29662 12.7592 5.18069 12.7592 5.2608C12.7592 5.34058 12.0642 5.82801 11.357 5.82801C11.0092 5.82801 10.7977 5.76022 10.6378 5.76022C10.4781 5.76022 10.3103 5.85608 9.72697 6.38326C9.14368 6.91061 8.97197 7.11833 8.97197 7.11833C8.97197 7.11833 9.02761 7.20636 9.13143 7.20636C9.23551 7.20636 9.51925 6.95454 9.60311 6.84254C9.68722 6.73079 9.85172 6.65754 9.62318 6.90251C9.23551 7.31812 9.29158 7.35411 9.22365 7.35411C9.15568 7.35411 9.03183 7.35411 8.82018 7.35411C8.60825 7.35411 7.7535 7.38997 6.78683 8.38479C5.82004 9.37937 4.99679 10.2503 4.53754 10.9375C4.07786 11.6246 4.054 11.7285 3.946 11.8443C3.83843 11.9602 3.80665 11.9722 3.80665 11.9722L4.22183 12.0041C4.22183 12.0041 3.94225 12.6873 3.71847 13.2104C3.4947 13.734 3.31892 13.7978 3.12709 14.1454C2.93555 14.493 2.76367 14.9045 2.71568 15.6316C2.66783 16.3587 2.5438 17.3494 2.48005 17.8606C2.41601 18.3721 2.26423 19.1831 2.20452 19.7023C2.14453 20.2217 2.13253 20.5093 2.13253 20.8247C2.13253 21.1406 2.20034 21.6476 2.50781 22.1073C2.81571 22.5669 2.87933 22.6467 2.87933 22.7422C2.87933 22.8383 2.83552 22.9261 2.83552 23.1779C2.83552 23.4297 2.80371 23.7531 2.80371 23.7531C2.80371 23.7531 2.94894 23.8714 3.00321 24.0889C3.05929 24.3124 3.23089 24.5201 3.23089 24.5201H2.9873C2.9873 24.5201 3.74261 26.8651 3.92618 26.8651C4.11008 26.8651 4.19393 25.7867 4.40961 25.7867C4.52554 25.7867 4.62515 25.9981 4.73704 26.2143C4.84918 26.4299 5.10575 26.993 5.24065 27.3206C5.54825 28.0677 5.696 28.2358 5.60797 28.2274C5.52008 28.2193 5.19672 28.1035 5.06068 27.8919C4.92493 27.6805 4.905 27.6083 4.905 27.8521C4.905 28.0956 4.98493 28.0879 4.98493 28.1995C4.98493 28.3114 5.11718 28.3809 5.23675 28.6469C5.37625 28.9588 5.59236 29.2382 5.71204 29.4021C5.83175 29.5656 5.95968 29.6539 5.89161 29.7295C5.82379 29.8055 5.7839 29.8055 5.7839 29.8572C5.7839 29.9095 5.67997 29.9057 5.68415 29.9653C5.68808 30.0253 5.91575 30.4247 6.12347 30.5726C6.33133 30.7205 6.51897 30.8561 6.51897 30.8561C6.51897 30.8561 6.07158 30.6563 6.01954 30.6563C5.96779 30.6563 5.81165 30.6326 5.91197 30.8041C6.01172 30.976 6.94254 32.1748 7.20243 32.4939C7.46165 32.8138 7.84543 33.3889 7.84543 33.3889L8.04911 33.0491C8.04911 33.0491 8.04911 33.4007 8.04911 33.4848C8.04911 33.5688 8.36843 34.0801 8.41268 34.1559C8.45661 34.2319 8.4845 34.2758 8.5364 34.3396C8.58843 34.4038 8.67229 34.4756 8.72418 34.5475C8.77622 34.6193 8.87597 34.7474 8.94783 34.839C9.01968 34.9308 9.01575 35.0106 9.15568 35.0106C9.29533 35.0106 9.32365 34.9709 9.49136 34.9709C9.6589 34.9709 9.65515 34.9667 9.69504 35.0748C9.73508 35.1826 9.87222 35.4299 10.0625 35.5823C10.1024 35.6144 10.1864 35.7415 10.2461 35.7859C10.3065 35.8301 10.3701 35.8658 10.4099 35.9215C10.4502 35.9776 10.5779 36.0694 10.5779 36.0694C10.5779 36.0694 10.6576 36.1133 10.7337 36.1575C10.8097 36.2015 10.9372 36.3015 11.0291 36.3015C11.1214 36.3015 11.297 36.285 11.2252 36.3734C11.1532 36.4613 10.8738 36.7687 10.9372 36.7848C11.0014 36.8001 11.9201 37.0765 11.9201 37.1804C11.9201 37.2397 11.8562 37.2079 11.8562 37.3198C11.8562 37.432 12.2118 37.508 12.3637 37.5837C12.5154 37.6598 13.2186 37.9551 13.1228 37.8473C13.0269 37.7394 12.831 37.3601 12.8432 37.3322C12.8553 37.3037 13.2745 37.7873 13.3864 37.8434C13.4982 37.899 13.5702 38.0508 13.6701 38.1827C13.7699 38.315 13.9538 38.5861 14.2213 38.7505C14.4891 38.9141 14.7966 39.1536 16.2469 39.6008C16.6056 39.7119 16.9381 39.6211 17.2896 39.6887C17.6413 39.7569 18.552 39.9998 18.552 39.9998Z" fill="#EC008C"/>
<path fill-rule="evenodd" clip-rule="evenodd" d="M22.168 20.0944C22.168 20.0337 22.2 20.0344 22.2 19.9649C22.2 19.8954 22.4478 19.5913 22.683 19.3073C22.9185 19.0234 23.093 18.7798 23.093 18.7798C23.093 18.7798 22.9838 19.1983 22.8051 19.4173C22.6265 19.6358 22.29 20.0864 22.31 20.0986C22.3305 20.111 22.5003 20.0344 22.7397 19.908C22.9794 19.7822 23.0305 19.7617 23.227 19.4822C23.495 19.1002 23.6493 18.5563 23.6493 18.5563C23.6493 18.5563 23.4868 19.401 23.2514 19.7294C23.016 20.0581 23.0319 19.9686 22.959 20.111C22.8861 20.253 22.8376 20.3102 22.8536 20.1884C22.87 20.0662 22.8209 19.9771 22.7277 19.9771C22.517 19.9771 22.2816 20.2372 22.2816 20.1679C22.2816 20.05 22.168 20.1553 22.168 20.0944Z" fill="#EC008C"/>
<path fill-rule="evenodd" clip-rule="evenodd" d="M30.6221 17.9796C30.58 17.9796 30.5997 18.0405 30.5997 18.1188C30.5997 18.1972 30.3332 19.0945 30.3175 19.1549C30.3018 19.2153 30.3213 19.2894 30.4002 19.0604C30.479 18.8317 30.6694 18.2549 30.6694 18.0959C30.6694 18.0176 30.6651 17.9796 30.6221 17.9796Z" fill="#EC008C"/>
<path fill-rule="evenodd" clip-rule="evenodd" d="M31.3315 18.067C31.2757 18.067 31.2301 18.3028 31.172 18.7197C31.1139 19.1367 31.0695 19.3904 30.9906 19.6686C30.9117 19.9467 30.7659 20.4333 30.6628 20.6933C30.5599 20.9536 30.0195 22.0591 30.0195 22.0591C30.0195 22.0591 30.3244 21.6015 30.5622 21.0924C30.8 20.5834 30.9258 20.182 30.995 19.9467C31.0646 19.7112 31.1858 19.1685 31.2083 18.9754C31.2306 18.7824 31.2889 18.3812 31.3246 18.231C31.3604 18.0804 31.3874 18.067 31.3315 18.067Z" fill="#EC008C"/>
<path fill-rule="evenodd" clip-rule="evenodd" d="M0.0553852 13.0115C0.0553852 13.0115 0.282227 12.6063 0.343332 12.15C0.404297 11.6931 0.465679 11.5579 0.465679 11.5579C0.465679 11.5579 -0.00390625 12.0964 -0.00390625 12.2639C-0.00390625 12.5292 0.107003 12.4313 0.107003 12.6034C0.107003 12.9168 0.0553852 13.0115 0.0553852 13.0115Z" fill="#EC008C"/>
<path fill-rule="evenodd" clip-rule="evenodd" d="M0.753906 9.70006C0.753906 9.74792 0.88351 9.70385 0.982006 9.61735C1.08078 9.53099 1.13323 9.46499 1.10784 9.44435C1.08315 9.42399 1.07436 9.40795 1.03055 9.46042C0.986888 9.5127 0.84096 9.62195 0.809153 9.63799C0.777346 9.65363 0.753906 9.65224 0.753906 9.70006Z" fill="#EC008C"/>
<path fill-rule="evenodd" clip-rule="evenodd" d="M1.10156 9.40037C1.11537 9.41166 1.2207 9.3433 1.30022 9.29337C1.38016 9.24327 1.42118 9.13866 1.47098 8.98995C1.52121 8.84109 1.66546 8.58773 1.66057 8.50805C1.65625 8.42855 1.54618 8.51045 1.51465 8.54909C1.48256 8.58773 1.39593 8.62512 1.36189 8.67716C1.32784 8.72973 1.20633 8.80691 1.20633 8.7388C1.20633 8.67059 1.14899 8.63012 1.20633 8.86173C1.23117 8.96244 1.17467 9.08409 1.17467 9.18662C1.17467 9.34109 1.10156 9.40037 1.10156 9.40037Z" fill="#EC008C"/>
<path fill-rule="evenodd" clip-rule="evenodd" d="M12.0967 22.0125L11.9492 22.5031C11.9492 22.5031 12.1632 22.7588 12.3566 23.0565C12.5498 23.3533 12.698 23.6156 12.758 23.6924C12.8179 23.7694 13.0405 23.9791 13.1112 24.0456C13.1821 24.1121 13.2902 24.1956 13.2902 24.1956C13.2902 24.1956 13.0886 23.7733 12.993 23.6091C12.8969 23.4447 12.7684 23.2657 12.5748 22.9714C12.2425 22.4658 12.0967 22.0125 12.0967 22.0125Z" fill="#EC008C"/>
<path fill-rule="evenodd" clip-rule="evenodd" d="M12.8945 22.7547C12.8945 22.7547 13.2143 23.2312 13.3312 23.4118C13.4479 23.5924 13.8401 24.1981 14.0772 24.4972C14.3147 24.796 14.6554 25.1766 14.9526 25.3991C15.25 25.6214 16.1436 26.1602 16.412 26.2907C16.68 26.4216 17.0981 26.5841 17.5262 26.7399C17.9541 26.8959 18.2164 26.9896 18.4054 27.0291C18.5943 27.0682 19.1369 27.1138 19.2577 27.1138C20.393 27.1138 21.638 26.5648 21.638 26.5648C21.638 26.5648 20.7733 26.5938 20.3676 26.5938C19.9621 26.5938 18.9688 26.5464 18.2264 26.2576C17.4845 25.9684 17.3636 25.883 17.2331 25.7982C17.1021 25.7128 16.595 25.3641 16.595 25.2597C16.595 25.1559 16.6426 25.1559 16.6426 25.1559C16.6426 25.1559 16.5451 25.1248 16.5451 25.2638C16.5451 25.3574 16.5741 25.3867 16.5741 25.3867C16.5741 25.3867 16.4841 25.4096 15.9045 25.0825C14.7262 24.4178 14.0815 23.4927 14.0815 23.4927C14.0815 23.4927 14.1589 23.8002 14.5786 24.2678C14.9985 24.736 15.3598 25.0002 15.3598 25.0002C15.3598 25.0002 14.811 24.7667 14.6511 24.6361C14.4911 24.5054 14.1106 24.0746 13.934 23.8357C13.7574 23.5966 13.5934 23.3886 13.5434 23.3077C13.4936 23.2268 13.4392 23.1615 13.3934 23.1022C13.1711 22.8131 12.8945 22.7547 12.8945 22.7547Z" fill="#EC008C"/>
<path fill-rule="evenodd" clip-rule="evenodd" d="M16.8359 0.531661C16.8359 0.531661 17.0714 0.514161 17.3784 0.514161C17.6855 0.514161 18.0807 0.540589 17.8675 0.598089C17.6543 0.655946 17.5009 0.722731 17.5009 0.722731C17.5009 0.722731 17.3251 0.77166 17.3251 0.718088C17.3251 0.664874 17.5053 0.780231 17.5053 0.664874C17.5053 0.584874 16.8359 0.531661 16.8359 0.531661Z" fill="#EC008C"/>
<path fill-rule="evenodd" clip-rule="evenodd" d="M16.668 0.149028C16.668 0.180099 16.8679 0.140099 16.8679 0.175814C16.8679 0.211171 16.9104 0.193314 17.0169 0.166885C17.1235 0.140099 17.6331 0.0468811 17.4527 0.0511668C17.2726 0.0558097 17.1085 0.100095 16.977 0.104738C16.8455 0.109024 16.668 0.117957 16.668 0.149028Z" fill="#EC008C"/>
<path fill-rule="evenodd" clip-rule="evenodd" d="M17.7032 0.0426304C17.7654 0.0601304 18.1143 0.08263 18.1231 0.06013C18.1322 0.0379871 18.4262 0.0337018 18.2504 0.00691607C18.0743 -0.0195125 18.1305 0.0337016 17.95 0.0290588C17.7698 0.024773 17.6414 0.0247732 17.7032 0.0426304Z" fill="#EC008C"/>
</g>
<defs>
<clipPath id="clip0_582_2870">
<rect width="146" height="40" fill="white"/>
</clipPath>
</defs>
</svg>
