<svg width="182" height="40" viewBox="0 0 182 40" fill="none" xmlns="http://www.w3.org/2000/svg">
<path fill-rule="evenodd" clip-rule="evenodd" d="M34.1031 25C34.6438 23.4516 34.9375 21.7812 34.9375 20.0469C34.9375 11.7656 28.2188 5.04688 19.9375 5.04688C11.6562 5.04688 4.9375 11.7656 4.9375 20.0469C4.9375 24.1406 6.57812 27.8594 9.25 30.5625L24.4688 15.3437L34.1094 24.9844L34.1031 25ZM31.3688 29.7656L24.4625 22.8594L13.65 33.6719C15.5562 34.5547 17.6813 35.0469 19.9313 35.0469C24.5094 35.0469 28.6031 33 31.3531 29.7656H31.3688Z" fill="#10B981"/>
<path d="M44.1023 27.8125V12.0312H51.7898C52.5852 12.0312 53.3117 12.1512 53.9773 12.3906C54.6523 12.6312 55.2305 12.9687 55.7117 13.4031C56.1914 13.8234 56.5664 14.3328 56.8367 14.9328C57.107 15.5328 57.2414 16.1922 57.2414 16.9172C57.2414 17.9078 56.957 18.7922 56.3867 19.5734C55.832 20.3531 55.0898 20.9312 54.1523 21.3078L57.6367 27.7922H53.9961L50.918 21.7609H47.3555V27.7922H44.0898L44.1023 27.8125ZM51.5086 14.875H47.368V19.1094H51.5086C52.243 19.1094 52.8289 18.9141 53.2586 18.525C53.7086 18.1344 53.9336 17.625 53.9336 16.9953C53.9336 16.3656 53.7086 15.8547 53.2586 15.4656C52.8242 15.075 52.2383 14.8812 51.5086 14.8812V14.875ZM57.9461 21.9687C57.9461 21.1141 58.1039 20.3125 58.418 19.5781C58.7477 18.8281 59.1898 18.1828 59.7461 17.6406C60.3164 17.0859 60.9836 16.65 61.7461 16.3359C62.5086 16.0219 63.3242 15.8641 64.1992 15.8641C65.0742 15.8641 65.8867 16.0219 66.6523 16.3359C67.418 16.65 68.0773 17.0859 68.6367 17.6406C69.207 18.1812 69.6492 18.825 69.9648 19.5781C70.2945 20.3125 70.4602 21.1078 70.4602 21.9687C70.4602 22.8297 70.2945 23.625 69.9648 24.375C69.6492 25.1094 69.207 25.7469 68.6367 26.2812C68.082 26.8219 67.4211 27.2484 66.6523 27.5641C65.8836 27.8797 65.0742 28.0359 64.1992 28.0359C63.3242 28.0359 62.5117 27.8781 61.7461 27.5641C60.9805 27.25 60.3133 26.8219 59.7461 26.2812C59.1914 25.7406 58.7492 25.1031 58.418 24.375C58.1023 23.625 57.9461 22.8219 57.9461 21.9687ZM64.1961 25.3594C65.0961 25.3594 65.868 25.0297 66.493 24.3687C67.118 23.7078 67.4383 22.9062 67.4383 21.9625C67.4383 21.0031 67.1227 20.1969 66.493 19.525C65.8633 18.8531 65.0977 18.5344 64.1961 18.5344C63.2945 18.5344 62.5242 18.8641 61.8992 19.525C61.2742 20.1859 60.9539 20.9953 60.9539 21.9625C60.9539 22.9078 61.2695 23.7125 61.8992 24.3687C62.5289 25.025 63.2945 25.3594 64.1961 25.3594ZM78.1648 25.3369C78.6898 25.3369 79.1773 25.2319 79.6273 25.0212C80.093 24.8119 80.5352 24.4806 80.9555 24.0306L82.7992 25.9369C82.1992 26.5962 81.4789 27.115 80.643 27.49C79.8023 27.8494 78.9398 28.0306 78.0336 28.0306C77.1789 28.0306 76.3617 27.8728 75.5961 27.5587C74.8461 27.2431 74.193 26.8166 73.643 26.2759C73.1023 25.7353 72.6758 25.0978 72.3602 24.3697C72.0445 23.6197 71.8883 22.8166 71.8883 21.9634C71.8883 21.1103 72.0461 20.3072 72.3602 19.5728C72.6758 18.8228 73.1023 18.1775 73.643 17.6353C74.1977 17.0806 74.8508 16.6447 75.5961 16.3306C76.3617 16.015 77.1742 15.8587 78.0336 15.8587C78.9633 15.8587 79.8617 16.0462 80.7055 16.4212C81.5602 16.7806 82.2836 17.2916 82.893 17.9509L81.0023 19.9509C80.582 19.4853 80.132 19.1337 79.6523 18.8931C79.1727 18.6525 78.6555 18.5337 78.0992 18.5337C77.2148 18.5337 76.4586 18.8634 75.8492 19.5244C75.2492 20.1837 74.9492 20.9947 74.9492 21.9619C74.9492 22.9291 75.257 23.7275 75.8711 24.3681C76.5008 25.0134 77.2664 25.3353 78.168 25.3353L78.1648 25.3369ZM84.3992 27.8056V12.0244L87.4773 11.3494V21.0056L92.5398 16.0525H96.0242L90.5398 21.4275L96.368 27.7712H92.4305L87.4773 22.4119V27.7712H84.3992V27.8056ZM100.649 28.3462L100.829 27.9181L96.2664 16.09H99.657L102.563 24.0744L105.891 16.09H109.22L103.813 28.7306C103.213 30.14 102.516 31.1525 101.72 31.7462C100.923 32.34 99.8914 32.6462 98.6101 32.6462C98.3398 32.6462 98.0773 32.6312 97.8227 32.6012C97.582 32.5862 97.3883 32.5562 97.2383 32.5112V29.855C97.3883 29.885 97.5461 29.9075 97.7102 29.9225C97.8742 29.9375 98.0773 29.945 98.318 29.945C98.8727 29.945 99.3383 29.81 99.7133 29.5403C100.104 29.27 100.41 28.8731 100.635 28.3481L100.649 28.3462ZM115.352 27.8056V12.0244H117.087V26.2275H126.462V27.7806H115.352V27.8056ZM129.446 14.3681C129.146 14.3681 128.884 14.2556 128.659 14.0306C128.434 13.8056 128.321 13.5431 128.321 13.2431C128.321 12.9275 128.434 12.665 128.659 12.4556C128.884 12.2306 129.146 12.1181 129.446 12.1181C129.762 12.1181 130.024 12.2306 130.234 12.4556C130.459 12.665 130.571 12.9275 130.571 13.2431C130.571 13.5431 130.459 13.8056 130.234 14.0306C130.024 14.2556 129.762 14.3681 129.446 14.3681ZM130.279 16.5244V27.79H128.607V16.5244H130.279ZM133.123 27.79V16.5244H134.795V17.8525C135.229 17.3431 135.748 16.9603 136.348 16.7056C136.948 16.4353 137.615 16.3009 138.348 16.3009C139.623 16.3009 140.66 16.7056 141.473 17.5166C142.285 18.3275 142.688 19.3759 142.688 20.6728V27.7978H141.048V21.0009C141.048 20.0103 140.763 19.2197 140.193 18.6416C139.623 18.0634 138.859 17.7634 137.896 17.7634C137.221 17.7634 136.613 17.9134 136.068 18.2134C135.543 18.5134 135.115 18.9416 134.785 19.4962V27.7931H133.113L133.123 27.79ZM146.966 16.5244V23.3212C146.966 24.3119 147.251 25.1025 147.821 25.6806C148.391 26.2587 149.155 26.5587 150.118 26.5587C150.793 26.5587 151.393 26.4087 151.915 26.1087C152.455 25.7931 152.89 25.3587 153.22 24.8041V16.5228H154.891V27.7884H153.22V26.4837C152.785 26.9931 152.266 27.3759 151.666 27.6306C151.082 27.8853 150.421 28.0134 149.682 28.0134C148.391 28.0134 147.338 27.6087 146.526 26.7978C145.713 25.9869 145.31 24.9384 145.31 23.6416V16.5166H146.951L146.966 16.5244ZM156.42 27.79L160.857 21.9775L156.654 16.5087H158.638L161.826 20.7431L165.013 16.5087H166.92L162.763 21.9462L167.216 27.7744H165.232L161.795 23.1806L158.31 27.7744H156.42V27.79Z" fill="white"/>
<path d="M168.634 15.9376V13.5001H167.824V13.0282H168.634V12.0751L169.18 11.9326V13.0279H170.313V13.4998H169.18V15.7967C169.18 15.9967 169.226 16.142 169.316 16.2311C169.405 16.3161 169.554 16.3586 169.759 16.3586C169.863 16.3586 169.955 16.3511 170.037 16.3361C170.121 16.3211 170.212 16.2961 170.305 16.2611V16.7486C170.212 16.7836 170.104 16.8086 169.984 16.8236C169.868 16.8386 169.755 16.8461 169.646 16.8461C169.321 16.8461 169.071 16.7686 168.896 16.6132C168.721 16.4579 168.634 16.2336 168.634 15.9382V15.9376ZM170.915 16.7782V13.0282H171.47V13.4407C171.609 13.2814 171.771 13.1611 171.957 13.0814C172.141 12.9964 172.346 12.9539 172.571 12.9539C172.832 12.9539 173.065 13.0164 173.27 13.1414C173.479 13.2614 173.641 13.4257 173.757 13.6367C173.912 13.407 174.096 13.2367 174.312 13.1273C174.532 13.0123 174.777 12.9554 175.046 12.9554C175.452 12.9554 175.782 13.0904 176.037 13.3601C176.296 13.6304 176.427 13.9804 176.427 14.4101V16.7851H175.879V14.5195C175.879 14.1898 175.791 13.9273 175.616 13.732C175.441 13.5367 175.204 13.4398 174.904 13.4398C174.699 13.4398 174.512 13.4923 174.341 13.5976C174.171 13.7029 174.027 13.8554 173.907 14.0554C173.916 14.1104 173.924 14.1679 173.929 14.2273C173.94 14.2823 173.945 14.3423 173.945 14.407V16.782H173.396V14.5164C173.396 14.1867 173.309 13.9242 173.134 13.7289C172.959 13.5336 172.724 13.4367 172.429 13.4367C172.229 13.4367 172.046 13.4842 171.882 13.5792C171.721 13.6692 171.584 13.8042 171.47 13.9839V16.7807H170.915V16.7782Z" fill="white"/>
</svg>
