<svg width="155" height="40" viewBox="0 0 155 40" fill="none" xmlns="http://www.w3.org/2000/svg">
<g clip-path="url(#clip0_582_2960)">
<path d="M4.6139 23.8943C6.76298 23.8943 8.50515 22.1521 8.50515 20.0031C8.50515 17.854 6.76298 16.1118 4.6139 16.1118C2.46483 16.1118 0.722656 17.854 0.722656 20.0031C0.722656 22.1521 2.46483 23.8943 4.6139 23.8943Z" fill="#FF6309"/>
<path d="M32.5165 40.0001C34.6657 40.0001 36.408 38.2578 36.408 36.1086C36.408 33.9593 34.6657 32.217 32.5165 32.217C30.3673 32.217 28.625 33.9593 28.625 36.1086C28.625 38.2578 30.3673 40.0001 32.5165 40.0001Z" fill="#FFB515"/>
<path d="M32.5123 7.7825C34.6614 7.7825 36.4036 6.04033 36.4036 3.89125C36.4036 1.74217 34.6614 0 32.5123 0C30.3633 0 28.6211 1.74217 28.6211 3.89125C28.6211 6.04033 30.3633 7.7825 32.5123 7.7825Z" fill="#C90016"/>
<path d="M23.2148 10.3741C28.0603 10.3741 32.0803 13.972 32.7462 18.6364H39.4128C39.1096 14.9712 37.5905 11.555 35.0497 8.86095C33.4226 9.68951 31.4217 9.70541 29.7222 8.72445C28.0213 7.74216 27.0345 6.00049 26.9399 4.17507C25.7185 3.89063 24.4684 3.74727 23.2143 3.7478C20.7816 3.7478 18.4309 4.27871 16.293 5.28564L19.6313 11.0667C20.7704 10.6083 21.987 10.3731 23.2148 10.3741Z" fill="#FF6309"/>
<path d="M13.5855 20.003C13.5855 16.9352 15.0274 14.1986 17.2687 12.4341L13.9317 6.65381C13.1412 7.20617 12.4007 7.82683 11.7187 8.50865C9.78756 10.4398 8.40265 12.7715 7.64062 15.3163C9.17608 16.3108 10.1928 18.0373 10.1928 20.003C10.1928 21.9681 9.17608 23.6949 7.64062 24.6891C8.40265 27.2339 9.78756 29.5653 11.7187 31.497C12.4002 32.1785 13.1401 32.799 13.9298 33.3513L17.2674 27.5702C15.0266 25.806 13.5855 23.0696 13.5855 20.003Z" fill="#FFB515"/>
<path d="M32.7475 21.3652C32.0835 26.0312 28.0627 29.6315 23.2159 29.6315C21.9495 29.6315 20.7392 29.385 19.6311 28.9383L16.293 34.7197C18.4304 35.7272 20.7824 36.2583 23.2156 36.2583C24.4868 36.2583 25.736 36.1117 26.9439 35.8305C27.0369 34.0027 28.0237 32.2579 29.7259 31.2751C31.4259 30.2936 33.4276 30.3089 35.0548 31.1393C37.5932 28.4448 39.1111 25.0291 39.413 21.3652H32.7475Z" fill="#C90016"/>
<path d="M63.6697 19.9393V12.4497C63.6697 11.315 62.7616 10.407 61.627 10.407C60.4923 10.407 59.5845 11.3148 59.5845 12.4497V19.9393C59.5845 22.6625 58.4495 23.5708 56.407 23.5708C54.3648 23.5708 53.2298 22.6625 53.2298 19.9393V12.4497C53.2298 11.315 52.322 10.407 51.1873 10.407C50.0526 10.407 49.1445 11.3148 49.1445 12.4497V19.9393C49.1445 25.3862 52.322 27.6558 56.407 27.6558C60.4923 27.6558 63.6697 25.3862 63.6697 19.9393ZM82.7342 19.9393C82.7342 12.2228 79.5573 10.407 75.472 10.407C73.4293 10.407 72.2946 11.3148 72.2946 11.3148V6.09481C72.2946 3.37139 68.2093 3.37139 68.2093 6.09481V19.9393C68.2093 25.3862 71.3868 27.6558 75.472 27.6558C79.5573 27.6558 82.7342 25.3862 82.7342 19.9393ZM72.294 19.4853C72.294 14.7194 74.5634 14.2653 75.4715 14.2653C76.8333 14.2653 78.6484 15.4003 78.6484 19.4853C78.6484 22.2085 77.514 24.0246 75.4715 24.0246C73.4287 24.0249 72.294 22.2085 72.294 19.4853ZM152.45 19.9393V12.4497C152.45 11.315 151.542 10.407 150.407 10.407C149.272 10.407 148.365 11.3148 148.365 12.4497V19.9393C148.365 22.6625 147.23 23.5708 145.187 23.5708C143.145 23.5708 142.01 22.6625 142.01 19.9393V12.4497C142.011 12.1812 141.959 11.915 141.857 11.6667C141.755 11.4184 141.604 11.1928 141.414 11.0029C141.224 10.813 140.999 10.6625 140.75 10.5602C140.502 10.458 140.236 10.4059 139.967 10.407C139.699 10.4058 139.433 10.4579 139.184 10.5602C138.936 10.6624 138.71 10.8129 138.521 11.0028C138.331 11.1927 138.18 11.4183 138.078 11.6667C137.976 11.915 137.924 12.1812 137.925 12.4497V19.9393C137.925 25.3862 141.102 27.6558 145.187 27.6558C149.272 27.6558 152.45 25.3862 152.45 19.9393ZM100.866 19.9396V12.45C100.866 11.3153 99.9576 10.4075 98.823 10.4075C97.6883 10.4075 96.7805 11.3153 96.7805 12.45V19.9396C96.7805 22.6628 95.6458 23.5706 93.603 23.5706C91.5608 23.5706 90.4258 22.6628 90.4258 19.9396V12.45C90.4258 11.3153 89.518 10.4075 88.3833 10.4075C87.2486 10.4075 86.3408 11.3153 86.3408 12.45V19.9396C86.3408 25.3865 89.518 27.6558 93.603 27.6558C97.6883 27.6558 100.866 25.3865 100.866 19.9396ZM124.838 10.407C122.342 10.407 122.342 14.0385 124.838 14.0385H125.519V21.9365C125.519 26.2492 126.586 27.6558 130.263 27.6558C132.033 27.6558 134.62 27.3383 134.62 25.5222C134.62 24.3877 133.576 24.0922 133.281 24.0922C132.646 24.0922 131.987 24.3644 131.261 24.3644C129.99 24.3644 129.604 23.7293 129.604 21.5959V14.0385H131.42C133.917 14.0385 133.917 10.407 131.42 10.407H129.604V6.09481C129.604 3.37139 125.519 3.37139 125.519 6.09481V10.407H124.838ZM105.091 18.1235V25.6131C105.09 25.8816 105.142 26.1477 105.245 26.3961C105.347 26.6444 105.497 26.87 105.687 27.0599C105.877 27.2498 106.103 27.4003 106.351 27.5026C106.599 27.6048 106.865 27.6569 107.134 27.6558C107.403 27.6569 107.669 27.6048 107.917 27.5026C108.165 27.4003 108.391 27.2498 108.581 27.0599C108.771 26.87 108.921 26.6444 109.023 26.3961C109.126 26.1477 109.178 25.8816 109.176 25.6131V18.1235C109.176 15.4003 110.311 14.492 112.354 14.492C114.396 14.492 115.531 15.4003 115.531 18.1235V25.6131C115.531 26.7478 116.439 27.6558 117.574 27.6558C118.708 27.6558 119.616 26.748 119.616 25.6131V18.1235C119.616 12.6766 116.439 10.407 112.354 10.407C108.268 10.407 105.091 12.6769 105.091 18.1235Z" fill="black"/>
</g>
<defs>
<clipPath id="clip0_582_2960">
<rect width="154" height="40" fill="white" transform="translate(0.5)"/>
</clipPath>
</defs>
</svg>
