<svg width="217" height="40" viewBox="0 0 217 40" fill="none" xmlns="http://www.w3.org/2000/svg">
<g clip-path="url(#clip0_582_2894)">
<path d="M0.765625 5.68182L16.9929 3.45455V19.1364H0.765625M18.9474 3.13636L40.4474 0V19H18.9474M0.765625 20.7909H16.9929V36.5182L0.765625 34.2455M18.9474 21H40.4474V39.8182L18.9474 36.7727M52.5838 7.72727L55.6565 7.74545L60.4293 25.0636C60.7702 26.2727 61.0202 27.5091 61.1747 28.7636C62.8384 21.6727 65.1111 14.7636 67.0384 7.76364L69.6974 7.77273L73.8065 22.7727C74.3202 24.7636 74.9884 26.7273 75.1929 28.7727C76.6929 21.6818 78.8429 14.7727 80.5565 7.77273L83.5838 7.75909L76.8565 31.85H73.5838L68.7202 14.5318C68.4474 13.6 68.3338 12.6364 68.2475 11.6682C68.1202 12.5 68.002 13.3409 67.7929 14.1545L62.8838 31.7909C61.7929 31.85 60.702 31.8545 59.6111 31.8455L52.6111 7.75454M85.3111 7.90909C85.3689 7.45022 85.5994 7.03062 85.9557 6.73572C86.312 6.44082 86.7673 6.29279 87.2289 6.32175C87.6905 6.35071 88.1237 6.5545 88.4403 6.89162C88.7569 7.22874 88.9332 7.67386 88.9332 8.13636C88.9332 8.59886 88.7569 9.04398 88.4403 9.38111C88.1237 9.71823 87.6905 9.92201 87.2289 9.95098C86.7673 9.97994 86.312 9.8319 85.9557 9.537C85.5994 9.24211 85.3689 8.82251 85.3111 8.36364M85.7202 14.5455H88.4474V31.8182H85.7202M95.7929 17.3273C97.352 14.5545 100.988 13.2727 103.92 14.5545C106.252 15.4636 107.12 18.1636 107.193 20.4636C107.32 24.2455 107.216 28.0318 107.247 31.8136C106.338 31.8136 105.429 31.8136 104.52 31.8091C104.475 28.1727 104.611 24.5364 104.457 20.9C104.384 19.1 103.62 16.9364 101.661 16.4773C98.7974 15.6136 95.9474 18.1909 95.8565 21.0227C95.7747 24.6136 95.852 28.2182 95.8247 31.8136H93.0975V14.5455H95.8247L95.7884 17.3273M123.493 6.36364H126.22V31.8182H123.502L123.425 29.0455C121.457 32.5818 116.197 33.3636 113.197 30.7409C111.047 28.8909 110.393 25.8773 110.507 23.15C110.529 20.3864 111.438 17.4682 113.643 15.65C116.507 13.2955 121.552 13.4318 123.552 16.8909L123.534 6.34545M117.67 16.3909C115.488 16.7364 114.011 18.7273 113.602 20.7864C113.066 23.2682 113.161 26.15 114.725 28.2409C116.416 30.4864 120.134 30.5364 121.952 28.4136C123.179 27.1318 123.534 25.2955 123.543 23.5955C123.557 21.7773 123.711 19.7318 122.507 18.2318C121.443 16.7182 119.461 16.0364 117.688 16.4136M136.675 14.1409C139.107 13.9273 141.811 14.3091 143.629 16.0682C145.693 17.9773 146.311 20.9318 146.193 23.6136C146.161 26.0455 145.261 28.5227 143.479 30.2045C139.761 33.5864 132.843 32.8409 130.479 28.1955C128.625 24.3 128.997 18.9227 132.388 15.9682C133.602 14.9409 135.138 14.4682 136.661 14.1318M136.17 16.6045C132.17 17.8318 131.488 23.0591 132.738 26.5136C133.738 29.5682 137.602 30.9227 140.42 29.4955C142.307 28.6318 143.166 26.4955 143.347 24.5409C143.552 22.2682 143.37 19.6773 141.757 17.9045C140.393 16.3682 138.084 16.0409 136.166 16.6M147.584 14.5455H150.429L153.793 26.9091C154.02 27.6818 154.111 28.4818 154.193 29.2818C155.479 24.3273 157.102 19.4636 158.566 14.5545L161.052 14.5682C162.302 19.4773 163.857 24.2955 164.893 29.2955C165.961 24.3864 167.484 19.5227 168.666 14.6591C169.575 14.6136 170.493 14.6 171.411 14.5909L166.275 31.8636H163.447C162.22 27.1818 160.629 22.5909 159.629 17.8636C158.447 22.5909 156.797 27.1818 155.447 31.8636H152.72L147.584 14.5909M178.038 14.0909C179.743 13.9727 181.479 14.1364 183.084 14.7636C183.529 15.6091 183.184 16.7182 183.288 17.6727C181.379 16.4773 178.743 15.7182 176.652 16.9318C175.229 17.7045 175.161 19.9909 176.547 20.8409C178.534 22.1273 181.057 22.4636 182.82 24.1136C184.766 25.9864 184.293 29.5682 182.016 30.9773C179.243 32.7409 175.607 32.5682 172.697 31.2227L172.675 28.1682C174.738 29.7409 177.629 30.6136 180.129 29.4955C181.57 28.7682 181.643 26.5591 180.375 25.6318C178.388 24.1682 175.647 23.9364 173.92 22.1091C172.179 20.3545 172.493 17.1091 174.434 15.6545C175.434 14.7318 176.797 14.4545 178.07 14.0955M197.129 7.36364L198.084 7.22727V31.8182H195.393L195.425 11.3182C193.711 12.5 191.861 13.5182 189.834 14.0818L189.866 11.3545C192.502 10.4591 194.911 9.01364 197.093 7.32727M208.038 7.31818C210.402 6.92273 213.038 7.78636 214.447 9.79545C216.447 12.6136 216.629 16.25 216.729 19.5682C216.661 23.0864 216.275 26.8864 214.029 29.75C211.961 32.4636 207.711 33.1 204.938 31.1045C202.688 29.4818 201.802 26.65 201.407 24.0136C200.952 20.1182 200.997 16.0136 202.347 12.3318C203.202 9.80909 205.311 7.65 208.029 7.33182M207.611 9.77273C205.188 10.7545 204.493 13.6182 204.157 15.9545C203.802 19.2 203.72 22.5455 204.493 25.7273C204.879 27.3 205.693 28.9682 207.252 29.6591C209.025 30.55 211.388 29.7818 212.297 28.0364C213.784 25.4682 213.82 22.4 213.843 19.4909C213.784 16.6727 213.67 13.6727 212.116 11.2182C211.193 9.72727 209.207 9.12727 207.597 9.77273" fill="#0078D6"/>
</g>
<defs>
<clipPath id="clip0_582_2894">
<rect width="216" height="40" fill="white" transform="translate(0.75)"/>
</clipPath>
</defs>
</svg>
