<svg width="751.433594" height="796.148926" viewBox="0 0 751.434 796.149" fill="none" xmlns="http://www.w3.org/2000/svg" xmlns:xlink="http://www.w3.org/1999/xlink">
	<desc>
			Created with Pixso.
	</desc>
	<defs/>
	<g opacity="0.200000">
		<path id="Vector" d="M100.12 141.71C137.38 124.08 180.98 104.21 225.72 84.03C248.35 73.79 271.29 63.5 293.84 53.4C330.66 36.83 366.45 20.76 398.29 6.19C400.34 5.26 402.36 4.33 404.37 3.41C402.12 3.32 399.87 3.24 397.62 3.17C302.27 0.26 206.37 17.88 117.66 54.61C116.35 55.15 115.03 55.7 113.72 56.25C113.66 56.28 113.6 56.3 113.54 56.33C113.57 56.22 113.57 56.14 113.62 56.03C113.56 56.06 113.51 56.08 113.45 56.11C112.35 56.59 111.26 57.07 110.16 57.55C74.72 73.22 40.34 90.97 8.05 111.86C7.18 112.42 6.31 112.99 5.45 113.55C5.43 113.35 5.39 113.3 5.35 113.39C5.24 113.61 5.08 114.63 4.89 116.3C4.85 116.7 4.8 117.13 4.75 117.59C3.33 131.23 0.46 174.54 1.71 200.57C1.77 201.82 1.84 203.03 1.92 204.2C2.87 203.46 3.83 202.72 4.78 201.98C34.64 179.04 66.14 159.04 100.12 141.71ZM4.61 198.34Q37.55 173.2 73.22 152.84Q85.82 145.64 98.76 139.04L98.8 139.02L98.84 139Q145.25 117.03 224.48 81.3L252.44 68.69L292.61 50.66L292.62 50.66L391.36 6Q328.45 4.61 267.43 14.68Q189.53 27.54 114.71 59.09L109.23 61.4L109.27 61.23Q52.39 86.54 8.02 115.46Q7.74 117.55 7.37 121.78Q6.46 132 5.68 145.72Q3.82 178.82 4.61 198.34Z" fill="#FFFFFF" fill-opacity="1.000000" fill-rule="evenodd"/>
		<path id="Vector" d="M196.09 418.2C235.99 393.18 283.28 372.5 329.61 352.39C352.95 342.28 376.07 332.34 397.85 322.05C401.42 320.35 404.94 318.65 408.44 316.95C442.6 300.96 516.79 269.23 550.81 251.73C597.7 223.87 615.95 162.54 592.45 113.81C568.44 61.55 504.58 36.69 450.54 61.38C429.19 70.45 343.17 110.34 319.83 120.51C319.75 120.54 319.7 120.56 319.62 120.59C297.6 131.12 274.8 141.17 251.73 151.25C165.83 188.82 76.2 226.99 10.2 291.54C14.31 318.07 20.14 345.43 27.53 372.19C27.85 373.35 28.17 374.5 28.49 375.66C29.27 374.75 30.06 373.84 30.85 372.94C82.9 313.4 152.55 271.92 225.32 242.05C240.72 235.06 257.74 227.41 274.98 219.6C275.89 219.19 276.81 218.77 277.72 218.36L278.8 221.16L303.71 285.44C296.47 288.74 289.51 291.87 282.95 294.83C196.94 329.79 108.87 376.84 56.42 455.81C66.85 480.66 78.59 504.64 92.05 528.27C92.63 529.29 93.21 530.31 93.8 531.33C94.36 530.3 94.92 529.27 95.49 528.25C119.84 484.38 154.18 446.63 196.09 418.2ZM93.75 525.2Q112.03 492.65 136.5 465.75Q162.07 437.65 194.41 415.72L194.45 415.69L194.5 415.66Q221.3 398.85 259.14 380.75Q282.67 369.49 328.42 349.64L328.42 349.64Q330.03 348.94 333.38 347.49Q376.38 328.88 396.57 319.34L407.14 314.25Q419.61 308.41 456.5 291.97Q527.73 260.22 549.36 249.1Q556.2 245.03 562.24 240Q570.96 232.73 578.02 223.46Q582.6 217.43 586.25 210.88Q591.79 200.92 595.15 189.73Q598.5 178.6 599.38 167.27Q599.96 159.77 599.46 152.2Q598.67 140.21 595.22 129.04Q593.03 121.91 589.75 115.12Q585.81 106.54 580.46 98.95Q574.09 89.93 565.73 82.32Q559.24 76.41 551.96 71.71Q542.49 65.6 531.7 61.55Q520.69 57.41 509.32 55.8Q500.86 54.6 492.21 54.81Q482.03 55.04 472.28 57.21Q461.78 59.54 451.79 64.11L451.75 64.13L451.72 64.15Q440.24 69.02 380.78 96.19Q331.8 118.57 321.03 123.26L320.92 123.31L320.84 123.33Q320.82 123.34 320.8 123.35Q296.61 134.92 252.93 154Q250.55 155.04 245.89 157.08Q161.57 193.93 121.56 215.75Q55.61 251.7 13.4 292.61Q16.83 314.44 21.6 335.97Q25.34 352.81 29.89 369.48Q99.84 290.33 224.13 239.29L279.37 214.32L307.53 287.01L284.13 297.59L284.08 297.61Q208.88 328.17 158.76 361.32Q95.41 403.21 59.81 456.14Q74.92 491.9 93.75 525.2ZM447.28 138.23Q434.81 144.38 429.58 146.42L429.5 146.45L384.02 167L341.97 186.03L370.13 258.71L427.57 232.74Q429.22 232.01 433.88 229.88Q440.87 226.69 443.22 225.67L443.4 225.59L443.57 225.49Q449.78 221.77 469.34 214.01Q486.66 207.14 495.18 203.08Q509.8 196.12 518.55 188.97Q531.52 178.39 533.85 165.84Q535.81 155.35 530.36 143.49Q524.26 130.54 514.13 125.17Q504.79 120.21 492.02 121.71Q482.17 122.87 469.22 128.09Q461.68 131.13 447.28 138.23ZM345.79 187.59C371.92 175.73 405.82 160.47 430.67 149.22C436.02 147.13 442.12 144.12 448.61 140.92C476.3 127.27 511.27 110.02 527.65 144.77C544.3 181.04 501.49 198.03 468.23 211.23C457.88 215.33 448.45 219.08 442.03 222.92C437.97 224.68 430.31 228.24 426.35 230C410.73 237.06 392.91 245.12 374.52 253.44C373.6 253.85 372.69 254.26 371.78 254.67L370.69 251.87L345.79 187.59Z" fill="#FFFFFF" fill-opacity="1.000000" fill-rule="evenodd"/>
		<path id="Vector" d="M501.08 588.69C579.32 554.37 658.69 522.21 665.71 515.87C685.56 478.36 700.86 441.48 713.33 402.09C713.93 400.17 714.53 398.25 715.12 396.33C713.66 397.71 712.19 399.07 710.71 400.41C681.72 426.66 647.6 446.47 611.33 461.72C572.48 479.28 521.62 502.29 475.67 523.06C456.15 531.87 437.52 540.3 421.07 547.74C419.51 548.48 414.54 550.7 407.6 553.83C381.04 565.77 325.6 590.62 322.06 593.37C269.79 624.04 254.25 696.41 288.62 745.76C294.81 749.77 301.22 754.42 307.84 759.21C338.83 781.69 374.17 807.32 410.43 784.07C447.35 760.99 482.54 734.9 514.96 706.13L514.99 706.13L515.05 706.08C522.95 699.11 530.66 691.96 538.21 684.64C544.46 678.63 550.56 672.48 556.53 666.26C566.61 655.79 576.11 645.23 585.15 634.56C586.65 632.8 588.14 631.03 589.61 629.26C587.57 630.18 585.46 631.13 583.31 632.1C567.58 639.2 549.17 647.51 530.35 656.02C529.44 656.43 528.53 656.84 527.62 657.26L526.53 654.46L501.08 588.69ZM578.71 637.47L525.96 661.3L497.25 587.1L499.87 585.95Q526.73 574.16 577.85 552.33Q656.83 518.6 663.34 513.93Q665.89 509.1 668.36 504.24Q692.34 457.01 708.91 406.02Q669.29 440.61 612.53 464.47L517.77 507.32L476.91 525.8L422.3 550.47L422.3 550.47L408.84 556.57Q407.2 557.3 404.1 558.69Q326.96 593.36 323.9 595.74L323.75 595.86L323.58 595.96Q316.04 600.38 309.5 605.96Q299.89 614.17 292.41 624.9Q287.92 631.34 284.47 638.3Q278.66 650.02 275.78 663.2Q272.94 676.27 273.31 689.24Q273.54 697.09 274.95 704.91Q277.33 718.14 282.87 729.88Q286.23 737 290.75 743.57Q297.02 747.66 309.6 756.79Q325.29 768.16 333.45 773.31Q347.03 781.89 358.19 785.97Q375.26 792.22 390.44 789.14Q400 787.2 408.81 781.55Q465.15 746.32 512.97 703.89L513.82 703.14L513.84 703.14Q524.95 693.31 536.13 682.49Q545.11 673.83 554.36 664.18Q566.75 651.32 578.71 637.47ZM423.3 707.71L452.93 694.33L452.94 694.33L463.37 689.59L434.64 615.43L431.73 616.81Q388.03 637.43 365.58 651.14Q339 667.36 340.1 676.42Q338.77 681.29 338.83 686.15Q338.9 691.91 340.93 697.66Q342.17 701.19 344.02 704.37Q347.48 710.31 353.04 715.02Q358.68 719.8 365.2 722.22Q368.57 723.47 372.18 724.09Q377.93 725.08 383.43 724.28Q388.85 723.49 394.02 720.96L423.3 707.71ZM392.74 718.25C399.81 715.06 445.78 694.23 451.7 691.6C454.22 690.44 456.86 689.26 459.55 688.03L434.09 622.32L433.01 619.52C432.1 619.95 431.19 620.38 430.29 620.8C378.82 645.21 340.19 666.89 343.18 676.54C335 704.45 366.29 731.24 392.74 718.25Z" fill="#FFFFFF" fill-opacity="1.000000" fill-rule="evenodd"/>
		<path id="Vector" d="M674.38 151.62C675.31 295.65 568.23 323.19 459.45 372.7C448.54 377.64 436.47 383.1 423.72 388.87C402.16 398.61 378.69 409.24 355.65 419.64C327.67 432.32 300.3 444.67 277.85 454.83C213.88 482.33 163.45 536.7 140.78 602.03C157.29 623.74 176.4 645.95 196.31 666.2C197.24 667.14 198.16 668.07 199.08 669C199.19 667.7 199.31 666.4 199.44 665.1C206.57 596.31 255.82 538.03 320.75 514.25C334.75 507.97 357.63 497.62 381.61 486.75C405.81 475.8 431.13 464.32 449.68 455.95C455.2 453.46 460.12 451.23 464.23 449.39C508.31 428.28 581.19 398.82 623.34 375.72C711.63 324.56 760.61 218.29 742.97 118.15C742.25 112.06 741.54 107.86 741.54 107.86C735.2 104.05 728.72 99.92 722.27 96.22L721.71 96.46C705.78 87.81 680.88 75.15 649.28 61.94C647.66 61.27 646.03 60.59 644.37 59.91C645.35 61.37 646.3 62.85 647.23 64.34C663.5 90.38 673.18 121.11 674.38 151.62ZM651.99 66.33Q663.91 86.24 670.26 107.78Q676.48 128.86 677.38 151.5L677.38 151.55L677.38 151.6Q677.68 197.92 663.06 232.77Q660.22 239.52 656.78 245.94Q644.18 269.45 623.43 288.58Q601.31 308.97 565.99 327.58Q544.75 338.78 497.99 359.01Q473.19 369.74 460.7 375.43L424.96 391.6L369.82 416.53L356.89 422.37L279.08 457.56Q259.68 465.9 242.25 477.26Q217.09 493.64 196.02 516.29Q174.33 539.61 159.61 566.72Q150.56 583.39 144.14 601.5Q168.78 633.73 196.72 662.33Q198.72 645.08 203.99 628.9Q213.78 598.81 234.87 572.41Q251.08 552.11 271.28 537.25Q293.11 521.19 319.61 511.47L380.38 484.02L390.8 479.3L448.45 453.22L448.45 453.22L462.96 446.67Q479.67 438.67 522.08 419.95Q595.74 387.43 621.87 373.11Q630.28 368.24 638.22 362.7Q660.73 347.01 679.52 325.98Q688.04 316.46 695.49 306.17Q709.75 286.5 720.16 264.04Q730.2 242.38 735.95 219.63Q739.27 206.51 741.16 193.03Q745.13 164.81 742.52 137.2Q741.64 127.9 740.02 118.67L740 118.59L739.99 118.5Q739.39 113.44 738.81 109.71Q736.59 108.37 732.96 106.14Q726.05 101.89 722.08 99.57L721.56 99.8L720.27 99.1Q688.08 81.61 651.99 66.33Z" fill="#FFFFFF" fill-opacity="1.000000" fill-rule="evenodd"/>
	</g>
</svg>
