<svg width="509.474609" height="509.715820" viewBox="0 0 509.475 509.716" fill="none" xmlns="http://www.w3.org/2000/svg" xmlns:xlink="http://www.w3.org/1999/xlink">
	<desc>
			Created with Pixso.
	</desc>
	<defs/>
	<path id="Vector" d="M385.96 307.13C363.19 299.74 339.7 288.05 316.75 276.54C305.2 270.74 293.78 264.97 282.67 259.84C280.84 259 279.03 258.18 277.23 257.37C259.85 249.27 223.27 230.7 205.35 223.15C179.2 213.95 149.34 226.82 138.02 251.86C125.48 278.25 136.62 311.24 163.88 324.25C174.38 329.61 217.99 350.14 229.56 355.92C229.6 355.94 229.63 355.95 229.66 355.98C240.95 361.12 252.31 366.73 263.76 372.44C306.43 393.67 350.54 416.16 397.24 420.85C406.63 410.16 415.76 398.45 424.05 386.31C383.22 385.81 343.69 372.05 307.77 353.14C299.61 349.22 256.38 328.34 247.24 323.94L264.91 291.96C268.55 293.7 306.24 311.9 309.54 313.49C351.22 335.61 398.3 354.6 446.19 349.31C452.74 336.62 458.46 323.69 463.43 310.13C437.84 315.33 411.29 314.37 385.96 307.13ZM247.24 323.94C234.09 317.62 217.09 309.39 204.6 303.37C191.1 295.96 161.1 288.89 171.23 267.03C182.64 243.02 214.49 269.66 229.61 274.93C231.62 275.94 235.51 277.76 237.49 278.73C245.73 282.7 255.18 287.26 264.91 291.96L247.24 323.94Z" fill="#629DFF" fill-opacity="1.000000" fill-rule="nonzero"/>
	<path id="Vector" d="M336.66 265.97C322.95 274.23 308.6 282.87 298.1 289.22C294.97 291.1 292.19 292.78 289.87 294.19C264.32 308.84 224.78 334.93 198.91 347.94C143.34 374.26 73.87 362.25 30.23 319.29C27.46 316.85 25.61 315.07 25.61 315.07C25.89 310.62 26.06 306 26.43 301.53L26.75 301.34C27.96 289.93 30.37 272.09 35.06 250.5C42.28 268.62 54.73 285.06 70.29 296.71C141.42 346.37 191.7 302.66 253.46 265.62C259.65 261.9 266.48 257.78 273.7 253.42C285.91 246.06 299.21 238.05 312.25 230.17C328.11 220.62 343.6 211.27 356.31 203.6C391.83 181.27 436.05 174.83 476.21 185.9C481.57 202.23 486.22 220.15 489.49 237.69C452.6 216.41 405.76 220.64 371.12 245.18C363.21 249.98 350.25 257.79 336.66 265.97Z" fill="#1253C1" fill-opacity="1.000000" fill-rule="nonzero"/>
</svg>
