<svg width="762.650330" height="788.698608" viewBox="0 0 762.65 788.699" fill="none" xmlns="http://www.w3.org/2000/svg" xmlns:xlink="http://www.w3.org/1999/xlink">
	<desc>
			Created with Pixso.
	</desc>
	<defs>
		<filter id="filter_148_2455_dd" x="14.346634" y="4.793457" width="748.303711" height="748.303711" filterUnits="userSpaceOnUse" color-interpolation-filters="sRGB">
			<feFlood flood-opacity="0" result="BackgroundImageFix"/>
			<feBlend mode="normal" in="SourceGraphic" in2="BackgroundImageFix" result="shape"/>
			<feGaussianBlur stdDeviation="53.3333" result="effect_layerBlur_1"/>
		</filter>
	</defs>
	<g opacity="0.300000" filter="url(#filter_148_2455_dd)">
		<circle id="Ellipse 3" cx="388.498474" cy="378.945312" r="214.151840" fill="#2B77F6" fill-opacity="1.000000"/>
	</g>
	<g opacity="0.500000">
		<path id="Vector" d="M210.54 127.2C229.85 115.75 249.42 104.22 268.68 92.9C302.11 73.17 334.56 54.05 362.98 37C273.62 43.23 185.74 69.49 107.02 113.48C107.03 113.38 107.02 113.31 107.06 113.2C74.91 131.72 44.02 152.21 15.62 175.63C14.73 171.84 16.45 229.55 21.47 257.41C46.68 232.91 73.74 211.07 103.46 191.51C135.17 171.96 172.36 149.77 210.54 127.2Z" fill="#121212" fill-opacity="1.000000" fill-rule="nonzero"/>
		<path id="Vector" d="M217.18 430.31C250.53 403.86 290.95 380.58 330.57 357.91C350.52 346.5 370.31 335.27 388.84 323.86C391.88 321.98 394.87 320.1 397.84 318.23C426.94 300.46 490.42 264.57 519.24 245.47C558.58 215.78 568.87 158.88 542.91 117.44C516.14 72.89 456.31 56.91 410.23 84.48C391.95 94.75 318.65 139.14 298.7 150.59C298.63 150.62 298.59 150.65 298.52 150.69C279.79 162.34 260.31 173.63 240.59 184.98C167.17 227.28 90.47 270.48 37.61 335.04C44.21 359.47 52.59 384.53 62.41 408.77C103.32 348.78 162.57 303.76 225.91 269.17C239.74 260.95 255.11 251.88 270.62 242.68L300.63 300.35C294.47 304.03 288.52 307.53 282.93 310.85C209.15 350.8 134.73 401.84 95.47 477.99C107.83 500.19 121.36 521.39 136.56 542.1C154.02 499.08 181.56 460.7 217.18 430.31ZM328.7 208.26C350.99 195.01 379.92 177.93 401.11 165.35C425.36 152.65 465.36 115.18 487.78 151.7C512.14 192.25 441.34 213.19 418.66 230.42C415.18 232.4 408.66 236.37 405.28 238.34C391.29 246.63 375.23 256.14 358.72 265.93L328.7 208.26Z" fill="#121212" fill-opacity="1.000000" fill-rule="nonzero"/>
		<path id="Vector" d="M478.75 496.67C462.09 506.53 446.2 515.95 432.16 524.27C430.83 525.09 426.59 527.58 420.67 531.08C398 544.45 350.67 572.28 347.77 575.11C303.88 607.86 297.12 674.42 332.9 715.32C366.76 732.27 409.41 767.33 446.13 737.61C476.99 713.2 506.01 686.26 532.27 657.2L532.29 657.19L532.33 657.14C538.74 650.09 544.96 642.9 551.01 635.58C556.02 629.56 560.89 623.43 565.63 617.24C574.97 605.11 583.59 592.94 591.67 580.72C576.55 589.65 557.83 600.74 538.77 612.03L508.1 553.09C574.97 514.47 643.06 477.69 648.73 471.3C663.52 433.89 673.87 397.61 681.22 359C657.16 387.39 627.15 409.87 594.5 428.06C561.35 447.71 517.95 473.43 478.75 496.67ZM480.68 646.45C478.39 647.83 476.14 649.15 473.99 650.43C468.94 653.39 429.72 676.68 423.68 680.24C401.22 694.55 370.45 673.6 375.02 647.72C371.31 639.2 405.07 615.21 450.03 587.55L480.68 646.45Z" fill="#121212" fill-opacity="1.000000" fill-rule="nonzero"/>
		<path id="Vector" d="M390.65 473.41C411.29 461.17 432.9 448.34 448.73 438.97C453.43 436.18 457.63 433.7 461.14 431.63C498.63 408.28 561.17 374.57 596.73 349.63C670.94 294.89 704.35 194.56 678.55 106.36C677.29 100.96 676.24 97.25 676.24 97.25C670.16 94.46 663.93 91.4 657.77 88.72L657.29 88.99C641.34 82.49 616.06 72.99 584.18 63.86C603.02 86.28 615.91 114.4 620.27 143.25C635.43 272.53 541.99 307.93 449.22 363.22C439.9 368.75 429.61 374.86 418.73 381.3C400.34 392.2 380.31 404.08 360.65 415.71C336.77 429.89 313.42 443.71 294.27 455.07C239.55 486.13 199.66 539.99 185.8 600.93C203.58 619.62 223.96 638.51 244.83 655.28C242.88 591.41 281.7 532.52 338.71 504.17C350.67 497.13 370.19 485.56 390.65 473.41Z" fill="#121212" fill-opacity="1.000000" fill-rule="nonzero"/>
	</g>
</svg>
