<svg width="91" height="90" viewBox="0 0 91 90" fill="none" xmlns="http://www.w3.org/2000/svg">
<path fill-rule="evenodd" clip-rule="evenodd" d="M47.375 26.25H66.125C72.3387 26.25 77.375 31.2863 77.375 37.5V73.125C77.375 79.3388 72.3387 84.375 66.125 84.375H24.875C18.6613 84.375 13.625 79.3388 13.625 73.125V37.5C13.625 31.2863 18.6613 26.25 24.875 26.25H43.625V16.5694C40.9212 15.7594 38.9375 13.2806 38.9375 10.3125C38.9375 6.68813 41.8756 3.75 45.5 3.75C49.1244 3.75 52.0625 6.68813 52.0625 10.3125C52.0625 13.2806 50.0788 15.7594 47.375 16.5694V26.25ZM33.3943 67.7055C37.0974 65.8023 41.2843 64.7973 45.5012 64.7973C49.7181 64.7974 53.9049 65.8023 57.6081 67.7055C58.5287 68.1798 58.8924 69.3086 58.4199 70.2311C57.9474 71.1498 56.8187 71.5155 55.8943 71.043C49.4537 67.7317 41.5487 67.7317 35.1081 71.043C34.1874 71.5155 33.0568 71.1517 32.5824 70.2311C32.1099 69.3105 32.4718 68.1798 33.3943 67.7055ZM26.75 47.8126C26.75 51.4369 29.6881 54.3751 33.3125 54.3751C35.5151 54.3751 37.4643 53.2899 38.6546 51.6251L29.5 42.4705C27.8351 43.6607 26.75 45.6099 26.75 47.8126ZM57.8421 54.3751C61.4665 54.3751 64.4046 51.4369 64.4046 47.8126C64.4046 45.6099 63.3194 43.6607 61.6546 42.4705L52.5 51.6251C53.6903 53.2899 55.6395 54.3751 57.8421 54.3751Z" fill="#FF3437"/>
<path d="M83 43.125H81.125V67.5H83C86.1069 67.5 88.625 64.9819 88.625 61.875V48.75C88.625 45.6431 86.1069 43.125 83 43.125Z" fill="#FF3437"/>
<path d="M9.875 43.125H8C4.89313 43.125 2.375 45.6431 2.375 48.75V61.875C2.375 64.9819 4.89313 67.5 8 67.5H9.875V43.125Z" fill="#FF3437"/>
<path d="M62.4221 21.806C62.5914 21.9329 62.79 22 62.9967 22H62.9992C63.5636 22 64.0226 21.4952 64.0226 20.8748C64.0226 20.7671 64.0089 20.6611 63.9819 20.5583C63.3926 17.7197 63.6719 15.4336 64.8116 13.7633C66.1548 11.7948 66.7497 9.26906 66.403 7.00709C66.097 5.00257 65.1172 3.33637 63.5707 2.18961C63.2283 1.93488 62.7577 1.93687 62.4164 2.19523C62.0683 2.45921 61.9049 2.92299 62.0008 3.37934C62.6371 6.36581 62.0585 8.25774 60.6076 11.1289C59.704 12.9166 59.3349 14.9249 59.5683 16.7836C59.8327 18.8857 60.821 20.6235 62.4221 21.806Z" fill="#FF3437"/>
<path d="M28.5779 21.806C28.4086 21.9329 28.21 22 28.0033 22H28.0008C27.4364 22 26.9774 21.4952 26.9774 20.8748C26.9774 20.7671 26.9911 20.6611 27.0181 20.5583C27.6074 17.7197 27.3281 15.4336 26.1884 13.7633C24.8452 11.7948 24.2503 9.26906 24.597 7.00709C24.903 5.00257 25.8828 3.33637 27.4293 2.18961C27.7717 1.93488 28.2423 1.93687 28.5836 2.19523C28.9317 2.45921 29.0951 2.92299 28.9992 3.37934C28.3629 6.36581 28.9415 8.25774 30.3924 11.1289C31.296 12.9166 31.6651 14.9249 31.4317 16.7836C31.1673 18.8857 30.179 20.6235 28.5779 21.806Z" fill="#FF3437"/>
<path d="M71.9367 20.8268C72.1026 20.9401 72.2965 21 72.4974 21H72.4988C73.0486 21 73.496 20.5538 73.496 20.0055C73.496 19.9124 73.483 19.8203 73.4571 19.7308C72.9943 17.7031 73.2108 16.0756 74.1003 14.8937C75.2141 13.415 75.7072 11.5151 75.4194 9.81191C75.1639 8.29627 74.3464 7.03607 73.0558 6.16814C72.7236 5.94452 72.2738 5.94112 71.9293 6.17495C71.5939 6.40691 71.4329 6.82845 71.5275 7.21884C72.0297 9.35429 71.5697 10.7134 70.4171 12.7797C69.6683 14.1226 69.3629 15.6321 69.557 17.0298C69.7772 18.6197 70.6022 19.9342 71.9367 20.8268Z" fill="#FF3437"/>
<path d="M19.0633 20.8268C18.8974 20.9401 18.7035 21 18.5026 21H18.5012C17.9514 21 17.504 20.5538 17.504 20.0055C17.504 19.9124 17.517 19.8203 17.5429 19.7308C18.0057 17.7031 17.7892 16.0756 16.8997 14.8937C15.7859 13.415 15.2928 11.5151 15.5806 9.81191C15.8361 8.29627 16.6536 7.03607 17.9442 6.16814C18.2764 5.94452 18.7262 5.94112 19.0707 6.17495C19.4061 6.40691 19.5671 6.82845 19.4725 7.21884C18.9703 9.35429 19.4303 10.7134 20.5829 12.7797C21.3317 14.1226 21.6371 15.6321 21.443 17.0298C21.2228 18.6197 20.3978 19.9342 19.0633 20.8268Z" fill="#FF3437"/>
</svg>
