<svg width="90" height="90" viewBox="0 0 90 90" fill="none" xmlns="http://www.w3.org/2000/svg">
<path d="M65.625 26.25H46.875V16.5694C49.5788 15.7594 51.5625 13.2806 51.5625 10.3125C51.5625 6.68813 48.6244 3.75 45 3.75C41.3756 3.75 38.4375 6.68813 38.4375 10.3125C38.4375 13.2806 40.4212 15.7594 43.125 16.5694V26.25H24.375C18.1613 26.25 13.125 31.2863 13.125 37.5V73.125C13.125 79.3388 18.1613 84.375 24.375 84.375H65.625C71.8387 84.375 76.875 79.3388 76.875 73.125V37.5C76.875 31.2863 71.8387 26.25 65.625 26.25ZM26.25 47.8125C26.25 44.1881 29.1881 41.25 32.8125 41.25C36.4369 41.25 39.375 44.1881 39.375 47.8125C39.375 51.4369 36.4369 54.375 32.8125 54.375C29.1881 54.375 26.25 51.4369 26.25 47.8125ZM57.1069 68.3419C53.4038 70.245 49.2169 71.25 45 71.25C40.7831 71.25 36.5962 70.245 32.8931 68.3419C31.9725 67.8675 31.6088 66.7388 32.0813 65.8163C32.5538 64.8975 33.6825 64.5319 34.6069 65.0044C41.0475 68.3156 48.9525 68.3156 55.3931 65.0044C56.3137 64.5319 57.4444 64.8956 57.9187 65.8163C58.3913 66.7369 58.0294 67.8675 57.1069 68.3419ZM57.1875 54.375C53.5631 54.375 50.625 51.4369 50.625 47.8125C50.625 44.1881 53.5631 41.25 57.1875 41.25C60.8119 41.25 63.75 44.1881 63.75 47.8125C63.75 51.4369 60.8119 54.375 57.1875 54.375Z" fill="#2B77F6"/>
<path d="M57.1875 50.625C58.7408 50.625 60 49.3658 60 47.8125C60 46.2592 58.7408 45 57.1875 45C55.6342 45 54.375 46.2592 54.375 47.8125C54.375 49.3658 55.6342 50.625 57.1875 50.625Z" fill="#2B77F6"/>
<path d="M32.8125 50.625C34.3658 50.625 35.625 49.3658 35.625 47.8125C35.625 46.2592 34.3658 45 32.8125 45C31.2592 45 30 46.2592 30 47.8125C30 49.3658 31.2592 50.625 32.8125 50.625Z" fill="#2B77F6"/>
<path d="M82.5 43.125H80.625V67.5H82.5C85.6069 67.5 88.125 64.9819 88.125 61.875V48.75C88.125 45.6431 85.6069 43.125 82.5 43.125Z" fill="#2B77F6"/>
<path d="M9.375 43.125H7.5C4.39313 43.125 1.875 45.6431 1.875 48.75V61.875C1.875 64.9819 4.39313 67.5 7.5 67.5H9.375V43.125Z" fill="#2B77F6"/>
</svg>
