<svg width="139" height="93" viewBox="0 0 139 93" fill="none" xmlns="http://www.w3.org/2000/svg">
<path d="M62.6875 42.875H57.0625V39.9708C57.8736 39.7278 58.4688 38.9842 58.4688 38.0938C58.4688 37.0064 57.5873 36.125 56.5 36.125C55.4127 36.125 54.5312 37.0064 54.5312 38.0938C54.5312 38.9842 55.1264 39.7278 55.9375 39.9708V42.875H50.3125C48.4484 42.875 46.9375 44.3859 46.9375 46.25V56.9375C46.9375 58.8016 48.4484 60.3125 50.3125 60.3125H62.6875C64.5516 60.3125 66.0625 58.8016 66.0625 56.9375V46.25C66.0625 44.3859 64.5516 42.875 62.6875 42.875ZM50.875 49.3438C50.875 48.2564 51.7564 47.375 52.8438 47.375C53.9311 47.375 54.8125 48.2564 54.8125 49.3438C54.8125 50.4311 53.9311 51.3125 52.8438 51.3125C51.7564 51.3125 50.875 50.4311 50.875 49.3438ZM60.1321 55.5026C59.0211 56.0735 57.7651 56.375 56.5 56.375C55.2349 56.375 53.9789 56.0735 52.8679 55.5026C52.5917 55.3603 52.4826 55.0216 52.6244 54.7449C52.7661 54.4692 53.1048 54.3596 53.3821 54.5013C55.3142 55.4947 57.6858 55.4947 59.6179 54.5013C59.8941 54.3596 60.2333 54.4687 60.3756 54.7449C60.5174 55.0211 60.4088 55.3603 60.1321 55.5026ZM60.1562 51.3125C59.0689 51.3125 58.1875 50.4311 58.1875 49.3438C58.1875 48.2564 59.0689 47.375 60.1562 47.375C61.2436 47.375 62.125 48.2564 62.125 49.3438C62.125 50.4311 61.2436 51.3125 60.1562 51.3125Z" fill="#499F1A"/>
<path d="M60.1562 50.1875C60.6222 50.1875 61 49.8097 61 49.3438C61 48.8778 60.6222 48.5 60.1562 48.5C59.6903 48.5 59.3125 48.8778 59.3125 49.3438C59.3125 49.8097 59.6903 50.1875 60.1562 50.1875Z" fill="#499F1A"/>
<path d="M52.8438 50.1875C53.3097 50.1875 53.6875 49.8097 53.6875 49.3438C53.6875 48.8778 53.3097 48.5 52.8438 48.5C52.3778 48.5 52 48.8778 52 49.3438C52 49.8097 52.3778 50.1875 52.8438 50.1875Z" fill="#499F1A"/>
<path d="M67.75 47.9375H67.1875V55.25H67.75C68.6821 55.25 69.4375 54.4946 69.4375 53.5625V49.625C69.4375 48.6929 68.6821 47.9375 67.75 47.9375Z" fill="#499F1A"/>
<path d="M45.8125 47.9375H45.25C44.3179 47.9375 43.5625 48.6929 43.5625 49.625V53.5625C43.5625 54.4946 44.3179 55.25 45.25 55.25H45.8125V47.9375Z" fill="#499F1A"/>
<g opacity="0.6">
<path d="M18.8548 20.5416H14.8965V18.4979C15.4673 18.3269 15.8861 17.8036 15.8861 17.177C15.8861 16.4119 15.2658 15.7916 14.5007 15.7916C13.7355 15.7916 13.1152 16.4119 13.1152 17.177C13.1152 17.8036 13.534 18.3269 14.1048 18.4979V20.5416H10.1465C8.83469 20.5416 7.77148 21.6048 7.77148 22.9166V30.4375C7.77148 31.7493 8.83469 32.8125 10.1465 32.8125H18.8548C20.1666 32.8125 21.2298 31.7493 21.2298 30.4375V22.9166C21.2298 21.6048 20.1666 20.5416 18.8548 20.5416ZM10.5423 25.0937C10.5423 24.3286 11.1626 23.7083 11.9277 23.7083C12.6929 23.7083 13.3132 24.3286 13.3132 25.0937C13.3132 25.8589 12.6929 26.4791 11.9277 26.4791C11.1626 26.4791 10.5423 25.8589 10.5423 25.0937ZM17.0565 29.4277C16.2748 29.8295 15.3909 30.0416 14.5007 30.0416C13.6104 30.0416 12.7265 29.8295 11.9448 29.4277C11.7504 29.3275 11.6736 29.0893 11.7734 28.8945C11.8731 28.7005 12.1114 28.6234 12.3065 28.7231C13.6662 29.4221 15.3351 29.4221 16.6948 28.7231C16.8891 28.6234 17.1278 28.7001 17.2279 28.8945C17.3277 29.0889 17.2513 29.3275 17.0565 29.4277ZM17.0736 26.4791C16.3084 26.4791 15.6882 25.8589 15.6882 25.0937C15.6882 24.3286 16.3084 23.7083 17.0736 23.7083C17.8387 23.7083 18.459 24.3286 18.459 25.0937C18.459 25.8589 17.8387 26.4791 17.0736 26.4791Z" fill="#499F1A"/>
<path d="M17.0723 25.6875C17.4002 25.6875 17.666 25.4217 17.666 25.0938C17.666 24.7658 17.4002 24.5 17.0723 24.5C16.7443 24.5 16.4785 24.7658 16.4785 25.0938C16.4785 25.4217 16.7443 25.6875 17.0723 25.6875Z" fill="#499F1A"/>
<path d="M11.9277 25.6875C12.2557 25.6875 12.5215 25.4217 12.5215 25.0938C12.5215 24.7658 12.2557 24.5 11.9277 24.5C11.5998 24.5 11.334 24.7658 11.334 25.0938C11.334 25.4217 11.5998 25.6875 11.9277 25.6875Z" fill="#499F1A"/>
<path d="M22.4173 24.1041H22.0215V29.25H22.4173C23.0732 29.25 23.6048 28.7184 23.6048 28.0625V25.2916C23.6048 24.6357 23.0732 24.1041 22.4173 24.1041Z" fill="#499F1A"/>
<path d="M6.97982 24.1041H6.58398C5.92809 24.1041 5.39648 24.6357 5.39648 25.2916V28.0625C5.39648 28.7184 5.92809 29.25 6.58398 29.25H6.97982V24.1041Z" fill="#499F1A"/>
</g>
<g opacity="0.6" clip-path="url(#clip0_798_5511)">
<path d="M86.0221 49.2083H83.7305V48.0251C84.0609 47.9261 84.3034 47.6231 84.3034 47.2603C84.3034 46.8174 83.9443 46.4583 83.5013 46.4583C83.0583 46.4583 82.6992 46.8174 82.6992 47.2603C82.6992 47.6231 82.9417 47.9261 83.2721 48.0251V49.2083H80.9805C80.221 49.2083 79.6055 49.8238 79.6055 50.5833V54.9374C79.6055 55.6969 80.221 56.3124 80.9805 56.3124H86.0221C86.7816 56.3124 87.3971 55.6969 87.3971 54.9374V50.5833C87.3971 49.8238 86.7816 49.2083 86.0221 49.2083ZM81.2096 51.8437C81.2096 51.4007 81.5687 51.0416 82.0117 51.0416C82.4547 51.0416 82.8138 51.4007 82.8138 51.8437C82.8138 52.2866 82.4547 52.6458 82.0117 52.6458C81.5687 52.6458 81.2096 52.2866 81.2096 51.8437ZM84.981 54.3528C84.5284 54.5854 84.0167 54.7083 83.5013 54.7083C82.9859 54.7083 82.4742 54.5854 82.0216 54.3528C81.9091 54.2948 81.8646 54.1569 81.9223 54.0441C81.9801 53.9318 82.1181 53.8871 82.231 53.9449C83.0182 54.3496 83.9844 54.3496 84.7716 53.9449C84.8841 53.8871 85.0223 53.9316 85.0803 54.0441C85.138 54.1566 85.0938 54.2948 84.981 54.3528ZM84.9909 52.6458C84.5479 52.6458 84.1888 52.2866 84.1888 51.8437C84.1888 51.4007 84.5479 51.0416 84.9909 51.0416C85.4339 51.0416 85.793 51.4007 85.793 51.8437C85.793 52.2866 85.4339 52.6458 84.9909 52.6458Z" fill="#499F1A"/>
<path d="M84.9883 52.1875C85.1781 52.1875 85.332 52.0336 85.332 51.8438C85.332 51.6539 85.1781 51.5 84.9883 51.5C84.7984 51.5 84.6445 51.6539 84.6445 51.8438C84.6445 52.0336 84.7984 52.1875 84.9883 52.1875Z" fill="#499F1A"/>
<path d="M82.0117 52.1875C82.2016 52.1875 82.3555 52.0336 82.3555 51.8438C82.3555 51.6539 82.2016 51.5 82.0117 51.5C81.8219 51.5 81.668 51.6539 81.668 51.8438C81.668 52.0336 81.8219 52.1875 82.0117 52.1875Z" fill="#499F1A"/>
<path d="M88.0846 51.2708H87.8555V54.2499H88.0846C88.4644 54.2499 88.7721 53.9421 88.7721 53.5624V51.9583C88.7721 51.5785 88.4644 51.2708 88.0846 51.2708Z" fill="#499F1A"/>
<path d="M79.1471 51.2708H78.918C78.5382 51.2708 78.2305 51.5785 78.2305 51.9583V53.5624C78.2305 53.9421 78.5382 54.2499 78.918 54.2499H79.1471V51.2708Z" fill="#499F1A"/>
</g>
<g opacity="0.6" clip-path="url(#clip1_798_5511)">
<path d="M11.0221 74.2083H8.73047V73.0251C9.06093 72.9261 9.30339 72.6231 9.30339 72.2603C9.30339 71.8174 8.94428 71.4583 8.5013 71.4583C8.05832 71.4583 7.69922 71.8174 7.69922 72.2603C7.69922 72.6231 7.94168 72.9261 8.27214 73.0251V74.2083H5.98047C5.22101 74.2083 4.60547 74.8238 4.60547 75.5833V79.9374C4.60547 80.6969 5.22101 81.3124 5.98047 81.3124H11.0221C11.7816 81.3124 12.3971 80.6969 12.3971 79.9374V75.5833C12.3971 74.8238 11.7816 74.2083 11.0221 74.2083ZM6.20964 76.8437C6.20964 76.4007 6.56874 76.0416 7.01172 76.0416C7.4547 76.0416 7.8138 76.4007 7.8138 76.8437C7.8138 77.2866 7.4547 77.6458 7.01172 77.6458C6.56874 77.6458 6.20964 77.2866 6.20964 76.8437ZM9.98103 79.3528C9.52843 79.5854 9.0167 79.7083 8.5013 79.7083C7.98591 79.7083 7.47418 79.5854 7.02157 79.3528C6.90905 79.2948 6.86459 79.1569 6.92234 79.0441C6.98009 78.9318 7.11805 78.8871 7.23103 78.9449C8.01822 79.3496 8.98439 79.3496 9.77157 78.9449C9.88409 78.8871 10.0223 78.9316 10.0803 79.0441C10.138 79.1566 10.0938 79.2948 9.98103 79.3528ZM9.99089 77.6458C9.54791 77.6458 9.1888 77.2866 9.1888 76.8437C9.1888 76.4007 9.54791 76.0416 9.99089 76.0416C10.4339 76.0416 10.793 76.4007 10.793 76.8437C10.793 77.2866 10.4339 77.6458 9.99089 77.6458Z" fill="#499F1A"/>
<path d="M9.98828 77.1875C10.1781 77.1875 10.332 77.0336 10.332 76.8438C10.332 76.6539 10.1781 76.5 9.98828 76.5C9.79843 76.5 9.64453 76.6539 9.64453 76.8438C9.64453 77.0336 9.79843 77.1875 9.98828 77.1875Z" fill="#499F1A"/>
<path d="M7.01172 77.1875C7.20157 77.1875 7.35547 77.0336 7.35547 76.8438C7.35547 76.6539 7.20157 76.5 7.01172 76.5C6.82187 76.5 6.66797 76.6539 6.66797 76.8438C6.66797 77.0336 6.82187 77.1875 7.01172 77.1875Z" fill="#499F1A"/>
<path d="M13.0846 76.2708H12.8555V79.2499H13.0846C13.4644 79.2499 13.7721 78.9421 13.7721 78.5624V76.9583C13.7721 76.5785 13.4644 76.2708 13.0846 76.2708Z" fill="#499F1A"/>
<path d="M4.14714 76.2708H3.91797C3.53824 76.2708 3.23047 76.5785 3.23047 76.9583V78.5624C3.23047 78.9421 3.53824 79.2499 3.91797 79.2499H4.14714V76.2708Z" fill="#499F1A"/>
</g>
<path d="M127.062 56.625H120.188V53.0754C121.179 52.7784 121.906 51.8696 121.906 50.7812C121.906 49.4523 120.829 48.375 119.5 48.375C118.171 48.375 117.094 49.4523 117.094 50.7812C117.094 51.8696 117.821 52.7784 118.812 53.0754V56.625H111.938C109.659 56.625 107.812 58.4716 107.812 60.75V73.8125C107.812 76.0909 109.659 77.9375 111.938 77.9375H127.062C129.341 77.9375 131.188 76.0909 131.188 73.8125V60.75C131.188 58.4716 129.341 56.625 127.062 56.625ZM112.625 64.5312C112.625 63.2023 113.702 62.125 115.031 62.125C116.36 62.125 117.438 63.2023 117.438 64.5312C117.438 65.8602 116.36 66.9375 115.031 66.9375C113.702 66.9375 112.625 65.8602 112.625 64.5312ZM123.939 72.0587C122.581 72.7565 121.046 73.125 119.5 73.125C117.954 73.125 116.419 72.7565 115.061 72.0587C114.723 71.8848 114.59 71.4709 114.763 71.1326C114.936 70.7958 115.35 70.6617 115.689 70.8349C118.051 72.0491 120.949 72.0491 123.311 70.8349C123.648 70.6617 124.063 70.7951 124.237 71.1326C124.41 71.4702 124.277 71.8848 123.939 72.0587ZM123.969 66.9375C122.64 66.9375 121.562 65.8602 121.562 64.5312C121.562 63.2023 122.64 62.125 123.969 62.125C125.298 62.125 126.375 63.2023 126.375 64.5312C126.375 65.8602 125.298 66.9375 123.969 66.9375Z" fill="#499F1A"/>
<path d="M123.969 65.5625C124.538 65.5625 125 65.1008 125 64.5312C125 63.9617 124.538 63.5 123.969 63.5C123.399 63.5 122.938 63.9617 122.938 64.5312C122.938 65.1008 123.399 65.5625 123.969 65.5625Z" fill="#499F1A"/>
<path d="M115.031 65.5625C115.601 65.5625 116.062 65.1008 116.062 64.5312C116.062 63.9617 115.601 63.5 115.031 63.5C114.462 63.5 114 63.9617 114 64.5312C114 65.1008 114.462 65.5625 115.031 65.5625Z" fill="#499F1A"/>
<path d="M133.25 62.8125H132.562V71.75H133.25C134.389 71.75 135.312 70.8267 135.312 69.6875V64.875C135.312 63.7358 134.389 62.8125 133.25 62.8125Z" fill="#499F1A"/>
<path d="M106.437 62.8125H105.75C104.611 62.8125 103.688 63.7358 103.688 64.875V69.6875C103.688 70.8267 104.611 71.75 105.75 71.75H106.437V62.8125Z" fill="#499F1A"/>
<g opacity="0.8">
<g clip-path="url(#clip2_798_5511)">
<rect x="8.44141" y="39.8846" width="25.5769" height="25.5769" rx="12.7885" fill="#499F1A"/>
<path d="M21.2305 44.1929C18.2689 44.1929 15.8594 46.6024 15.8594 49.564C15.8594 52.5257 18.2689 54.9352 21.2305 54.9352C24.1922 54.9352 26.6017 52.5257 26.6017 49.564C26.6017 46.6024 24.1922 44.1929 21.2305 44.1929Z" fill="#121212"/>
<path d="M26.9578 58.8918C25.6974 57.0807 24.0264 56.0834 22.2528 56.0834H20.2066C18.433 56.0834 16.7621 57.0807 15.5016 58.8918C14.2474 60.6939 13.5566 63.0728 13.5566 65.5903C13.5566 65.99 13.7857 66.3141 14.0682 66.3141H28.3913C28.6738 66.3141 28.9028 65.99 28.9028 65.5903C28.9028 63.0728 28.212 60.6939 26.9578 58.8918Z" fill="#121212"/>
</g>
</g>
<g clip-path="url(#clip3_798_5511)">
<rect x="61.4414" y="5.88464" width="25.5769" height="25.5769" rx="12.7885" fill="#499F1A"/>
<path d="M74.2305 10.1929C71.2689 10.1929 68.8594 12.6024 68.8594 15.564C68.8594 18.5257 71.2689 20.9352 74.2305 20.9352C77.1922 20.9352 79.6017 18.5257 79.6017 15.564C79.6017 12.6024 77.1922 10.1929 74.2305 10.1929Z" fill="#121212"/>
<path d="M79.9578 24.8918C78.6974 23.0807 77.0264 22.0834 75.2528 22.0834H73.2066C71.433 22.0834 69.7621 23.0807 68.5016 24.8918C67.2474 26.6939 66.5566 29.0728 66.5566 31.5903C66.5566 31.99 66.7857 32.3141 67.0682 32.3141H81.3913C81.6738 32.3141 81.9028 31.99 81.9028 31.5903C81.9028 29.0728 81.212 26.6939 79.9578 24.8918Z" fill="#121212"/>
</g>
<g opacity="0.6">
<g clip-path="url(#clip4_798_5511)">
<rect x="77.6074" y="68.9429" width="19.3765" height="19.3765" rx="9.68823" fill="#499F1A"/>
<path d="M87.2956 72.2067C85.0519 72.2067 83.2266 74.032 83.2266 76.2757C83.2266 78.5194 85.0519 80.3448 87.2956 80.3448C89.5393 80.3448 91.3647 78.5194 91.3647 76.2757C91.3647 74.032 89.5393 72.2067 87.2956 72.2067Z" fill="#121212"/>
<path d="M91.6348 83.3423C90.6799 81.9703 89.4141 81.2147 88.0704 81.2147H86.5203C85.1767 81.2147 83.9108 81.9703 82.9559 83.3423C82.0057 84.7076 81.4824 86.5097 81.4824 88.4169C81.4824 88.7198 81.6559 88.9653 81.87 88.9653H92.7208C92.9348 88.9653 93.1083 88.7198 93.1083 88.4169C93.1083 86.5097 92.585 84.7076 91.6348 83.3423Z" fill="#121212"/>
</g>
</g>
<g opacity="0.4">
<g clip-path="url(#clip5_798_5511)">
<rect x="92.9805" y="33.2366" width="14.7261" height="14.7261" rx="7.36305" fill="#499F1A"/>
<path d="M100.344 35.7172C98.6392 35.7172 97.252 37.1045 97.252 38.8097C97.252 40.5148 98.6392 41.9021 100.344 41.9021C102.05 41.9021 103.437 40.5148 103.437 38.8097C103.437 37.1045 102.05 35.7172 100.344 35.7172Z" fill="#121212"/>
<path d="M103.642 44.1801C102.916 43.1373 101.954 42.5631 100.933 42.5631H99.7546C98.7334 42.5631 97.7713 43.1373 97.0456 44.1801C96.3235 45.2177 95.9258 46.5873 95.9258 48.0368C95.9258 48.2669 96.0576 48.4536 96.2203 48.4536H104.467C104.63 48.4536 104.761 48.2669 104.761 48.0368C104.761 46.5873 104.364 45.2177 103.642 44.1801Z" fill="#121212"/>
</g>
</g>
<g clip-path="url(#clip6_798_5511)">
<rect x="24.9805" y="72.2366" width="14.7261" height="14.7261" rx="7.36305" fill="#499F1A"/>
<path d="M32.3444 74.7172C30.6392 74.7172 29.252 76.1045 29.252 77.8097C29.252 79.5148 30.6392 80.9021 32.3444 80.9021C34.0496 80.9021 35.4369 79.5148 35.4369 77.8097C35.4369 76.1045 34.0496 74.7172 32.3444 74.7172Z" fill="#121212"/>
<path d="M35.6416 83.1801C34.9159 82.1373 33.9538 81.5631 32.9327 81.5631H31.7546C30.7334 81.5631 29.7713 82.1373 29.0456 83.1801C28.3235 84.2177 27.9258 85.5873 27.9258 87.0368C27.9258 87.2669 28.0576 87.4536 28.2203 87.4536H36.4669C36.6296 87.4536 36.7614 87.2669 36.7614 87.0368C36.7614 85.5873 36.3637 84.2177 35.6416 83.1801Z" fill="#121212"/>
</g>
<g opacity="0.1">
<g clip-path="url(#clip7_798_5511)">
<rect x="33.3555" y="21.5303" width="10.0758" height="10.0758" rx="5.03788" fill="#499F1A"/>
<path d="M38.3933 23.2275C37.2265 23.2275 36.2773 24.1767 36.2773 25.3435C36.2773 26.5102 37.2265 27.4594 38.3933 27.4594C39.56 27.4594 40.5092 26.5102 40.5092 25.3435C40.5092 24.1767 39.56 23.2275 38.3933 23.2275Z" fill="#121212"/>
<path d="M40.6503 29.018C40.1538 28.3045 39.4956 27.9116 38.7969 27.9116H37.9908C37.2921 27.9116 36.6338 28.3045 36.1373 29.018C35.6432 29.7279 35.3711 30.665 35.3711 31.6568C35.3711 31.8142 35.4613 31.9419 35.5726 31.9419H41.215C41.3263 31.9419 41.4165 31.8142 41.4165 31.6568C41.4165 30.665 41.1444 29.7279 40.6503 29.018Z" fill="#121212"/>
</g>
</g>
<g opacity="0.4">
<g clip-path="url(#clip8_798_5511)">
<rect x="55.3555" y="69.5303" width="10.0758" height="10.0758" rx="5.03788" fill="#499F1A"/>
<path d="M60.3933 71.2275C59.2265 71.2275 58.2773 72.1767 58.2773 73.3435C58.2773 74.5102 59.2265 75.4594 60.3933 75.4594C61.56 75.4594 62.5092 74.5102 62.5092 73.3435C62.5092 72.1767 61.56 71.2275 60.3933 71.2275Z" fill="#121212"/>
<path d="M62.6503 77.018C62.1538 76.3045 61.4956 75.9116 60.7969 75.9116H59.9908C59.2921 75.9116 58.6338 76.3045 58.1373 77.018C57.6432 77.7279 57.3711 78.665 57.3711 79.6568C57.3711 79.8142 57.4613 79.9419 57.5726 79.9419H63.215C63.3263 79.9419 63.4165 79.8142 63.4165 79.6568C63.4165 78.665 63.1444 77.7279 62.6503 77.018Z" fill="#121212"/>
</g>
</g>
<defs>
<clipPath id="clip0_798_5511">
<rect width="11" height="11" fill="white" transform="translate(78 46)"/>
</clipPath>
<clipPath id="clip1_798_5511">
<rect width="11" height="11" fill="white" transform="translate(3 71)"/>
</clipPath>
<clipPath id="clip2_798_5511">
<rect x="8.44141" y="39.8846" width="25.5769" height="25.5769" rx="12.7885" fill="white"/>
</clipPath>
<clipPath id="clip3_798_5511">
<rect x="61.4414" y="5.88464" width="25.5769" height="25.5769" rx="12.7885" fill="white"/>
</clipPath>
<clipPath id="clip4_798_5511">
<rect x="77.6074" y="68.9429" width="19.3765" height="19.3765" rx="9.68823" fill="white"/>
</clipPath>
<clipPath id="clip5_798_5511">
<rect x="92.9805" y="33.2366" width="14.7261" height="14.7261" rx="7.36305" fill="white"/>
</clipPath>
<clipPath id="clip6_798_5511">
<rect x="24.9805" y="72.2366" width="14.7261" height="14.7261" rx="7.36305" fill="white"/>
</clipPath>
<clipPath id="clip7_798_5511">
<rect x="33.3555" y="21.5303" width="10.0758" height="10.0758" rx="5.03788" fill="white"/>
</clipPath>
<clipPath id="clip8_798_5511">
<rect x="55.3555" y="69.5303" width="10.0758" height="10.0758" rx="5.03788" fill="white"/>
</clipPath>
</defs>
</svg>
