<svg width="140" height="93" viewBox="0 0 140 93" fill="none" xmlns="http://www.w3.org/2000/svg">
<path d="M63.1875 42.875H57.5625V39.9708C58.3736 39.7278 58.9688 38.9842 58.9688 38.0938C58.9688 37.0064 58.0873 36.125 57 36.125C55.9127 36.125 55.0312 37.0064 55.0312 38.0938C55.0312 38.9842 55.6264 39.7278 56.4375 39.9708V42.875H50.8125C48.9484 42.875 47.4375 44.3859 47.4375 46.25V56.9375C47.4375 58.8016 48.9484 60.3125 50.8125 60.3125H63.1875C65.0516 60.3125 66.5625 58.8016 66.5625 56.9375V46.25C66.5625 44.3859 65.0516 42.875 63.1875 42.875ZM51.375 49.3438C51.375 48.2564 52.2564 47.375 53.3438 47.375C54.4311 47.375 55.3125 48.2564 55.3125 49.3438C55.3125 50.4311 54.4311 51.3125 53.3438 51.3125C52.2564 51.3125 51.375 50.4311 51.375 49.3438ZM60.6321 55.5026C59.5211 56.0735 58.2651 56.375 57 56.375C55.7349 56.375 54.4789 56.0735 53.3679 55.5026C53.0917 55.3603 52.9826 55.0216 53.1244 54.7449C53.2661 54.4692 53.6048 54.3596 53.8821 54.5013C55.8142 55.4947 58.1858 55.4947 60.1179 54.5013C60.3941 54.3596 60.7333 54.4687 60.8756 54.7449C61.0174 55.0211 60.9088 55.3603 60.6321 55.5026ZM60.6562 51.3125C59.5689 51.3125 58.6875 50.4311 58.6875 49.3438C58.6875 48.2564 59.5689 47.375 60.6562 47.375C61.7436 47.375 62.625 48.2564 62.625 49.3438C62.625 50.4311 61.7436 51.3125 60.6562 51.3125Z" fill="#FF3437"/>
<path d="M60.6562 50.1875C61.1222 50.1875 61.5 49.8097 61.5 49.3438C61.5 48.8778 61.1222 48.5 60.6562 48.5C60.1903 48.5 59.8125 48.8778 59.8125 49.3438C59.8125 49.8097 60.1903 50.1875 60.6562 50.1875Z" fill="#FF3437"/>
<path d="M53.3438 50.1875C53.8097 50.1875 54.1875 49.8097 54.1875 49.3438C54.1875 48.8778 53.8097 48.5 53.3438 48.5C52.8778 48.5 52.5 48.8778 52.5 49.3438C52.5 49.8097 52.8778 50.1875 53.3438 50.1875Z" fill="#FF3437"/>
<path d="M68.25 47.9375H67.6875V55.25H68.25C69.1821 55.25 69.9375 54.4946 69.9375 53.5625V49.625C69.9375 48.6929 69.1821 47.9375 68.25 47.9375Z" fill="#FF3437"/>
<path d="M46.3125 47.9375H45.75C44.8179 47.9375 44.0625 48.6929 44.0625 49.625V53.5625C44.0625 54.4946 44.8179 55.25 45.75 55.25H46.3125V47.9375Z" fill="#FF3437"/>
<g opacity="0.6" clip-path="url(#clip0_798_5376)">
<path d="M19.3548 20.5416H15.3965V18.4979C15.9673 18.3269 16.3861 17.8036 16.3861 17.177C16.3861 16.4119 15.7658 15.7916 15.0007 15.7916C14.2355 15.7916 13.6152 16.4119 13.6152 17.177C13.6152 17.8036 14.034 18.3269 14.6048 18.4979V20.5416H10.6465C9.33469 20.5416 8.27148 21.6048 8.27148 22.9166V30.4375C8.27148 31.7493 9.33469 32.8125 10.6465 32.8125H19.3548C20.6666 32.8125 21.7298 31.7493 21.7298 30.4375V22.9166C21.7298 21.6048 20.6666 20.5416 19.3548 20.5416ZM11.0423 25.0937C11.0423 24.3286 11.6626 23.7083 12.4277 23.7083C13.1929 23.7083 13.8132 24.3286 13.8132 25.0937C13.8132 25.8589 13.1929 26.4791 12.4277 26.4791C11.6626 26.4791 11.0423 25.8589 11.0423 25.0937ZM17.5565 29.4277C16.7748 29.8295 15.8909 30.0416 15.0007 30.0416C14.1104 30.0416 13.2265 29.8295 12.4448 29.4277C12.2504 29.3275 12.1736 29.0893 12.2734 28.8945C12.3731 28.7005 12.6114 28.6234 12.8065 28.7231C14.1662 29.4221 15.8351 29.4221 17.1948 28.7231C17.3891 28.6234 17.6278 28.7001 17.7279 28.8945C17.8277 29.0889 17.7513 29.3275 17.5565 29.4277ZM17.5736 26.4791C16.8084 26.4791 16.1882 25.8589 16.1882 25.0937C16.1882 24.3286 16.8084 23.7083 17.5736 23.7083C18.3387 23.7083 18.959 24.3286 18.959 25.0937C18.959 25.8589 18.3387 26.4791 17.5736 26.4791Z" fill="#FF3437"/>
<path d="M17.5723 25.6875C17.9002 25.6875 18.166 25.4217 18.166 25.0938C18.166 24.7658 17.9002 24.5 17.5723 24.5C17.2443 24.5 16.9785 24.7658 16.9785 25.0938C16.9785 25.4217 17.2443 25.6875 17.5723 25.6875Z" fill="#FF3437"/>
<path d="M12.4277 25.6875C12.7557 25.6875 13.0215 25.4217 13.0215 25.0938C13.0215 24.7658 12.7557 24.5 12.4277 24.5C12.0998 24.5 11.834 24.7658 11.834 25.0938C11.834 25.4217 12.0998 25.6875 12.4277 25.6875Z" fill="#FF3437"/>
<path d="M22.9173 24.1041H22.5215V29.25H22.9173C23.5732 29.25 24.1048 28.7184 24.1048 28.0625V25.2916C24.1048 24.6357 23.5732 24.1041 22.9173 24.1041Z" fill="#FF3437"/>
<path d="M7.47982 24.1041H7.08398C6.42809 24.1041 5.89648 24.6357 5.89648 25.2916V28.0625C5.89648 28.7184 6.42809 29.25 7.08398 29.25H7.47982V24.1041Z" fill="#FF3437"/>
</g>
<g opacity="0.6" clip-path="url(#clip1_798_5376)">
<path d="M86.5221 49.2083H84.2305V48.0251C84.5609 47.9261 84.8034 47.6231 84.8034 47.2603C84.8034 46.8174 84.4443 46.4583 84.0013 46.4583C83.5583 46.4583 83.1992 46.8174 83.1992 47.2603C83.1992 47.6231 83.4417 47.9261 83.7721 48.0251V49.2083H81.4805C80.721 49.2083 80.1055 49.8238 80.1055 50.5833V54.9374C80.1055 55.6969 80.721 56.3124 81.4805 56.3124H86.5221C87.2816 56.3124 87.8971 55.6969 87.8971 54.9374V50.5833C87.8971 49.8238 87.2816 49.2083 86.5221 49.2083ZM81.7096 51.8437C81.7096 51.4007 82.0687 51.0416 82.5117 51.0416C82.9547 51.0416 83.3138 51.4007 83.3138 51.8437C83.3138 52.2866 82.9547 52.6458 82.5117 52.6458C82.0687 52.6458 81.7096 52.2866 81.7096 51.8437ZM85.481 54.3528C85.0284 54.5854 84.5167 54.7083 84.0013 54.7083C83.4859 54.7083 82.9742 54.5854 82.5216 54.3528C82.4091 54.2948 82.3646 54.1569 82.4223 54.0441C82.4801 53.9318 82.6181 53.8871 82.731 53.9449C83.5182 54.3496 84.4844 54.3496 85.2716 53.9449C85.3841 53.8871 85.5223 53.9316 85.5803 54.0441C85.638 54.1566 85.5938 54.2948 85.481 54.3528ZM85.4909 52.6458C85.0479 52.6458 84.6888 52.2866 84.6888 51.8437C84.6888 51.4007 85.0479 51.0416 85.4909 51.0416C85.9339 51.0416 86.293 51.4007 86.293 51.8437C86.293 52.2866 85.9339 52.6458 85.4909 52.6458Z" fill="#FF3437"/>
<path d="M85.4883 52.1875C85.6781 52.1875 85.832 52.0336 85.832 51.8438C85.832 51.6539 85.6781 51.5 85.4883 51.5C85.2984 51.5 85.1445 51.6539 85.1445 51.8438C85.1445 52.0336 85.2984 52.1875 85.4883 52.1875Z" fill="#FF3437"/>
<path d="M82.5117 52.1875C82.7016 52.1875 82.8555 52.0336 82.8555 51.8438C82.8555 51.6539 82.7016 51.5 82.5117 51.5C82.3219 51.5 82.168 51.6539 82.168 51.8438C82.168 52.0336 82.3219 52.1875 82.5117 52.1875Z" fill="#FF3437"/>
<path d="M88.5846 51.2708H88.3555V54.2499H88.5846C88.9644 54.2499 89.2721 53.9421 89.2721 53.5624V51.9583C89.2721 51.5785 88.9644 51.2708 88.5846 51.2708Z" fill="#FF3437"/>
<path d="M79.6471 51.2708H79.418C79.0382 51.2708 78.7305 51.5785 78.7305 51.9583V53.5624C78.7305 53.9421 79.0382 54.2499 79.418 54.2499H79.6471V51.2708Z" fill="#FF3437"/>
</g>
<g opacity="0.6" clip-path="url(#clip2_798_5376)">
<path d="M11.5221 74.2083H9.23047V73.0251C9.56093 72.9261 9.80339 72.6231 9.80339 72.2603C9.80339 71.8174 9.44428 71.4583 9.0013 71.4583C8.55832 71.4583 8.19922 71.8174 8.19922 72.2603C8.19922 72.6231 8.44168 72.9261 8.77214 73.0251V74.2083H6.48047C5.72101 74.2083 5.10547 74.8238 5.10547 75.5833V79.9374C5.10547 80.6969 5.72101 81.3124 6.48047 81.3124H11.5221C12.2816 81.3124 12.8971 80.6969 12.8971 79.9374V75.5833C12.8971 74.8238 12.2816 74.2083 11.5221 74.2083ZM6.70964 76.8437C6.70964 76.4007 7.06874 76.0416 7.51172 76.0416C7.9547 76.0416 8.3138 76.4007 8.3138 76.8437C8.3138 77.2866 7.9547 77.6458 7.51172 77.6458C7.06874 77.6458 6.70964 77.2866 6.70964 76.8437ZM10.481 79.3528C10.0284 79.5854 9.5167 79.7083 9.0013 79.7083C8.48591 79.7083 7.97418 79.5854 7.52157 79.3528C7.40905 79.2948 7.36459 79.1569 7.42234 79.0441C7.48009 78.9318 7.61805 78.8871 7.73103 78.9449C8.51822 79.3496 9.48439 79.3496 10.2716 78.9449C10.3841 78.8871 10.5223 78.9316 10.5803 79.0441C10.638 79.1566 10.5938 79.2948 10.481 79.3528ZM10.4909 77.6458C10.0479 77.6458 9.6888 77.2866 9.6888 76.8437C9.6888 76.4007 10.0479 76.0416 10.4909 76.0416C10.9339 76.0416 11.293 76.4007 11.293 76.8437C11.293 77.2866 10.9339 77.6458 10.4909 77.6458Z" fill="#FF3437"/>
<path d="M10.4883 77.1875C10.6781 77.1875 10.832 77.0336 10.832 76.8438C10.832 76.6539 10.6781 76.5 10.4883 76.5C10.2984 76.5 10.1445 76.6539 10.1445 76.8438C10.1445 77.0336 10.2984 77.1875 10.4883 77.1875Z" fill="#FF3437"/>
<path d="M7.51172 77.1875C7.70157 77.1875 7.85547 77.0336 7.85547 76.8438C7.85547 76.6539 7.70157 76.5 7.51172 76.5C7.32187 76.5 7.16797 76.6539 7.16797 76.8438C7.16797 77.0336 7.32187 77.1875 7.51172 77.1875Z" fill="#FF3437"/>
<path d="M13.5846 76.2708H13.3555V79.2499H13.5846C13.9644 79.2499 14.2721 78.9421 14.2721 78.5624V76.9583C14.2721 76.5785 13.9644 76.2708 13.5846 76.2708Z" fill="#FF3437"/>
<path d="M4.64714 76.2708H4.41797C4.03824 76.2708 3.73047 76.5785 3.73047 76.9583V78.5624C3.73047 78.9421 4.03824 79.2499 4.41797 79.2499H4.64714V76.2708Z" fill="#FF3437"/>
</g>
<path d="M127.562 56.625H120.688V53.0754C121.679 52.7784 122.406 51.8696 122.406 50.7812C122.406 49.4523 121.329 48.375 120 48.375C118.671 48.375 117.594 49.4523 117.594 50.7812C117.594 51.8696 118.321 52.7784 119.312 53.0754V56.625H112.438C110.159 56.625 108.312 58.4716 108.312 60.75V73.8125C108.312 76.0909 110.159 77.9375 112.438 77.9375H127.562C129.841 77.9375 131.688 76.0909 131.688 73.8125V60.75C131.688 58.4716 129.841 56.625 127.562 56.625ZM113.125 64.5312C113.125 63.2023 114.202 62.125 115.531 62.125C116.86 62.125 117.938 63.2023 117.938 64.5312C117.938 65.8602 116.86 66.9375 115.531 66.9375C114.202 66.9375 113.125 65.8602 113.125 64.5312ZM124.439 72.0587C123.081 72.7565 121.546 73.125 120 73.125C118.454 73.125 116.919 72.7565 115.561 72.0587C115.223 71.8848 115.09 71.4709 115.263 71.1326C115.436 70.7958 115.85 70.6617 116.189 70.8349C118.551 72.0491 121.449 72.0491 123.811 70.8349C124.148 70.6617 124.563 70.7951 124.737 71.1326C124.91 71.4702 124.777 71.8848 124.439 72.0587ZM124.469 66.9375C123.14 66.9375 122.062 65.8602 122.062 64.5312C122.062 63.2023 123.14 62.125 124.469 62.125C125.798 62.125 126.875 63.2023 126.875 64.5312C126.875 65.8602 125.798 66.9375 124.469 66.9375Z" fill="#FF3437"/>
<path d="M124.469 65.5625C125.038 65.5625 125.5 65.1008 125.5 64.5312C125.5 63.9617 125.038 63.5 124.469 63.5C123.899 63.5 123.438 63.9617 123.438 64.5312C123.438 65.1008 123.899 65.5625 124.469 65.5625Z" fill="#FF3437"/>
<path d="M115.531 65.5625C116.101 65.5625 116.562 65.1008 116.562 64.5312C116.562 63.9617 116.101 63.5 115.531 63.5C114.962 63.5 114.5 63.9617 114.5 64.5312C114.5 65.1008 114.962 65.5625 115.531 65.5625Z" fill="#FF3437"/>
<path d="M133.75 62.8125H133.062V71.75H133.75C134.889 71.75 135.812 70.8267 135.812 69.6875V64.875C135.812 63.7358 134.889 62.8125 133.75 62.8125Z" fill="#FF3437"/>
<path d="M106.937 62.8125H106.25C105.111 62.8125 104.188 63.7358 104.188 64.875V69.6875C104.188 70.8267 105.111 71.75 106.25 71.75H106.937V62.8125Z" fill="#FF3437"/>
<g opacity="0.8">
<g clip-path="url(#clip3_798_5376)">
<rect x="8.94141" y="39.8848" width="25.5769" height="25.5769" rx="12.7885" fill="#FF3437"/>
<path d="M21.7305 44.1929C18.7689 44.1929 16.3594 46.6024 16.3594 49.564C16.3594 52.5257 18.7689 54.9352 21.7305 54.9352C24.6922 54.9352 27.1017 52.5257 27.1017 49.564C27.1017 46.6024 24.6922 44.1929 21.7305 44.1929Z" fill="#121212"/>
<path d="M27.4578 58.8919C26.1974 57.0809 24.5264 56.0835 22.7528 56.0835H20.7066C18.933 56.0835 17.2621 57.0809 16.0016 58.8919C14.7474 60.6941 14.0566 63.0729 14.0566 65.5904C14.0566 65.9902 14.2857 66.3143 14.5682 66.3143H28.8913C29.1738 66.3143 29.4028 65.9902 29.4028 65.5904C29.4028 63.0729 28.712 60.6941 27.4578 58.8919Z" fill="#121212"/>
</g>
</g>
<g clip-path="url(#clip4_798_5376)">
<rect x="61.9414" y="5.88464" width="25.5769" height="25.5769" rx="12.7885" fill="#FF3437"/>
<path d="M74.7305 10.1929C71.7689 10.1929 69.3594 12.6024 69.3594 15.564C69.3594 18.5257 71.7689 20.9352 74.7305 20.9352C77.6922 20.9352 80.1017 18.5257 80.1017 15.564C80.1017 12.6024 77.6922 10.1929 74.7305 10.1929Z" fill="#121212"/>
<path d="M80.4578 24.8918C79.1974 23.0807 77.5264 22.0834 75.7528 22.0834H73.7066C71.933 22.0834 70.2621 23.0807 69.0016 24.8918C67.7474 26.6939 67.0566 29.0728 67.0566 31.5903C67.0566 31.99 67.2857 32.3141 67.5682 32.3141H81.8913C82.1738 32.3141 82.4028 31.99 82.4028 31.5903C82.4028 29.0728 81.712 26.6939 80.4578 24.8918Z" fill="#121212"/>
</g>
<g opacity="0.6">
<g clip-path="url(#clip5_798_5376)">
<rect x="78.1074" y="68.9429" width="19.3765" height="19.3765" rx="9.68823" fill="#FF3437"/>
<path d="M87.7956 72.2068C85.5519 72.2068 83.7266 74.0322 83.7266 76.2758C83.7266 78.5195 85.5519 80.3449 87.7956 80.3449C90.0393 80.3449 91.8647 78.5195 91.8647 76.2758C91.8647 74.0322 90.0393 72.2068 87.7956 72.2068Z" fill="#121212"/>
<path d="M92.1348 83.3422C91.1799 81.9702 89.9141 81.2146 88.5704 81.2146H87.0203C85.6767 81.2146 84.4108 81.9702 83.4559 83.3422C82.5057 84.7074 81.9824 86.5096 81.9824 88.4168C81.9824 88.7196 82.1559 88.9652 82.37 88.9652H93.2208C93.4348 88.9652 93.6083 88.7196 93.6083 88.4168C93.6083 86.5096 93.085 84.7074 92.1348 83.3422Z" fill="#121212"/>
</g>
</g>
<g opacity="0.4">
<g clip-path="url(#clip6_798_5376)">
<rect x="93.4805" y="33.2366" width="14.7261" height="14.7261" rx="7.36305" fill="#FF3437"/>
<path d="M100.844 35.7173C99.1392 35.7173 97.752 37.1046 97.752 38.8098C97.752 40.515 99.1392 41.9023 100.844 41.9023C102.55 41.9023 103.937 40.515 103.937 38.8098C103.937 37.1046 102.55 35.7173 100.844 35.7173Z" fill="#121212"/>
<path d="M104.142 44.1799C103.416 43.1372 102.454 42.563 101.433 42.563H100.255C99.2334 42.563 98.2713 43.1372 97.5456 44.1799C96.8235 45.2175 96.4258 46.5872 96.4258 48.0367C96.4258 48.2668 96.5576 48.4534 96.7203 48.4534H104.967C105.13 48.4534 105.261 48.2668 105.261 48.0367C105.261 46.5872 104.864 45.2175 104.142 44.1799Z" fill="#121212"/>
</g>
</g>
<g clip-path="url(#clip7_798_5376)">
<rect x="25.4805" y="72.2366" width="14.7261" height="14.7261" rx="7.36305" fill="#FF3437"/>
<path d="M32.8444 74.7173C31.1392 74.7173 29.752 76.1046 29.752 77.8098C29.752 79.515 31.1392 80.9023 32.8444 80.9023C34.5496 80.9023 35.9369 79.515 35.9369 77.8098C35.9369 76.1046 34.5496 74.7173 32.8444 74.7173Z" fill="#121212"/>
<path d="M36.1416 83.1799C35.4159 82.1372 34.4538 81.563 33.4327 81.563H32.2546C31.2334 81.563 30.2713 82.1372 29.5456 83.1799C28.8235 84.2175 28.4258 85.5872 28.4258 87.0367C28.4258 87.2668 28.5576 87.4534 28.7203 87.4534H36.9669C37.1296 87.4534 37.2614 87.2668 37.2614 87.0367C37.2614 85.5872 36.8637 84.2175 36.1416 83.1799Z" fill="#121212"/>
</g>
<g opacity="0.1">
<g clip-path="url(#clip8_798_5376)">
<rect x="33.8555" y="21.5303" width="10.0758" height="10.0758" rx="5.03788" fill="#FF3437"/>
<path d="M38.8933 23.2275C37.7265 23.2275 36.7773 24.1767 36.7773 25.3435C36.7773 26.5102 37.7265 27.4594 38.8933 27.4594C40.06 27.4594 41.0092 26.5102 41.0092 25.3435C41.0092 24.1767 40.06 23.2275 38.8933 23.2275Z" fill="#121212"/>
<path d="M41.1503 29.018C40.6538 28.3045 39.9956 27.9116 39.2969 27.9116H38.4908C37.7921 27.9116 37.1338 28.3045 36.6373 29.018C36.1432 29.7279 35.8711 30.665 35.8711 31.6568C35.8711 31.8142 35.9613 31.9419 36.0726 31.9419H41.715C41.8263 31.9419 41.9165 31.8142 41.9165 31.6568C41.9165 30.665 41.6444 29.7279 41.1503 29.018Z" fill="#121212"/>
</g>
</g>
<g opacity="0.4">
<g clip-path="url(#clip9_798_5376)">
<rect x="55.8555" y="69.5303" width="10.0758" height="10.0758" rx="5.03788" fill="#FF3437"/>
<path d="M60.8933 71.2275C59.7265 71.2275 58.7773 72.1767 58.7773 73.3435C58.7773 74.5102 59.7265 75.4594 60.8933 75.4594C62.06 75.4594 63.0092 74.5102 63.0092 73.3435C63.0092 72.1767 62.06 71.2275 60.8933 71.2275Z" fill="#121212"/>
<path d="M63.1503 77.018C62.6538 76.3045 61.9956 75.9116 61.2969 75.9116H60.4908C59.7921 75.9116 59.1338 76.3045 58.6373 77.018C58.1432 77.7279 57.8711 78.665 57.8711 79.6568C57.8711 79.8142 57.9613 79.9419 58.0726 79.9419H63.715C63.8263 79.9419 63.9165 79.8142 63.9165 79.6568C63.9165 78.665 63.6444 77.7279 63.1503 77.018Z" fill="#121212"/>
</g>
</g>
<defs>
<clipPath id="clip0_798_5376">
<rect width="19" height="19" fill="white" transform="translate(5.5 15)"/>
</clipPath>
<clipPath id="clip1_798_5376">
<rect width="11" height="11" fill="white" transform="translate(78.5 46)"/>
</clipPath>
<clipPath id="clip2_798_5376">
<rect width="11" height="11" fill="white" transform="translate(3.5 71)"/>
</clipPath>
<clipPath id="clip3_798_5376">
<rect x="8.94141" y="39.8848" width="25.5769" height="25.5769" rx="12.7885" fill="white"/>
</clipPath>
<clipPath id="clip4_798_5376">
<rect x="61.9414" y="5.88464" width="25.5769" height="25.5769" rx="12.7885" fill="white"/>
</clipPath>
<clipPath id="clip5_798_5376">
<rect x="78.1074" y="68.9429" width="19.3765" height="19.3765" rx="9.68823" fill="white"/>
</clipPath>
<clipPath id="clip6_798_5376">
<rect x="93.4805" y="33.2366" width="14.7261" height="14.7261" rx="7.36305" fill="white"/>
</clipPath>
<clipPath id="clip7_798_5376">
<rect x="25.4805" y="72.2366" width="14.7261" height="14.7261" rx="7.36305" fill="white"/>
</clipPath>
<clipPath id="clip8_798_5376">
<rect x="33.8555" y="21.5303" width="10.0758" height="10.0758" rx="5.03788" fill="white"/>
</clipPath>
<clipPath id="clip9_798_5376">
<rect x="55.8555" y="69.5303" width="10.0758" height="10.0758" rx="5.03788" fill="white"/>
</clipPath>
</defs>
</svg>
