<svg width="91" height="90" viewBox="0 0 91 90" fill="none" xmlns="http://www.w3.org/2000/svg">
<g clip-path="url(#clip0_798_5356)">
<rect x="10.5" y="10" width="70" height="70" rx="35" fill="white"/>
<path d="M45.5008 21.791C37.3952 21.791 30.8008 28.3854 30.8008 36.491C30.8008 44.5966 37.3952 51.1911 45.5008 51.1911C53.6064 51.1911 60.2008 44.5966 60.2008 36.491C60.2008 28.3854 53.6064 21.791 45.5008 21.791Z" fill="#121212"/>
<path d="M61.1768 62.0194C57.7272 57.0629 53.1542 54.3333 48.3 54.3333H42.7C37.8459 54.3333 33.2728 57.0629 29.8232 62.0194C26.3905 66.9516 24.5 73.4621 24.5 80.3521C24.5 81.4462 25.1268 82.3333 25.9 82.3333H65.1C65.8732 82.3333 66.5 81.4462 66.5 80.3521C66.5 73.4621 64.6095 66.9516 61.1768 62.0194Z" fill="#121212"/>
</g>
<defs>
<clipPath id="clip0_798_5356">
<rect x="10.5" y="10" width="70" height="70" rx="35" fill="white"/>
</clipPath>
</defs>
</svg>
