<svg width="40" height="41" viewBox="0 0 40 41" fill="none" xmlns="http://www.w3.org/2000/svg">
<path d="M29.2669 31.8821C26.3022 31.8821 24.1057 30.8542 22.6775 28.7984C21.2493 26.7426 20.5352 23.8645 20.5352 20.1641C20.5352 16.4636 21.2493 13.5855 22.6775 11.5297C24.1057 9.47394 26.3022 8.44604 29.2669 8.44604C32.2315 8.44604 34.428 9.47394 35.8562 11.5297C37.2844 13.5855 37.9986 16.4636 37.9986 20.1641C37.9986 23.8645 37.2844 26.7426 35.8562 28.7984C34.428 30.8542 32.2315 31.8821 29.2669 31.8821ZM29.2669 27.7597C30.5653 27.7597 31.4633 27.2836 31.961 26.3314C32.4587 25.3793 32.7076 24.0376 32.7076 22.3064V18.0217C32.7076 16.2905 32.4587 14.9488 31.961 13.9967C31.4633 13.0445 30.5653 12.5684 29.2669 12.5684C27.9685 12.5684 27.0704 13.0445 26.5727 13.9967C26.075 14.9488 25.8261 16.2905 25.8261 18.0217V22.3064C25.8261 24.0376 26.075 25.3793 26.5727 26.3314C27.0704 27.2836 27.9685 27.7597 29.2669 27.7597Z" fill="white"/>
<path d="M3.12216 31.4924V27.5648H9.22462V12.3736H8.93248L4.32318 18.4111L1.20703 15.9766L6.62783 8.83545H14.0936V27.5648H18.8977V31.4924H3.12216Z" fill="white"/>
</svg>
