<svg width="40" height="41" viewBox="0 0 40 41" fill="none" xmlns="http://www.w3.org/2000/svg">
<path d="M5.03351 19.0958C4.60016 18.6625 4.60016 17.9625 5.03351 17.5291L13.4224 9.14025C14.4113 8.15135 15.9335 7.88469 17.2002 8.48467L23.8224 11.5958C24.2335 11.7958 24.7446 11.7069 25.0779 11.3736L33.3891 3.06251C33.8224 2.62916 34.5335 2.62916 34.9668 3.06251C35.4002 3.49579 35.4002 4.1958 34.9668 4.62915L26.6446 12.9514C25.6557 13.9403 24.1335 14.2069 22.8668 13.6069L16.2557 10.4958C15.8335 10.2958 15.3224 10.3847 14.9891 10.7069L6.61127 19.0958C6.38903 19.318 6.11125 19.418 5.82242 19.418C5.53352 19.418 5.25574 19.318 5.03351 19.0958Z" fill="white"/>
<path d="M18.611 22.2625V36.0403C18.611 37.2736 17.611 38.2625 16.3888 38.2625H14.1666C12.9444 38.2625 11.9443 37.2736 11.9443 36.0403V22.2625C11.9443 21.0403 12.9444 20.0403 14.1666 20.0403H16.3888C17.611 20.0403 18.611 21.0403 18.611 22.2625Z" fill="white"/>
<path d="M37.5002 14.4625V36.0403C37.5002 37.2736 36.5002 38.2625 35.2779 38.2625H33.0557C31.8335 38.2625 30.8335 37.2736 30.8335 36.0403V14.4625C30.8335 13.2403 31.8335 12.2402 33.0557 12.2402H35.2779C36.5002 12.2402 37.5002 13.2403 37.5002 14.4625Z" fill="white"/>
<path d="M9.16667 32.1958V36.0403C9.16667 37.2736 8.16671 38.2625 6.94444 38.2625H4.72222C3.50003 38.2625 2.5 37.2736 2.5 36.0403V32.1958C2.5 30.9736 3.50003 29.9736 4.72222 29.9736H6.94444C8.16671 29.9736 9.16667 30.9736 9.16667 32.1958Z" fill="white"/>
<path d="M28.0553 26.1291V36.0403C28.0553 37.2736 27.0554 38.2625 25.8331 38.2625H23.6109C22.3887 38.2625 21.3887 37.2736 21.3887 36.0403V26.1291C21.3887 24.9069 22.3887 23.9069 23.6109 23.9069H25.8331C27.0554 23.9069 28.0553 24.9069 28.0553 26.1291Z" fill="white"/>
</svg>
