<svg width="40" height="41" viewBox="0 0 40 41" fill="none" xmlns="http://www.w3.org/2000/svg">
<path d="M5.03326 19.0958C4.59991 18.6625 4.59991 17.9625 5.03326 17.5291L13.4221 9.14025C14.411 8.15135 15.9333 7.88469 17.1999 8.48467L23.8221 11.5958C24.2332 11.7958 24.7444 11.7069 25.0777 11.3736L33.3888 3.06251C33.8221 2.62916 34.5333 2.62916 34.9666 3.06251C35.4 3.49579 35.4 4.1958 34.9666 4.62915L26.6444 12.9514C25.6555 13.9403 24.1333 14.2069 22.8666 13.6069L16.2555 10.4958C15.8332 10.2958 15.3222 10.3847 14.9888 10.7069L6.61102 19.0958C6.38879 19.318 6.11101 19.418 5.82218 19.418C5.53328 19.418 5.2555 19.318 5.03326 19.0958Z" fill="#121212"/>
<path d="M18.611 22.2625V36.0403C18.611 37.2736 17.611 38.2625 16.3888 38.2625H14.1666C12.9444 38.2625 11.9443 37.2736 11.9443 36.0403V22.2625C11.9443 21.0403 12.9444 20.0403 14.1666 20.0403H16.3888C17.611 20.0403 18.611 21.0403 18.611 22.2625Z" fill="#121212"/>
<path d="M37.4999 14.4625V36.0403C37.4999 37.2736 36.5 38.2625 35.2777 38.2625H33.0555C31.8333 38.2625 30.8333 37.2736 30.8333 36.0403V14.4625C30.8333 13.2403 31.8333 12.2402 33.0555 12.2402H35.2777C36.5 12.2402 37.4999 13.2403 37.4999 14.4625Z" fill="#121212"/>
<path d="M9.16667 32.1958V36.0403C9.16667 37.2736 8.16671 38.2625 6.94444 38.2625H4.72222C3.50003 38.2625 2.5 37.2736 2.5 36.0403V32.1958C2.5 30.9736 3.50003 29.9736 4.72222 29.9736H6.94444C8.16671 29.9736 9.16667 30.9736 9.16667 32.1958Z" fill="#121212"/>
<path d="M28.0556 26.1291V36.0403C28.0556 37.2736 27.0556 38.2625 25.8334 38.2625H23.6111C22.3889 38.2625 21.3889 37.2736 21.3889 36.0403V26.1291C21.3889 24.9069 22.3889 23.9069 23.6111 23.9069H25.8334C27.0556 23.9069 28.0556 24.9069 28.0556 26.1291Z" fill="#121212"/>
</svg>
