<svg width="40" height="41" viewBox="0 0 40 41" fill="121212" xmlns="http://www.w3.org/2000/svg">
<g clip-path="url(#clip0_662_1203)">
<path d="M20 0.5C8.95429 0.5 0 9.45429 0 20.5C0 31.5457 8.95429 40.5 20 40.5C31.0457 40.5 40 31.5457 40 20.5C40 9.45429 31.0457 0.5 20 0.5ZM12.1358 8.57848C14.4693 7.03777 17.2038 6.21571 20 6.21429C22.8003 6.21134 25.5388 7.03643 27.8714 8.58571L8.08571 28.3714C3.73848 21.7873 5.5517 12.9258 12.1358 8.57848ZM27.8642 32.4215C25.5307 33.9622 22.7963 34.7843 20 34.7857C17.1997 34.7887 14.4612 33.9636 12.1286 32.4143L31.9143 12.6286C36.2615 19.2126 34.4483 28.0742 27.8642 32.4215Z" fill="121212"/>
</g>
<defs>
<clipPath id="clip0_662_1203">
<rect width="40" height="40" fill="121212" transform="translate(0 0.5)"/>
</clipPath>
</defs>
</svg>
