<svg width="40" height="40" viewBox="0 0 40 40" fill="121212" xmlns="http://www.w3.org/2000/svg">
<path d="M9.57551 31.5845L26.7426 7.41551H31.4245L14.2574 31.5845H9.57551ZM11.3844 20.7119C9.30358 20.7119 7.7193 20.1348 6.63158 18.9806C5.54386 17.8264 5 16.1182 5 13.856C5 11.5937 5.54386 9.8855 6.63158 8.7313C7.7193 7.5771 9.30358 7 11.3844 7C13.4653 7 15.0496 7.5771 16.1373 8.7313C17.225 9.8855 17.7689 11.5937 17.7689 13.856C17.7689 16.1182 17.225 17.8264 16.1373 18.9806C15.0496 20.1348 13.4653 20.7119 11.3844 20.7119ZM11.3844 17.7341C11.9992 17.7341 12.4603 17.5032 12.7677 17.0416C13.0751 16.5568 13.2288 15.795 13.2288 14.7562V12.9557C13.2288 11.9169 13.0751 11.1667 12.7677 10.705C12.4603 10.2202 11.9992 9.97784 11.3844 9.97784C10.7696 9.97784 10.3085 10.2202 10.0011 10.705C9.69375 11.1667 9.54005 11.9169 9.54005 12.9557V14.7562C9.54005 15.795 9.69375 16.5568 10.0011 17.0416C10.3085 17.5032 10.7696 17.7341 11.3844 17.7341ZM29.6156 32C27.5347 32 25.9504 31.4229 24.8627 30.2687C23.775 29.1145 23.2311 27.4063 23.2311 25.144C23.2311 22.8818 23.775 21.1736 24.8627 20.0194C25.9504 18.8652 27.5347 18.2881 29.6156 18.2881C31.6964 18.2881 33.2807 18.8652 34.3684 20.0194C35.4561 21.1736 36 22.8818 36 25.144C36 27.4063 35.4561 29.1145 34.3684 30.2687C33.2807 31.4229 31.6964 32 29.6156 32ZM29.6156 29.0222C30.2304 29.0222 30.6915 28.7913 30.9989 28.3296C31.3063 27.8449 31.46 27.0831 31.46 26.0443V24.2438C31.46 23.205 31.3063 22.4548 30.9989 21.9931C30.6915 21.5083 30.2304 21.2659 29.6156 21.2659C29.0008 21.2659 28.5397 21.5083 28.2323 21.9931C27.9249 22.4548 27.7712 23.205 27.7712 24.2438V26.0443C27.7712 27.0831 27.9249 27.8449 28.2323 28.3296C28.5397 28.7913 29.0008 29.0222 29.6156 29.0222Z" fill="121212"/>
</svg>
