<svg width="40" height="41" viewBox="0 0 40 41" fill="none" xmlns="http://www.w3.org/2000/svg">
<g clip-path="url(#clip0_265_5070)">
<path d="M38.8281 2.92188H30.5469V7.60938H34.8438C35.4909 7.60938 36.0156 8.13406 36.0156 8.78125C36.0156 9.42844 35.4909 9.95312 34.8438 9.95312H30.5469V12.2969H34.8438C35.4909 12.2969 36.0156 12.8216 36.0156 13.4688C36.0156 14.1159 35.4909 14.6406 34.8438 14.6406H30.5469V16.9844H34.8438C35.4909 16.9844 36.0156 17.5091 36.0156 18.1562C36.0156 18.8034 35.4909 19.3281 34.8438 19.3281H30.5469V21.6719H34.8438C35.4909 21.6719 36.0156 22.1966 36.0156 22.8438C36.0156 23.4909 35.4909 24.0156 34.8438 24.0156H30.5469V28.7031H38.8281C39.4753 28.7031 40 28.1784 40 27.5312V4.09375C40 3.44656 39.4753 2.92188 38.8281 2.92188Z" fill="#121212"/>
<path d="M1.17188 28.7031H9.45312V24.0156H5.15625C4.50906 24.0156 3.98438 23.4909 3.98438 22.8438C3.98438 22.1966 4.50906 21.6719 5.15625 21.6719H9.45312V19.3281H5.15625C4.50906 19.3281 3.98438 18.8034 3.98438 18.1562C3.98438 17.5091 4.50906 16.9844 5.15625 16.9844H9.45312V14.6406H5.15625C4.50906 14.6406 3.98438 14.1159 3.98438 13.4688C3.98438 12.8216 4.50906 12.2969 5.15625 12.2969H9.45312V9.95312H5.15625C4.50906 9.95312 3.98438 9.42844 3.98438 8.78125C3.98438 8.13406 4.50906 7.60938 5.15625 7.60938H9.45312V2.92188H1.17188C0.524687 2.92188 0 3.44656 0 4.09375V27.5312C0 28.1784 0.524687 28.7031 1.17188 28.7031Z" fill="#121212"/>
<path d="M38.8281 35.8125H35.1263C34.7723 34.7624 33.9406 33.9309 32.8906 33.5768V31.0469H30.5469V33.6033C29.5336 33.9716 28.7346 34.7885 28.3893 35.8125H23.4076C23.0535 34.7624 22.2219 33.9309 21.1719 33.5768V30.9688H27.0312C27.6784 30.9688 28.2031 30.4441 28.2031 29.7969V1.67188C28.2031 1.02469 27.6784 0.5 27.0312 0.5H12.9688C12.3216 0.5 11.7969 1.02469 11.7969 1.67188V29.7969C11.7969 30.4441 12.3216 30.9688 12.9688 30.9688H18.8281V33.6033C17.8148 33.9716 17.0159 34.7885 16.6705 35.8125H11.6107C11.2654 34.7885 10.4664 33.9716 9.45312 33.6033V31.0469H7.10938V33.5768C6.0593 33.9309 5.22773 34.7624 4.87367 35.8125H1.17188C0.524687 35.8125 0 36.3372 0 36.9844C0 37.6316 0.524687 38.1562 1.17188 38.1562H4.90016C5.39648 39.5219 6.70719 40.5 8.24219 40.5C9.77719 40.5 11.0879 39.5219 11.5842 38.1562H16.697C17.1934 39.5219 18.5041 40.5 20.0391 40.5C21.5741 40.5 22.8848 39.5219 23.3811 38.1562H28.4158C28.9121 39.5219 30.2228 40.5 31.7578 40.5C33.2928 40.5 34.6035 39.5219 35.0998 38.1562H38.8281C39.4753 38.1562 40 37.6316 40 36.9844C40 36.3372 39.4753 35.8125 38.8281 35.8125ZM20 26.3594C19.3528 26.3594 18.8281 25.8347 18.8281 25.1875C18.8281 24.5403 19.3528 24.0156 20 24.0156C20.6472 24.0156 21.1719 24.5403 21.1719 25.1875C21.1719 25.8347 20.6472 26.3594 20 26.3594ZM16.0938 5.26562H23.9844C24.6316 5.26562 25.1562 5.79031 25.1562 6.4375C25.1562 7.08469 24.6316 7.60938 23.9844 7.60938H16.0938C15.4466 7.60938 14.9219 7.08469 14.9219 6.4375C14.9219 5.79031 15.4466 5.26562 16.0938 5.26562ZM16.0938 9.95312H23.9844C24.6316 9.95312 25.1562 10.4778 25.1562 11.125C25.1562 11.7722 24.6316 12.2969 23.9844 12.2969H16.0938C15.4466 12.2969 14.9219 11.7722 14.9219 11.125C14.9219 10.4778 15.4466 9.95312 16.0938 9.95312ZM16.0938 14.6406H23.9062C24.5534 14.6406 25.0781 15.1653 25.0781 15.8125C25.0781 16.4597 24.5534 16.9844 23.9062 16.9844H16.0938C15.4466 16.9844 14.9219 16.4597 14.9219 15.8125C14.9219 15.1653 15.4466 14.6406 16.0938 14.6406ZM14.9219 20.5C14.9219 19.8528 15.4466 19.3281 16.0938 19.3281H23.9062C24.5534 19.3281 25.0781 19.8528 25.0781 20.5C25.0781 21.1472 24.5534 21.6719 23.9062 21.6719H16.0938C15.4466 21.6719 14.9219 21.1472 14.9219 20.5Z" fill="#121212"/>
</g>
<defs>
<clipPath id="clip0_265_5070">
<rect width="40" height="40" fill="white" transform="translate(0 0.5)"/>
</clipPath>
</defs>
</svg>
