<svg width="40" height="41" viewBox="0 0 40 41" fill="none" xmlns="http://www.w3.org/2000/svg">
<g clip-path="url(#clip0_117_1267)">
<path d="M8.5841 12.0993C8.80645 11.603 8.93113 11.0538 8.93113 10.4759C8.93113 10.1918 8.90074 9.91476 8.84394 9.64734C8.46144 7.84601 6.8591 6.49031 4.94559 6.49031C2.74785 6.49031 0.959961 8.2782 0.959961 10.4759C0.959961 12.6735 2.74785 14.4615 4.94559 14.4615C5.71379 14.4615 6.4316 14.2424 7.04082 13.8644L8.62629 15.2502C9.07113 14.6034 9.58957 14.0109 10.17 13.4856L8.5841 12.0993Z" fill="white"/>
<path d="M29.1242 0.5C26.4571 0.5 24.2873 2.66984 24.2873 5.33703C24.2873 5.6818 24.3242 6.01805 24.3931 6.34258C24.5472 7.06844 24.8649 7.73406 25.3053 8.30023L22.1099 12.3673C22.7798 12.7784 23.398 13.2658 23.9521 13.8175L27.1478 9.75008C27.7517 10.0216 28.4203 10.1741 29.1242 10.1741C31.7913 10.1741 33.9613 8.00422 33.9613 5.33703C33.9613 2.66984 31.7913 0.5 29.1242 0.5Z" fill="white"/>
<path d="M9.5523 32.6188L11.8456 29.5684C11.1668 29.1716 10.5383 28.6977 9.97293 28.1578L7.68004 31.2076C7.10098 30.962 6.46457 30.8259 5.79699 30.8259C3.12988 30.8259 0.959961 32.9958 0.959961 35.663C0.959961 38.3302 3.1298 40.5 5.79691 40.5C8.46402 40.5 10.6339 38.3302 10.6339 35.663C10.6339 35.346 10.6024 35.0364 10.5439 34.7362C10.3896 33.9448 10.0422 33.222 9.5523 32.6188Z" fill="white"/>
<path d="M16.8857 13.239C12.6542 13.239 9.21143 16.6816 9.21143 20.9132C9.21143 25.1447 12.6541 28.5874 16.8857 28.5874C21.1173 28.5874 24.5599 25.1448 24.5599 20.9132C24.5599 16.6816 21.1174 13.239 16.8857 13.239Z" fill="white"/>
<path d="M32.6296 24.0137C30.729 24.0137 29.0197 24.8459 27.8447 26.1641L26.008 25.0545C25.6811 25.772 25.2718 26.4441 24.7925 27.0593L26.6296 28.1691C26.3648 28.8712 26.2188 29.6309 26.2188 30.4244C26.2188 30.8446 26.2606 31.2549 26.3381 31.6527C26.9129 34.602 29.5147 36.8352 32.6295 36.8352C36.1644 36.8352 39.0403 33.9594 39.0403 30.4244C39.0404 26.8896 36.1645 24.0137 32.6296 24.0137Z" fill="white"/>
</g>
<defs>
<clipPath id="clip0_117_1267">
<rect width="40" height="40" fill="white" transform="translate(0 0.5)"/>
</clipPath>
</defs>
</svg>
