<svg width="40" height="41" viewBox="0 0 40 41" fill="none" xmlns="http://www.w3.org/2000/svg">
<g clip-path="url(#clip0_265_5019)">
<path d="M8.58386 12.0993C8.8062 11.603 8.93089 11.0538 8.93089 10.4759C8.93089 10.1918 8.9005 9.91476 8.8437 9.64734C8.4612 7.84601 6.85886 6.49031 4.94534 6.49031C2.74761 6.49031 0.959717 8.2782 0.959717 10.4759C0.959717 12.6735 2.74761 14.4615 4.94534 14.4615C5.71354 14.4615 6.43136 14.2424 7.04058 13.8644L8.62604 15.2502C9.07089 14.6034 9.58933 14.0109 10.1697 13.4856L8.58386 12.0993Z" fill="#121212"/>
<path d="M29.124 0.5C26.4569 0.5 24.287 2.66984 24.287 5.33703C24.287 5.6818 24.324 6.01805 24.3928 6.34258C24.547 7.06844 24.8647 7.73406 25.305 8.30023L22.1096 12.3673C22.7795 12.7784 23.3977 13.2658 23.9518 13.8175L27.1475 9.75008C27.7514 10.0216 28.4201 10.1741 29.124 10.1741C31.7911 10.1741 33.961 8.00422 33.961 5.33703C33.961 2.66984 31.7911 0.5 29.124 0.5Z" fill="#121212"/>
<path d="M9.55206 32.6188L11.8453 29.5684C11.1665 29.1716 10.5381 28.6977 9.97268 28.1578L7.67979 31.2076C7.10073 30.962 6.46433 30.8259 5.79675 30.8259C3.12964 30.8259 0.959717 32.9958 0.959717 35.663C0.959717 38.3302 3.12956 40.5 5.79667 40.5C8.46378 40.5 10.6337 38.3302 10.6337 35.663C10.6337 35.346 10.6021 35.0364 10.5437 34.7362C10.3894 33.9448 10.042 33.222 9.55206 32.6188Z" fill="#121212"/>
<path d="M16.886 13.239C12.6544 13.239 9.21167 16.6816 9.21167 20.9132C9.21167 25.1447 12.6543 28.5874 16.886 28.5874C21.1175 28.5874 24.5602 25.1448 24.5602 20.9132C24.5602 16.6816 21.1176 13.239 16.886 13.239Z" fill="#121212"/>
<path d="M32.6296 24.0137C30.729 24.0137 29.0197 24.8459 27.8447 26.1641L26.008 25.0545C25.6811 25.772 25.2718 26.4441 24.7925 27.0593L26.6296 28.1691C26.3648 28.8712 26.2188 29.6309 26.2188 30.4244C26.2188 30.8446 26.2606 31.2549 26.3381 31.6527C26.9129 34.602 29.5147 36.8352 32.6295 36.8352C36.1644 36.8352 39.0403 33.9594 39.0403 30.4244C39.0404 26.8896 36.1645 24.0137 32.6296 24.0137Z" fill="#121212"/>
</g>
<defs>
<clipPath id="clip0_265_5019">
<rect width="40" height="40" fill="white" transform="translate(0 0.5)"/>
</clipPath>
</defs>
</svg>
