<svg width="40" height="40" viewBox="0 0 40 40" fill="none" xmlns="http://www.w3.org/2000/svg">
<path d="M38.5875 19.3625C34.7625 12.75 27.6375 8.64996 20 8.64996C12.3625 8.64996 5.23753 12.75 1.41253 19.3625C1.20006 19.75 1.20006 20.225 1.41253 20.6125C5.23753 27.2375 12.3625 31.3499 20 31.3499C27.6375 31.3499 34.7625 27.2375 38.5875 20.6125C38.8 20.225 38.8 19.75 38.5875 19.3625ZM20 27.8125C15.6875 27.8125 12.1875 24.3125 12.1875 20C12.1875 15.6875 15.6875 12.1875 20 12.1875C24.3125 12.1875 27.8125 15.6875 27.8125 20C27.8125 24.3125 24.3125 27.8125 20 27.8125Z" fill="#121212"/>
<path d="M20 25.3125C22.934 25.3125 25.3125 22.934 25.3125 20C25.3125 17.066 22.934 14.6875 20 14.6875C17.066 14.6875 14.6875 17.066 14.6875 20C14.6875 22.934 17.066 25.3125 20 25.3125Z" fill="#121212"/>
</svg>
