<svg width="40" height="40" viewBox="0 0 40 40" fill="none" xmlns="http://www.w3.org/2000/svg">
<path d="M38.5873 19.3625C34.7623 12.75 27.6373 8.64996 19.9998 8.64996C12.3623 8.64996 5.23729 12.75 1.41229 19.3625C1.19981 19.75 1.19981 20.225 1.41229 20.6125C5.23729 27.2375 12.3623 31.3499 19.9998 31.3499C27.6373 31.3499 34.7623 27.2375 38.5873 20.6125C38.7998 20.225 38.7998 19.75 38.5873 19.3625ZM19.9998 27.8125C15.6873 27.8125 12.1873 24.3125 12.1873 20C12.1873 15.6875 15.6873 12.1875 19.9998 12.1875C24.3123 12.1875 27.8123 15.6875 27.8123 20C27.8123 24.3125 24.3123 27.8125 19.9998 27.8125Z" fill="white"/>
<path d="M20 25.3125C22.934 25.3125 25.3125 22.934 25.3125 20C25.3125 17.066 22.934 14.6875 20 14.6875C17.066 14.6875 14.6875 17.066 14.6875 20C14.6875 22.934 17.066 25.3125 20 25.3125Z" fill="white"/>
</svg>
