<svg width="40" height="41" viewBox="0 0 40 41" fill="none" xmlns="http://www.w3.org/2000/svg">
<g clip-path="url(#clip0_265_4664)">
<path d="M36.0269 5.25648L20.337 0.549453C20.1173 0.483516 19.8832 0.483516 19.6634 0.549453L3.97326 5.25648C3.47764 5.40516 3.13818 5.86141 3.13818 6.37891V23.638C3.13818 25.8828 4.04701 28.1808 5.83928 30.468C7.20811 32.2149 9.10193 33.9691 11.4679 35.6818C15.4427 38.559 19.3567 40.324 19.5214 40.3977C19.6737 40.4659 19.8369 40.5 20.0002 40.5C20.1635 40.5 20.3268 40.4659 20.479 40.3977C20.6437 40.324 24.5576 38.559 28.5323 35.6818C30.8983 33.9691 32.7921 32.2149 34.161 30.468C35.9533 28.1809 36.8619 25.8829 36.8619 23.638V6.37891C36.8619 5.86141 36.5226 5.40516 36.0269 5.25648Z" fill="white"/>
</g>
<defs>
<clipPath id="clip0_265_4664">
<rect width="40" height="40" fill="white" transform="translate(0 0.5)"/>
</clipPath>
</defs>
</svg>
