<svg width="40" height="40" viewBox="0 0 40 40" fill="none" xmlns="http://www.w3.org/2000/svg">
<g clip-path="url(#clip0_265_5060)">
<path d="M11.7973 25.5518H14.1411C14.1411 22.9665 16.2434 20.8642 18.8287 20.8642V18.5204C16.2434 18.5204 14.1411 16.4181 14.1411 13.8327H11.7973C11.7973 16.4181 9.69493 18.5204 7.10962 18.5204V20.8642C9.69493 20.8642 11.7973 22.9665 11.7973 25.5518Z" fill="#121212"/>
<path d="M4.76576 39.6148H7.10958C7.10958 37.0294 9.21191 34.9271 11.7972 34.9271V32.5833C9.21191 32.5833 7.10958 30.481 7.10958 27.8957H4.76576C4.76576 30.481 2.58531 32.5833 0 32.5833V34.9271C2.58531 34.9271 4.76576 37.0294 4.76576 39.6148Z" fill="#121212"/>
<path d="M38.0428 26.868C38.7109 25.0347 37.7605 23.0241 35.9415 22.3611L34.6529 21.8919C34.6645 20.8508 34.1928 19.8372 33.369 19.1565L40 1.19089L37.7982 0.385239L31.1656 18.3544C30.109 18.3467 29.0932 18.8092 28.4214 19.6248L27.1316 19.1556C26.2515 18.834 25.2959 18.8752 24.4433 19.2723C23.593 19.6694 22.9475 20.3743 22.6259 21.2567L22.225 22.3581L37.6418 27.9692L38.0428 26.868Z" fill="#121212"/>
<path d="M14.3355 29.0172L12.4026 28.841L13.1464 30.6343C13.5504 31.606 14.0586 32.533 14.6571 33.389C16.1392 35.512 18.5185 36.8876 21.1725 37.2023V38.594L21.9736 38.8607C23.0745 39.2292 24.1709 39.4912 25.2913 39.4077C28.7647 39.4077 32.0515 37.6956 34.0863 34.8277C35.1205 33.3709 35.9812 31.7872 36.7353 30.133L21.4193 24.5584C20.3331 27.4681 17.4273 29.2903 14.3355 29.0172Z" fill="#121212"/>
</g>
<defs>
<clipPath id="clip0_265_5060">
<rect width="40" height="40" fill="white"/>
</clipPath>
</defs>
</svg>
