<svg width="40" height="40" viewBox="0 0 40 40" fill="121212" xmlns="http://www.w3.org/2000/svg">
<g clip-path="url(#clip0_665_1288)">
<path d="M36.4844 0H3.51562C1.57703 0 0 1.57703 0 3.51562V8.20312C0 10.1417 1.57703 11.7188 3.51562 11.7188H36.4844C38.423 11.7188 40 10.1417 40 8.20312V3.51562C40 1.57703 38.423 0 36.4844 0ZM5.85938 7.03125C5.21219 7.03125 4.6875 6.50656 4.6875 5.85938C4.6875 5.21203 5.21219 4.6875 5.85938 4.6875C6.50656 4.6875 7.03125 5.21203 7.03125 5.85938C7.03125 6.50656 6.50656 7.03125 5.85938 7.03125ZM10.5469 7.03125C9.89969 7.03125 9.375 6.50656 9.375 5.85938C9.375 5.21203 9.89969 4.6875 10.5469 4.6875C11.1941 4.6875 11.7188 5.21203 11.7188 5.85938C11.7188 6.50656 11.1941 7.03125 10.5469 7.03125ZM15.2344 7.03125C14.5872 7.03125 14.0625 6.50656 14.0625 5.85938C14.0625 5.21203 14.5872 4.6875 15.2344 4.6875C15.8816 4.6875 16.4062 5.21203 16.4062 5.85938C16.4062 6.50656 15.8816 7.03125 15.2344 7.03125ZM34.1406 7.03125H24.7656C24.1179 7.03125 23.5938 6.50711 23.5938 5.85938C23.5938 5.21164 24.1179 4.6875 24.7656 4.6875H34.1406C34.7884 4.6875 35.3125 5.21164 35.3125 5.85938C35.3125 6.50711 34.7884 7.03125 34.1406 7.03125Z" fill="121212"/>
<path d="M36.4844 14.1406H3.51562C1.57703 14.1406 0 15.7177 0 17.6562V22.3438C0 24.2823 1.57703 25.8594 3.51562 25.8594H36.4844C38.423 25.8594 40 24.2823 40 22.3438V17.6562C40 15.7177 38.423 14.1406 36.4844 14.1406ZM5.85938 21.1719C5.21219 21.1719 4.6875 20.6472 4.6875 20C4.6875 19.3527 5.21219 18.8281 5.85938 18.8281C6.50656 18.8281 7.03125 19.3527 7.03125 20C7.03125 20.6472 6.50656 21.1719 5.85938 21.1719ZM10.5469 21.1719C9.89969 21.1719 9.375 20.6472 9.375 20C9.375 19.3527 9.89969 18.8281 10.5469 18.8281C11.1941 18.8281 11.7188 19.3527 11.7188 20C11.7188 20.6472 11.1941 21.1719 10.5469 21.1719ZM15.2344 21.1719C14.5872 21.1719 14.0625 20.6472 14.0625 20C14.0625 19.3527 14.5872 18.8281 15.2344 18.8281C15.8816 18.8281 16.4062 19.3527 16.4062 20C16.4062 20.6472 15.8816 21.1719 15.2344 21.1719ZM34.1406 21.1719H24.7656C24.1179 21.1719 23.5938 20.6477 23.5938 20C23.5938 19.3523 24.1179 18.8281 24.7656 18.8281H34.1406C34.7884 18.8281 35.3125 19.3523 35.3125 20C35.3125 20.6477 34.7884 21.1719 34.1406 21.1719Z" fill="121212"/>
<path d="M36.4844 28.2812H3.51562C1.57703 28.2812 0 29.8583 0 31.7969V36.4844C0 38.423 1.57703 40 3.51562 40H36.4844C38.423 40 40 38.423 40 36.4844V31.7969C40 29.8583 38.423 28.2812 36.4844 28.2812ZM5.85938 35.3125C5.21219 35.3125 4.6875 34.7878 4.6875 34.1406C4.6875 33.4933 5.21219 32.9688 5.85938 32.9688C6.50656 32.9688 7.03125 33.4933 7.03125 34.1406C7.03125 34.7878 6.50656 35.3125 5.85938 35.3125ZM10.5469 35.3125C9.89969 35.3125 9.375 34.7878 9.375 34.1406C9.375 33.4933 9.89969 32.9688 10.5469 32.9688C11.1941 32.9688 11.7188 33.4933 11.7188 34.1406C11.7188 34.7878 11.1941 35.3125 10.5469 35.3125ZM15.2344 35.3125C14.5872 35.3125 14.0625 34.7878 14.0625 34.1406C14.0625 33.4933 14.5872 32.9688 15.2344 32.9688C15.8816 32.9688 16.4062 33.4933 16.4062 34.1406C16.4062 34.7878 15.8816 35.3125 15.2344 35.3125ZM34.1406 35.3125H24.7656C24.1179 35.3125 23.5938 34.7884 23.5938 34.1406C23.5938 33.4929 24.1179 32.9688 24.7656 32.9688H34.1406C34.7884 32.9688 35.3125 33.4929 35.3125 34.1406C35.3125 34.7884 34.7884 35.3125 34.1406 35.3125Z" fill="121212"/>
</g>
<defs>
<clipPath id="clip0_665_1288">
<rect width="40" height="40" fill="121212"/>
</clipPath>
</defs>
</svg>
