<svg width="50" height="51" viewBox="0 0 50 51" fill="121212" xmlns="http://www.w3.org/2000/svg">
<g clip-path="url(#clip0_463_211)">
<path d="M45.8016 23.004C44.6515 23.004 43.7184 22.0709 43.7184 20.9208C43.7184 15.077 41.4433 9.58541 37.312 5.4518C36.4976 4.63736 36.4976 3.32091 37.312 2.50609C38.1264 1.69165 39.4433 1.69165 40.2577 2.50609C45.1768 7.42476 47.8848 13.9647 47.8848 20.9208C47.8848 22.0709 46.9517 23.004 45.8016 23.004Z" fill="121212"/>
<path d="M4.13399 23.004C2.98424 23.004 2.05078 22.0709 2.05078 20.9208C2.05078 13.9647 4.75922 7.42476 9.67789 2.50609C10.4923 1.69165 11.8092 1.69165 12.6236 2.50609C13.4384 3.32091 13.4384 4.63736 12.6236 5.4518C8.49228 9.58312 6.21758 15.077 6.21758 20.9208C6.21758 22.0709 5.28412 23.004 4.13399 23.004Z" fill="121212"/>
<path d="M44.508 35.5688C41.3578 32.9062 39.5516 29.0144 39.5516 24.8915V19.0833C39.5516 11.7522 34.1057 5.68336 27.0516 4.66675V2.41646C27.0516 1.26442 26.1181 0.333252 24.9684 0.333252C23.8182 0.333252 22.8848 1.26442 22.8848 2.41646V4.66675C15.8287 5.68336 10.3848 11.7522 10.3848 19.0833V24.8915C10.3848 29.0144 8.57851 32.9062 5.41002 35.5853C4.5994 36.2791 4.13477 37.2874 4.13477 38.354C4.13477 40.3647 5.77013 42 7.78085 42H42.1559C44.1662 42 45.8016 40.3647 45.8016 38.354C45.8016 37.2874 45.3369 36.2791 44.508 35.5688Z" fill="121212"/>
<path d="M24.9667 50.3333C28.7394 50.3333 31.8957 47.6435 32.6209 44.0833H17.3125C18.0373 47.6435 21.1936 50.3333 24.9667 50.3333Z" fill="121212"/>
</g>
<defs>
<clipPath id="clip0_463_211">
<rect width="50" height="50" fill="121212" transform="translate(0 0.333252)"/>
</clipPath>
</defs>
</svg>
