<svg width="50" height="50" viewBox="0 0 50 50" fill="none" xmlns="http://www.w3.org/2000/svg">
<path d="M5.22641 12.5917L18.6556 25.1959L16.6056 27.3834L22.616 33.3938L24.9993 31.1563L27.3827 33.3938L33.3931 27.3834L12.591 5.22714C12.4216 5.04692 12.1916 4.93563 11.9452 4.91464L5.32016 4.17506C5.16496 4.15516 5.00726 4.1711 4.85918 4.22165C4.7111 4.2722 4.57657 4.35602 4.46593 4.46666C4.35528 4.5773 4.27147 4.71183 4.22092 4.85991C4.17037 5.00799 4.15443 5.16569 4.17433 5.32089L4.91391 11.9459C4.93489 12.1923 5.04619 12.4223 5.22641 12.5917Z" fill="white"/>
<path d="M45.7995 41.4584C45.7347 41.0486 45.5721 40.6605 45.3255 40.3269C45.0789 39.9932 44.7555 39.7239 44.3828 39.5417L44.0078 39.3647C43.7023 39.2046 43.4216 39.0011 43.1745 38.7605L38.487 34.073L34.0703 38.4897L38.7474 43.1667C38.9847 43.4065 39.1848 43.6803 39.3411 43.9793L39.5495 44.3959C39.7303 44.7666 39.9981 45.0881 40.33 45.333C40.662 45.5778 41.0482 45.7388 41.4557 45.8022C41.5936 45.8229 41.7329 45.8334 41.8724 45.8334C42.5634 45.8341 43.2265 45.5606 43.7161 45.073L45.0703 43.7188C45.3624 43.4269 45.5808 43.0696 45.7076 42.6766C45.8344 42.2836 45.8659 41.866 45.7995 41.4584Z" fill="white"/>
<path d="M37.7547 27.4417C37.658 27.3449 37.5431 27.2681 37.4166 27.2156C37.2902 27.1632 37.1546 27.1362 37.0177 27.1362C36.8809 27.1362 36.7453 27.1632 36.6189 27.2156C36.4924 27.2681 36.3775 27.3449 36.2808 27.4417L27.4422 36.2803C27.3454 36.377 27.2685 36.4919 27.2161 36.6184C27.1637 36.7448 27.1367 36.8804 27.1367 37.0173C27.1367 37.1542 27.1637 37.2897 27.2161 37.4162C27.2685 37.5426 27.3454 37.6575 27.4422 37.7542C27.7324 38.0445 28.0769 38.2747 28.4561 38.4318C28.8353 38.5889 29.2417 38.6697 29.6521 38.6697C30.0625 38.6697 30.469 38.5889 30.8481 38.4318C31.2273 38.2747 31.5718 38.0445 31.862 37.7542L37.7547 31.8615C38.045 31.5713 38.2752 31.2268 38.4323 30.8476C38.5894 30.4685 38.6702 30.0621 38.6702 29.6516C38.6702 29.2412 38.5894 28.8348 38.4323 28.4556C38.2752 28.0765 38.045 27.7319 37.7547 27.4417Z" fill="white"/>
<path d="M44.7734 12.5917C44.9537 12.4223 45.065 12.1923 45.0859 11.9459L45.8255 5.32089C45.8454 5.16569 45.8295 5.00799 45.7789 4.85991C45.7284 4.71183 45.6446 4.5773 45.5339 4.46666C45.4233 4.35602 45.2887 4.2722 45.1407 4.22165C44.9926 4.1711 44.8349 4.15516 44.6797 4.17506L38.0547 4.91464C37.8082 4.93563 37.5782 5.04692 37.4089 5.22714L26.4297 16.9209L32.863 23.774L44.7734 12.5917Z" fill="white"/>
<path d="M6.82533 38.7605C6.57824 39.0011 6.29754 39.2046 5.992 39.3647L5.617 39.5417C5.24598 39.725 4.92397 39.994 4.67765 40.3265C4.43133 40.659 4.26779 41.0454 4.20059 41.4537C4.13338 41.8621 4.16445 42.2805 4.29121 42.6744C4.41797 43.0683 4.63678 43.4263 4.9295 43.7188L6.28367 45.073C6.77255 45.5598 7.43435 45.8333 8.12429 45.8334C8.26376 45.8334 8.40304 45.8229 8.54096 45.8022C8.94852 45.7388 9.33473 45.5778 9.66665 45.333C9.99857 45.0881 10.2664 44.7666 10.4472 44.3959L10.6555 43.9793C10.8119 43.6803 11.012 43.4065 11.2493 43.1667L15.9264 38.4897L11.5097 34.073L6.82533 38.7605Z" fill="white"/>
<path d="M13.7195 27.4417C13.6228 27.3449 13.5079 27.2681 13.3814 27.2156C13.255 27.1632 13.1194 27.1362 12.9825 27.1362C12.8456 27.1362 12.7101 27.1632 12.5836 27.2156C12.4572 27.2681 12.3423 27.3449 12.2456 27.4417C11.9553 27.7319 11.7251 28.0765 11.568 28.4556C11.4109 28.8348 11.3301 29.2412 11.3301 29.6516C11.3301 30.0621 11.4109 30.4685 11.568 30.8476C11.7251 31.2268 11.9553 31.5713 12.2456 31.8615L18.1383 37.7542C18.4285 38.0445 18.773 38.2747 19.1522 38.4318C19.5313 38.5889 19.9377 38.6697 20.3482 38.6697C20.7586 38.6697 21.165 38.5889 21.5442 38.4318C21.9233 38.2747 22.2679 38.0445 22.5581 37.7542C22.6549 37.6575 22.7317 37.5426 22.7842 37.4162C22.8366 37.2897 22.8636 37.1542 22.8636 37.0173C22.8636 36.8804 22.8366 36.7448 22.7842 36.6184C22.7317 36.4919 22.6549 36.377 22.5581 36.2803L13.7195 27.4417Z" fill="white"/>
</svg>
