<svg width="50" height="50" viewBox="0 0 50 50" fill="121212" xmlns="http://www.w3.org/2000/svg">
<path d="M10.457 28.7073C9.98828 29.3738 10.1532 30.2912 10.8193 30.7542L11.8261 31.4533C10.1829 33.0387 7.9793 33.9358 5.67773 33.9358H2.92969V30.762C2.92969 29.953 2.27383 29.2971 1.46484 29.2971C0.655859 29.2971 0 29.953 0 30.762V45.7034C0 46.5124 0.655859 47.1682 1.46484 47.1682C2.27383 47.1682 2.92969 46.5124 2.92969 45.7034V42.7249H4.91523C10.1723 42.7249 15.3133 40.5143 18.9652 36.4113L20.4307 37.429C21.096 37.8936 22.019 37.7231 22.4766 37.05L23.4805 35.5764L11.5967 27.0891L10.457 28.7073Z" fill="121212"/>
<path d="M49.3613 28.8381L48.8213 28.469L37.5859 37.4465L40.8008 39.761C41.4286 40.2128 42.3065 40.0987 42.7959 39.4915L49.6748 30.968C50.2141 30.2996 50.064 29.3173 49.3613 28.8381Z" fill="121212"/>
<path d="M47.0873 23.7283L18.9205 3.38708C17.6553 2.47322 15.8987 2.71072 14.9213 3.92732L5.66441 15.4493C4.61167 16.7599 4.8774 18.6911 6.24576 19.6683L31.1648 37.4637C31.6973 37.844 32.4184 37.8253 32.9304 37.4161L47.144 26.0603C47.8993 25.457 47.8732 24.2958 47.0873 23.7283ZM36.7194 26.3187C35.9104 26.3187 35.2545 25.6629 35.2545 24.8539C35.2545 24.0449 35.9104 23.389 36.7194 23.389C37.5284 23.389 38.1842 24.0449 38.1842 24.8539C38.1842 25.6629 37.5284 26.3187 36.7194 26.3187Z" fill="121212"/>
</svg>
