<svg width="50" height="50" viewBox="0 0 50 50" fill="121212" xmlns="http://www.w3.org/2000/svg">
<path d="M25 42.8125C20.0891 42.8125 15.636 40.8145 12.4107 37.5892L17.1277 32.8723C17.8417 32.1583 17.336 30.9375 16.3263 30.9375H3.28668C2.16185 30.9375 1.25 31.8494 1.25 32.9742V46.0138C1.25 47.0235 2.47079 47.5292 3.18477 46.8152L8.21411 41.7859C12.5146 46.0864 18.4521 48.75 25 48.75C37.3045 48.75 47.4537 39.3442 48.6351 27.3451C48.7592 26.085 47.7458 25 46.4797 25H44.8549C43.7457 25 42.8274 25.8412 42.7072 26.9439C41.7357 35.8547 34.165 42.8125 25 42.8125Z" fill="121212"/>
<path d="M25.0009 1.25C12.6963 1.25 2.5472 10.6557 1.36577 22.6549C1.2417 23.915 2.25511 25 3.52123 25H5.146C6.25523 25 7.17353 24.1588 7.29375 23.0561C8.26524 14.1453 15.8359 7.1875 25.0009 7.1875C29.9118 7.1875 34.3649 9.18546 37.5902 12.4107L32.8732 17.1277C32.1592 17.8417 32.6649 19.0625 33.6746 19.0625H46.7142C47.8391 19.0625 48.7509 18.1506 48.7509 17.0258V3.98618C48.7509 2.97646 47.5301 2.47079 46.8161 3.18476L41.7868 8.21408C37.4863 3.91354 31.5488 1.25 25.0009 1.25Z" fill="121212"/>
</svg>
