<svg width="50" height="50" viewBox="0 0 50 50" fill="121212" xmlns="http://www.w3.org/2000/svg">
<path d="M16.1663 25.1771C23.1143 25.1771 28.7497 19.5417 28.7497 12.5938C28.7497 5.64583 23.1143 0 16.1663 0C9.21842 0 3.58301 5.63542 3.58301 12.5833C3.58301 19.5312 9.21842 25.1771 16.1663 25.1771ZM11.7705 17.5625C11.8851 17.1458 11.9997 16.7396 12.1247 16.3229C12.2705 15.8438 12.4059 15.7917 12.8434 16.0208C13.5934 16.4063 14.3851 16.625 15.2184 16.7292C15.7497 16.7917 16.2809 16.7396 16.7705 16.5208C17.6976 16.1146 17.8434 15.0417 17.0622 14.3958C16.7913 14.1771 16.4893 14.0104 16.1768 13.875C15.3643 13.5208 14.5205 13.25 13.7497 12.7917C12.5101 12.0521 11.7184 11.0208 11.8122 9.51042C11.9163 7.80208 12.8851 6.72917 14.4476 6.16667C15.0934 5.92708 15.0934 5.9375 15.1038 5.26042C15.1038 5.03125 15.1038 4.80208 15.1038 4.57292C15.1143 4.0625 15.208 3.97917 15.708 3.95833C15.8643 3.95833 16.0205 3.95833 16.1768 3.95833C17.2601 3.95833 17.2601 3.95833 17.2601 5.04167C17.2601 5.80208 17.2601 5.8125 18.0205 5.92708C18.6038 6.02083 19.1559 6.1875 19.6976 6.42708C19.9997 6.5625 20.1038 6.77083 20.0205 7.08333C19.8851 7.55208 19.7601 8.02083 19.6038 8.47917C19.458 8.91667 19.3226 8.97917 18.9059 8.78125C18.0622 8.375 17.1768 8.19792 16.2393 8.25C15.9893 8.26042 15.7601 8.29167 15.5309 8.39583C14.7288 8.75 14.5934 9.63542 15.2809 10.1875C15.6247 10.4688 16.0205 10.6667 16.4372 10.8333C17.1455 11.125 17.8643 11.4167 18.5518 11.7917C20.708 12.9896 21.2913 15.6979 19.7705 17.5417C19.2184 18.2083 18.5101 18.6563 17.6663 18.8854C17.3018 18.9896 17.1351 19.1771 17.1559 19.5521C17.1768 19.9271 17.1559 20.2917 17.1559 20.6667C17.1559 21 16.9893 21.1771 16.6559 21.1875C16.2601 21.1979 15.8538 21.1979 15.458 21.1875C15.1038 21.1771 14.9372 20.9792 14.9372 20.6354C14.9372 20.3646 14.9372 20.0938 14.9268 19.8229C14.9163 19.2292 14.9059 19.1979 14.3226 19.1042C13.583 18.9896 12.8643 18.8229 12.1872 18.4896C11.6768 18.25 11.6247 18.1146 11.7705 17.5625Z" fill="121212"/>
<path d="M44.3958 26.2292H42.9271C41.9583 23.2605 40.0625 20.6251 37.5312 18.5834C37.5312 18.4896 37.5104 18.3855 37.4896 18.2917C36.9583 16.4271 37.6146 14.7292 38.375 13.5105C38.9062 12.6563 38.2187 11.5626 37.2187 11.6876C34.9792 11.9688 33.4375 12.7917 32.375 13.7188C31.6458 14.3542 31.125 15.2084 30.8958 16.1563C29.2917 22.8021 23.3021 27.7501 16.1667 27.7501C12.6979 27.7501 9.51042 26.5834 6.95833 24.6251C6.07292 26.5417 5.59375 28.6355 5.59375 30.8334C5.59375 32.0209 5.73958 33.1771 6.01042 34.2917C6.01042 34.2917 6.01042 34.3126 6.02083 34.3438C6.30208 35.5001 6.72917 36.6146 7.27083 37.6667C7.98958 39.2188 9.03125 41.0313 10.4688 42.5001C12.5417 44.6355 12.8958 47.2813 12.9479 48.4271V48.9167C12.9479 48.9376 12.9479 48.9584 12.9479 48.9792C12.9479 48.9896 12.9479 48.9896 12.9479 48.9896C12.9896 49.5521 13.4583 50.0001 14.0312 50.0001H20.6146C21.2083 50.0001 21.6979 49.5209 21.6979 48.9167V47.2917C22.6562 47.4167 23.6354 47.4896 24.625 47.4896C25.4062 47.4896 26.1667 47.448 26.9271 47.3646V48.9167C26.9271 49.5105 27.4062 50.0001 28.0104 50.0001H34.6146C35.2083 50.0001 35.6979 49.5209 35.6979 48.9167V47.2917C35.7083 46.7501 35.8958 44.5938 37.9375 42.7501C38.0104 42.6876 38.0833 42.6251 38.1562 42.5626C38.1771 42.5417 38.1979 42.5313 38.2187 42.5105C40.4896 40.4896 42.1667 37.9688 43.0312 35.1563H44.4167C45.5208 35.1563 46.4167 34.2605 46.4167 33.1563V28.2292C46.3958 27.1251 45.5 26.2292 44.3958 26.2292ZM36.1562 26.5834C35.25 26.5834 34.5208 25.8542 34.5208 24.948C34.5208 24.0417 35.25 23.3126 36.1562 23.3126C37.0625 23.3126 37.7917 24.0417 37.7917 24.948C37.7917 25.8542 37.0625 26.5834 36.1562 26.5834Z" fill="121212"/>
</svg>
