<svg width="50" height="50" viewBox="0 0 50 50" fill="121212" xmlns="http://www.w3.org/2000/svg">
<path d="M48.75 40.8351C48.75 41.925 47.865 42.8101 46.77 42.8101H23.02V44.79C23.02 46.98 21.25 48.7501 19.065 48.7501H13.125C10.94 48.7501 9.16504 46.98 9.16504 44.79V42.8101H3.22998C2.13501 42.8101 1.25 41.925 1.25 40.8351C1.25 39.7401 2.13501 38.855 3.22998 38.855H9.16504V36.8751C9.16504 34.6901 10.94 32.915 13.125 32.915H19.065C21.25 32.915 23.02 34.6901 23.02 36.8751V38.855H46.77C47.865 38.855 48.75 39.7401 48.75 40.8351Z" fill="121212"/>
<path d="M48.75 25C48.75 26.095 47.865 26.9799 46.77 26.9799H40.835V28.96C40.835 31.145 39.06 32.9149 36.875 32.9149H30.935C28.75 32.9149 26.98 31.145 26.98 28.96V26.9799H3.22998C2.13501 26.9799 1.25 26.095 1.25 25C1.25 23.905 2.13501 23.02 3.22998 23.02H26.98V21.0399C26.98 18.8549 28.75 17.085 30.935 17.085H36.875C39.06 17.085 40.835 18.8549 40.835 21.0399V23.02H46.77C47.865 23.02 48.75 23.905 48.75 25Z" fill="121212"/>
<path d="M1.25 9.16498C1.25 8.07498 2.13501 7.185 3.22998 7.185H9.16504V5.20999C9.16504 3.01999 10.94 1.25 13.125 1.25H19.065C21.25 1.25 23.02 3.01999 23.02 5.20999V7.185H46.77C47.865 7.185 48.75 8.07498 48.75 9.16498C48.75 10.26 47.865 11.145 46.77 11.145H23.02V13.125C23.02 15.31 21.25 17.085 19.065 17.085H13.125C10.94 17.085 9.16504 15.31 9.16504 13.125V11.145H3.22998C2.13501 11.145 1.25 10.26 1.25 9.16498Z" fill="121212"/>
</svg>
