<svg width="50" height="51" viewBox="0 0 50 51" fill="121212" xmlns="http://www.w3.org/2000/svg">
<g clip-path="url(#clip0_454_21)">
<path d="M49.5565 10.2684C49.4216 9.76227 49.0269 9.36676 48.5211 9.23082C48.0154 9.09489 47.4755 9.23932 47.1052 9.60973L41.8718 14.8431L36.6928 13.8074L35.6571 8.62838L40.8905 3.39498C41.2608 3.02467 41.4052 2.48483 41.2693 1.97907C41.1333 1.47321 40.7378 1.07848 40.2317 0.943715C35.6924 -0.265855 30.8163 1.03932 27.5068 4.34899C23.8672 7.98844 22.7027 13.4394 24.4515 18.215L2.31644 38.242C0.872786 39.5481 0.0509112 41.3392 0.00227834 43.2854C-0.0463545 45.2317 0.684993 47.0617 2.06165 48.4383C3.39534 49.7719 5.15433 50.5 7.03236 50.5C7.0929 50.5 7.15374 50.4992 7.21458 50.4977C9.16077 50.4491 10.952 49.6272 12.2581 48.1836L32.2842 26.0494C33.7513 26.5868 35.2821 26.8491 36.8046 26.8491C40.2383 26.8491 43.6296 25.515 46.1512 22.9933C49.4609 19.6837 50.7657 14.8077 49.5565 10.2684ZM7.24066 44.7241C6.43167 44.7241 5.77581 44.0682 5.77581 43.2592C5.77581 42.4503 6.43167 41.7944 7.24066 41.7944C8.04964 41.7944 8.7055 42.4503 8.7055 43.2592C8.7055 44.0682 8.04974 44.7241 7.24066 44.7241Z" fill="121212"/>
</g>
<defs>
<clipPath id="clip0_454_21">
<rect width="50" height="50" fill="121212" transform="translate(0 0.5)"/>
</clipPath>
</defs>
</svg>
