<svg width="50" height="50" viewBox="0 0 50 50" fill="none" xmlns="http://www.w3.org/2000/svg">
<g clip-path="url(#clip0_463_176)">
<path d="M49.0005 36.4305L31.4834 6.0895C28.6222 1.07726 21.3868 1.07726 18.5359 6.0895L1.00855 36.4305C-1.85265 41.4428 1.70841 47.6695 7.48226 47.6695H42.465C48.2388 47.6695 51.8617 41.381 49.0005 36.4305ZM24.9994 40.9384C23.4761 40.9384 22.2102 39.6725 22.2102 38.1493C22.2102 36.6261 23.4761 35.3601 24.9994 35.3601C26.5226 35.3601 27.7885 36.6261 27.7268 38.2213C27.7988 39.6725 26.4608 40.9384 24.9994 40.9384ZM27.5415 22.9067C27.418 25.0681 27.2842 27.2191 27.1607 29.3805C27.0989 30.0803 27.0989 30.7184 27.0989 31.408C27.0372 32.5504 26.1418 33.4355 24.9994 33.4355C23.8569 33.4355 22.9718 32.6122 22.8998 31.4697C22.7145 28.1042 22.519 24.8005 22.3337 21.435C22.272 20.5499 22.2102 19.6544 22.1382 18.7693C22.1382 17.3079 22.9615 16.1037 24.2995 15.7229C25.6375 15.4038 26.9651 16.0419 27.5415 17.3079C27.737 17.7504 27.7988 18.193 27.7988 18.7076C27.737 20.1176 27.6033 21.5173 27.5415 22.9067Z" fill="white"/>
</g>
<defs>
<clipPath id="clip0_463_176">
<rect width="50" height="50" fill="white"/>
</clipPath>
</defs>
</svg>
