<svg width="50" height="50" viewBox="0 0 50 50" fill="121212" xmlns="http://www.w3.org/2000/svg">
<path d="M24.9993 29.9584C27.7377 29.9584 29.9577 27.7384 29.9577 25.0001C29.9577 22.2617 27.7377 20.0417 24.9993 20.0417C22.261 20.0417 20.041 22.2617 20.041 25.0001C20.041 27.7384 22.261 29.9584 24.9993 29.9584Z" fill="121212"/>
<path d="M41.6666 39.0631C41.3333 39.0631 41.0208 38.959 40.7291 38.7506C40.0416 38.2298 39.8957 37.2506 40.4166 36.5631C42.9374 33.209 44.2708 29.209 44.2708 25.0006C44.2708 20.7922 42.9374 16.7922 40.4166 13.4381C39.8957 12.7506 40.0416 11.7714 40.7291 11.2506C41.4166 10.7297 42.3958 10.8756 42.9166 11.5631C45.8541 15.4589 47.3958 20.1047 47.3958 25.0006C47.3958 29.8965 45.8541 34.5423 42.9166 38.4381C42.6041 38.8548 42.1458 39.0631 41.6666 39.0631Z" fill="121212"/>
<path d="M8.33268 39.0631C7.85352 39.0631 7.39518 38.8548 7.08268 38.4381C4.14518 34.5423 2.60352 29.8965 2.60352 25.0006C2.60352 20.1047 4.14518 15.4589 7.08268 11.5631C7.60352 10.8756 8.58268 10.7297 9.27018 11.2506C9.95768 11.7714 10.1035 12.7506 9.58268 13.4381C7.06185 16.7922 5.72852 20.7922 5.72852 25.0006C5.72852 29.209 7.06185 33.209 9.58268 36.5631C10.1035 37.2506 9.95768 38.2298 9.27018 38.7506C8.99935 38.959 8.66602 39.0631 8.33268 39.0631Z" fill="121212"/>
<path d="M34.9986 34.0619C34.6653 34.0619 34.3528 33.9577 34.0611 33.7494C33.3736 33.2285 33.2278 32.2494 33.7486 31.5619C35.1861 29.666 35.9361 27.3952 35.9361 24.9994C35.9361 22.6035 35.1861 20.3327 33.7486 18.4368C33.2278 17.7493 33.3736 16.7702 34.0611 16.2493C34.7486 15.7285 35.7278 15.8743 36.2486 16.5618C38.082 19.0202 39.0611 21.9369 39.0611 24.9994C39.0611 28.0619 38.082 30.9994 36.2486 33.4369C35.9361 33.8535 35.4778 34.0619 34.9986 34.0619Z" fill="121212"/>
<path d="M15 34.0619C14.5208 34.0619 14.0625 33.8535 13.75 33.4369C11.9167 30.9994 10.9375 28.0619 10.9375 24.9994C10.9375 21.9369 11.9167 18.9993 13.75 16.5618C14.2708 15.8743 15.25 15.7285 15.9375 16.2493C16.625 16.7702 16.7708 17.7493 16.25 18.4368C14.8125 20.3327 14.0625 22.6035 14.0625 24.9994C14.0625 27.3952 14.8125 29.666 16.25 31.5619C16.7708 32.2494 16.625 33.2285 15.9375 33.7494C15.6667 33.9577 15.3333 34.0619 15 34.0619Z" fill="121212"/>
</svg>
