<svg width="50" height="51" viewBox="0 0 50 51" fill="121212" xmlns="http://www.w3.org/2000/svg">
<g clip-path="url(#clip0_454_28)">
<path d="M48.7851 22.5536L45.375 19.1441C44.5657 18.3347 43.9024 16.7353 43.9024 15.5883V10.7665C43.9024 8.47272 42.0286 6.5989 39.7355 6.59768H34.9117C33.766 6.59768 32.1648 5.93324 31.3553 5.12451L27.9458 1.71502C26.3258 0.0949933 23.6733 0.0949933 22.0533 1.71502L18.6438 5.12695C17.8337 5.93629 16.2306 6.5989 15.0874 6.5989H10.2656C7.97486 6.5989 6.0986 8.47272 6.0986 10.7665V15.5885C6.0986 16.7309 5.4355 18.3353 4.62604 19.1442L1.21594 22.5537C-0.405312 24.1737 -0.405312 26.8262 1.21594 28.4488L4.62604 31.8583C5.43599 32.6676 6.0986 34.2714 6.0986 35.414V40.236C6.0986 42.5273 7.97486 44.4036 10.2656 44.4036H15.0875C16.2332 44.4036 17.8344 45.0667 18.6439 45.8756L22.0534 49.2863C23.6734 50.9051 26.3259 50.9051 27.946 49.2863L31.3554 45.8756C32.1655 45.0662 33.7661 44.4036 34.9118 44.4036H39.7356C42.0287 44.4036 43.9026 42.5273 43.9026 40.236V35.414C43.9026 34.2666 44.5663 32.6672 45.3751 31.8583L48.7852 28.4488C50.4039 26.8262 50.4039 24.1736 48.7851 22.5536ZM21.692 34.8757L12.4987 25.6812L15.4451 22.7354L21.6928 28.9831L34.5536 16.1253L37.4992 19.0711L21.692 34.8757Z" fill="121212"/>
</g>
<defs>
<clipPath id="clip0_454_28">
<rect width="50" height="50" fill="121212" transform="translate(0 0.5)"/>
</clipPath>
</defs>
</svg>
