<svg width="50" height="50" viewBox="0 0 50 50" fill="121212" xmlns="http://www.w3.org/2000/svg">
<path d="M46.0858 16.8984L25.5545 8.21875C25.3965 8.1511 25.2264 8.11621 25.0545 8.11621C24.8826 8.11621 24.7125 8.1511 24.5545 8.21875L3.9217 16.8672C3.68944 16.9696 3.49185 17.1371 3.35287 17.3495C3.2139 17.5619 3.13949 17.8101 3.13868 18.0639C3.13786 18.3177 3.21067 18.5663 3.34828 18.7796C3.48588 18.9929 3.68239 19.1617 3.91399 19.2656C5.13352 19.7881 12.2716 22.7831 13.2732 23.2187L24.5545 27.9766C24.876 28.1049 25.235 28.1021 25.5545 27.9688C29.1789 26.4394 38.5342 22.4848 42.0154 21.0078C42.007 21.9749 42.0215 30.13 42.0154 31.3125C40.4637 31.7039 39.8336 34.3492 40.703 35.7812L39.5545 40.9375C39.5181 41.0922 39.5309 41.2544 39.5911 41.4015C39.6513 41.5485 39.756 41.6731 39.8904 41.7578C40.024 41.8452 40.1812 41.8892 40.3407 41.8836C40.5002 41.878 40.654 41.8231 40.7811 41.7266C41.3365 41.3163 42.0048 41.0872 42.6951 41.0703C43.4297 41.0594 44.1469 41.293 44.7342 41.7344C44.8664 41.8273 45.0239 41.8775 45.1856 41.878C45.3472 41.8786 45.5051 41.8296 45.6379 41.7376C45.7708 41.6456 45.8722 41.5151 45.9286 41.3636C45.9849 41.2121 45.9934 41.047 45.9529 40.8905L44.492 35.7578C45.2439 34.4689 44.835 32.154 43.5779 31.5079C43.585 30.3151 43.5729 21.2903 43.5779 20.3516L46.0858 19.2891C46.3166 19.186 46.5127 19.0182 46.6503 18.8061C46.7879 18.594 46.8611 18.3466 46.8611 18.0938C46.8611 17.8409 46.7879 17.5935 46.6503 17.3814C46.5127 17.1693 46.3166 17.0015 46.0858 16.8984Z" fill="121212"/>
<path d="M23.9453 29.4141C23.0044 29.0171 12.2906 24.4889 11.7109 24.25V31.8594C11.7163 32.2679 11.8207 32.6691 12.0153 33.0283C12.2099 33.3876 12.4888 33.6942 12.8281 33.9219C16.2628 36.2569 20.2938 37.5608 24.4453 37.6797C28.9945 37.77 33.4626 36.4669 37.25 33.9452C37.5978 33.7165 37.8843 33.4061 38.0844 33.0411C38.2846 32.6762 38.3924 32.2678 38.3984 31.8516V24.2422C37.8566 24.4773 27.0834 29.0253 26.1641 29.4141C25.4535 29.7069 24.6559 29.7069 23.9453 29.4141Z" fill="121212"/>
</svg>
