<svg width="50" height="50" viewBox="0 0 50 50" fill="none" xmlns="http://www.w3.org/2000/svg">
<path d="M7.8125 4.6875H13.2812C13.7125 4.6875 14.0625 5.0375 14.0625 5.46875V7.03125C14.0625 7.4625 13.7125 7.8125 13.2812 7.8125H7.8125V13.2812C7.8125 13.7125 7.4625 14.0625 7.03125 14.0625H5.46875C5.0375 14.0625 4.6875 13.7125 4.6875 13.2812V7.8125C4.6875 6.08594 6.08594 4.6875 7.8125 4.6875Z" fill="white"/>
<path d="M44.5312 14.0625H42.9688C42.5375 14.0625 42.1875 13.7125 42.1875 13.2812V7.8125H36.7188C36.2875 7.8125 35.9375 7.4625 35.9375 7.03125V5.46875C35.9375 5.0375 36.2875 4.6875 36.7188 4.6875H42.1875C43.9141 4.6875 45.3125 6.08594 45.3125 7.8125V13.2812C45.3125 13.7125 44.9625 14.0625 44.5312 14.0625Z" fill="white"/>
<path d="M5.46875 35.9375H7.03125C7.4625 35.9375 7.8125 36.2875 7.8125 36.7188V42.1875H13.2812C13.7125 42.1875 14.0625 42.5375 14.0625 42.9688V44.5312C14.0625 44.9625 13.7125 45.3125 13.2812 45.3125H7.8125C6.08594 45.3125 4.6875 43.9141 4.6875 42.1875V36.7188C4.6875 36.2875 5.0375 35.9375 5.46875 35.9375Z" fill="white"/>
<path d="M42.1875 45.3125H36.7188C36.2875 45.3125 35.9375 44.9625 35.9375 44.5312V42.9688C35.9375 42.5375 36.2875 42.1875 36.7188 42.1875H42.1875V36.7188C42.1875 36.2875 42.5375 35.9375 42.9688 35.9375H44.5312C44.9625 35.9375 45.3125 36.2875 45.3125 36.7188V42.1875C45.3125 43.9141 43.9141 45.3125 42.1875 45.3125Z" fill="white"/>
<path d="M25 10.9375C9.85625 10.9375 3.125 25 3.125 25C3.125 25 9.85625 39.0625 25 39.0625C40.1437 39.0625 46.875 25 46.875 25C46.875 25 40.1437 10.9375 25 10.9375ZM25 34.375C19.8219 34.375 15.625 30.1781 15.625 25C15.625 19.8219 19.8219 15.625 25 15.625C30.1781 15.625 34.375 19.8219 34.375 25C34.375 30.1781 30.1781 34.375 25 34.375Z" fill="white"/>
<path d="M30.9516 23.1891C31.1281 23.7656 31.25 24.3656 31.25 25C31.25 28.4516 28.4516 31.25 25 31.25C21.5484 31.25 18.75 28.4516 18.75 25C18.75 21.5484 21.5484 18.75 25 18.75C25.6344 18.75 26.2344 18.8719 26.8109 19.0484C25.7438 19.5453 25 20.6203 25 21.875C25 23.6016 26.3984 25 28.125 25C29.3797 25 30.4547 24.2562 30.9516 23.1891Z" fill="white"/>
</svg>
