<svg width="50" height="50" viewBox="0 0 50 50" fill="none" xmlns="http://www.w3.org/2000/svg">
<g clip-path="url(#clip0_464_281)">
<path d="M49.4572 15.7691C49.4572 13.6403 49.0386 11.5772 48.2194 9.62772C47.424 7.75002 46.2879 6.06367 44.8407 4.61652C43.3936 3.16937 41.7072 2.03318 39.8295 1.23785C37.886 0.412617 35.817 0 33.6881 0C31.5592 0 29.4961 0.418597 27.5467 1.23785C25.669 2.03318 23.9826 3.16937 22.5355 4.61652C21.0883 6.06367 19.9521 7.75002 19.1568 9.62772C18.3316 11.5712 17.919 13.6403 17.919 15.7691C17.919 18.4302 18.5887 21.0375 19.8624 23.3577L0.983733 42.2185C0.547197 42.655 0.409658 43.3188 0.678756 43.9467C0.732575 44.0782 0.822275 44.1978 0.923934 44.2994L5.15176 48.5273C5.25342 48.6289 5.37302 48.7127 5.50458 48.7725C6.13247 49.0416 6.79625 48.91 7.23278 48.4675L9.84602 45.8542L13.6074 49.6156C13.7091 49.7173 13.8287 49.801 13.9602 49.8608C14.5881 50.1299 15.2519 49.9984 15.6884 49.5558L19.8564 45.3878C19.9581 45.2861 20.0418 45.1665 20.1016 45.035C20.3707 44.4071 20.2391 43.7433 19.7966 43.3068L16.095 39.6052L26.0935 29.6008C28.4077 30.8745 31.021 31.5443 33.6821 31.5443C35.8109 31.5443 37.874 31.1257 39.8234 30.3064C41.7011 29.5111 43.3875 28.3749 44.8347 26.9277C46.2818 25.4806 47.4179 23.7943 48.2133 21.9165C49.0386 19.9611 49.4572 17.898 49.4572 15.7691ZM39.2136 21.3006C37.7366 22.7776 35.7691 23.5909 33.6822 23.5909C31.5952 23.5909 29.6277 22.7776 28.1507 21.3006C26.6737 19.8235 25.8544 17.8561 25.8544 15.7691C25.8544 13.6762 26.6677 11.7147 28.1447 10.2377C29.6218 8.76063 31.5893 7.94736 33.6762 7.94736C35.7632 7.94736 37.7306 8.76063 39.2076 10.2377C40.6847 11.7147 41.498 13.6821 41.498 15.7691C41.5099 17.8561 40.6966 19.8235 39.2136 21.3006Z" fill="white"/>
</g>
<defs>
<clipPath id="clip0_464_281">
<rect width="50" height="50" fill="white"/>
</clipPath>
</defs>
</svg>
