<svg width="50" height="51" viewBox="0 0 50 51" fill="121212" xmlns="http://www.w3.org/2000/svg">
<g clip-path="url(#clip0_463_194)">
<path d="M32.8125 3.79175H29.4187C28.775 1.973 27.0375 0.666748 25 0.666748C22.9625 0.666748 21.225 1.973 20.5781 3.79175H17.1875C16.325 3.79175 15.625 4.49175 15.625 5.35425V11.6042C15.625 12.4667 16.325 13.1667 17.1875 13.1667H32.8125C33.675 13.1667 34.375 12.4667 34.375 11.6042V5.35425C34.375 4.49175 33.675 3.79175 32.8125 3.79175Z" fill="121212"/>
<path d="M40.625 6.91675H37.5V11.6042C37.5 14.1886 35.3969 16.2917 32.8125 16.2917H17.1875C14.6031 16.2917 12.5 14.1886 12.5 11.6042V6.91675H9.375C7.65313 6.91675 6.25 8.31987 6.25 10.0417V47.5417C6.25 49.2949 7.62188 50.6667 9.375 50.6667H40.625C42.3781 50.6667 43.75 49.2949 43.75 47.5417V10.0417C43.75 8.28862 42.3781 6.91675 40.625 6.91675ZM24.5438 34.5855L18.2938 40.8355C17.9875 41.1386 17.5875 41.2917 17.1875 41.2917C16.7875 41.2917 16.3875 41.1386 16.0812 40.8355L12.9562 37.7105C12.3469 37.1011 12.3469 36.1105 12.9562 35.5011C13.5656 34.8917 14.5563 34.8917 15.1656 35.5011L17.1875 37.5199L22.3312 32.3761C22.9406 31.7667 23.9312 31.7667 24.5406 32.3761C25.15 32.9855 25.1531 33.973 24.5438 34.5855ZM24.5438 22.0855L18.2938 28.3355C17.9875 28.6386 17.5875 28.7917 17.1875 28.7917C16.7875 28.7917 16.3875 28.6386 16.0812 28.3355L12.9562 25.2105C12.3469 24.6011 12.3469 23.6105 12.9562 23.0011C13.5656 22.3917 14.5563 22.3917 15.1656 23.0011L17.1875 25.0199L22.3312 19.8761C22.9406 19.2667 23.9312 19.2667 24.5406 19.8761C25.15 20.4855 25.1531 21.473 24.5438 22.0855ZM35.9375 38.1667H29.6875C28.825 38.1667 28.125 37.4667 28.125 36.6042C28.125 35.7417 28.825 35.0417 29.6875 35.0417H35.9375C36.8 35.0417 37.5 35.7417 37.5 36.6042C37.5 37.4667 36.8 38.1667 35.9375 38.1667ZM35.9375 25.6667H29.6875C28.825 25.6667 28.125 24.9667 28.125 24.1042C28.125 23.2417 28.825 22.5417 29.6875 22.5417H35.9375C36.8 22.5417 37.5 23.2417 37.5 24.1042C37.5 24.9667 36.8 25.6667 35.9375 25.6667Z" fill="121212"/>
</g>
<defs>
<clipPath id="clip0_463_194">
<rect width="50" height="50" fill="121212" transform="translate(0 0.666748)"/>
</clipPath>
</defs>
</svg>
