<svg width="50" height="50" viewBox="0 0 50 50" fill="121212" xmlns="http://www.w3.org/2000/svg">
<g clip-path="url(#clip0_454_25)">
<path d="M19.6774 50C19.483 50 19.286 49.9611 19.0979 49.88C18.4396 49.5961 18.0836 48.8774 18.2564 48.1817L23.2099 28.2426H9.86327C9.38017 28.2426 8.92812 28.0044 8.65498 27.6058C8.38183 27.2073 8.32285 26.6998 8.49707 26.2492L18.2882 0.936422C18.5065 0.372069 19.0493 0 19.6544 0H33.1272C33.6223 0 34.0838 0.249999 34.3543 0.664646C34.6246 1.07929 34.6674 1.60244 34.4678 2.05546L28.67 15.2156H40.1367C40.6724 15.2156 41.1654 15.508 41.4222 15.9782C41.6791 16.4483 41.6588 17.0211 41.3692 17.4719L20.9106 49.3266C20.6339 49.7574 20.1635 50 19.6774 50Z" fill="121212"/>
</g>
<defs>
<clipPath id="clip0_454_25">
<rect width="50" height="50" fill="121212"/>
</clipPath>
</defs>
</svg>
