<svg width="50" height="50" viewBox="0 0 50 50" fill="none" xmlns="http://www.w3.org/2000/svg">
<path d="M42.7083 18.75H39.5833V14.5833C39.5833 6.54199 33.0414 0 25 0C16.9586 0 10.4167 6.54199 10.4167 14.5833V18.75H7.2917C6.71592 18.75 6.25 19.2159 6.25 19.7917V45.8334C6.25 48.1313 8.11865 50 10.4167 50H39.5834C41.8813 50 43.75 48.1313 43.75 45.8333V19.7917C43.75 19.2159 43.2841 18.75 42.7083 18.75ZM28.1189 40.5101C28.1515 40.804 28.0569 41.099 27.8596 41.3198C27.6622 41.5405 27.3794 41.6667 27.0834 41.6667H22.9167C22.6207 41.6667 22.3379 41.5405 22.1405 41.3198C21.9432 41.0991 21.8485 40.8041 21.8812 40.5101L22.5383 34.6009C21.4712 33.8247 20.8334 32.5969 20.8334 31.25C20.8334 28.9521 22.7021 27.0833 25.0001 27.0833C27.2981 27.0833 29.1668 28.952 29.1668 31.25C29.1668 32.5969 28.529 33.8247 27.4619 34.6009L28.1189 40.5101ZM33.3333 18.75H16.6667V14.5833C16.6667 9.98838 20.4051 6.25 25 6.25C29.5949 6.25 33.3333 9.98838 33.3333 14.5833V18.75Z" fill="white"/>
</svg>
