<svg width="50" height="50" viewBox="0 0 50 50" fill="none" xmlns="http://www.w3.org/2000/svg">
<g clip-path="url(#clip0_463_180)">
<path d="M49.5604 9.93359L34.3965 24.9999L49.5604 40.0662C49.8346 39.4933 50.0009 38.8599 50.0009 38.1835V11.8163C50.0009 11.1398 49.8346 10.5065 49.5604 9.93359Z" fill="white"/>
<path d="M45.6054 7.42188H4.39443C3.71797 7.42188 3.08467 7.58818 2.51172 7.8623L21.8929 27.1458C23.6065 28.8595 26.3933 28.8595 28.1069 27.1458L47.4881 7.8623C46.9151 7.58818 46.2818 7.42188 45.6054 7.42188Z" fill="white"/>
<path d="M0.44043 9.93359C0.166309 10.5065 0 11.1398 0 11.8163V38.1835C0 38.86 0.166309 39.4934 0.44043 40.0662L15.6044 24.9999L0.44043 9.93359Z" fill="white"/>
<path d="M32.3241 27.0713L30.1783 29.2171C27.3229 32.0725 22.6768 32.0725 19.8214 29.2171L17.6757 27.0713L2.51172 42.1376C3.08467 42.4117 3.71797 42.578 4.39443 42.578H45.6054C46.2818 42.578 46.9151 42.4117 47.4881 42.1376L32.3241 27.0713Z" fill="white"/>
</g>
<defs>
<clipPath id="clip0_463_180">
<rect width="50" height="50" fill="white"/>
</clipPath>
</defs>
</svg>
