<svg width="50" height="50" viewBox="0 0 50 50" fill="121212" xmlns="http://www.w3.org/2000/svg">
<path d="M35.9375 43.75C34.2188 43.75 32.6562 42.6563 32.0312 40.9375C32.0312 40.7813 32.0312 40.625 31.875 40.625H17.9688C17.9688 40.7812 17.9687 40.9375 17.8125 40.9375C17.3437 42.6563 15.7812 43.75 14.0625 43.75C13.125 43.75 12.5 44.375 12.5 45.3125C12.5 46.25 13.125 46.875 14.0625 46.875H35.9375C36.875 46.875 37.5 46.25 37.5 45.3125C37.5 44.375 36.875 43.75 35.9375 43.75Z" fill="121212"/>
<path d="M42.1875 4.6875H7.8125C5.15625 4.6875 3.125 6.71875 3.125 9.375V32.8125C3.125 35.4688 5.15625 37.5 7.8125 37.5H18.5937H31.25H42.1875C44.8438 37.5 46.875 35.4688 46.875 32.8125V9.375C46.875 6.71875 44.8438 4.6875 42.1875 4.6875ZM39.0625 23.4375H31.25C30.7812 23.4375 30.3125 23.125 30 22.8125L28.5937 20.625L26.5625 25.625C26.25 26.0938 25.625 26.5625 25 26.5625C24.375 26.5625 23.9062 26.25 23.5938 25.625L21.4062 21.25L19.8438 22.8125C19.5312 23.2812 19.2188 23.4375 18.75 23.4375H10.9375C10 23.4375 9.375 22.8125 9.375 21.875C9.375 20.9375 10 20.3125 10.9375 20.3125H18.125L20.7812 17.6562C21.0938 17.3438 21.7188 17.1875 22.1875 17.1875C22.6562 17.3438 23.125 17.6562 23.2812 17.9688L24.8438 21.0938L26.7188 16.5625C26.875 16.0938 27.5 15.625 27.9688 15.625C28.5938 15.625 29.0625 15.7812 29.375 16.25L32.0312 20.3125H39.0625C40 20.3125 40.625 20.9375 40.625 21.875C40.625 22.8125 40 23.4375 39.0625 23.4375Z" fill="121212"/>
</svg>
