<svg width="50" height="50" viewBox="0 0 50 50" fill="121212" xmlns="http://www.w3.org/2000/svg">
<path fill-rule="evenodd" clip-rule="evenodd" d="M29.3277 20.4124L40.271 39.3666C41.1707 40.925 41.1707 42.8056 40.271 44.364C39.3713 45.9224 37.7426 46.8626 35.9432 46.8626H14.0567C12.2573 46.8626 10.6286 45.9223 9.7289 44.364C8.8292 42.8057 8.8292 40.925 9.7289 39.3666L20.6722 20.4124C21.5719 18.854 23.2006 17.9137 25 17.9137C26.7994 17.9137 28.428 18.8541 29.3277 20.4124ZM35.3616 19.7409L39.6119 14.735C39.7825 14.5341 39.6401 14.2265 39.3766 14.2265H37.3272V4.65376H32.9254V14.2264H30.876C30.6125 14.2264 30.47 14.534 30.6406 14.7349L34.8909 19.7408C35.0144 19.8862 35.2385 19.8861 35.3616 19.7409ZM17.3164 18.2245L21.5667 13.2186C21.7373 13.0177 21.5949 12.7101 21.3313 12.7101H19.282V3.13745H14.8802V12.7101H12.8308C12.5672 12.7101 12.4248 13.0177 12.5954 13.2186L16.8457 18.2245C16.9689 18.3698 17.1931 18.3697 17.3164 18.2245ZM6.35771 35.2899L10.608 30.2839C10.7786 30.0831 10.6362 29.7754 10.3727 29.7754H8.32334V17.7833H3.92148V29.7754H1.87207C1.60849 29.7754 1.46611 30.0831 1.63672 30.2839L5.88701 35.2899C6.01035 35.4352 6.23437 35.4351 6.35771 35.2899ZM44.113 33.5824L48.3633 28.5764C48.5339 28.3755 48.3915 28.0679 48.1279 28.0679H46.0786V16.0757H41.6768V28.068H39.6273C39.3638 28.068 39.2214 28.3756 39.392 28.5765L43.6423 33.5825C43.7656 33.7277 43.9896 33.7276 44.113 33.5824ZM25 39.8866C24.0743 39.8866 23.324 40.637 23.324 41.5625C23.324 42.4881 24.0744 43.2385 25 43.2385C25.9256 43.2385 26.676 42.4882 26.676 41.5625C26.676 40.637 25.9256 39.8866 25 39.8866ZM25 36.8948C25.704 36.8948 26.2819 36.3373 26.3073 35.6337L26.6381 26.4759C26.6649 25.7306 26.0766 25.1205 25.3307 25.1205C24.8631 25.1205 25.1367 25.1205 24.6692 25.1205C23.9234 25.1205 23.335 25.7306 23.3618 26.4759L23.6926 35.6337C23.718 36.3374 24.296 36.8948 25 36.8948Z" fill="121212"/>
</svg>
