<svg width="50" height="50" viewBox="0 0 50 50" fill="121212" xmlns="http://www.w3.org/2000/svg">
<path d="M16.666 18.5417C16.041 18.5417 15.6244 18.3334 15.2077 17.9167L4.79102 7.70842C3.95768 6.87508 3.95768 5.62508 4.79102 4.79175C5.62435 3.95841 6.87435 3.95841 7.70768 4.79175L18.1243 15.0001C18.9577 15.8334 18.9577 17.0834 18.1243 17.9167C17.7077 18.5417 17.291 18.5417 16.666 18.5417Z" fill="121212"/>
<path d="M6.24935 45.8333C5.62435 45.8333 5.20768 45.625 4.79102 45.2083C3.95768 44.375 3.95768 43.125 4.79102 42.2917L15.2077 31.875C16.041 31.0417 17.291 31.0417 18.1243 31.875C18.9577 32.7083 18.9577 33.9583 18.1243 34.7917L7.70768 45.2083C7.29102 45.625 6.87435 45.8333 6.24935 45.8333Z" fill="121212"/>
<path d="M43.7487 45.8333C43.1237 45.8333 42.707 45.625 42.2904 45.2083L32.082 34.7917C31.2487 33.9583 31.2487 32.7083 32.082 31.875C32.9154 31.0417 34.1654 31.0417 34.9987 31.875L45.207 42.2917C46.0404 43.125 46.0404 44.375 45.207 45.2083C44.7904 45.625 44.3737 45.8333 43.7487 45.8333Z" fill="121212"/>
<path d="M33.3333 18.5417C32.7083 18.5417 32.2917 18.3334 31.875 17.9167C31.0417 17.0834 31.0417 15.8334 31.875 15.0001L42.2917 4.79175C43.125 3.95841 44.375 3.95841 45.2083 4.79175C46.0417 5.62508 46.0417 6.87508 45.2083 7.70842L34.7917 17.9167C34.375 18.5417 33.9583 18.5417 33.3333 18.5417Z" fill="121212"/>
<path d="M43.7493 17.7084C42.4993 17.7084 41.666 16.8751 41.666 15.6251V8.33342H34.3743C33.1243 8.33342 32.291 7.50008 32.291 6.25008C32.291 5.00008 33.1243 4.16675 34.3743 4.16675H43.7493C44.9993 4.16675 45.8327 5.00008 45.8327 6.25008V15.6251C45.8327 16.8751 44.9993 17.7084 43.7493 17.7084Z" fill="121212"/>
<path d="M43.7493 45.8334H34.3743C33.1243 45.8334 32.291 45.0001 32.291 43.7501C32.291 42.5001 33.1243 41.6667 34.3743 41.6667H41.666V34.3751C41.666 33.1251 42.4993 32.2917 43.7493 32.2917C44.9993 32.2917 45.8327 33.1251 45.8327 34.3751V43.7501C45.8327 45.0001 44.9993 45.8334 43.7493 45.8334Z" fill="121212"/>
<path d="M15.6243 45.8334H6.24935C4.99935 45.8334 4.16602 45.0001 4.16602 43.7501V34.3751C4.16602 33.1251 4.99935 32.2917 6.24935 32.2917C7.49935 32.2917 8.33268 33.1251 8.33268 34.3751V41.6667H15.6243C16.8743 41.6667 17.7077 42.5001 17.7077 43.7501C17.7077 45.0001 16.8743 45.8334 15.6243 45.8334Z" fill="121212"/>
<path d="M6.24935 17.7084C4.99935 17.7084 4.16602 16.8751 4.16602 15.6251V6.25008C4.16602 5.00008 4.99935 4.16675 6.24935 4.16675H15.6243C16.8743 4.16675 17.7077 5.00008 17.7077 6.25008C17.7077 7.50008 16.8743 8.33342 15.6243 8.33342H8.33268V15.6251C8.33268 16.8751 7.49935 17.7084 6.24935 17.7084Z" fill="121212"/>
</svg>
