<svg width="50" height="50" viewBox="0 0 50 50" fill="121212" xmlns="http://www.w3.org/2000/svg">
<g clip-path="url(#clip0_460_101)">
<path d="M48.8159 42.7659L37.3206 31.2697C39.2737 28.1602 40.4073 24.485 40.4073 20.5409C40.4073 9.38229 31.3614 0.337646 20.2032 0.337646C9.04507 0.337646 0 9.38229 0 20.5409C0 31.6999 9.04464 40.7437 20.2032 40.7437C24.4955 40.7437 28.4713 39.4017 31.7428 37.1215L43.1013 48.4809C43.8905 49.2693 44.9252 49.662 45.9586 49.662C46.9933 49.662 48.0267 49.2693 48.8172 48.4809C50.3944 46.902 50.3944 44.3444 48.8159 42.7659ZM20.2032 34.1981C12.6613 34.1981 6.54681 28.084 6.54681 20.5417C6.54681 12.9994 12.6613 6.88488 20.2032 6.88488C27.7456 6.88488 33.8596 12.9994 33.8596 20.5417C33.8596 28.084 27.7456 34.1981 20.2032 34.1981Z" fill="121212"/>
</g>
<defs>
<clipPath id="clip0_460_101">
<rect width="50" height="50" fill="121212"/>
</clipPath>
</defs>
</svg>
