<svg width="50" height="50" viewBox="0 0 50 50" fill="none" xmlns="http://www.w3.org/2000/svg">
<g clip-path="url(#clip0_454_2)">
<path d="M25 50C38.8036 50 50 38.8036 50 25C50 11.1964 38.8036 0 25 0C11.1964 0 0 11.1964 0 25C0 38.8036 11.1964 50 25 50ZM23.2142 10.7143C23.2142 9.73213 24.0178 8.92854 25 8.92854C25.9822 8.92854 26.7858 9.73213 26.7858 10.7143V24.1429L35.0447 30.75C35.8126 31.3661 35.9375 32.491 35.3214 33.2589C34.9732 33.6964 34.4554 33.9285 33.9285 33.9285C33.5357 33.9285 33.1428 33.8035 32.8125 33.5357L23.884 26.3929C23.4643 26.0536 23.2144 25.5447 23.2144 25V10.7143H23.2142Z" fill="white"/>
</g>
<defs>
<clipPath id="clip0_454_2">
<rect width="50" height="50" fill="white"/>
</clipPath>
</defs>
</svg>
