<svg width="50" height="50" viewBox="0 0 50 50" fill="121212" xmlns="http://www.w3.org/2000/svg">
<path d="M24.6074 50H20.7012C18.7626 50 17.1855 48.4229 17.1855 46.4844V22.2656C17.1855 20.3271 18.7626 18.75 20.7012 18.75H24.6074C26.546 18.75 28.123 20.3271 28.123 22.2656V46.4844C28.123 48.4229 26.5459 50 24.6074 50Z" fill="121212"/>
<path d="M9.76367 50H5.85742C3.91885 50 2.3418 48.4229 2.3418 46.4844V30.0781C2.3418 28.1396 3.91885 26.5625 5.85742 26.5625H9.76367C11.7022 26.5625 13.2793 28.1396 13.2793 30.0781V46.4844C13.2793 48.4229 11.7021 50 9.76367 50Z" fill="121212"/>
<path d="M39.4516 50H35.5454C33.6068 50 32.0298 48.423 32.0298 46.4844V14.0625H29.8833C28.8798 14.0625 27.9958 13.4961 27.5764 12.5844C27.1571 11.6727 27.3023 10.633 27.9554 9.871C27.9629 9.8623 27.9705 9.85361 27.9781 9.84512L36.3348 0.519727C36.6312 0.188965 37.0544 0 37.4985 0C37.9426 0 38.3657 0.188965 38.6622 0.519727L47.0189 9.84512C47.0266 9.85361 47.0342 9.8623 47.0416 9.871C47.6947 10.6329 47.8399 11.6727 47.4206 12.5844C47.0012 13.4961 46.1173 14.0625 45.1137 14.0625H42.9673V46.4844C42.9673 48.423 41.3901 50 39.4516 50Z" fill="121212"/>
</svg>
